<svg width="220" height="175" viewBox="0 0 220 175" fill="none" xmlns="http://www.w3.org/2000/svg">
<rect width="220" height="175" rx="5" fill="#B5BF00"/>
<line x1="82" y1="100.656" x2="139" y2="100.656" stroke="#FAFAFA"/>
<path d="M49.4024 125.225H47.7405L52.5473 112.135H54.1837L58.9905 125.225H57.3286L53.4166 114.206H53.3144L49.4024 125.225ZM50.0161 120.112H56.7149V121.518H50.0161V120.112ZM64.5324 125.43C63.7142 125.43 62.9919 125.223 62.3655 124.81C61.7391 124.392 61.249 123.804 60.8953 123.046C60.5416 122.283 60.3648 121.382 60.3648 120.342C60.3648 119.311 60.5416 118.416 60.8953 117.657C61.249 116.899 61.7412 116.313 62.3719 115.899C63.0026 115.486 63.7313 115.279 64.558 115.279C65.1972 115.279 65.7021 115.386 66.0729 115.599C66.4479 115.808 66.7334 116.046 66.9294 116.315C67.1297 116.579 67.2852 116.796 67.396 116.967H67.5239V112.135H69.0324V125.225H67.575V123.717H67.396C67.2852 123.896 67.1276 124.122 66.923 124.394C66.7185 124.663 66.4266 124.904 66.0473 125.117C65.6681 125.326 65.1631 125.43 64.5324 125.43ZM64.7369 124.075C65.3421 124.075 65.8534 123.917 66.271 123.602C66.6887 123.282 67.0061 122.841 67.2235 122.279C67.4408 121.712 67.5494 121.058 67.5494 120.316C67.5494 119.583 67.4429 118.942 67.2298 118.392C67.0168 117.838 66.7014 117.408 66.2838 117.101C65.8662 116.79 65.3506 116.635 64.7369 116.635C64.0977 116.635 63.5651 116.799 63.1389 117.127C62.7171 117.451 62.3996 117.892 62.1865 118.45C61.9777 119.004 61.8733 119.626 61.8733 120.316C61.8733 121.015 61.9798 121.65 62.1929 122.221C62.4102 122.788 62.7298 123.24 63.1517 123.576C63.5779 123.909 64.1063 124.075 64.7369 124.075ZM72.0047 125.225V115.407H73.4621V116.941H73.5899C73.7945 116.417 74.1247 116.01 74.5807 115.72C75.0367 115.426 75.5843 115.279 76.2235 115.279C76.8712 115.279 77.4102 115.426 77.8406 115.72C78.2753 116.01 78.6141 116.417 78.857 116.941H78.9593C79.2107 116.434 79.5878 116.032 80.0906 115.733C80.5935 115.431 81.1965 115.279 81.8996 115.279C82.7774 115.279 83.4955 115.554 84.0537 116.104C84.612 116.649 84.8911 117.5 84.8911 118.654V125.225H83.3825V118.654C83.3825 117.93 83.1844 117.412 82.7881 117.101C82.3918 116.79 81.9252 116.635 81.3882 116.635C80.6979 116.635 80.1631 116.843 79.7838 117.261C79.4046 117.674 79.2149 118.198 79.2149 118.833V125.225H77.6808V118.501C77.6808 117.943 77.4997 117.493 77.1375 117.152C76.7753 116.807 76.3087 116.635 75.7377 116.635C75.3456 116.635 74.9791 116.739 74.6382 116.948C74.3016 117.157 74.0289 117.446 73.82 117.817C73.6155 118.184 73.5132 118.608 73.5132 119.089V125.225H72.0047ZM87.6492 125.225V115.407H89.1578V125.225H87.6492ZM88.4163 113.771C88.1222 113.771 87.8687 113.671 87.6556 113.47C87.4468 113.27 87.3424 113.029 87.3424 112.748C87.3424 112.467 87.4468 112.226 87.6556 112.026C87.8687 111.826 88.1222 111.725 88.4163 111.725C88.7103 111.725 88.9617 111.826 89.1705 112.026C89.3836 112.226 89.4901 112.467 89.4901 112.748C89.4901 113.029 89.3836 113.27 89.1705 113.47C88.9617 113.671 88.7103 113.771 88.4163 113.771ZM93.4292 119.319V125.225H91.9207V115.407H93.3781V116.941H93.5059C93.7361 116.443 94.0855 116.042 94.5542 115.74C95.023 115.433 95.6281 115.279 96.3696 115.279C97.0344 115.279 97.616 115.416 98.1146 115.689C98.6132 115.957 99.001 116.366 99.278 116.916C99.555 117.461 99.6934 118.152 99.6934 118.987V125.225H98.1849V119.089C98.1849 118.318 97.9846 117.717 97.5841 117.287C97.1835 116.852 96.6338 116.635 95.9349 116.635C95.4534 116.635 95.023 116.739 94.6437 116.948C94.2687 117.157 93.9726 117.461 93.7552 117.862C93.5379 118.262 93.4292 118.748 93.4292 119.319ZM102.45 125.225V115.407H103.959V125.225H102.45ZM103.217 113.771C102.923 113.771 102.669 113.671 102.456 113.47C102.248 113.27 102.143 113.029 102.143 112.748C102.143 112.467 102.248 112.226 102.456 112.026C102.669 111.826 102.923 111.725 103.217 111.725C103.511 111.725 103.763 111.826 103.971 112.026C104.184 112.226 104.291 112.467 104.291 112.748C104.291 113.029 104.184 113.27 103.971 113.47C103.763 113.671 103.511 113.771 103.217 113.771ZM113.676 117.606L112.321 117.99C112.236 117.764 112.11 117.544 111.944 117.331C111.782 117.114 111.56 116.935 111.279 116.794C110.998 116.654 110.638 116.583 110.199 116.583C109.598 116.583 109.097 116.722 108.697 116.999C108.3 117.272 108.102 117.619 108.102 118.041C108.102 118.416 108.239 118.712 108.511 118.929C108.784 119.147 109.21 119.328 109.79 119.473L111.247 119.831C112.125 120.044 112.779 120.37 113.209 120.809C113.64 121.243 113.855 121.804 113.855 122.49C113.855 123.052 113.693 123.555 113.369 123.998C113.05 124.441 112.602 124.791 112.027 125.046C111.452 125.302 110.783 125.43 110.02 125.43C109.018 125.43 108.19 125.213 107.533 124.778C106.877 124.343 106.462 123.708 106.287 122.873L107.719 122.515C107.855 123.044 108.113 123.44 108.492 123.704C108.876 123.968 109.376 124.1 109.994 124.1C110.697 124.1 111.256 123.951 111.669 123.653C112.087 123.35 112.295 122.988 112.295 122.566C112.295 122.225 112.176 121.94 111.937 121.71C111.699 121.475 111.332 121.301 110.838 121.186L109.202 120.802C108.302 120.589 107.642 120.259 107.22 119.811C106.802 119.36 106.594 118.795 106.594 118.118C106.594 117.564 106.749 117.073 107.06 116.647C107.376 116.221 107.804 115.887 108.345 115.644C108.891 115.401 109.508 115.279 110.199 115.279C111.17 115.279 111.933 115.493 112.487 115.919C113.045 116.345 113.442 116.907 113.676 117.606ZM120.396 115.407V116.686H115.308V115.407H120.396ZM116.791 113.055H118.299V122.413C118.299 122.839 118.361 123.159 118.484 123.372C118.612 123.581 118.774 123.721 118.97 123.794C119.171 123.862 119.381 123.896 119.603 123.896C119.769 123.896 119.906 123.887 120.012 123.87C120.119 123.849 120.204 123.832 120.268 123.819L120.575 125.174C120.472 125.213 120.33 125.251 120.146 125.289C119.963 125.332 119.731 125.353 119.45 125.353C119.024 125.353 118.606 125.262 118.197 125.078C117.792 124.895 117.455 124.616 117.187 124.241C116.923 123.866 116.791 123.393 116.791 122.822V113.055ZM122.665 125.225V115.407H124.122V116.89H124.225C124.403 116.404 124.727 116.01 125.196 115.708C125.665 115.405 126.193 115.254 126.781 115.254C126.892 115.254 127.031 115.256 127.197 115.26C127.363 115.265 127.489 115.271 127.574 115.279V116.814C127.523 116.801 127.406 116.782 127.222 116.756C127.043 116.726 126.854 116.711 126.653 116.711C126.176 116.711 125.75 116.811 125.375 117.012C125.004 117.208 124.71 117.48 124.493 117.83C124.28 118.175 124.173 118.569 124.173 119.012V125.225H122.665ZM132.251 125.456C131.629 125.456 131.065 125.338 130.557 125.104C130.05 124.865 129.648 124.522 129.349 124.075C129.051 123.623 128.902 123.078 128.902 122.439C128.902 121.876 129.013 121.42 129.234 121.071C129.456 120.717 129.752 120.44 130.123 120.24C130.494 120.039 130.903 119.89 131.35 119.792C131.802 119.69 132.256 119.609 132.712 119.549C133.308 119.473 133.792 119.415 134.163 119.377C134.538 119.334 134.81 119.264 134.981 119.166C135.155 119.068 135.243 118.897 135.243 118.654V118.603C135.243 117.973 135.07 117.483 134.725 117.133C134.384 116.784 133.866 116.609 133.172 116.609C132.452 116.609 131.887 116.767 131.478 117.082C131.069 117.397 130.781 117.734 130.615 118.092L129.183 117.581C129.439 116.984 129.78 116.519 130.206 116.187C130.636 115.85 131.105 115.616 131.612 115.484C132.123 115.348 132.626 115.279 133.121 115.279C133.436 115.279 133.798 115.318 134.207 115.394C134.621 115.467 135.019 115.618 135.403 115.848C135.79 116.078 136.112 116.426 136.368 116.89C136.623 117.355 136.751 117.977 136.751 118.757V125.225H135.243V123.896H135.166C135.064 124.109 134.893 124.337 134.655 124.58C134.416 124.823 134.099 125.029 133.702 125.2C133.306 125.37 132.822 125.456 132.251 125.456ZM132.481 124.1C133.078 124.1 133.581 123.983 133.99 123.749C134.403 123.515 134.714 123.212 134.923 122.841C135.136 122.47 135.243 122.081 135.243 121.671V120.291C135.179 120.368 135.038 120.438 134.821 120.502C134.608 120.561 134.361 120.615 134.079 120.662C133.802 120.704 133.532 120.743 133.268 120.777C133.008 120.806 132.797 120.832 132.635 120.853C132.243 120.904 131.876 120.988 131.535 121.103C131.199 121.213 130.926 121.382 130.717 121.608C130.513 121.829 130.41 122.132 130.41 122.515C130.41 123.039 130.604 123.436 130.992 123.704C131.384 123.968 131.881 124.1 132.481 124.1ZM143.493 125.43C142.573 125.43 141.78 125.213 141.116 124.778C140.451 124.343 139.939 123.745 139.581 122.982C139.223 122.219 139.044 121.348 139.044 120.368C139.044 119.37 139.228 118.49 139.594 117.728C139.965 116.961 140.481 116.362 141.141 115.931C141.806 115.497 142.581 115.279 143.468 115.279C144.158 115.279 144.78 115.407 145.334 115.663C145.888 115.919 146.342 116.277 146.696 116.737C147.049 117.197 147.269 117.734 147.354 118.348H145.846C145.731 117.9 145.475 117.504 145.079 117.159C144.687 116.809 144.158 116.635 143.493 116.635C142.905 116.635 142.39 116.788 141.946 117.095C141.508 117.397 141.165 117.826 140.917 118.38C140.674 118.929 140.553 119.575 140.553 120.316C140.553 121.075 140.672 121.735 140.911 122.298C141.154 122.86 141.495 123.297 141.934 123.608C142.377 123.919 142.897 124.075 143.493 124.075C143.885 124.075 144.241 124.007 144.561 123.87C144.88 123.734 145.151 123.538 145.373 123.282C145.594 123.027 145.752 122.72 145.846 122.362H147.354C147.269 122.941 147.058 123.463 146.721 123.928C146.389 124.388 145.948 124.755 145.398 125.027C144.853 125.296 144.218 125.43 143.493 125.43ZM149.559 125.225V115.407H151.068V125.225H149.559ZM150.326 113.771C150.032 113.771 149.779 113.671 149.566 113.47C149.357 113.27 149.253 113.029 149.253 112.748C149.253 112.467 149.357 112.226 149.566 112.026C149.779 111.826 150.032 111.725 150.326 111.725C150.62 111.725 150.872 111.826 151.081 112.026C151.294 112.226 151.4 112.467 151.4 112.748C151.4 113.029 151.294 113.27 151.081 113.47C150.872 113.671 150.62 113.771 150.326 113.771ZM157.82 125.43C156.933 125.43 156.155 125.219 155.486 124.797C154.822 124.375 154.302 123.785 153.927 123.027C153.556 122.268 153.371 121.382 153.371 120.368C153.371 119.345 153.556 118.452 153.927 117.689C154.302 116.926 154.822 116.334 155.486 115.912C156.155 115.49 156.933 115.279 157.82 115.279C158.706 115.279 159.481 115.49 160.146 115.912C160.815 116.334 161.335 116.926 161.706 117.689C162.081 118.452 162.268 119.345 162.268 120.368C162.268 121.382 162.081 122.268 161.706 123.027C161.335 123.785 160.815 124.375 160.146 124.797C159.481 125.219 158.706 125.43 157.82 125.43ZM157.82 124.075C158.493 124.075 159.047 123.902 159.481 123.557C159.916 123.212 160.238 122.758 160.447 122.196C160.655 121.633 160.76 121.024 160.76 120.368C160.76 119.711 160.655 119.1 160.447 118.533C160.238 117.966 159.916 117.508 159.481 117.159C159.047 116.809 158.493 116.635 157.82 116.635C157.146 116.635 156.592 116.809 156.158 117.159C155.723 117.508 155.401 117.966 155.192 118.533C154.984 119.1 154.879 119.711 154.879 120.368C154.879 121.024 154.984 121.633 155.192 122.196C155.401 122.758 155.723 123.212 156.158 123.557C156.592 123.902 157.146 124.075 157.82 124.075ZM157.129 114.078L158.689 111.112H160.453L158.459 114.078H157.129ZM166.08 119.319V125.225H164.571V115.407H166.028V116.941H166.156C166.386 116.443 166.736 116.042 167.205 115.74C167.673 115.433 168.278 115.279 169.02 115.279C169.685 115.279 170.266 115.416 170.765 115.689C171.264 115.957 171.651 116.366 171.928 116.916C172.205 117.461 172.344 118.152 172.344 118.987V125.225H170.835V119.089C170.835 118.318 170.635 117.717 170.234 117.287C169.834 116.852 169.284 116.635 168.585 116.635C168.104 116.635 167.673 116.739 167.294 116.948C166.919 117.157 166.623 117.461 166.406 117.862C166.188 118.262 166.08 118.748 166.08 119.319ZM57.5451 147.43C56.7269 147.43 56.0046 147.223 55.3782 146.81C54.7518 146.392 54.2617 145.804 53.908 145.046C53.5543 144.283 53.3775 143.382 53.3775 142.342C53.3775 141.311 53.5543 140.416 53.908 139.657C54.2617 138.899 54.7539 138.313 55.3846 137.899C56.0153 137.486 56.744 137.279 57.5707 137.279C58.2099 137.279 58.7148 137.386 59.0856 137.599C59.4606 137.808 59.7461 138.046 59.9421 138.315C60.1424 138.579 60.2979 138.796 60.4087 138.967H60.5366V134.135H62.0451V147.225H60.5877V145.717H60.4087C60.2979 145.896 60.1403 146.122 59.9357 146.394C59.7312 146.663 59.4393 146.904 59.06 147.117C58.6808 147.326 58.1758 147.43 57.5451 147.43ZM57.7496 146.075C58.3548 146.075 58.8661 145.917 59.2837 145.602C59.7013 145.282 60.0188 144.841 60.2362 144.279C60.4535 143.712 60.5621 143.058 60.5621 142.316C60.5621 141.583 60.4556 140.942 60.2425 140.392C60.0295 139.838 59.7141 139.408 59.2965 139.101C58.8789 138.79 58.3633 138.635 57.7496 138.635C57.1104 138.635 56.5778 138.799 56.1516 139.127C55.7298 139.451 55.4123 139.892 55.1992 140.45C54.9904 141.004 54.886 141.626 54.886 142.316C54.886 143.015 54.9925 143.65 55.2056 144.221C55.4229 144.788 55.7425 145.24 56.1644 145.576C56.5906 145.909 57.119 146.075 57.7496 146.075ZM69.1339 147.43C68.1879 147.43 67.3718 147.221 66.6857 146.804C66.0039 146.382 65.4776 145.794 65.1069 145.039C64.7404 144.281 64.5572 143.399 64.5572 142.393C64.5572 141.387 64.7404 140.501 65.1069 139.734C65.4776 138.963 65.9933 138.362 66.6538 137.931C67.3185 137.497 68.0941 137.279 68.9805 137.279C69.4918 137.279 69.9968 137.365 70.4954 137.535C70.994 137.706 71.4478 137.983 71.8569 138.366C72.266 138.745 72.592 139.248 72.8349 139.875C73.0778 140.501 73.1992 141.272 73.1992 142.189V142.828H65.631V141.524H71.6651C71.6651 140.97 71.5543 140.475 71.3327 140.041C71.1154 139.606 70.8043 139.263 70.3995 139.012C69.9989 138.76 69.5259 138.635 68.9805 138.635C68.3796 138.635 67.8597 138.784 67.4208 139.082C66.9862 139.376 66.6516 139.76 66.4173 140.233C66.1829 140.706 66.0657 141.213 66.0657 141.754V142.623C66.0657 143.365 66.1935 143.993 66.4492 144.509C66.7092 145.02 67.0692 145.41 67.5295 145.679C67.9897 145.943 68.5245 146.075 69.1339 146.075C69.5302 146.075 69.8881 146.019 70.2077 145.909C70.5316 145.794 70.8107 145.623 71.0451 145.397C71.2795 145.167 71.4606 144.882 71.5884 144.541L73.0458 144.95C72.8924 145.444 72.6346 145.879 72.2724 146.254C71.9102 146.625 71.4627 146.914 70.93 147.123C70.3974 147.328 69.7987 147.43 69.1339 147.43ZM87.511 139.606L86.1559 139.99C86.0707 139.764 85.945 139.544 85.7788 139.331C85.6168 139.114 85.3952 138.935 85.114 138.794C84.8327 138.654 84.4727 138.583 84.0337 138.583C83.4329 138.583 82.9322 138.722 82.5316 138.999C82.1353 139.272 81.9371 139.619 81.9371 140.041C81.9371 140.416 82.0735 140.712 82.3462 140.929C82.619 141.147 83.0451 141.328 83.6246 141.473L85.082 141.831C85.9599 142.044 86.614 142.37 87.0444 142.809C87.4748 143.243 87.69 143.804 87.69 144.49C87.69 145.052 87.5281 145.555 87.2042 145.998C86.8846 146.441 86.4371 146.791 85.8619 147.046C85.2866 147.302 84.6175 147.43 83.8548 147.43C82.8533 147.43 82.0245 147.213 81.3683 146.778C80.712 146.343 80.2965 145.708 80.1218 144.873L81.5536 144.515C81.69 145.044 81.9478 145.44 82.3271 145.704C82.7106 145.968 83.2113 146.1 83.8292 146.1C84.5323 146.1 85.0906 145.951 85.5039 145.653C85.9215 145.35 86.1303 144.988 86.1303 144.566C86.1303 144.225 86.011 143.94 85.7724 143.71C85.5337 143.475 85.1673 143.301 84.6729 143.186L83.0366 142.802C82.1374 142.589 81.4769 142.259 81.055 141.811C80.6374 141.36 80.4286 140.795 80.4286 140.118C80.4286 139.564 80.5842 139.073 80.8952 138.647C81.2106 138.221 81.6388 137.887 82.18 137.644C82.7255 137.401 83.3434 137.279 84.0337 137.279C85.0053 137.279 85.7681 137.493 86.3221 137.919C86.8803 138.345 87.2766 138.907 87.511 139.606ZM94.0772 147.43C93.1312 147.43 92.3152 147.221 91.6291 146.804C90.9473 146.382 90.421 145.794 90.0502 145.039C89.6838 144.281 89.5005 143.399 89.5005 142.393C89.5005 141.387 89.6838 140.501 90.0502 139.734C90.421 138.963 90.9366 138.362 91.5971 137.931C92.2619 137.497 93.0375 137.279 93.9238 137.279C94.4352 137.279 94.9402 137.365 95.4387 137.535C95.9373 137.706 96.3912 137.983 96.8002 138.366C97.2093 138.745 97.5353 139.248 97.7782 139.875C98.0211 140.501 98.1426 141.272 98.1426 142.189V142.828H90.5744V141.524H96.6085C96.6085 140.97 96.4977 140.475 96.2761 140.041C96.0588 139.606 95.7477 139.263 95.3429 139.012C94.9423 138.76 94.4693 138.635 93.9238 138.635C93.323 138.635 92.8031 138.784 92.3642 139.082C91.9295 139.376 91.595 139.76 91.3606 140.233C91.1262 140.706 91.0091 141.213 91.0091 141.754V142.623C91.0091 143.365 91.1369 143.993 91.3926 144.509C91.6525 145.02 92.0126 145.41 92.4728 145.679C92.9331 145.943 93.4679 146.075 94.0772 146.075C94.4735 146.075 94.8315 146.019 95.1511 145.909C95.475 145.794 95.7541 145.623 95.9885 145.397C96.2228 145.167 96.4039 144.882 96.5318 144.541L97.9892 144.95C97.8358 145.444 97.5779 145.879 97.2157 146.254C96.8535 146.625 96.4061 146.914 95.8734 147.123C95.3407 147.328 94.742 147.43 94.0772 147.43ZM100.437 147.225V137.407H101.895V138.89H101.997C102.176 138.404 102.5 138.01 102.969 137.708C103.437 137.405 103.966 137.254 104.554 137.254C104.665 137.254 104.803 137.256 104.969 137.26C105.135 137.265 105.261 137.271 105.346 137.279V138.814C105.295 138.801 105.178 138.782 104.995 138.756C104.816 138.726 104.626 138.711 104.426 138.711C103.949 138.711 103.523 138.811 103.148 139.012C102.777 139.208 102.483 139.48 102.265 139.83C102.052 140.175 101.946 140.569 101.946 141.012V147.225H100.437ZM115.462 137.407L111.831 147.225H110.297L106.666 137.407H108.303L111.013 145.231H111.115L113.825 137.407H115.462ZM117.453 147.225V137.407H118.961V147.225H117.453ZM118.22 135.771C117.926 135.771 117.672 135.671 117.459 135.47C117.251 135.27 117.146 135.029 117.146 134.748C117.146 134.467 117.251 134.226 117.459 134.026C117.672 133.826 117.926 133.725 118.22 133.725C118.514 133.725 118.765 133.826 118.974 134.026C119.187 134.226 119.294 134.467 119.294 134.748C119.294 135.029 119.187 135.27 118.974 135.47C118.765 135.671 118.514 135.771 118.22 135.771ZM125.432 147.43C124.614 147.43 123.891 147.223 123.265 146.81C122.638 146.392 122.148 145.804 121.795 145.046C121.441 144.283 121.264 143.382 121.264 142.342C121.264 141.311 121.441 140.416 121.795 139.657C122.148 138.899 122.641 138.313 123.271 137.899C123.902 137.486 124.631 137.279 125.457 137.279C126.097 137.279 126.602 137.386 126.972 137.599C127.347 137.808 127.633 138.046 127.829 138.315C128.029 138.579 128.185 138.796 128.295 138.967H128.423V134.135H129.932V147.225H128.474V145.717H128.295C128.185 145.896 128.027 146.122 127.822 146.394C127.618 146.663 127.326 146.904 126.947 147.117C126.567 147.326 126.063 147.43 125.432 147.43ZM125.636 146.075C126.241 146.075 126.753 145.917 127.17 145.602C127.588 145.282 127.906 144.841 128.123 144.279C128.34 143.712 128.449 143.058 128.449 142.316C128.449 141.583 128.342 140.942 128.129 140.392C127.916 139.838 127.601 139.408 127.183 139.101C126.766 138.79 126.25 138.635 125.636 138.635C124.997 138.635 124.464 138.799 124.038 139.127C123.616 139.451 123.299 139.892 123.086 140.45C122.877 141.004 122.773 141.626 122.773 142.316C122.773 143.015 122.879 143.65 123.092 144.221C123.31 144.788 123.629 145.24 124.051 145.576C124.477 145.909 125.006 146.075 125.636 146.075ZM136.893 147.43C136.006 147.43 135.229 147.219 134.56 146.797C133.895 146.375 133.375 145.785 133 145.027C132.629 144.268 132.444 143.382 132.444 142.368C132.444 141.345 132.629 140.452 133 139.689C133.375 138.926 133.895 138.334 134.56 137.912C135.229 137.49 136.006 137.279 136.893 137.279C137.779 137.279 138.555 137.49 139.219 137.912C139.888 138.334 140.408 138.926 140.779 139.689C141.154 140.452 141.342 141.345 141.342 142.368C141.342 143.382 141.154 144.268 140.779 145.027C140.408 145.785 139.888 146.375 139.219 146.797C138.555 147.219 137.779 147.43 136.893 147.43ZM136.893 146.075C137.566 146.075 138.12 145.902 138.555 145.557C138.989 145.212 139.311 144.758 139.52 144.196C139.729 143.633 139.833 143.024 139.833 142.368C139.833 141.711 139.729 141.1 139.52 140.533C139.311 139.966 138.989 139.508 138.555 139.159C138.12 138.809 137.566 138.635 136.893 138.635C136.219 138.635 135.665 138.809 135.231 139.159C134.796 139.508 134.474 139.966 134.266 140.533C134.057 141.1 133.952 141.711 133.952 142.368C133.952 143.024 134.057 143.633 134.266 144.196C134.474 144.758 134.796 145.212 135.231 145.557C135.665 145.902 136.219 146.075 136.893 146.075ZM143.644 147.225V137.407H145.102V138.89H145.204C145.383 138.404 145.707 138.01 146.176 137.708C146.644 137.405 147.173 137.254 147.761 137.254C147.872 137.254 148.01 137.256 148.176 137.26C148.343 137.265 148.468 137.271 148.553 137.279V138.814C148.502 138.801 148.385 138.782 148.202 138.756C148.023 138.726 147.833 138.711 147.633 138.711C147.156 138.711 146.73 138.811 146.355 139.012C145.984 139.208 145.69 139.48 145.472 139.83C145.259 140.175 145.153 140.569 145.153 141.012V147.225H143.644ZM154.159 147.43C153.213 147.43 152.397 147.221 151.711 146.804C151.029 146.382 150.503 145.794 150.132 145.039C149.766 144.281 149.583 143.399 149.583 142.393C149.583 141.387 149.766 140.501 150.132 139.734C150.503 138.963 151.019 138.362 151.679 137.931C152.344 137.497 153.119 137.279 154.006 137.279C154.517 137.279 155.022 137.365 155.521 137.535C156.019 137.706 156.473 137.983 156.882 138.366C157.291 138.745 157.617 139.248 157.86 139.875C158.103 140.501 158.225 141.272 158.225 142.189V142.828H150.656V141.524H156.691C156.691 140.97 156.58 140.475 156.358 140.041C156.141 139.606 155.83 139.263 155.425 139.012C155.024 138.76 154.551 138.635 154.006 138.635C153.405 138.635 152.885 138.784 152.446 139.082C152.012 139.376 151.677 139.76 151.443 140.233C151.208 140.706 151.091 141.213 151.091 141.754V142.623C151.091 143.365 151.219 143.993 151.475 144.509C151.735 145.02 152.095 145.41 152.555 145.679C153.015 145.943 153.55 146.075 154.159 146.075C154.556 146.075 154.914 146.019 155.233 145.909C155.557 145.794 155.836 145.623 156.07 145.397C156.305 145.167 156.486 144.882 156.614 144.541L158.071 144.95C157.918 145.444 157.66 145.879 157.298 146.254C156.936 146.625 156.488 146.914 155.955 147.123C155.423 147.328 154.824 147.43 154.159 147.43ZM167.474 139.606L166.119 139.99C166.034 139.764 165.908 139.544 165.742 139.331C165.58 139.114 165.358 138.935 165.077 138.794C164.796 138.654 164.436 138.583 163.997 138.583C163.396 138.583 162.895 138.722 162.494 138.999C162.098 139.272 161.9 139.619 161.9 140.041C161.9 140.416 162.036 140.712 162.309 140.929C162.582 141.147 163.008 141.328 163.588 141.473L165.045 141.831C165.923 142.044 166.577 142.37 167.007 142.809C167.438 143.243 167.653 143.804 167.653 144.49C167.653 145.052 167.491 145.555 167.167 145.998C166.847 146.441 166.4 146.791 165.825 147.046C165.249 147.302 164.58 147.43 163.818 147.43C162.816 147.43 161.987 147.213 161.331 146.778C160.675 146.343 160.259 145.708 160.085 144.873L161.517 144.515C161.653 145.044 161.911 145.44 162.29 145.704C162.673 145.968 163.174 146.1 163.792 146.1C164.495 146.1 165.053 145.951 165.467 145.653C165.884 145.35 166.093 144.988 166.093 144.566C166.093 144.225 165.974 143.94 165.735 143.71C165.497 143.475 165.13 143.301 164.636 143.186L162.999 142.802C162.1 142.589 161.44 142.259 161.018 141.811C160.6 141.36 160.392 140.795 160.392 140.118C160.392 139.564 160.547 139.073 160.858 138.647C161.173 138.221 161.602 137.887 162.143 137.644C162.688 137.401 163.306 137.279 163.997 137.279C164.968 137.279 165.731 137.493 166.285 137.919C166.843 138.345 167.24 138.907 167.474 139.606Z" fill="#FAFAFA"/>
<path d="M83.4167 77.75C83.4167 75.2261 83.4167 73.9643 83.8291 72.9687C84.3788 71.6416 85.4333 70.587 86.7605 70.0372C87.756 69.625 89.0179 69.625 91.5417 69.625H129.458C131.982 69.625 133.244 69.625 134.24 70.0372C135.567 70.587 136.621 71.6416 137.171 72.9687C137.583 73.9643 137.583 75.2261 137.583 77.75C137.583 80.2739 137.583 81.5357 137.171 82.5313C136.621 83.8584 135.567 84.913 134.24 85.4628C133.244 85.875 131.982 85.875 129.458 85.875H91.5417C89.0179 85.875 87.756 85.875 86.7605 85.4628C85.4333 84.913 84.3788 83.8584 83.8291 82.5313C83.4167 81.5357 83.4167 80.2739 83.4167 77.75Z" stroke="#FAFAFA" stroke-width="2.4"/>
<path d="M83.4167 61.5C83.4167 58.9761 83.4167 57.7143 83.8291 56.7187C84.3788 55.3916 85.4333 54.3371 86.7605 53.7873C87.756 53.375 89.0179 53.375 91.5417 53.375H129.458C131.982 53.375 133.244 53.375 134.24 53.7873C135.567 54.3371 136.621 55.3916 137.171 56.7187C137.583 57.7143 137.583 58.9761 137.583 61.5C137.583 64.0239 137.583 65.2857 137.171 66.2813C136.621 67.6084 135.567 68.663 134.24 69.2128C133.244 69.625 131.982 69.625 129.458 69.625H91.5417C89.0179 69.625 87.756 69.625 86.7605 69.2128C85.4333 68.663 84.3788 67.6084 83.8291 66.2813C83.4167 65.2857 83.4167 64.0239 83.4167 61.5Z" stroke="#FAFAFA" stroke-width="2.4"/>
<path d="M83.4167 45.25C83.4167 42.7262 83.4167 41.4642 83.8291 40.4688C84.3788 39.1416 85.4333 38.0871 86.7605 37.5373C87.756 37.125 89.0179 37.125 91.5417 37.125H129.458C131.982 37.125 133.244 37.125 134.24 37.5373C135.567 38.0871 136.621 39.1416 137.171 40.4688C137.583 41.4642 137.583 42.7262 137.583 45.25C137.583 47.7738 137.583 49.0358 137.171 50.0312C136.621 51.3584 135.567 52.4129 134.24 52.9627C133.244 53.375 131.982 53.375 129.458 53.375H91.5417C89.0179 53.375 87.756 53.375 86.7605 52.9627C85.4333 52.4129 84.3788 51.3584 83.8291 50.0312C83.4167 49.0358 83.4167 47.7738 83.4167 45.25Z" stroke="#FAFAFA" stroke-width="2.4"/>
<path d="M91.5418 64.2084C93.0376 64.2084 94.2502 62.9958 94.2502 61.5C94.2502 60.0042 93.0376 58.7917 91.5418 58.7917C90.0461 58.7917 88.8335 60.0042 88.8335 61.5C88.8335 62.9958 90.0461 64.2084 91.5418 64.2084Z" fill="#FAFAFA"/>
<path d="M91.5418 47.9584C93.0376 47.9584 94.2502 46.7458 94.2502 45.25C94.2502 43.7542 93.0376 42.5417 91.5418 42.5417C90.0461 42.5417 88.8335 43.7542 88.8335 45.25C88.8335 46.7458 90.0461 47.9584 91.5418 47.9584Z" fill="#FAFAFA"/>
<path d="M91.5418 80.4584C93.0376 80.4584 94.2502 79.2458 94.2502 77.75C94.2502 76.2542 93.0376 75.0417 91.5418 75.0417C90.0461 75.0417 88.8335 76.2542 88.8335 77.75C88.8335 79.2458 90.0461 80.4584 91.5418 80.4584Z" fill="#FAFAFA"/>
</svg>
