<svg width="220" height="175" viewBox="0 0 220 175" fill="none" xmlns="http://www.w3.org/2000/svg">
<rect width="220" height="175" rx="5" fill="#B5BF00"/>
<line x1="82" y1="100.656" x2="139" y2="100.656" stroke="#FAFAFA"/>
<path d="M58.9474 125.225H57.2854L62.0922 112.135H63.7286L68.5354 125.225H66.8735L62.9616 114.206H62.8593L58.9474 125.225ZM59.561 120.112H66.2599V121.518H59.561V120.112ZM70.3699 128.907V115.407H71.8273V116.967H72.0063C72.1171 116.796 72.2705 116.579 72.4665 116.315C72.6668 116.046 72.9523 115.808 73.3231 115.599C73.6981 115.386 74.2052 115.279 74.8444 115.279C75.6711 115.279 76.3998 115.486 77.0305 115.899C77.6611 116.313 78.1533 116.899 78.507 117.657C78.8607 118.416 79.0376 119.311 79.0376 120.342C79.0376 121.382 78.8607 122.283 78.507 123.046C78.1533 123.804 77.6633 124.392 77.0368 124.81C76.4104 125.223 75.6881 125.43 74.8699 125.43C74.2393 125.43 73.7343 125.326 73.355 125.117C72.9758 124.904 72.6839 124.663 72.4793 124.394C72.2748 124.122 72.1171 123.896 72.0063 123.717H71.8785V128.907H70.3699ZM71.8529 120.316C71.8529 121.058 71.9616 121.712 72.1789 122.279C72.3962 122.841 72.7137 123.282 73.1313 123.602C73.5489 123.917 74.0603 124.075 74.6654 124.075C75.2961 124.075 75.8224 123.909 76.2442 123.576C76.6704 123.24 76.99 122.788 77.203 122.221C77.4204 121.65 77.529 121.015 77.529 120.316C77.529 119.626 77.4225 119.004 77.2094 118.45C77.0006 117.892 76.6832 117.451 76.257 117.127C75.8351 116.799 75.3046 116.635 74.6654 116.635C74.0518 116.635 73.5361 116.79 73.1185 117.101C72.7009 117.408 72.3856 117.838 72.1725 118.392C71.9594 118.942 71.8529 119.583 71.8529 120.316ZM82.8472 112.135V125.225H81.3387V112.135H82.8472ZM85.6102 125.225V115.407H87.1187V125.225H85.6102ZM86.3772 113.771C86.0832 113.771 85.8296 113.671 85.6166 113.47C85.4078 113.27 85.3034 113.029 85.3034 112.748C85.3034 112.467 85.4078 112.226 85.6166 112.026C85.8296 111.826 86.0832 111.725 86.3772 111.725C86.6713 111.725 86.9227 111.826 87.1315 112.026C87.3445 112.226 87.4511 112.467 87.4511 112.748C87.4511 113.029 87.3445 113.27 87.1315 113.47C86.9227 113.671 86.6713 113.771 86.3772 113.771ZM93.8703 125.43C92.9498 125.43 92.1572 125.213 91.4925 124.778C90.8277 124.343 90.3163 123.745 89.9584 122.982C89.6004 122.219 89.4214 121.348 89.4214 120.368C89.4214 119.37 89.6047 118.49 89.9711 117.728C90.3419 116.961 90.8575 116.362 91.518 115.931C92.1828 115.497 92.9584 115.279 93.8447 115.279C94.5351 115.279 95.1572 115.407 95.7112 115.663C96.2652 115.919 96.719 116.277 97.0727 116.737C97.4264 117.197 97.6459 117.734 97.7311 118.348H96.2226C96.1075 117.9 95.8518 117.504 95.4555 117.159C95.0635 116.809 94.5351 116.635 93.8703 116.635C93.2822 116.635 92.7666 116.788 92.3234 117.095C91.8845 117.397 91.5415 117.826 91.2943 118.38C91.0514 118.929 90.93 119.575 90.93 120.316C90.93 121.075 91.0493 121.735 91.2879 122.298C91.5308 122.86 91.8717 123.297 92.3106 123.608C92.7538 123.919 93.2737 124.075 93.8703 124.075C94.2623 124.075 94.6182 124.007 94.9378 123.87C95.2574 123.734 95.528 123.538 95.7496 123.282C95.9711 123.027 96.1288 122.72 96.2226 122.362H97.7311C97.6459 122.941 97.4349 123.463 97.0983 123.928C96.7659 124.388 96.3248 124.755 95.7751 125.027C95.2297 125.296 94.5947 125.43 93.8703 125.43ZM102.826 125.456C102.203 125.456 101.639 125.338 101.132 125.104C100.625 124.865 100.222 124.522 99.9236 124.075C99.6253 123.623 99.4761 123.078 99.4761 122.439C99.4761 121.876 99.5869 121.42 99.8085 121.071C100.03 120.717 100.326 120.44 100.697 120.24C101.068 120.039 101.477 119.89 101.924 119.792C102.376 119.69 102.83 119.609 103.286 119.549C103.882 119.473 104.366 119.415 104.737 119.377C105.112 119.334 105.384 119.264 105.555 119.166C105.73 119.068 105.817 118.897 105.817 118.654V118.603C105.817 117.973 105.644 117.483 105.299 117.133C104.958 116.784 104.441 116.609 103.746 116.609C103.026 116.609 102.461 116.767 102.052 117.082C101.643 117.397 101.355 117.734 101.189 118.092L99.7574 117.581C100.013 116.984 100.354 116.519 100.78 116.187C101.21 115.85 101.679 115.616 102.186 115.484C102.698 115.348 103.201 115.279 103.695 115.279C104.01 115.279 104.372 115.318 104.782 115.394C105.195 115.467 105.593 115.618 105.977 115.848C106.365 116.078 106.686 116.426 106.942 116.89C107.198 117.355 107.326 117.977 107.326 118.757V125.225H105.817V123.896H105.74C105.638 124.109 105.468 124.337 105.229 124.58C104.99 124.823 104.673 125.029 104.277 125.2C103.88 125.37 103.397 125.456 102.826 125.456ZM103.056 124.1C103.652 124.1 104.155 123.983 104.564 123.749C104.978 123.515 105.289 123.212 105.497 122.841C105.71 122.47 105.817 122.081 105.817 121.671V120.291C105.753 120.368 105.612 120.438 105.395 120.502C105.182 120.561 104.935 120.615 104.654 120.662C104.377 120.704 104.106 120.743 103.842 120.777C103.582 120.806 103.371 120.832 103.209 120.853C102.817 120.904 102.451 120.988 102.11 121.103C101.773 121.213 101.5 121.382 101.291 121.608C101.087 121.829 100.985 122.132 100.985 122.515C100.985 123.039 101.179 123.436 101.566 123.704C101.958 123.968 102.455 124.1 103.056 124.1ZM114.068 125.43C113.147 125.43 112.354 125.213 111.69 124.778C111.025 124.343 110.514 123.745 110.156 122.982C109.798 122.219 109.619 121.348 109.619 120.368C109.619 119.37 109.802 118.49 110.168 117.728C110.539 116.961 111.055 116.362 111.715 115.931C112.38 115.497 113.156 115.279 114.042 115.279C114.732 115.279 115.354 115.407 115.908 115.663C116.462 115.919 116.916 116.277 117.27 116.737C117.624 117.197 117.843 117.734 117.928 118.348H116.42C116.305 117.9 116.049 117.504 115.653 117.159C115.261 116.809 114.732 116.635 114.068 116.635C113.479 116.635 112.964 116.788 112.521 117.095C112.082 117.397 111.739 117.826 111.492 118.38C111.249 118.929 111.127 119.575 111.127 120.316C111.127 121.075 111.247 121.735 111.485 122.298C111.728 122.86 112.069 123.297 112.508 123.608C112.951 123.919 113.471 124.075 114.068 124.075C114.46 124.075 114.815 124.007 115.135 123.87C115.455 123.734 115.725 123.538 115.947 123.282C116.168 123.027 116.326 122.72 116.42 122.362H117.928C117.843 122.941 117.632 123.463 117.296 123.928C116.963 124.388 116.522 124.755 115.972 125.027C115.427 125.296 114.792 125.43 114.068 125.43ZM120.134 125.225V115.407H121.642V125.225H120.134ZM120.901 113.771C120.607 113.771 120.353 113.671 120.14 113.47C119.931 113.27 119.827 113.029 119.827 112.748C119.827 112.467 119.931 112.226 120.14 112.026C120.353 111.826 120.607 111.725 120.901 111.725C121.195 111.725 121.446 111.826 121.655 112.026C121.868 112.226 121.975 112.467 121.975 112.748C121.975 113.029 121.868 113.27 121.655 113.47C121.446 113.671 121.195 113.771 120.901 113.771ZM128.394 125.43C127.507 125.43 126.73 125.219 126.061 124.797C125.396 124.375 124.876 123.785 124.501 123.027C124.13 122.268 123.945 121.382 123.945 120.368C123.945 119.345 124.13 118.452 124.501 117.689C124.876 116.926 125.396 116.334 126.061 115.912C126.73 115.49 127.507 115.279 128.394 115.279C129.28 115.279 130.056 115.49 130.72 115.912C131.389 116.334 131.909 116.926 132.28 117.689C132.655 118.452 132.843 119.345 132.843 120.368C132.843 121.382 132.655 122.268 132.28 123.027C131.909 123.785 131.389 124.375 130.72 124.797C130.056 125.219 129.28 125.43 128.394 125.43ZM128.394 124.075C129.067 124.075 129.621 123.902 130.056 123.557C130.49 123.212 130.812 122.758 131.021 122.196C131.23 121.633 131.334 121.024 131.334 120.368C131.334 119.711 131.23 119.1 131.021 118.533C130.812 117.966 130.49 117.508 130.056 117.159C129.621 116.809 129.067 116.635 128.394 116.635C127.72 116.635 127.166 116.809 126.732 117.159C126.297 117.508 125.975 117.966 125.767 118.533C125.558 119.1 125.453 119.711 125.453 120.368C125.453 121.024 125.558 121.633 125.767 122.196C125.975 122.758 126.297 123.212 126.732 123.557C127.166 123.902 127.72 124.075 128.394 124.075ZM136.654 119.319V125.225H135.145V115.407H136.603V116.941H136.731C136.961 116.443 137.31 116.042 137.779 115.74C138.248 115.433 138.853 115.279 139.594 115.279C140.259 115.279 140.841 115.416 141.339 115.689C141.838 115.957 142.226 116.366 142.503 116.916C142.78 117.461 142.918 118.152 142.918 118.987V125.225H141.41V119.089C141.41 118.318 141.209 117.717 140.809 117.287C140.408 116.852 139.858 116.635 139.16 116.635C138.678 116.635 138.248 116.739 137.868 116.948C137.493 117.157 137.197 117.461 136.98 117.862C136.763 118.262 136.654 118.748 136.654 119.319ZM149.791 125.43C148.845 125.43 148.029 125.221 147.343 124.804C146.661 124.382 146.135 123.794 145.764 123.039C145.398 122.281 145.214 121.399 145.214 120.393C145.214 119.387 145.398 118.501 145.764 117.734C146.135 116.963 146.65 116.362 147.311 115.931C147.976 115.497 148.751 115.279 149.638 115.279C150.149 115.279 150.654 115.365 151.153 115.535C151.651 115.706 152.105 115.983 152.514 116.366C152.923 116.745 153.249 117.248 153.492 117.875C153.735 118.501 153.856 119.272 153.856 120.189V120.828H146.288V119.524H152.322C152.322 118.97 152.212 118.475 151.99 118.041C151.773 117.606 151.462 117.263 151.057 117.012C150.656 116.76 150.183 116.635 149.638 116.635C149.037 116.635 148.517 116.784 148.078 117.082C147.643 117.376 147.309 117.76 147.074 118.233C146.84 118.706 146.723 119.213 146.723 119.754V120.623C146.723 121.365 146.851 121.993 147.106 122.509C147.366 123.02 147.726 123.41 148.187 123.679C148.647 123.943 149.182 124.075 149.791 124.075C150.187 124.075 150.545 124.019 150.865 123.909C151.189 123.794 151.468 123.623 151.702 123.397C151.937 123.167 152.118 122.882 152.246 122.541L153.703 122.95C153.55 123.444 153.292 123.879 152.93 124.254C152.567 124.625 152.12 124.914 151.587 125.123C151.055 125.328 150.456 125.43 149.791 125.43ZM163.106 117.606L161.751 117.99C161.665 117.764 161.54 117.544 161.373 117.331C161.212 117.114 160.99 116.935 160.709 116.794C160.427 116.654 160.067 116.583 159.628 116.583C159.028 116.583 158.527 116.722 158.126 116.999C157.73 117.272 157.532 117.619 157.532 118.041C157.532 118.416 157.668 118.712 157.941 118.929C158.214 119.147 158.64 119.328 159.219 119.473L160.677 119.831C161.555 120.044 162.209 120.37 162.639 120.809C163.07 121.243 163.285 121.804 163.285 122.49C163.285 123.052 163.123 123.555 162.799 123.998C162.479 124.441 162.032 124.791 161.457 125.046C160.881 125.302 160.212 125.43 159.449 125.43C158.448 125.43 157.619 125.213 156.963 124.778C156.307 124.343 155.891 123.708 155.717 122.873L157.148 122.515C157.285 123.044 157.543 123.44 157.922 123.704C158.305 123.968 158.806 124.1 159.424 124.1C160.127 124.1 160.685 123.951 161.099 123.653C161.516 123.35 161.725 122.988 161.725 122.566C161.725 122.225 161.606 121.94 161.367 121.71C161.128 121.475 160.762 121.301 160.268 121.186L158.631 120.802C157.732 120.589 157.072 120.259 156.65 119.811C156.232 119.36 156.023 118.795 156.023 118.118C156.023 117.564 156.179 117.073 156.49 116.647C156.805 116.221 157.234 115.887 157.775 115.644C158.32 115.401 158.938 115.279 159.628 115.279C160.6 115.279 161.363 115.493 161.917 115.919C162.475 116.345 162.871 116.907 163.106 117.606ZM79.6424 147.225V137.407H81.0998V138.941H81.2276C81.4322 138.417 81.7624 138.01 82.2184 137.72C82.6744 137.426 83.2219 137.279 83.8612 137.279C84.5089 137.279 85.0479 137.426 85.4783 137.72C85.913 138.01 86.2518 138.417 86.4947 138.941H86.5969C86.8484 138.434 87.2255 138.032 87.7283 137.733C88.2312 137.431 88.8342 137.279 89.5373 137.279C90.4151 137.279 91.1332 137.554 91.6914 138.104C92.2496 138.649 92.5288 139.5 92.5288 140.654V147.225H91.0202V140.654C91.0202 139.93 90.8221 139.412 90.4258 139.101C90.0295 138.79 89.5629 138.635 89.0259 138.635C88.3356 138.635 87.8008 138.843 87.4215 139.261C87.0423 139.674 86.8526 140.198 86.8526 140.833V147.225H85.3185V140.501C85.3185 139.943 85.1374 139.493 84.7752 139.152C84.413 138.807 83.9464 138.635 83.3754 138.635C82.9833 138.635 82.6168 138.739 82.2759 138.948C81.9393 139.157 81.6665 139.446 81.4577 139.817C81.2532 140.184 81.1509 140.608 81.1509 141.089V147.225H79.6424ZM99.2756 147.43C98.3892 147.43 97.6115 147.219 96.9425 146.797C96.2777 146.375 95.7578 145.785 95.3828 145.027C95.0121 144.268 94.8267 143.382 94.8267 142.368C94.8267 141.345 95.0121 140.452 95.3828 139.689C95.7578 138.926 96.2777 138.334 96.9425 137.912C97.6115 137.49 98.3892 137.279 99.2756 137.279C100.162 137.279 100.938 137.49 101.602 137.912C102.271 138.334 102.791 138.926 103.162 139.689C103.537 140.452 103.724 141.345 103.724 142.368C103.724 143.382 103.537 144.268 103.162 145.027C102.791 145.785 102.271 146.375 101.602 146.797C100.938 147.219 100.162 147.43 99.2756 147.43ZM99.2756 146.075C99.9489 146.075 100.503 145.902 100.938 145.557C101.372 145.212 101.694 144.758 101.903 144.196C102.112 143.633 102.216 143.024 102.216 142.368C102.216 141.711 102.112 141.1 101.903 140.533C101.694 139.966 101.372 139.508 100.938 139.159C100.503 138.809 99.9489 138.635 99.2756 138.635C98.6023 138.635 98.0483 138.809 97.6136 139.159C97.179 139.508 96.8572 139.966 96.6484 140.533C96.4396 141.1 96.3352 141.711 96.3352 142.368C96.3352 143.024 96.4396 143.633 96.6484 144.196C96.8572 144.758 97.179 145.212 97.6136 145.557C98.0483 145.902 98.6023 146.075 99.2756 146.075ZM98.5852 136.078L100.145 133.112H101.909L99.9148 136.078H98.5852ZM113.704 137.407L110.073 147.225H108.539L104.909 137.407H106.545L109.255 145.231H109.357L112.068 137.407H113.704ZM115.695 147.225V137.407H117.204V147.225H115.695ZM116.462 135.771C116.168 135.771 115.915 135.671 115.702 135.47C115.493 135.27 115.388 135.029 115.388 134.748C115.388 134.467 115.493 134.226 115.702 134.026C115.915 133.826 116.168 133.725 116.462 133.725C116.756 133.725 117.008 133.826 117.216 134.026C117.43 134.226 117.536 134.467 117.536 134.748C117.536 135.029 117.43 135.27 117.216 135.47C117.008 135.671 116.756 135.771 116.462 135.771ZM121.475 134.135V147.225H119.967V134.135H121.475ZM128.355 147.43C127.409 147.43 126.593 147.221 125.906 146.804C125.225 146.382 124.698 145.794 124.328 145.039C123.961 144.281 123.778 143.399 123.778 142.393C123.778 141.387 123.961 140.501 124.328 139.734C124.698 138.963 125.214 138.362 125.874 137.931C126.539 137.497 127.315 137.279 128.201 137.279C128.713 137.279 129.218 137.365 129.716 137.535C130.215 137.706 130.669 137.983 131.078 138.366C131.487 138.745 131.813 139.248 132.056 139.875C132.298 140.501 132.42 141.272 132.42 142.189V142.828H124.852V141.524H130.886C130.886 140.97 130.775 140.475 130.553 140.041C130.336 139.606 130.025 139.263 129.62 139.012C129.22 138.76 128.747 138.635 128.201 138.635C127.6 138.635 127.08 138.784 126.642 139.082C126.207 139.376 125.872 139.76 125.638 140.233C125.404 140.706 125.286 141.213 125.286 141.754V142.623C125.286 143.365 125.414 143.993 125.67 144.509C125.93 145.02 126.29 145.41 126.75 145.679C127.21 145.943 127.745 146.075 128.355 146.075C128.751 146.075 129.109 146.019 129.428 145.909C129.752 145.794 130.031 145.623 130.266 145.397C130.5 145.167 130.681 144.882 130.809 144.541L132.267 144.95C132.113 145.444 131.855 145.879 131.493 146.254C131.131 146.625 130.683 146.914 130.151 147.123C129.618 147.328 129.019 147.43 128.355 147.43ZM141.669 139.606L140.314 139.99C140.229 139.764 140.103 139.544 139.937 139.331C139.775 139.114 139.553 138.935 139.272 138.794C138.991 138.654 138.631 138.583 138.192 138.583C137.591 138.583 137.09 138.722 136.69 138.999C136.294 139.272 136.095 139.619 136.095 140.041C136.095 140.416 136.232 140.712 136.504 140.929C136.777 141.147 137.203 141.328 137.783 141.473L139.24 141.831C140.118 142.044 140.772 142.37 141.203 142.809C141.633 143.243 141.848 143.804 141.848 144.49C141.848 145.052 141.686 145.555 141.362 145.998C141.043 146.441 140.595 146.791 140.02 147.046C139.445 147.302 138.776 147.43 138.013 147.43C137.012 147.43 136.183 147.213 135.526 146.778C134.87 146.343 134.455 145.708 134.28 144.873L135.712 144.515C135.848 145.044 136.106 145.44 136.485 145.704C136.869 145.968 137.369 146.1 137.987 146.1C138.691 146.1 139.249 145.951 139.662 145.653C140.08 145.35 140.289 144.988 140.289 144.566C140.289 144.225 140.169 143.94 139.931 143.71C139.692 143.475 139.325 143.301 138.831 143.186L137.195 142.802C136.296 142.589 135.635 142.259 135.213 141.811C134.796 141.36 134.587 140.795 134.587 140.118C134.587 139.564 134.742 139.073 135.053 138.647C135.369 138.221 135.797 137.887 136.338 137.644C136.884 137.401 137.502 137.279 138.192 137.279C139.164 137.279 139.926 137.493 140.48 137.919C141.039 138.345 141.435 138.907 141.669 139.606Z" fill="#FAFAFA"/>
<path d="M91.8182 27.3121C88.0802 27.3121 85 30.0539 85 33.3814V81.9363C85 85.2637 88.0802 88.0058 91.8182 88.0058H128.182C131.92 88.0058 135 85.2637 135 81.9363V33.3814C135 30.0539 131.92 27.3121 128.182 27.3121H91.8182ZM91.8182 31.3582H128.182C129.48 31.3582 130.455 32.2257 130.455 33.3814V81.9363C130.455 83.092 129.48 83.9595 128.182 83.9595H91.8182C90.5199 83.9595 89.5455 83.092 89.5455 81.9363V33.3814C89.5455 32.2257 90.5199 31.3582 91.8182 31.3582Z" fill="#FAFAFA"/>
<path d="M112.273 77.8947C112.273 78.4313 112.033 78.946 111.607 79.3254C111.181 79.7048 110.603 79.9179 110 79.9179C109.397 79.9179 108.819 79.7048 108.393 79.3254C107.967 78.946 107.727 78.4313 107.727 77.8947C107.727 77.6291 107.786 77.3659 107.9 77.1205C108.014 76.875 108.182 76.6519 108.393 76.4641C108.604 76.2762 108.855 76.1273 109.13 76.0256C109.406 75.9239 109.702 75.8716 110 75.8716C110.298 75.8716 110.594 75.9239 110.87 76.0256C111.146 76.1273 111.396 76.2762 111.607 76.4641C111.818 76.6519 111.986 76.875 112.1 77.1205C112.214 77.3659 112.273 77.6291 112.273 77.8947Z" fill="#FAFAFA"/>
<path d="M105.462 35.3987C104.859 35.3987 104.281 35.6119 103.855 35.9914C103.428 36.3709 103.189 36.8856 103.189 37.4223C103.189 37.959 103.428 38.4737 103.855 38.8532C104.281 39.2327 104.859 39.4459 105.462 39.4459H114.539C115.142 39.4459 115.72 39.2327 116.146 38.8532C116.572 38.4737 116.812 37.959 116.812 37.4223C116.812 36.8856 116.572 36.3709 116.146 35.9914C115.72 35.6119 115.142 35.3987 114.539 35.3987H105.462Z" fill="#FAFAFA"/>
</svg>
