<svg width="220" height="175" viewBox="0 0 220 175" fill="none" xmlns="http://www.w3.org/2000/svg">
<rect width="220" height="175" rx="5" fill="#B5BF00"/>
<line x1="82" y1="99.5" x2="139" y2="99.5" stroke="#FAFAFA"/>
<path d="M59.7256 124H55.6858V110.909H59.9046C61.1744 110.909 62.2611 111.171 63.1645 111.695C64.0679 112.215 64.7604 112.963 65.2419 113.939C65.7235 114.911 65.9642 116.074 65.9642 117.429C65.9642 118.793 65.7213 119.967 65.2355 120.951C64.7497 121.931 64.0423 122.685 63.1134 123.214C62.1844 123.738 61.0551 124 59.7256 124ZM57.271 122.594H59.6233C60.7057 122.594 61.6027 122.385 62.3144 121.967C63.026 121.55 63.5566 120.955 63.906 120.184C64.2554 119.413 64.4301 118.494 64.4301 117.429C64.4301 116.372 64.2575 115.462 63.9124 114.7C63.5672 113.933 63.0516 113.344 62.3655 112.935C61.6794 112.522 60.825 112.315 59.8023 112.315H57.271V122.594ZM72.5352 124.205C71.5892 124.205 70.7732 123.996 70.0871 123.578C69.4053 123.156 68.879 122.568 68.5083 121.814C68.1418 121.055 67.9585 120.173 67.9585 119.168C67.9585 118.162 68.1418 117.276 68.5083 116.509C68.879 115.737 69.3946 115.136 70.0551 114.706C70.7199 114.271 71.4955 114.054 72.3818 114.054C72.8932 114.054 73.3982 114.139 73.8968 114.31C74.3953 114.48 74.8492 114.757 75.2583 115.141C75.6673 115.52 75.9933 116.023 76.2362 116.649C76.4791 117.276 76.6006 118.047 76.6006 118.963V119.602H69.0324V118.298H75.0665C75.0665 117.744 74.9557 117.25 74.7341 116.815C74.5168 116.381 74.2057 116.038 73.8009 115.786C73.4003 115.535 72.9273 115.409 72.3818 115.409C71.781 115.409 71.2611 115.558 70.8222 115.857C70.3875 116.151 70.053 116.534 69.8186 117.007C69.5843 117.48 69.4671 117.987 69.4671 118.528V119.398C69.4671 120.139 69.5949 120.768 69.8506 121.283C70.1105 121.795 70.4706 122.185 70.9308 122.453C71.3911 122.717 71.9259 122.849 72.5352 122.849C72.9316 122.849 73.2895 122.794 73.6091 122.683C73.933 122.568 74.2121 122.398 74.4465 122.172C74.6808 121.942 74.8619 121.656 74.9898 121.315L76.4472 121.724C76.2938 122.219 76.036 122.653 75.6737 123.028C75.3115 123.399 74.8641 123.689 74.3314 123.898C73.7987 124.102 73.2 124.205 72.5352 124.205ZM85.8499 116.381L84.4948 116.764C84.4095 116.538 84.2838 116.319 84.1176 116.106C83.9557 115.888 83.7341 115.71 83.4529 115.569C83.1716 115.428 82.8115 115.358 82.3726 115.358C81.7718 115.358 81.271 115.496 80.8705 115.773C80.4742 116.046 80.276 116.393 80.276 116.815C80.276 117.19 80.4124 117.487 80.6851 117.704C80.9578 117.921 81.384 118.102 81.9635 118.247L83.4209 118.605C84.2987 118.818 84.9529 119.144 85.3833 119.583C85.8137 120.018 86.0289 120.578 86.0289 121.264C86.0289 121.827 85.8669 122.33 85.5431 122.773C85.2235 123.216 84.776 123.565 84.2007 123.821C83.6254 124.077 82.9564 124.205 82.1936 124.205C81.1922 124.205 80.3634 123.987 79.7071 123.553C79.0509 123.118 78.6354 122.483 78.4607 121.648L79.8925 121.29C80.0289 121.818 80.2867 122.214 80.6659 122.479C81.0494 122.743 81.5502 122.875 82.1681 122.875C82.8712 122.875 83.4294 122.726 83.8428 122.428C84.2604 122.125 84.4692 121.763 84.4692 121.341C84.4692 121 84.3499 120.714 84.1112 120.484C83.8726 120.25 83.5061 120.075 83.0118 119.96L81.3754 119.577C80.4763 119.364 79.8158 119.033 79.3939 118.586C78.9763 118.134 78.7675 117.57 78.7675 116.892C78.7675 116.338 78.923 115.848 79.2341 115.422C79.5494 114.996 79.9777 114.661 80.5189 114.418C81.0644 114.175 81.6823 114.054 82.3726 114.054C83.3442 114.054 84.107 114.267 84.661 114.693C85.2192 115.119 85.6155 115.682 85.8499 116.381ZM91.1888 124.23C90.5667 124.23 90.002 124.113 89.4949 123.879C88.9878 123.64 88.5851 123.297 88.2868 122.849C87.9885 122.398 87.8394 121.852 87.8394 121.213C87.8394 120.651 87.9502 120.195 88.1718 119.845C88.3934 119.491 88.6895 119.214 89.0603 119.014C89.431 118.814 89.8401 118.665 90.2876 118.567C90.7393 118.464 91.1931 118.384 91.6491 118.324C92.2456 118.247 92.7293 118.19 93.1001 118.151C93.4751 118.109 93.7478 118.038 93.9182 117.94C94.093 117.842 94.1803 117.672 94.1803 117.429V117.378C94.1803 116.747 94.0077 116.257 93.6626 115.908C93.3216 115.558 92.8039 115.384 92.1093 115.384C91.3891 115.384 90.8245 115.541 90.4154 115.857C90.0063 116.172 89.7187 116.509 89.5525 116.866L88.1206 116.355C88.3763 115.759 88.7172 115.294 89.1434 114.962C89.5738 114.625 90.0425 114.391 90.5496 114.259C91.061 114.122 91.5638 114.054 92.0582 114.054C92.3735 114.054 92.7357 114.092 93.1448 114.169C93.5582 114.241 93.9566 114.393 94.3401 114.623C94.7279 114.853 95.0496 115.2 95.3053 115.665C95.561 116.129 95.6888 116.751 95.6888 117.531V124H94.1803V122.67H94.1036C94.0013 122.884 93.8309 123.112 93.5922 123.354C93.3536 123.597 93.0361 123.804 92.6398 123.974C92.2435 124.145 91.7599 124.23 91.1888 124.23ZM91.4189 122.875C92.0155 122.875 92.5184 122.758 92.9275 122.523C93.3408 122.289 93.6519 121.987 93.8607 121.616C94.0738 121.245 94.1803 120.855 94.1803 120.446V119.065C94.1164 119.142 93.9758 119.212 93.7584 119.276C93.5454 119.336 93.2982 119.389 93.017 119.436C92.74 119.479 92.4694 119.517 92.2052 119.551C91.9452 119.581 91.7343 119.607 91.5724 119.628C91.1803 119.679 90.8138 119.762 90.4729 119.877C90.1363 119.988 89.8635 120.156 89.6547 120.382C89.4502 120.604 89.3479 120.906 89.3479 121.29C89.3479 121.814 89.5418 122.21 89.9296 122.479C90.3216 122.743 90.8181 122.875 91.4189 122.875ZM98.4422 124V114.182H99.8996V115.665H100.002C100.181 115.179 100.505 114.785 100.973 114.482C101.442 114.18 101.971 114.028 102.559 114.028C102.669 114.028 102.808 114.031 102.974 114.035C103.14 114.039 103.266 114.045 103.351 114.054V115.588C103.3 115.575 103.183 115.556 103 115.531C102.821 115.501 102.631 115.486 102.431 115.486C101.954 115.486 101.527 115.586 101.152 115.786C100.782 115.982 100.488 116.255 100.27 116.604C100.057 116.95 99.9507 117.344 99.9507 117.787V124H98.4422ZM105.139 124V114.182H106.597V115.665H106.699C106.878 115.179 107.202 114.785 107.671 114.482C108.139 114.18 108.668 114.028 109.256 114.028C109.367 114.028 109.505 114.031 109.671 114.035C109.838 114.039 109.963 114.045 110.049 114.054V115.588C109.997 115.575 109.88 115.556 109.697 115.531C109.518 115.501 109.328 115.486 109.128 115.486C108.651 115.486 108.225 115.586 107.85 115.786C107.479 115.982 107.185 116.255 106.968 116.604C106.755 116.95 106.648 117.344 106.648 117.787V124H105.139ZM115.527 124.205C114.64 124.205 113.862 123.994 113.193 123.572C112.529 123.15 112.009 122.56 111.634 121.801C111.263 121.043 111.078 120.156 111.078 119.142C111.078 118.119 111.263 117.227 111.634 116.464C112.009 115.701 112.529 115.109 113.193 114.687C113.862 114.265 114.64 114.054 115.527 114.054C116.413 114.054 117.188 114.265 117.853 114.687C118.522 115.109 119.042 115.701 119.413 116.464C119.788 117.227 119.975 118.119 119.975 119.142C119.975 120.156 119.788 121.043 119.413 121.801C119.042 122.56 118.522 123.15 117.853 123.572C117.188 123.994 116.413 124.205 115.527 124.205ZM115.527 122.849C116.2 122.849 116.754 122.677 117.188 122.332C117.623 121.987 117.945 121.533 118.154 120.97C118.362 120.408 118.467 119.798 118.467 119.142C118.467 118.486 118.362 117.874 118.154 117.308C117.945 116.741 117.623 116.283 117.188 115.933C116.754 115.584 116.2 115.409 115.527 115.409C114.853 115.409 114.299 115.584 113.865 115.933C113.43 116.283 113.108 116.741 112.899 117.308C112.691 117.874 112.586 118.486 112.586 119.142C112.586 119.798 112.691 120.408 112.899 120.97C113.108 121.533 113.43 121.987 113.865 122.332C114.299 122.677 114.853 122.849 115.527 122.849ZM123.787 110.909V124H122.278V110.909H123.787ZM128.058 110.909V124H126.55V110.909H128.058ZM134.81 124.205C133.923 124.205 133.146 123.994 132.477 123.572C131.812 123.15 131.292 122.56 130.917 121.801C130.546 121.043 130.361 120.156 130.361 119.142C130.361 118.119 130.546 117.227 130.917 116.464C131.292 115.701 131.812 115.109 132.477 114.687C133.146 114.265 133.923 114.054 134.81 114.054C135.696 114.054 136.472 114.265 137.136 114.687C137.805 115.109 138.325 115.701 138.696 116.464C139.071 117.227 139.259 118.119 139.259 119.142C139.259 120.156 139.071 121.043 138.696 121.801C138.325 122.56 137.805 123.15 137.136 123.572C136.472 123.994 135.696 124.205 134.81 124.205ZM134.81 122.849C135.483 122.849 136.037 122.677 136.472 122.332C136.906 121.987 137.228 121.533 137.437 120.97C137.646 120.408 137.75 119.798 137.75 119.142C137.75 118.486 137.646 117.874 137.437 117.308C137.228 116.741 136.906 116.283 136.472 115.933C136.037 115.584 135.483 115.409 134.81 115.409C134.136 115.409 133.582 115.584 133.148 115.933C132.713 116.283 132.391 116.741 132.183 117.308C131.974 117.874 131.869 118.486 131.869 119.142C131.869 119.798 131.974 120.408 132.183 120.97C132.391 121.533 132.713 121.987 133.148 122.332C133.582 122.677 134.136 122.849 134.81 122.849ZM150.331 124.205C149.513 124.205 148.791 123.998 148.164 123.585C147.538 123.167 147.048 122.579 146.694 121.82C146.34 121.058 146.164 120.156 146.164 119.116C146.164 118.085 146.34 117.19 146.694 116.432C147.048 115.673 147.54 115.087 148.171 114.674C148.801 114.261 149.53 114.054 150.357 114.054C150.996 114.054 151.501 114.161 151.872 114.374C152.247 114.582 152.532 114.821 152.728 115.089C152.929 115.354 153.084 115.571 153.195 115.741H153.323V110.909H154.831V124H153.374V122.491H153.195C153.084 122.67 152.926 122.896 152.722 123.169C152.517 123.437 152.225 123.678 151.846 123.891C151.467 124.1 150.962 124.205 150.331 124.205ZM150.536 122.849C151.141 122.849 151.652 122.692 152.07 122.376C152.487 122.057 152.805 121.616 153.022 121.053C153.24 120.487 153.348 119.832 153.348 119.091C153.348 118.358 153.242 117.717 153.029 117.167C152.816 116.613 152.5 116.183 152.083 115.876C151.665 115.565 151.149 115.409 150.536 115.409C149.897 115.409 149.364 115.573 148.938 115.901C148.516 116.225 148.198 116.666 147.985 117.224C147.777 117.778 147.672 118.401 147.672 119.091C147.672 119.79 147.779 120.425 147.992 120.996C148.209 121.562 148.529 122.014 148.951 122.351C149.377 122.683 149.905 122.849 150.536 122.849ZM161.92 124.205C160.974 124.205 160.158 123.996 159.472 123.578C158.79 123.156 158.264 122.568 157.893 121.814C157.527 121.055 157.343 120.173 157.343 119.168C157.343 118.162 157.527 117.276 157.893 116.509C158.264 115.737 158.779 115.136 159.44 114.706C160.105 114.271 160.88 114.054 161.767 114.054C162.278 114.054 162.783 114.139 163.282 114.31C163.78 114.48 164.234 114.757 164.643 115.141C165.052 115.52 165.378 116.023 165.621 116.649C165.864 117.276 165.985 118.047 165.985 118.963V119.602H158.417V118.298H164.451C164.451 117.744 164.34 117.25 164.119 116.815C163.902 116.381 163.59 116.038 163.186 115.786C162.785 115.535 162.312 115.409 161.767 115.409C161.166 115.409 160.646 115.558 160.207 115.857C159.772 116.151 159.438 116.534 159.203 117.007C158.969 117.48 158.852 117.987 158.852 118.528V119.398C158.852 120.139 158.98 120.768 159.235 121.283C159.495 121.795 159.855 122.185 160.316 122.453C160.776 122.717 161.311 122.849 161.92 122.849C162.316 122.849 162.674 122.794 162.994 122.683C163.318 122.568 163.597 122.398 163.831 122.172C164.066 121.942 164.247 121.656 164.375 121.315L165.832 121.724C165.679 122.219 165.421 122.653 165.059 123.028C164.696 123.399 164.249 123.689 163.716 123.898C163.184 124.102 162.585 124.205 161.92 124.205ZM62.1058 146.23C61.4837 146.23 60.919 146.113 60.4119 145.879C59.9048 145.64 59.5021 145.297 59.2038 144.849C58.9055 144.398 58.7564 143.852 58.7564 143.213C58.7564 142.651 58.8672 142.195 59.0888 141.845C59.3104 141.491 59.6065 141.214 59.9773 141.014C60.348 140.814 60.7571 140.665 61.2045 140.567C61.6563 140.464 62.1101 140.384 62.5661 140.324C63.1626 140.247 63.6463 140.19 64.017 140.151C64.392 140.109 64.6648 140.038 64.8352 139.94C65.0099 139.842 65.0973 139.672 65.0973 139.429V139.378C65.0973 138.747 64.9247 138.257 64.5795 137.908C64.2386 137.558 63.7209 137.384 63.0263 137.384C62.3061 137.384 61.7415 137.541 61.3324 137.857C60.9233 138.172 60.6357 138.509 60.4695 138.866L59.0376 138.355C59.2933 137.759 59.6342 137.294 60.0604 136.962C60.4908 136.625 60.9595 136.391 61.4666 136.259C61.978 136.122 62.4808 136.054 62.9751 136.054C63.2905 136.054 63.6527 136.092 64.0618 136.169C64.4751 136.241 64.8736 136.393 65.2571 136.623C65.6449 136.853 65.9666 137.2 66.2223 137.665C66.478 138.129 66.6058 138.751 66.6058 139.531V146H65.0973V144.67H65.0206C64.9183 144.884 64.7479 145.112 64.5092 145.354C64.2706 145.597 63.9531 145.804 63.5568 145.974C63.1605 146.145 62.6768 146.23 62.1058 146.23ZM62.3359 144.875C62.9325 144.875 63.4354 144.758 63.8445 144.523C64.2578 144.289 64.5689 143.987 64.7777 143.616C64.9908 143.245 65.0973 142.855 65.0973 142.446V141.065C65.0334 141.142 64.8928 141.212 64.6754 141.276C64.4624 141.336 64.2152 141.389 63.9339 141.436C63.657 141.479 63.3864 141.517 63.1222 141.551C62.8622 141.581 62.6513 141.607 62.4893 141.628C62.0973 141.679 61.7308 141.762 61.3899 141.877C61.0533 141.988 60.7805 142.156 60.5717 142.382C60.3672 142.604 60.2649 142.906 60.2649 143.29C60.2649 143.814 60.4588 144.21 60.8466 144.479C61.2386 144.743 61.7351 144.875 62.3359 144.875ZM69.3592 149.682V136.182H70.8166V137.741H70.9956C71.1064 137.571 71.2598 137.354 71.4558 137.089C71.6561 136.821 71.9416 136.582 72.3123 136.374C72.6873 136.161 73.1944 136.054 73.8336 136.054C74.6603 136.054 75.389 136.261 76.0197 136.674C76.6504 137.087 77.1426 137.673 77.4963 138.432C77.85 139.19 78.0268 140.085 78.0268 141.116C78.0268 142.156 77.85 143.058 77.4963 143.82C77.1426 144.579 76.6525 145.167 76.0261 145.585C75.3997 145.998 74.6774 146.205 73.8592 146.205C73.2285 146.205 72.7235 146.1 72.3443 145.891C71.965 145.678 71.6731 145.437 71.4686 145.169C71.264 144.896 71.1064 144.67 70.9956 144.491H70.8677V149.682H69.3592ZM70.8422 141.091C70.8422 141.832 70.9508 142.487 71.1681 143.053C71.3855 143.616 71.7029 144.057 72.1206 144.376C72.5382 144.692 73.0495 144.849 73.6547 144.849C74.2853 144.849 74.8116 144.683 75.2335 144.351C75.6596 144.014 75.9792 143.562 76.1923 142.996C76.4096 142.425 76.5183 141.79 76.5183 141.091C76.5183 140.401 76.4118 139.778 76.1987 139.224C75.9899 138.666 75.6724 138.225 75.2463 137.901C74.8244 137.573 74.2939 137.409 73.6547 137.409C73.041 137.409 72.5254 137.565 72.1078 137.876C71.6902 138.183 71.3748 138.613 71.1618 139.167C70.9487 139.717 70.8422 140.358 70.8422 141.091ZM81.8365 132.909V146H80.3279V132.909H81.8365ZM84.5994 146V136.182H86.108V146H84.5994ZM85.3665 134.545C85.0724 134.545 84.8189 134.445 84.6058 134.245C84.397 134.045 84.2926 133.804 84.2926 133.523C84.2926 133.241 84.397 133.001 84.6058 132.8C84.8189 132.6 85.0724 132.5 85.3665 132.5C85.6605 132.5 85.9119 132.6 86.1207 132.8C86.3338 133.001 86.4403 133.241 86.4403 133.523C86.4403 133.804 86.3338 134.045 86.1207 134.245C85.9119 134.445 85.6605 134.545 85.3665 134.545ZM92.8596 146.205C91.9391 146.205 91.1465 145.987 90.4817 145.553C89.8169 145.118 89.3056 144.519 88.9476 143.756C88.5897 142.994 88.4107 142.122 88.4107 141.142C88.4107 140.145 88.5939 139.265 88.9604 138.502C89.3311 137.735 89.8468 137.136 90.5073 136.706C91.1721 136.271 91.9476 136.054 92.834 136.054C93.5243 136.054 94.1465 136.182 94.7005 136.438C95.2544 136.693 95.7083 137.051 96.062 137.511C96.4157 137.972 96.6351 138.509 96.7203 139.122H95.2118C95.0968 138.675 94.8411 138.278 94.4448 137.933C94.0527 137.584 93.5243 137.409 92.8596 137.409C92.2715 137.409 91.7559 137.562 91.3127 137.869C90.8738 138.172 90.5307 138.6 90.2836 139.154C90.0407 139.704 89.9192 140.349 89.9192 141.091C89.9192 141.849 90.0385 142.51 90.2772 143.072C90.5201 143.635 90.861 144.072 91.2999 144.383C91.7431 144.694 92.263 144.849 92.8596 144.849C93.2516 144.849 93.6074 144.781 93.927 144.645C94.2466 144.509 94.5172 144.312 94.7388 144.057C94.9604 143.801 95.1181 143.494 95.2118 143.136H96.7203C96.6351 143.716 96.4242 144.238 96.0875 144.702C95.7551 145.163 95.3141 145.529 94.7644 145.802C94.2189 146.07 93.584 146.205 92.8596 146.205ZM101.815 146.23C101.193 146.23 100.628 146.113 100.121 145.879C99.6138 145.64 99.2111 145.297 98.9128 144.849C98.6145 144.398 98.4654 143.852 98.4654 143.213C98.4654 142.651 98.5762 142.195 98.7978 141.845C99.0194 141.491 99.3155 141.214 99.6863 141.014C100.057 140.814 100.466 140.665 100.914 140.567C101.365 140.464 101.819 140.384 102.275 140.324C102.872 140.247 103.355 140.19 103.726 140.151C104.101 140.109 104.374 140.038 104.544 139.94C104.719 139.842 104.806 139.672 104.806 139.429V139.378C104.806 138.747 104.634 138.257 104.289 137.908C103.948 137.558 103.43 137.384 102.735 137.384C102.015 137.384 101.45 137.541 101.041 137.857C100.632 138.172 100.345 138.509 100.178 138.866L98.7466 138.355C99.0023 137.759 99.3432 137.294 99.7694 136.962C100.2 136.625 100.669 136.391 101.176 136.259C101.687 136.122 102.19 136.054 102.684 136.054C102.999 136.054 103.362 136.092 103.771 136.169C104.184 136.241 104.583 136.393 104.966 136.623C105.354 136.853 105.676 137.2 105.931 137.665C106.187 138.129 106.315 138.751 106.315 139.531V146H104.806V144.67H104.73C104.627 144.884 104.457 145.112 104.218 145.354C103.98 145.597 103.662 145.804 103.266 145.974C102.869 146.145 102.386 146.23 101.815 146.23ZM102.045 144.875C102.642 144.875 103.144 144.758 103.553 144.523C103.967 144.289 104.278 143.987 104.487 143.616C104.7 143.245 104.806 142.855 104.806 142.446V141.065C104.742 141.142 104.602 141.212 104.384 141.276C104.171 141.336 103.924 141.389 103.643 141.436C103.366 141.479 103.095 141.517 102.831 141.551C102.571 141.581 102.36 141.607 102.198 141.628C101.806 141.679 101.44 141.762 101.099 141.877C100.762 141.988 100.49 142.156 100.281 142.382C100.076 142.604 99.9739 142.906 99.9739 143.29C99.9739 143.814 100.168 144.21 100.556 144.479C100.948 144.743 101.444 144.875 102.045 144.875ZM113.057 146.205C112.136 146.205 111.344 145.987 110.679 145.553C110.014 145.118 109.503 144.519 109.145 143.756C108.787 142.994 108.608 142.122 108.608 141.142C108.608 140.145 108.791 139.265 109.158 138.502C109.528 137.735 110.044 137.136 110.705 136.706C111.369 136.271 112.145 136.054 113.031 136.054C113.722 136.054 114.344 136.182 114.898 136.438C115.452 136.693 115.906 137.051 116.259 137.511C116.613 137.972 116.832 138.509 116.918 139.122H115.409C115.294 138.675 115.038 138.278 114.642 137.933C114.25 137.584 113.722 137.409 113.057 137.409C112.469 137.409 111.953 137.562 111.51 137.869C111.071 138.172 110.728 138.6 110.481 139.154C110.238 139.704 110.116 140.349 110.116 141.091C110.116 141.849 110.236 142.51 110.474 143.072C110.717 143.635 111.058 144.072 111.497 144.383C111.94 144.694 112.46 144.849 113.057 144.849C113.449 144.849 113.805 144.781 114.124 144.645C114.444 144.509 114.714 144.312 114.936 144.057C115.158 143.801 115.315 143.494 115.409 143.136H116.918C116.832 143.716 116.621 144.238 116.285 144.702C115.952 145.163 115.511 145.529 114.962 145.802C114.416 146.07 113.781 146.205 113.057 146.205ZM119.123 146V136.182H120.631V146H119.123ZM119.89 134.545C119.596 134.545 119.342 134.445 119.129 134.245C118.92 134.045 118.816 133.804 118.816 133.523C118.816 133.241 118.92 133.001 119.129 132.8C119.342 132.6 119.596 132.5 119.89 132.5C120.184 132.5 120.435 132.6 120.644 132.8C120.857 133.001 120.964 133.241 120.964 133.523C120.964 133.804 120.857 134.045 120.644 134.245C120.435 134.445 120.184 134.545 119.89 134.545ZM127.383 146.205C126.497 146.205 125.719 145.994 125.05 145.572C124.385 145.15 123.865 144.56 123.49 143.801C123.119 143.043 122.934 142.156 122.934 141.142C122.934 140.119 123.119 139.227 123.49 138.464C123.865 137.701 124.385 137.109 125.05 136.687C125.719 136.265 126.497 136.054 127.383 136.054C128.269 136.054 129.045 136.265 129.71 136.687C130.379 137.109 130.899 137.701 131.269 138.464C131.644 139.227 131.832 140.119 131.832 141.142C131.832 142.156 131.644 143.043 131.269 143.801C130.899 144.56 130.379 145.15 129.71 145.572C129.045 145.994 128.269 146.205 127.383 146.205ZM127.383 144.849C128.056 144.849 128.61 144.677 129.045 144.332C129.48 143.987 129.801 143.533 130.01 142.97C130.219 142.408 130.323 141.798 130.323 141.142C130.323 140.486 130.219 139.874 130.01 139.308C129.801 138.741 129.48 138.283 129.045 137.933C128.61 137.584 128.056 137.409 127.383 137.409C126.71 137.409 126.156 137.584 125.721 137.933C125.286 138.283 124.965 138.741 124.756 139.308C124.547 139.874 124.443 140.486 124.443 141.142C124.443 141.798 124.547 142.408 124.756 142.97C124.965 143.533 125.286 143.987 125.721 144.332C126.156 144.677 126.71 144.849 127.383 144.849ZM135.643 140.094V146H134.135V136.182H135.592V137.716H135.72C135.95 137.217 136.299 136.817 136.768 136.514C137.237 136.207 137.842 136.054 138.583 136.054C139.248 136.054 139.83 136.19 140.328 136.463C140.827 136.732 141.215 137.141 141.492 137.69C141.769 138.236 141.907 138.926 141.907 139.761V146H140.399V139.864C140.399 139.092 140.199 138.491 139.798 138.061C139.397 137.626 138.848 137.409 138.149 137.409C137.667 137.409 137.237 137.513 136.858 137.722C136.483 137.931 136.186 138.236 135.969 138.636C135.752 139.037 135.643 139.523 135.643 140.094ZM148.78 146.205C147.834 146.205 147.018 145.996 146.332 145.578C145.65 145.156 145.124 144.568 144.753 143.814C144.387 143.055 144.204 142.173 144.204 141.168C144.204 140.162 144.387 139.276 144.753 138.509C145.124 137.737 145.64 137.136 146.3 136.706C146.965 136.271 147.741 136.054 148.627 136.054C149.138 136.054 149.643 136.139 150.142 136.31C150.64 136.48 151.094 136.757 151.503 137.141C151.912 137.52 152.238 138.023 152.481 138.649C152.724 139.276 152.846 140.047 152.846 140.963V141.602H145.278V140.298H151.312C151.312 139.744 151.201 139.25 150.979 138.815C150.762 138.381 150.451 138.038 150.046 137.786C149.645 137.535 149.172 137.409 148.627 137.409C148.026 137.409 147.506 137.558 147.067 137.857C146.633 138.151 146.298 138.534 146.064 139.007C145.829 139.48 145.712 139.987 145.712 140.528V141.398C145.712 142.139 145.84 142.768 146.096 143.283C146.356 143.795 146.716 144.185 147.176 144.453C147.636 144.717 148.171 144.849 148.78 144.849C149.177 144.849 149.535 144.794 149.854 144.683C150.178 144.568 150.457 144.398 150.692 144.172C150.926 143.942 151.107 143.656 151.235 143.315L152.692 143.724C152.539 144.219 152.281 144.653 151.919 145.028C151.557 145.399 151.109 145.689 150.577 145.898C150.044 146.102 149.445 146.205 148.78 146.205ZM162.095 138.381L160.74 138.764C160.655 138.538 160.529 138.319 160.363 138.106C160.201 137.888 159.979 137.71 159.698 137.569C159.417 137.428 159.057 137.358 158.618 137.358C158.017 137.358 157.516 137.496 157.116 137.773C156.719 138.046 156.521 138.393 156.521 138.815C156.521 139.19 156.657 139.487 156.93 139.704C157.203 139.921 157.629 140.102 158.209 140.247L159.666 140.605C160.544 140.818 161.198 141.144 161.628 141.583C162.059 142.018 162.274 142.578 162.274 143.264C162.274 143.827 162.112 144.33 161.788 144.773C161.469 145.216 161.021 145.565 160.446 145.821C159.871 146.077 159.202 146.205 158.439 146.205C157.437 146.205 156.608 145.987 155.952 145.553C155.296 145.118 154.881 144.483 154.706 143.648L156.138 143.29C156.274 143.818 156.532 144.214 156.911 144.479C157.295 144.743 157.795 144.875 158.413 144.875C159.116 144.875 159.675 144.726 160.088 144.428C160.506 144.125 160.714 143.763 160.714 143.341C160.714 143 160.595 142.714 160.356 142.484C160.118 142.25 159.751 142.075 159.257 141.96L157.621 141.577C156.721 141.364 156.061 141.033 155.639 140.586C155.221 140.134 155.013 139.57 155.013 138.892C155.013 138.338 155.168 137.848 155.479 137.422C155.795 136.996 156.223 136.661 156.764 136.418C157.309 136.175 157.927 136.054 158.618 136.054C159.589 136.054 160.352 136.267 160.906 136.693C161.464 137.119 161.861 137.682 162.095 138.381ZM56.6095 168.205C55.6634 168.205 54.8474 167.996 54.1613 167.578C53.4795 167.156 52.9532 166.568 52.5825 165.814C52.216 165.055 52.0328 164.173 52.0328 163.168C52.0328 162.162 52.216 161.276 52.5825 160.509C52.9532 159.737 53.4688 159.136 54.1294 158.706C54.7941 158.271 55.5697 158.054 56.4561 158.054C56.9674 158.054 57.4724 158.139 57.971 158.31C58.4695 158.48 58.9234 158.757 59.3325 159.141C59.7416 159.52 60.0676 160.023 60.3105 160.649C60.5534 161.276 60.6748 162.047 60.6748 162.963V163.602H53.1066V162.298H59.1407C59.1407 161.744 59.0299 161.25 58.8083 160.815C58.591 160.381 58.2799 160.038 57.8751 159.786C57.4745 159.535 57.0015 159.409 56.4561 159.409C55.8552 159.409 55.3353 159.558 54.8964 159.857C54.4617 160.151 54.1272 160.534 53.8928 161.007C53.6585 161.48 53.5413 161.987 53.5413 162.528V163.398C53.5413 164.139 53.6691 164.768 53.9248 165.283C54.1847 165.795 54.5448 166.185 55.0051 166.453C55.4653 166.717 56.0001 166.849 56.6095 166.849C57.0058 166.849 57.3637 166.794 57.6833 166.683C58.0072 166.568 58.2863 166.398 58.5207 166.172C58.7551 165.942 58.9362 165.656 59.064 165.315L60.5214 165.724C60.368 166.219 60.1102 166.653 59.748 167.028C59.3857 167.399 58.9383 167.689 58.4056 167.898C57.873 168.102 57.2742 168.205 56.6095 168.205ZM62.9695 168V158.182H64.4269V159.716H64.5548C64.7593 159.192 65.0896 158.785 65.5455 158.495C66.0015 158.201 66.5491 158.054 67.1883 158.054C67.836 158.054 68.3751 158.201 68.8055 158.495C69.2401 158.785 69.5789 159.192 69.8218 159.716H69.9241C70.1755 159.209 70.5526 158.806 71.0555 158.508C71.5583 158.205 72.1613 158.054 72.8644 158.054C73.7423 158.054 74.4603 158.329 75.0186 158.879C75.5768 159.424 75.8559 160.274 75.8559 161.429V168H74.3474V161.429C74.3474 160.705 74.1492 160.187 73.7529 159.876C73.3566 159.565 72.89 159.409 72.3531 159.409C71.6627 159.409 71.1279 159.618 70.7487 160.036C70.3694 160.449 70.1798 160.973 70.1798 161.608V168H68.6457V161.276C68.6457 160.717 68.4646 160.268 68.1024 159.927C67.7401 159.582 67.2735 159.409 66.7025 159.409C66.3105 159.409 65.944 159.513 65.6031 159.722C65.2664 159.931 64.9937 160.221 64.7849 160.592C64.5803 160.958 64.4781 161.382 64.4781 161.864V168H62.9695ZM78.6141 171.682V158.182H80.0715V159.741H80.2504C80.3612 159.571 80.5146 159.354 80.7107 159.089C80.911 158.821 81.1965 158.582 81.5672 158.374C81.9422 158.161 82.4493 158.054 83.0885 158.054C83.9152 158.054 84.6439 158.261 85.2746 158.674C85.9053 159.087 86.3975 159.673 86.7512 160.432C87.1048 161.19 87.2817 162.085 87.2817 163.116C87.2817 164.156 87.1048 165.058 86.7512 165.82C86.3975 166.579 85.9074 167.167 85.281 167.585C84.6546 167.998 83.9323 168.205 83.1141 168.205C82.4834 168.205 81.9784 168.1 81.5992 167.891C81.2199 167.678 80.928 167.437 80.7235 167.169C80.5189 166.896 80.3612 166.67 80.2504 166.491H80.1226V171.682H78.6141ZM80.097 163.091C80.097 163.832 80.2057 164.487 80.423 165.053C80.6404 165.616 80.9578 166.057 81.3754 166.376C81.7931 166.692 82.3044 166.849 82.9095 166.849C83.5402 166.849 84.0665 166.683 84.4884 166.351C84.9145 166.014 85.2341 165.562 85.4472 164.996C85.6645 164.425 85.7732 163.79 85.7732 163.091C85.7732 162.401 85.6666 161.778 85.4536 161.224C85.2448 160.666 84.9273 160.225 84.5012 159.901C84.0793 159.573 83.5487 159.409 82.9095 159.409C82.2959 159.409 81.7803 159.565 81.3627 159.876C80.945 160.183 80.6297 160.613 80.4166 161.167C80.2036 161.717 80.097 162.358 80.097 163.091ZM89.5828 168V158.182H91.0402V159.665H91.1425C91.3215 159.179 91.6453 158.785 92.1141 158.482C92.5828 158.18 93.1112 158.028 93.6993 158.028C93.8101 158.028 93.9486 158.031 94.1148 158.035C94.281 158.039 94.4067 158.045 94.4919 158.054V159.588C94.4408 159.575 94.3236 159.556 94.1404 159.531C93.9614 159.501 93.7718 159.486 93.5715 159.486C93.0942 159.486 92.6681 159.586 92.2931 159.786C91.9223 159.982 91.6283 160.255 91.411 160.604C91.1979 160.95 91.0914 161.344 91.0914 161.787V168H89.5828ZM100.098 168.205C99.1517 168.205 98.3357 167.996 97.6496 167.578C96.9678 167.156 96.4415 166.568 96.0708 165.814C95.7043 165.055 95.521 164.173 95.521 163.168C95.521 162.162 95.7043 161.276 96.0708 160.509C96.4415 159.737 96.9571 159.136 97.6176 158.706C98.2824 158.271 99.058 158.054 99.9443 158.054C100.456 158.054 100.961 158.139 101.459 158.31C101.958 158.48 102.412 158.757 102.821 159.141C103.23 159.52 103.556 160.023 103.799 160.649C104.042 161.276 104.163 162.047 104.163 162.963V163.602H96.5949V162.298H102.629C102.629 161.744 102.518 161.25 102.297 160.815C102.079 160.381 101.768 160.038 101.363 159.786C100.963 159.535 100.49 159.409 99.9443 159.409C99.3435 159.409 98.8236 159.558 98.3847 159.857C97.95 160.151 97.6155 160.534 97.3811 161.007C97.1468 161.48 97.0296 161.987 97.0296 162.528V163.398C97.0296 164.139 97.1574 164.768 97.4131 165.283C97.673 165.795 98.0331 166.185 98.4933 166.453C98.9536 166.717 99.4884 166.849 100.098 166.849C100.494 166.849 100.852 166.794 101.172 166.683C101.495 166.568 101.775 166.398 102.009 166.172C102.243 165.942 102.424 165.656 102.552 165.315L104.01 165.724C103.856 166.219 103.598 166.653 103.236 167.028C102.874 167.399 102.427 167.689 101.894 167.898C101.361 168.102 100.763 168.205 100.098 168.205ZM113.412 160.381L112.057 160.764C111.972 160.538 111.846 160.319 111.68 160.106C111.518 159.888 111.297 159.71 111.015 159.569C110.734 159.428 110.374 159.358 109.935 159.358C109.334 159.358 108.834 159.496 108.433 159.773C108.037 160.046 107.839 160.393 107.839 160.815C107.839 161.19 107.975 161.487 108.248 161.704C108.52 161.921 108.946 162.102 109.526 162.247L110.983 162.605C111.861 162.818 112.515 163.144 112.946 163.583C113.376 164.018 113.591 164.578 113.591 165.264C113.591 165.827 113.429 166.33 113.106 166.773C112.786 167.216 112.339 167.565 111.763 167.821C111.188 168.077 110.519 168.205 109.756 168.205C108.755 168.205 107.926 167.987 107.27 167.553C106.613 167.118 106.198 166.483 106.023 165.648L107.455 165.29C107.591 165.818 107.849 166.214 108.228 166.479C108.612 166.743 109.113 166.875 109.731 166.875C110.434 166.875 110.992 166.726 111.405 166.428C111.823 166.125 112.032 165.763 112.032 165.341C112.032 165 111.912 164.714 111.674 164.484C111.435 164.25 111.069 164.075 110.574 163.96L108.938 163.577C108.039 163.364 107.378 163.033 106.956 162.586C106.539 162.134 106.33 161.57 106.33 160.892C106.33 160.338 106.486 159.848 106.797 159.422C107.112 158.996 107.54 158.661 108.081 158.418C108.627 158.175 109.245 158.054 109.935 158.054C110.907 158.054 111.669 158.267 112.223 158.693C112.782 159.119 113.178 159.682 113.412 160.381ZM118.751 168.23C118.129 168.23 117.565 168.113 117.057 167.879C116.55 167.64 116.148 167.297 115.849 166.849C115.551 166.398 115.402 165.852 115.402 165.213C115.402 164.651 115.513 164.195 115.734 163.845C115.956 163.491 116.252 163.214 116.623 163.014C116.994 162.814 117.403 162.665 117.85 162.567C118.302 162.464 118.756 162.384 119.212 162.324C119.808 162.247 120.292 162.19 120.663 162.151C121.038 162.109 121.31 162.038 121.481 161.94C121.655 161.842 121.743 161.672 121.743 161.429V161.378C121.743 160.747 121.57 160.257 121.225 159.908C120.884 159.558 120.366 159.384 119.672 159.384C118.952 159.384 118.387 159.541 117.978 159.857C117.569 160.172 117.281 160.509 117.115 160.866L115.683 160.355C115.939 159.759 116.28 159.294 116.706 158.962C117.136 158.625 117.605 158.391 118.112 158.259C118.623 158.122 119.126 158.054 119.621 158.054C119.936 158.054 120.298 158.092 120.707 158.169C121.121 158.241 121.519 158.393 121.903 158.623C122.29 158.853 122.612 159.2 122.868 159.665C123.123 160.129 123.251 160.751 123.251 161.531V168H121.743V166.67H121.666C121.564 166.884 121.393 167.112 121.155 167.354C120.916 167.597 120.599 167.804 120.202 167.974C119.806 168.145 119.322 168.23 118.751 168.23ZM118.981 166.875C119.578 166.875 120.081 166.758 120.49 166.523C120.903 166.289 121.214 165.987 121.423 165.616C121.636 165.245 121.743 164.855 121.743 164.446V163.065C121.679 163.142 121.538 163.212 121.321 163.276C121.108 163.336 120.861 163.389 120.579 163.436C120.302 163.479 120.032 163.517 119.768 163.551C119.508 163.581 119.297 163.607 119.135 163.628C118.743 163.679 118.376 163.762 118.035 163.877C117.699 163.988 117.426 164.156 117.217 164.382C117.013 164.604 116.91 164.906 116.91 165.29C116.91 165.814 117.104 166.21 117.492 166.479C117.884 166.743 118.381 166.875 118.981 166.875ZM126.005 168V158.182H127.462V159.665H127.564C127.743 159.179 128.067 158.785 128.536 158.482C129.005 158.18 129.533 158.028 130.121 158.028C130.232 158.028 130.37 158.031 130.537 158.035C130.703 158.039 130.829 158.045 130.914 158.054V159.588C130.863 159.575 130.745 159.556 130.562 159.531C130.383 159.501 130.194 159.486 129.993 159.486C129.516 159.486 129.09 159.586 128.715 159.786C128.344 159.982 128.05 160.255 127.833 160.604C127.62 160.95 127.513 161.344 127.513 161.787V168H126.005ZM132.702 168V158.182H134.21V168H132.702ZM133.469 156.545C133.175 156.545 132.921 156.445 132.708 156.245C132.5 156.045 132.395 155.804 132.395 155.523C132.395 155.241 132.5 155.001 132.708 154.8C132.921 154.6 133.175 154.5 133.469 154.5C133.763 154.5 134.014 154.6 134.223 154.8C134.436 155.001 134.543 155.241 134.543 155.523C134.543 155.804 134.436 156.045 134.223 156.245C134.014 156.445 133.763 156.545 133.469 156.545ZM139.863 168.23C139.241 168.23 138.676 168.113 138.169 167.879C137.662 167.64 137.259 167.297 136.961 166.849C136.662 166.398 136.513 165.852 136.513 165.213C136.513 164.651 136.624 164.195 136.846 163.845C137.067 163.491 137.363 163.214 137.734 163.014C138.105 162.814 138.514 162.665 138.961 162.567C139.413 162.464 139.867 162.384 140.323 162.324C140.919 162.247 141.403 162.19 141.774 162.151C142.149 162.109 142.422 162.038 142.592 161.94C142.767 161.842 142.854 161.672 142.854 161.429V161.378C142.854 160.747 142.682 160.257 142.336 159.908C141.995 159.558 141.478 159.384 140.783 159.384C140.063 159.384 139.498 159.541 139.089 159.857C138.68 160.172 138.392 160.509 138.226 160.866L136.794 160.355C137.05 159.759 137.391 159.294 137.817 158.962C138.248 158.625 138.716 158.391 139.223 158.259C139.735 158.122 140.238 158.054 140.732 158.054C141.047 158.054 141.41 158.092 141.819 158.169C142.232 158.241 142.63 158.393 143.014 158.623C143.402 158.853 143.723 159.2 143.979 159.665C144.235 160.129 144.363 160.751 144.363 161.531V168H142.854V166.67H142.777C142.675 166.884 142.505 167.112 142.266 167.354C142.027 167.597 141.71 167.804 141.314 167.974C140.917 168.145 140.434 168.23 139.863 168.23ZM140.093 166.875C140.689 166.875 141.192 166.758 141.601 166.523C142.015 166.289 142.326 165.987 142.535 165.616C142.748 165.245 142.854 164.855 142.854 164.446V163.065C142.79 163.142 142.65 163.212 142.432 163.276C142.219 163.336 141.972 163.389 141.691 163.436C141.414 163.479 141.143 163.517 140.879 163.551C140.619 163.581 140.408 163.607 140.246 163.628C139.854 163.679 139.488 163.762 139.147 163.877C138.81 163.988 138.537 164.156 138.329 164.382C138.124 164.604 138.022 164.906 138.022 165.29C138.022 165.814 138.216 166.21 138.603 166.479C138.995 166.743 139.492 166.875 140.093 166.875ZM148.625 154.909V168H147.116V154.909H148.625ZM155.504 168.205C154.558 168.205 153.742 167.996 153.056 167.578C152.374 167.156 151.848 166.568 151.477 165.814C151.111 165.055 150.927 164.173 150.927 163.168C150.927 162.162 151.111 161.276 151.477 160.509C151.848 159.737 152.363 159.136 153.024 158.706C153.689 158.271 154.464 158.054 155.351 158.054C155.862 158.054 156.367 158.139 156.866 158.31C157.364 158.48 157.818 158.757 158.227 159.141C158.636 159.52 158.962 160.023 159.205 160.649C159.448 161.276 159.569 162.047 159.569 162.963V163.602H152.001V162.298H158.035C158.035 161.744 157.924 161.25 157.703 160.815C157.486 160.381 157.174 160.038 156.77 159.786C156.369 159.535 155.896 159.409 155.351 159.409C154.75 159.409 154.23 159.558 153.791 159.857C153.356 160.151 153.022 160.534 152.787 161.007C152.553 161.48 152.436 161.987 152.436 162.528V163.398C152.436 164.139 152.564 164.768 152.819 165.283C153.079 165.795 153.439 166.185 153.9 166.453C154.36 166.717 154.895 166.849 155.504 166.849C155.9 166.849 156.258 166.794 156.578 166.683C156.902 166.568 157.181 166.398 157.415 166.172C157.65 165.942 157.831 165.656 157.959 165.315L159.416 165.724C159.263 166.219 159.005 166.653 158.642 167.028C158.28 167.399 157.833 167.689 157.3 167.898C156.767 168.102 156.169 168.205 155.504 168.205ZM168.819 160.381L167.464 160.764C167.378 160.538 167.253 160.319 167.086 160.106C166.924 159.888 166.703 159.71 166.422 159.569C166.14 159.428 165.78 159.358 165.341 159.358C164.741 159.358 164.24 159.496 163.839 159.773C163.443 160.046 163.245 160.393 163.245 160.815C163.245 161.19 163.381 161.487 163.654 161.704C163.927 161.921 164.353 162.102 164.932 162.247L166.39 162.605C167.267 162.818 167.922 163.144 168.352 163.583C168.782 164.018 168.998 164.578 168.998 165.264C168.998 165.827 168.836 166.33 168.512 166.773C168.192 167.216 167.745 167.565 167.169 167.821C166.594 168.077 165.925 168.205 165.162 168.205C164.161 168.205 163.332 167.987 162.676 167.553C162.02 167.118 161.604 166.483 161.429 165.648L162.861 165.29C162.998 165.818 163.255 166.214 163.635 166.479C164.018 166.743 164.519 166.875 165.137 166.875C165.84 166.875 166.398 166.726 166.812 166.428C167.229 166.125 167.438 165.763 167.438 165.341C167.438 165 167.319 164.714 167.08 164.484C166.841 164.25 166.475 164.075 165.981 163.96L164.344 163.577C163.445 163.364 162.785 163.033 162.363 162.586C161.945 162.134 161.736 161.57 161.736 160.892C161.736 160.338 161.892 159.848 162.203 159.422C162.518 158.996 162.946 158.661 163.488 158.418C164.033 158.175 164.651 158.054 165.341 158.054C166.313 158.054 167.076 158.267 167.63 158.693C168.188 159.119 168.584 159.682 168.819 160.381Z" fill="#FAFAFA"/>
<g clip-path="url(#clip0_21_365)">
<path d="M101.043 54.7559H86.5693C82.9469 54.7559 80 51.8088 80 48.1866V33.7126C80 30.0902 82.9469 27.1433 86.5693 27.1433H101.043C104.666 27.1433 107.613 30.0902 107.613 33.7126V48.1866C107.613 51.8088 104.666 54.7559 101.043 54.7559ZM86.5693 29.5337C84.265 29.5337 82.3904 31.4084 82.3904 33.7126V48.1866C82.3904 50.4907 84.265 52.3654 86.5693 52.3654H101.043C103.348 52.3654 105.222 50.4907 105.222 48.1866V33.7126C105.222 31.4084 103.348 29.5337 101.043 29.5337H86.5693Z" fill="#FAFAFA" stroke="#FAFAFA" stroke-width="0.398406"/>
<path d="M85.6056 48.753C84.9455 48.753 84.4104 48.2177 84.4104 47.5577V44.8087C84.4104 44.1487 84.9455 43.6135 85.6056 43.6135C86.2657 43.6135 86.8008 44.1487 86.8008 44.8087V47.5577C86.8008 48.2177 86.2657 48.753 85.6056 48.753Z" fill="#FAFAFA" stroke="#FAFAFA" stroke-width="0.398406"/>
<path d="M85.6056 41.5817C84.9455 41.5817 84.4104 41.0464 84.4104 40.3864V34.7809C84.4104 33.0014 85.858 31.5538 87.6375 31.5538H90.2789C90.939 31.5538 91.4741 32.089 91.4741 32.749C91.4741 33.409 90.939 33.9442 90.2789 33.9442H87.6375C87.1761 33.9442 86.8008 34.3196 86.8008 34.7809V40.3864C86.8008 41.0464 86.2657 41.5817 85.6056 41.5817Z" fill="#FAFAFA" stroke="#FAFAFA" stroke-width="0.398406"/>
<path d="M133.431 54.7559H118.957C115.334 54.7559 112.387 51.8089 112.387 48.1866V33.7126C112.387 30.0902 115.334 27.1433 118.957 27.1433H133.431C137.053 27.1433 140 30.0902 140 33.7126V48.1866C140 51.8088 137.053 54.7559 133.431 54.7559ZM118.957 29.5337C116.652 29.5337 114.778 31.4084 114.778 33.7126V48.1866C114.778 50.4907 116.652 52.3654 118.957 52.3654H133.431C135.735 52.3654 137.61 50.4907 137.61 48.1866V33.7126C137.61 31.4084 135.735 29.5337 133.431 29.5337H118.957Z" fill="#FAFAFA" stroke="#FAFAFA" stroke-width="0.398406"/>
<path d="M101.043 86.8567H86.5693C82.9469 86.8567 80 83.9098 80 80.2874V65.8134C80 62.1911 82.9469 59.2441 86.5693 59.2441H101.043C104.666 59.2441 107.613 62.1911 107.613 65.8134V80.2874C107.613 83.9098 104.666 86.8567 101.043 86.8567ZM86.5693 61.6346C84.265 61.6346 82.3904 63.5093 82.3904 65.8134V80.2874C82.3904 82.5916 84.265 84.4663 86.5693 84.4663H101.043C103.348 84.4663 105.222 82.5916 105.222 80.2874V65.8134C105.222 63.5093 103.348 61.6346 101.043 61.6346H86.5693Z" fill="#FAFAFA" stroke="#FAFAFA" stroke-width="0.398406"/>
<path d="M133.431 86.8567H118.957C115.334 86.8567 112.387 83.9098 112.387 80.2874V65.8134C112.387 62.1911 115.334 59.2441 118.957 59.2441H133.431C137.053 59.2441 140 62.1911 140 65.8134V80.2874C140 83.9098 137.053 86.8567 133.431 86.8567ZM118.957 61.6346C116.652 61.6346 114.778 63.5093 114.778 65.8134V80.2874C114.778 82.5916 116.652 84.4663 118.957 84.4663H133.431C135.735 84.4663 137.61 82.5916 137.61 80.2874V65.8134C137.61 63.5093 135.735 61.6346 133.431 61.6346H118.957Z" fill="#FAFAFA" stroke="#FAFAFA" stroke-width="0.398406"/>
</g>
<defs>
<clipPath id="clip0_21_365">
<rect width="60" height="60" fill="white" transform="translate(80 27)"/>
</clipPath>
</defs>
</svg>
