<svg width="34" height="34" viewBox="0 0 34 34" fill="none" xmlns="http://www.w3.org/2000/svg">
<path d="M2 12H32M8.66667 2V5.33333M25.3333 2V5.33333M7 17H10.3333M15.3333 17H18.6667M23.6667 17H27M7 22H10.3333M15.3333 22H18.6667M23.6667 22H27M7 27H10.3333M15.3333 27H18.6667M23.6667 27H27M7.33333 32H26.6667C28.5335 32 29.467 32 30.18 31.6367C30.8072 31.3172 31.3172 30.8072 31.6367 30.18C32 29.467 32 28.5335 32 26.6667V10.6667C32 8.79982 32 7.8664 31.6367 7.15337C31.3172 6.52615 30.8072 6.01622 30.18 5.69665C29.467 5.33333 28.5335 5.33333 26.6667 5.33333H7.33333C5.4665 5.33333 4.53307 5.33333 3.82003 5.69665C3.19282 6.01622 2.68288 6.52615 2.36332 7.15337C2 7.8664 2 8.79982 2 10.6667V26.6667C2 28.5335 2 29.467 2.36332 30.18C2.68288 30.8072 3.19282 31.3172 3.82003 31.6367C4.53307 32 5.46648 32 7.33333 32Z" stroke="#B5BF00" stroke-width="3" stroke-linecap="round"/>
</svg>
