<svg width="22" height="22" viewBox="0 0 22 22" fill="none" xmlns="http://www.w3.org/2000/svg">
<path d="M12.25 11C12.25 10.3096 12.8096 9.75 13.5 9.75H19.75C20.4404 9.75 21 10.3096 21 11V19.75C21 20.4404 20.4404 21 19.75 21H13.5C12.8096 21 12.25 20.4404 12.25 19.75V11Z" stroke="#616161" stroke-width="2" stroke-linecap="round"/>
<path d="M1 2.25C1 1.55965 1.55965 1 2.25 1H7.25C7.94035 1 8.5 1.55965 8.5 2.25V11C8.5 11.6904 7.94035 12.25 7.25 12.25H2.25C1.55965 12.25 1 11.6904 1 11V2.25Z" stroke="#616161" stroke-width="2" stroke-linecap="round"/>
<path d="M1 17.25C1 16.5596 1.55965 16 2.25 16H7.25C7.94035 16 8.5 16.5596 8.5 17.25V19.75C8.5 20.4404 7.94035 21 7.25 21H2.25C1.55965 21 1 20.4404 1 19.75V17.25Z" stroke="#616161" stroke-width="2" stroke-linecap="round"/>
<path d="M12.25 2.25C12.25 1.55965 12.8096 1 13.5 1H19.75C20.4404 1 21 1.55965 21 2.25V4.75C21 5.44035 20.4404 6 19.75 6H13.5C12.8096 6 12.25 5.44035 12.25 4.75V2.25Z" stroke="#616161" stroke-width="2" stroke-linecap="round"/>
</svg>
