<svg width="220" height="175" viewBox="0 0 220 175" fill="none" xmlns="http://www.w3.org/2000/svg">
<rect width="220" height="175" rx="5" fill="#B5BF00"/>
<line x1="82" y1="99.5" x2="139" y2="99.5" stroke="#FAFAFA"/>
<path d="M68.9844 125H64.4957V110.455H69.1832C70.5942 110.455 71.8016 110.746 72.8054 111.328C73.8092 111.906 74.5786 112.737 75.1136 113.821C75.6487 114.901 75.9162 116.193 75.9162 117.699C75.9162 119.214 75.6463 120.518 75.1065 121.612C74.5668 122.701 73.7808 123.539 72.7486 124.126C71.7164 124.709 70.4616 125 68.9844 125ZM66.2571 123.438H68.8707C70.0734 123.438 71.0701 123.205 71.8608 122.741C72.6515 122.277 73.241 121.617 73.6293 120.76C74.0175 119.903 74.2116 118.883 74.2116 117.699C74.2116 116.525 74.0199 115.514 73.6364 114.666C73.2528 113.814 72.6799 113.161 71.9176 112.706C71.1553 112.247 70.206 112.017 69.0696 112.017H66.2571V123.438ZM78.6435 125V114.091H80.3196V125H78.6435ZM79.4957 112.273C79.169 112.273 78.8873 112.161 78.6506 111.939C78.4186 111.716 78.3026 111.449 78.3026 111.136C78.3026 110.824 78.4186 110.556 78.6506 110.334C78.8873 110.111 79.169 110 79.4957 110C79.8224 110 80.1018 110.111 80.3338 110.334C80.5705 110.556 80.6889 110.824 80.6889 111.136C80.6889 111.449 80.5705 111.716 80.3338 111.939C80.1018 112.161 79.8224 112.273 79.4957 112.273ZM91.1168 116.534L89.6112 116.96C89.5165 116.709 89.3768 116.465 89.1921 116.229C89.0122 115.987 88.766 115.788 88.4535 115.632C88.141 115.476 87.7409 115.398 87.2532 115.398C86.5856 115.398 86.0292 115.552 85.5842 115.859C85.1438 116.162 84.9237 116.548 84.9237 117.017C84.9237 117.434 85.0752 117.763 85.3782 118.004C85.6812 118.246 86.1547 118.447 86.7987 118.608L88.418 119.006C89.3933 119.242 90.1201 119.605 90.5984 120.092C91.0766 120.575 91.3157 121.198 91.3157 121.96C91.3157 122.585 91.1358 123.144 90.7759 123.636C90.4208 124.129 89.9237 124.517 89.2844 124.801C88.6452 125.085 87.9019 125.227 87.0543 125.227C85.9416 125.227 85.0207 124.986 84.2915 124.503C83.5624 124.02 83.1007 123.314 82.9066 122.386L84.4975 121.989C84.649 122.576 84.9355 123.016 85.3569 123.31C85.783 123.603 86.3394 123.75 87.0259 123.75C87.8072 123.75 88.4274 123.584 88.8867 123.253C89.3507 122.917 89.5827 122.514 89.5827 122.045C89.5827 121.667 89.4502 121.349 89.185 121.094C88.9199 120.833 88.5127 120.639 87.9634 120.511L86.1452 120.085C85.1462 119.848 84.4123 119.482 83.9435 118.984C83.4795 118.482 83.2475 117.855 83.2475 117.102C83.2475 116.487 83.4203 115.942 83.766 115.469C84.1164 114.995 84.5922 114.624 85.1935 114.354C85.7996 114.084 86.4862 113.949 87.2532 113.949C88.3327 113.949 89.1803 114.186 89.7958 114.659C90.4161 115.133 90.8564 115.758 91.1168 116.534ZM98.4126 125.227C97.3615 125.227 96.4548 124.995 95.6925 124.531C94.9349 124.062 94.3501 123.409 93.9382 122.571C93.531 121.728 93.3274 120.748 93.3274 119.631C93.3274 118.513 93.531 117.528 93.9382 116.676C94.3501 115.819 94.9231 115.152 95.657 114.673C96.3956 114.19 97.2573 113.949 98.2422 113.949C98.8104 113.949 99.3714 114.044 99.9254 114.233C100.479 114.422 100.984 114.73 101.438 115.156C101.893 115.578 102.255 116.136 102.525 116.832C102.795 117.528 102.93 118.385 102.93 119.403V120.114H94.5206V118.665H101.225C101.225 118.049 101.102 117.5 100.856 117.017C100.614 116.534 100.269 116.153 99.8189 115.874C99.3738 115.594 98.8482 115.455 98.2422 115.455C97.5746 115.455 96.9969 115.62 96.5092 115.952C96.0263 116.278 95.6546 116.705 95.3942 117.23C95.1338 117.756 95.0036 118.319 95.0036 118.92V119.886C95.0036 120.71 95.1456 121.409 95.4297 121.982C95.7185 122.55 96.1186 122.983 96.63 123.281C97.1413 123.575 97.7356 123.722 98.4126 123.722C98.853 123.722 99.2507 123.66 99.6058 123.537C99.9657 123.409 100.276 123.22 100.536 122.969C100.797 122.713 100.998 122.396 101.14 122.017L102.759 122.472C102.589 123.021 102.302 123.504 101.9 123.92C101.497 124.332 101 124.654 100.408 124.886C99.8165 125.114 99.1513 125.227 98.4126 125.227ZM107.156 118.438V125H105.479V114.091H107.099V115.795H107.241C107.496 115.241 107.885 114.796 108.406 114.46C108.926 114.119 109.599 113.949 110.423 113.949C111.161 113.949 111.808 114.1 112.362 114.403C112.915 114.702 113.346 115.156 113.654 115.767C113.962 116.373 114.116 117.14 114.116 118.068V125H112.44V118.182C112.44 117.325 112.217 116.657 111.772 116.179C111.327 115.696 110.716 115.455 109.94 115.455C109.405 115.455 108.926 115.571 108.505 115.803C108.088 116.035 107.759 116.373 107.518 116.818C107.276 117.263 107.156 117.803 107.156 118.438ZM107.61 112.784L106.303 112.727C106.303 112.003 106.509 111.411 106.921 110.952C107.338 110.488 107.852 110.256 108.462 110.256C108.732 110.256 108.971 110.303 109.18 110.398C109.388 110.488 109.587 110.592 109.776 110.71C109.966 110.829 110.16 110.935 110.359 111.03C110.562 111.12 110.792 111.165 111.048 111.165C111.317 111.165 111.545 111.061 111.729 110.852C111.919 110.639 112.013 110.384 112.013 110.085L113.292 110.199C113.292 110.937 113.084 111.525 112.667 111.96C112.255 112.396 111.744 112.614 111.133 112.614C110.806 112.614 110.536 112.569 110.323 112.479C110.11 112.384 109.921 112.277 109.755 112.159C109.589 112.041 109.414 111.937 109.229 111.847C109.045 111.752 108.817 111.705 108.548 111.705C108.278 111.705 108.053 111.811 107.873 112.024C107.698 112.232 107.61 112.486 107.61 112.784ZM121.61 125.227C120.626 125.227 119.761 124.993 119.018 124.524C118.279 124.055 117.702 123.4 117.285 122.557C116.873 121.714 116.667 120.729 116.667 119.602C116.667 118.466 116.873 117.474 117.285 116.626C117.702 115.779 118.279 115.121 119.018 114.652C119.761 114.183 120.626 113.949 121.61 113.949C122.595 113.949 123.457 114.183 124.196 114.652C124.939 115.121 125.517 115.779 125.929 116.626C126.345 117.474 126.554 118.466 126.554 119.602C126.554 120.729 126.345 121.714 125.929 122.557C125.517 123.4 124.939 124.055 124.196 124.524C123.457 124.993 122.595 125.227 121.61 125.227ZM121.61 123.722C122.359 123.722 122.974 123.53 123.457 123.146C123.94 122.763 124.297 122.259 124.529 121.634C124.761 121.009 124.877 120.331 124.877 119.602C124.877 118.873 124.761 118.194 124.529 117.564C124.297 116.934 123.94 116.425 123.457 116.037C122.974 115.649 122.359 115.455 121.61 115.455C120.862 115.455 120.247 115.649 119.764 116.037C119.281 116.425 118.923 116.934 118.691 117.564C118.459 118.194 118.343 118.873 118.343 119.602C118.343 120.331 118.459 121.009 118.691 121.634C118.923 122.259 119.281 122.763 119.764 123.146C120.247 123.53 120.862 123.722 121.61 123.722ZM138.857 125.227C137.947 125.227 137.145 124.998 136.449 124.538C135.753 124.074 135.208 123.421 134.815 122.578C134.422 121.731 134.226 120.729 134.226 119.574C134.226 118.428 134.422 117.434 134.815 116.591C135.208 115.748 135.755 115.097 136.456 114.638C137.157 114.179 137.966 113.949 138.885 113.949C139.595 113.949 140.156 114.067 140.568 114.304C140.985 114.536 141.302 114.801 141.52 115.099C141.742 115.393 141.915 115.634 142.038 115.824H142.18V110.455H143.857V125H142.237V123.324H142.038C141.915 123.523 141.74 123.774 141.513 124.077C141.286 124.375 140.961 124.643 140.54 124.879C140.118 125.111 139.557 125.227 138.857 125.227ZM139.084 123.722C139.756 123.722 140.324 123.546 140.788 123.196C141.252 122.841 141.605 122.351 141.847 121.726C142.088 121.096 142.209 120.369 142.209 119.545C142.209 118.731 142.09 118.018 141.854 117.408C141.617 116.792 141.267 116.314 140.803 115.973C140.339 115.627 139.766 115.455 139.084 115.455C138.374 115.455 137.782 115.637 137.308 116.001C136.839 116.361 136.487 116.851 136.25 117.472C136.018 118.087 135.902 118.778 135.902 119.545C135.902 120.322 136.02 121.027 136.257 121.662C136.499 122.292 136.854 122.794 137.322 123.168C137.796 123.537 138.383 123.722 139.084 123.722ZM151.733 125.227C150.682 125.227 149.775 124.995 149.013 124.531C148.255 124.062 147.67 123.409 147.259 122.571C146.851 121.728 146.648 120.748 146.648 119.631C146.648 118.513 146.851 117.528 147.259 116.676C147.67 115.819 148.243 115.152 148.977 114.673C149.716 114.19 150.578 113.949 151.562 113.949C152.131 113.949 152.692 114.044 153.246 114.233C153.8 114.422 154.304 114.73 154.759 115.156C155.213 115.578 155.575 116.136 155.845 116.832C156.115 117.528 156.25 118.385 156.25 119.403V120.114H147.841V118.665H154.545C154.545 118.049 154.422 117.5 154.176 117.017C153.935 116.534 153.589 116.153 153.139 115.874C152.694 115.594 152.169 115.455 151.562 115.455C150.895 115.455 150.317 115.62 149.83 115.952C149.347 116.278 148.975 116.705 148.714 117.23C148.454 117.756 148.324 118.319 148.324 118.92V119.886C148.324 120.71 148.466 121.409 148.75 121.982C149.039 122.55 149.439 122.983 149.95 123.281C150.462 123.575 151.056 123.722 151.733 123.722C152.173 123.722 152.571 123.66 152.926 123.537C153.286 123.409 153.596 123.22 153.857 122.969C154.117 122.713 154.318 122.396 154.46 122.017L156.08 122.472C155.909 123.021 155.623 123.504 155.22 123.92C154.818 124.332 154.321 124.654 153.729 124.886C153.137 125.114 152.472 125.227 151.733 125.227ZM39.3786 149V134.455H41.0547V139.824H41.1967C41.3198 139.634 41.4903 139.393 41.7081 139.099C41.9306 138.801 42.2479 138.536 42.6598 138.304C43.0765 138.067 43.6399 137.949 44.3501 137.949C45.2687 137.949 46.0784 138.179 46.7791 138.638C47.4799 139.097 48.0268 139.748 48.4197 140.591C48.8127 141.434 49.0092 142.428 49.0092 143.574C49.0092 144.729 48.8127 145.731 48.4197 146.578C48.0268 147.421 47.4822 148.074 46.7862 148.538C46.0902 148.998 45.2876 149.227 44.3786 149.227C43.6778 149.227 43.1167 149.111 42.6953 148.879C42.2739 148.643 41.9496 148.375 41.7223 148.077C41.495 147.774 41.3198 147.523 41.1967 147.324H40.9979V149H39.3786ZM41.0263 143.545C41.0263 144.369 41.147 145.096 41.3885 145.726C41.63 146.351 41.9827 146.841 42.4467 147.196C42.9107 147.546 43.4789 147.722 44.1513 147.722C44.852 147.722 45.4368 147.537 45.9055 147.168C46.379 146.794 46.7341 146.292 46.9709 145.662C47.2124 145.027 47.3331 144.322 47.3331 143.545C47.3331 142.778 47.2147 142.087 46.978 141.472C46.746 140.851 46.3932 140.361 45.9197 140.001C45.451 139.637 44.8615 139.455 44.1513 139.455C43.4695 139.455 42.8965 139.627 42.4325 139.973C41.9685 140.314 41.6181 140.792 41.3814 141.408C41.1446 142.018 41.0263 142.731 41.0263 143.545ZM54.7834 149.256C54.0921 149.256 53.4647 149.125 52.9013 148.865C52.3378 148.6 51.8904 148.219 51.5589 147.722C51.2275 147.22 51.0618 146.614 51.0618 145.903C51.0618 145.278 51.1849 144.772 51.4311 144.384C51.6773 143.991 52.0064 143.683 52.4183 143.46C52.8303 143.238 53.2848 143.072 53.782 142.963C54.2839 142.849 54.7881 142.759 55.2947 142.693C55.9576 142.608 56.495 142.544 56.907 142.501C57.3236 142.454 57.6267 142.376 57.8161 142.267C58.0102 142.158 58.1072 141.969 58.1072 141.699V141.642C58.1072 140.941 57.9155 140.397 57.532 140.009C57.1532 139.62 56.5779 139.426 55.8061 139.426C55.0059 139.426 54.3786 139.601 53.924 139.952C53.4695 140.302 53.1499 140.676 52.9652 141.074L51.3743 140.506C51.6584 139.843 52.0372 139.327 52.5107 138.957C52.9889 138.583 53.5097 138.323 54.0732 138.176C54.6413 138.025 55.2 137.949 55.7493 137.949C56.0997 137.949 56.5021 137.991 56.9567 138.077C57.416 138.157 57.8587 138.325 58.2848 138.581C58.7157 138.837 59.0732 139.223 59.3572 139.739C59.6413 140.255 59.7834 140.946 59.7834 141.812V149H58.1072V147.523H58.022C57.9084 147.759 57.719 148.013 57.4538 148.283C57.1887 148.553 56.8359 148.782 56.3956 148.972C55.9553 149.161 55.4179 149.256 54.7834 149.256ZM55.0391 147.75C55.7019 147.75 56.2607 147.62 56.7152 147.359C57.1745 147.099 57.5201 146.763 57.7521 146.351C57.9889 145.939 58.1072 145.506 58.1072 145.051V143.517C58.0362 143.602 57.88 143.68 57.6385 143.751C57.4018 143.818 57.1271 143.877 56.8146 143.929C56.5069 143.976 56.2062 144.019 55.9126 144.057C55.6238 144.09 55.3894 144.118 55.2095 144.142C54.7739 144.199 54.3667 144.291 53.9879 144.419C53.6139 144.542 53.3108 144.729 53.0788 144.98C52.8516 145.226 52.7379 145.562 52.7379 145.989C52.7379 146.571 52.9534 147.011 53.3842 147.31C53.8198 147.603 54.3714 147.75 55.0391 147.75ZM70.57 140.534L69.0643 140.96C68.9696 140.709 68.8299 140.465 68.6452 140.229C68.4653 139.987 68.2191 139.788 67.9066 139.632C67.5941 139.476 67.194 139.398 66.7063 139.398C66.0387 139.398 65.4824 139.552 65.0373 139.859C64.5969 140.162 64.3768 140.548 64.3768 141.017C64.3768 141.434 64.5283 141.763 64.8313 142.004C65.1344 142.246 65.6078 142.447 66.2518 142.608L67.8711 143.006C68.8465 143.242 69.5733 143.605 70.0515 144.092C70.5297 144.575 70.7688 145.198 70.7688 145.96C70.7688 146.585 70.5889 147.144 70.229 147.636C69.8739 148.129 69.3768 148.517 68.7376 148.801C68.0984 149.085 67.355 149.227 66.5075 149.227C65.3948 149.227 64.4738 148.986 63.7447 148.503C63.0155 148.02 62.5539 147.314 62.3597 146.386L63.9506 145.989C64.1022 146.576 64.3886 147.016 64.81 147.31C65.2362 147.603 65.7925 147.75 66.479 147.75C67.2603 147.75 67.8806 147.584 68.3398 147.253C68.8039 146.917 69.0359 146.514 69.0359 146.045C69.0359 145.667 68.9033 145.349 68.6381 145.094C68.373 144.833 67.9658 144.639 67.4165 144.511L65.5984 144.085C64.5993 143.848 63.8654 143.482 63.3967 142.984C62.9326 142.482 62.7006 141.855 62.7006 141.102C62.7006 140.487 62.8735 139.942 63.2191 139.469C63.5695 138.995 64.0453 138.624 64.6467 138.354C65.2527 138.084 65.9393 137.949 66.7063 137.949C67.7859 137.949 68.6334 138.186 69.2489 138.659C69.8692 139.133 70.3095 139.758 70.57 140.534ZM77.8658 149.227C76.8146 149.227 75.9079 148.995 75.1456 148.531C74.388 148.062 73.8033 147.409 73.3913 146.571C72.9841 145.728 72.7805 144.748 72.7805 143.631C72.7805 142.513 72.9841 141.528 73.3913 140.676C73.8033 139.819 74.3762 139.152 75.1101 138.673C75.8487 138.19 76.7105 137.949 77.6953 137.949C78.2635 137.949 78.8246 138.044 79.3786 138.233C79.9325 138.422 80.4368 138.73 80.8913 139.156C81.3459 139.578 81.7081 140.136 81.978 140.832C82.2479 141.528 82.3828 142.385 82.3828 143.403V144.114H73.9737V142.665H80.6783C80.6783 142.049 80.5552 141.5 80.3089 141.017C80.0675 140.534 79.7218 140.153 79.272 139.874C78.8269 139.594 78.3014 139.455 77.6953 139.455C77.0277 139.455 76.45 139.62 75.9624 139.952C75.4794 140.278 75.1077 140.705 74.8473 141.23C74.5869 141.756 74.4567 142.319 74.4567 142.92V143.886C74.4567 144.71 74.5987 145.409 74.8828 145.982C75.1716 146.55 75.5717 146.983 76.0831 147.281C76.5945 147.575 77.1887 147.722 77.8658 147.722C78.3061 147.722 78.7038 147.66 79.0589 147.537C79.4188 147.409 79.7289 147.22 79.9893 146.969C80.2498 146.713 80.451 146.396 80.593 146.017L82.2124 146.472C82.0419 147.021 81.7554 147.504 81.353 147.92C80.9505 148.332 80.4534 148.654 79.8615 148.886C79.2696 149.114 78.6044 149.227 77.8658 149.227ZM92.6598 140.534L91.1541 140.96C91.0594 140.709 90.9197 140.465 90.7351 140.229C90.5552 139.987 90.3089 139.788 89.9964 139.632C89.6839 139.476 89.2839 139.398 88.7962 139.398C88.1286 139.398 87.5722 139.552 87.1271 139.859C86.6868 140.162 86.4666 140.548 86.4666 141.017C86.4666 141.434 86.6181 141.763 86.9212 142.004C87.2242 142.246 87.6977 142.447 88.3416 142.608L89.9609 143.006C90.9363 143.242 91.6631 143.605 92.1413 144.092C92.6196 144.575 92.8587 145.198 92.8587 145.96C92.8587 146.585 92.6787 147.144 92.3189 147.636C91.9638 148.129 91.4666 148.517 90.8274 148.801C90.1882 149.085 89.4448 149.227 88.5973 149.227C87.4846 149.227 86.5637 148.986 85.8345 148.503C85.1054 148.02 84.6437 147.314 84.4496 146.386L86.0405 145.989C86.192 146.576 86.4785 147.016 86.8999 147.31C87.326 147.603 87.8823 147.75 88.5689 147.75C89.3501 147.75 89.9704 147.584 90.4297 147.253C90.8937 146.917 91.1257 146.514 91.1257 146.045C91.1257 145.667 90.9931 145.349 90.728 145.094C90.4628 144.833 90.0556 144.639 89.5064 144.511L87.6882 144.085C86.6892 143.848 85.9553 143.482 85.4865 142.984C85.0225 142.482 84.7905 141.855 84.7905 141.102C84.7905 140.487 84.9633 139.942 85.3089 139.469C85.6593 138.995 86.1352 138.624 86.7365 138.354C87.3426 138.084 88.0291 137.949 88.7962 137.949C89.8757 137.949 90.7232 138.186 91.3388 138.659C91.959 139.133 92.3994 139.758 92.6598 140.534ZM105.126 149.227C104.217 149.227 103.414 148.998 102.718 148.538C102.022 148.074 101.478 147.421 101.085 146.578C100.692 145.731 100.495 144.729 100.495 143.574C100.495 142.428 100.692 141.434 101.085 140.591C101.478 139.748 102.025 139.097 102.725 138.638C103.426 138.179 104.236 137.949 105.154 137.949C105.865 137.949 106.426 138.067 106.838 138.304C107.254 138.536 107.572 138.801 107.789 139.099C108.012 139.393 108.185 139.634 108.308 139.824H108.45V134.455H110.126V149H108.507V147.324H108.308C108.185 147.523 108.01 147.774 107.782 148.077C107.555 148.375 107.231 148.643 106.809 148.879C106.388 149.111 105.827 149.227 105.126 149.227ZM105.353 147.722C106.026 147.722 106.594 147.546 107.058 147.196C107.522 146.841 107.875 146.351 108.116 145.726C108.358 145.096 108.478 144.369 108.478 143.545C108.478 142.731 108.36 142.018 108.123 141.408C107.886 140.792 107.536 140.314 107.072 139.973C106.608 139.627 106.035 139.455 105.353 139.455C104.643 139.455 104.051 139.637 103.578 140.001C103.109 140.361 102.756 140.851 102.52 141.472C102.288 142.087 102.172 142.778 102.172 143.545C102.172 144.322 102.29 145.027 102.527 145.662C102.768 146.292 103.123 146.794 103.592 147.168C104.065 147.537 104.653 147.722 105.353 147.722ZM118.002 149.227C116.951 149.227 116.045 148.995 115.282 148.531C114.525 148.062 113.94 147.409 113.528 146.571C113.121 145.728 112.917 144.748 112.917 143.631C112.917 142.513 113.121 141.528 113.528 140.676C113.94 139.819 114.513 139.152 115.247 138.673C115.985 138.19 116.847 137.949 117.832 137.949C118.4 137.949 118.961 138.044 119.515 138.233C120.069 138.422 120.574 138.73 121.028 139.156C121.483 139.578 121.845 140.136 122.115 140.832C122.385 141.528 122.52 142.385 122.52 143.403V144.114H114.11V142.665H120.815C120.815 142.049 120.692 141.5 120.446 141.017C120.204 140.534 119.859 140.153 119.409 139.874C118.964 139.594 118.438 139.455 117.832 139.455C117.164 139.455 116.587 139.62 116.099 139.952C115.616 140.278 115.244 140.705 114.984 141.23C114.724 141.756 114.593 142.319 114.593 142.92V143.886C114.593 144.71 114.735 145.409 115.02 145.982C115.308 146.55 115.708 146.983 116.22 147.281C116.731 147.575 117.325 147.722 118.002 147.722C118.443 147.722 118.841 147.66 119.196 147.537C119.556 147.409 119.866 147.22 120.126 146.969C120.386 146.713 120.588 146.396 120.73 146.017L122.349 146.472C122.179 147.021 121.892 147.504 121.49 147.92C121.087 148.332 120.59 148.654 119.998 148.886C119.406 149.114 118.741 149.227 118.002 149.227ZM134.814 149.227C133.904 149.227 133.102 148.998 132.406 148.538C131.71 148.074 131.165 147.421 130.772 146.578C130.379 145.731 130.183 144.729 130.183 143.574C130.183 142.428 130.379 141.434 130.772 140.591C131.165 139.748 131.712 139.097 132.413 138.638C133.114 138.179 133.923 137.949 134.842 137.949C135.552 137.949 136.113 138.067 136.525 138.304C136.942 138.536 137.259 138.801 137.477 139.099C137.699 139.393 137.872 139.634 137.995 139.824H138.137V134.455H139.814V149H138.194V147.324H137.995C137.872 147.523 137.697 147.774 137.47 148.077C137.243 148.375 136.918 148.643 136.497 148.879C136.075 149.111 135.514 149.227 134.814 149.227ZM135.041 147.722C135.713 147.722 136.281 147.546 136.745 147.196C137.209 146.841 137.562 146.351 137.804 145.726C138.045 145.096 138.166 144.369 138.166 143.545C138.166 142.731 138.047 142.018 137.811 141.408C137.574 140.792 137.224 140.314 136.76 139.973C136.296 139.627 135.723 139.455 135.041 139.455C134.331 139.455 133.739 139.637 133.265 140.001C132.797 140.361 132.444 140.851 132.207 141.472C131.975 142.087 131.859 142.778 131.859 143.545C131.859 144.322 131.977 145.027 132.214 145.662C132.456 146.292 132.811 146.794 133.279 147.168C133.753 147.537 134.34 147.722 135.041 147.722ZM146.326 149.256C145.635 149.256 145.008 149.125 144.444 148.865C143.881 148.6 143.433 148.219 143.102 147.722C142.77 147.22 142.605 146.614 142.605 145.903C142.605 145.278 142.728 144.772 142.974 144.384C143.22 143.991 143.549 143.683 143.961 143.46C144.373 143.238 144.828 143.072 145.325 142.963C145.827 142.849 146.331 142.759 146.838 142.693C147.501 142.608 148.038 142.544 148.45 142.501C148.867 142.454 149.17 142.376 149.359 142.267C149.553 142.158 149.65 141.969 149.65 141.699V141.642C149.65 140.941 149.458 140.397 149.075 140.009C148.696 139.62 148.121 139.426 147.349 139.426C146.549 139.426 145.922 139.601 145.467 139.952C145.012 140.302 144.693 140.676 144.508 141.074L142.917 140.506C143.201 139.843 143.58 139.327 144.054 138.957C144.532 138.583 145.053 138.323 145.616 138.176C146.184 138.025 146.743 137.949 147.292 137.949C147.643 137.949 148.045 137.991 148.5 138.077C148.959 138.157 149.402 138.325 149.828 138.581C150.259 138.837 150.616 139.223 150.9 139.739C151.184 140.255 151.326 140.946 151.326 141.812V149H149.65V147.523H149.565C149.451 147.759 149.262 148.013 148.997 148.283C148.732 148.553 148.379 148.782 147.939 148.972C147.498 149.161 146.961 149.256 146.326 149.256ZM146.582 147.75C147.245 147.75 147.804 147.62 148.258 147.359C148.717 147.099 149.063 146.763 149.295 146.351C149.532 145.939 149.65 145.506 149.65 145.051V143.517C149.579 143.602 149.423 143.68 149.181 143.751C148.945 143.818 148.67 143.877 148.358 143.929C148.05 143.976 147.749 144.019 147.456 144.057C147.167 144.09 146.932 144.118 146.752 144.142C146.317 144.199 145.91 144.291 145.531 144.419C145.157 144.542 144.854 144.729 144.622 144.98C144.395 145.226 144.281 145.562 144.281 145.989C144.281 146.571 144.496 147.011 144.927 147.31C145.363 147.603 145.914 147.75 146.582 147.75ZM159.13 138.091V139.511H153.477V138.091H159.13ZM155.124 135.477H156.8V145.875C156.8 146.348 156.869 146.704 157.006 146.94C157.148 147.172 157.328 147.329 157.546 147.409C157.769 147.485 158.003 147.523 158.249 147.523C158.434 147.523 158.585 147.513 158.704 147.494C158.822 147.471 158.917 147.452 158.988 147.438L159.329 148.943C159.215 148.986 159.057 149.028 158.853 149.071C158.649 149.118 158.391 149.142 158.079 149.142C157.605 149.142 157.141 149.04 156.687 148.837C156.237 148.633 155.863 148.323 155.565 147.906C155.271 147.49 155.124 146.964 155.124 146.33V135.477ZM165.966 149.227C164.981 149.227 164.117 148.993 163.374 148.524C162.635 148.055 162.057 147.4 161.641 146.557C161.229 145.714 161.023 144.729 161.023 143.602C161.023 142.466 161.229 141.474 161.641 140.626C162.057 139.779 162.635 139.121 163.374 138.652C164.117 138.183 164.981 137.949 165.966 137.949C166.951 137.949 167.813 138.183 168.551 138.652C169.295 139.121 169.872 139.779 170.284 140.626C170.701 141.474 170.909 142.466 170.909 143.602C170.909 144.729 170.701 145.714 170.284 146.557C169.872 147.4 169.295 148.055 168.551 148.524C167.813 148.993 166.951 149.227 165.966 149.227ZM165.966 147.722C166.714 147.722 167.33 147.53 167.812 147.146C168.295 146.763 168.653 146.259 168.885 145.634C169.117 145.009 169.233 144.331 169.233 143.602C169.233 142.873 169.117 142.194 168.885 141.564C168.653 140.934 168.295 140.425 167.812 140.037C167.33 139.649 166.714 139.455 165.966 139.455C165.218 139.455 164.602 139.649 164.119 140.037C163.636 140.425 163.279 140.934 163.047 141.564C162.815 142.194 162.699 142.873 162.699 143.602C162.699 144.331 162.815 145.009 163.047 145.634C163.279 146.259 163.636 146.763 164.119 147.146C164.602 147.53 165.218 147.722 165.966 147.722ZM181.195 140.534L179.689 140.96C179.595 140.709 179.455 140.465 179.27 140.229C179.09 139.987 178.844 139.788 178.532 139.632C178.219 139.476 177.819 139.398 177.331 139.398C176.664 139.398 176.107 139.552 175.662 139.859C175.222 140.162 175.002 140.548 175.002 141.017C175.002 141.434 175.153 141.763 175.456 142.004C175.759 142.246 176.233 142.447 176.877 142.608L178.496 143.006C179.471 143.242 180.198 143.605 180.676 144.092C181.155 144.575 181.394 145.198 181.394 145.96C181.394 146.585 181.214 147.144 180.854 147.636C180.499 148.129 180.002 148.517 179.363 148.801C178.723 149.085 177.98 149.227 177.132 149.227C176.02 149.227 175.099 148.986 174.37 148.503C173.641 148.02 173.179 147.314 172.985 146.386L174.576 145.989C174.727 146.576 175.014 147.016 175.435 147.31C175.861 147.603 176.417 147.75 177.104 147.75C177.885 147.75 178.506 147.584 178.965 147.253C179.429 146.917 179.661 146.514 179.661 146.045C179.661 145.667 179.528 145.349 179.263 145.094C178.998 144.833 178.591 144.639 178.042 144.511L176.223 144.085C175.224 143.848 174.49 143.482 174.022 142.984C173.558 142.482 173.326 141.855 173.326 141.102C173.326 140.487 173.498 139.942 173.844 139.469C174.194 138.995 174.67 138.624 175.272 138.354C175.878 138.084 176.564 137.949 177.331 137.949C178.411 137.949 179.258 138.186 179.874 138.659C180.494 139.133 180.935 139.758 181.195 140.534Z" fill="#FAFAFA"/>
<path d="M91.4814 70.8889V43.1111" stroke="#FAFAFA" stroke-width="2.4" stroke-linecap="round"/>
<path d="M128.519 43.1111V70.8889" stroke="#FAFAFA" stroke-width="2.4" stroke-linecap="round"/>
<path d="M110 52.3704C120.228 52.3704 128.518 48.2249 128.518 43.1111C128.518 37.9974 120.228 33.8519 110 33.8519C99.7725 33.8519 91.4814 37.9974 91.4814 43.1111C91.4814 48.2249 99.7725 52.3704 110 52.3704Z" stroke="#FAFAFA" stroke-width="2.4"/>
<path d="M128.518 57C128.518 62.1137 120.228 66.2593 110 66.2593C99.7725 66.2593 91.4814 62.1137 91.4814 57" stroke="#FAFAFA" stroke-width="2.4"/>
<path d="M128.518 70.8889C128.518 76.0026 120.228 80.1482 110 80.1482C99.7725 80.1482 91.4814 76.0026 91.4814 70.8889" stroke="#FAFAFA" stroke-width="2.4"/>
</svg>
