<svg width="220" height="175" viewBox="0 0 220 175" fill="none" xmlns="http://www.w3.org/2000/svg">
<rect width="220" height="175" rx="5" fill="#B5BF00"/>
<line x1="82" y1="100.656" x2="139" y2="100.656" stroke="#FAFAFA"/>
<path d="M54.8509 125.225V112.135H62.7514V113.541H56.4361V117.964H62.3423V119.37H56.4361V123.819H62.8537V125.225H54.8509ZM72.3587 117.606L71.0036 117.99C70.9183 117.764 70.7926 117.544 70.6264 117.331C70.4645 117.114 70.2429 116.935 69.9616 116.794C69.6804 116.654 69.3203 116.583 68.8814 116.583C68.2805 116.583 67.7798 116.722 67.3793 116.999C66.983 117.272 66.7848 117.619 66.7848 118.041C66.7848 118.416 66.9212 118.712 67.1939 118.929C67.4666 119.147 67.8928 119.328 68.4723 119.473L69.9297 119.831C70.8075 120.044 71.4616 120.37 71.892 120.809C72.3224 121.243 72.5376 121.804 72.5376 122.49C72.5376 123.052 72.3757 123.555 72.0518 123.998C71.7322 124.441 71.2848 124.791 70.7095 125.046C70.1342 125.302 69.4652 125.43 68.7024 125.43C67.701 125.43 66.8722 125.213 66.2159 124.778C65.5597 124.343 65.1442 123.708 64.9695 122.873L66.4013 122.515C66.5376 123.044 66.7955 123.44 67.1747 123.704C67.5582 123.968 68.0589 124.1 68.6768 124.1C69.38 124.1 69.9382 123.951 70.3516 123.653C70.7692 123.35 70.978 122.988 70.978 122.566C70.978 122.225 70.8587 121.94 70.62 121.71C70.3814 121.475 70.0149 121.301 69.5206 121.186L67.8842 120.802C66.9851 120.589 66.3246 120.259 65.9027 119.811C65.4851 119.36 65.2763 118.795 65.2763 118.118C65.2763 117.564 65.4318 117.073 65.7429 116.647C66.0582 116.221 66.4865 115.887 67.0277 115.644C67.5732 115.401 68.1911 115.279 68.8814 115.279C69.853 115.279 70.6158 115.493 71.1697 115.919C71.728 116.345 72.1243 116.907 72.3587 117.606ZM79.0783 115.407V116.686H73.9902V115.407H79.0783ZM75.4732 113.055H76.9817V122.413C76.9817 122.839 77.0435 123.159 77.1671 123.372C77.2949 123.581 77.4569 123.721 77.6529 123.794C77.8532 123.862 78.0641 123.896 78.2857 123.896C78.4519 123.896 78.5882 123.887 78.6948 123.87C78.8013 123.849 78.8865 123.832 78.9505 123.819L79.2573 125.174C79.155 125.213 79.0123 125.251 78.829 125.289C78.6458 125.332 78.4135 125.353 78.1323 125.353C77.7061 125.353 77.2885 125.262 76.8794 125.078C76.4746 124.895 76.138 124.616 75.8695 124.241C75.6053 123.866 75.4732 123.393 75.4732 122.822V113.055ZM81.3475 125.225V115.407H82.8049V116.89H82.9071C83.0861 116.404 83.41 116.01 83.8787 115.708C84.3475 115.405 84.8759 115.254 85.464 115.254C85.5748 115.254 85.7132 115.256 85.8794 115.26C86.0456 115.265 86.1713 115.271 86.2566 115.279V116.814C86.2054 116.801 86.0882 116.782 85.905 116.756C85.726 116.726 85.5364 116.711 85.3361 116.711C84.8588 116.711 84.4327 116.811 84.0577 117.012C83.687 117.208 83.3929 117.48 83.1756 117.83C82.9625 118.175 82.856 118.569 82.856 119.012V125.225H81.3475ZM94.2322 121.211V115.407H95.7408V125.225H94.2322V123.564H94.13C93.8999 124.062 93.5419 124.486 93.0561 124.836C92.5703 125.181 91.9567 125.353 91.2152 125.353C90.6016 125.353 90.0561 125.219 89.5788 124.951C89.1016 124.678 88.7266 124.269 88.4538 123.723C88.1811 123.174 88.0447 122.481 88.0447 121.646V115.407H89.5533V121.544C89.5533 122.26 89.7536 122.831 90.1541 123.257C90.5589 123.683 91.0746 123.896 91.701 123.896C92.076 123.896 92.4574 123.8 92.8452 123.608C93.2372 123.417 93.5653 123.122 93.8295 122.726C94.098 122.33 94.2322 121.825 94.2322 121.211ZM102.492 125.43C101.572 125.43 100.779 125.213 100.115 124.778C99.4498 124.343 98.9384 123.745 98.5804 122.982C98.2225 122.219 98.0435 121.348 98.0435 120.368C98.0435 119.37 98.2267 118.49 98.5932 117.728C98.964 116.961 99.4796 116.362 100.14 115.931C100.805 115.497 101.58 115.279 102.467 115.279C103.157 115.279 103.779 115.407 104.333 115.663C104.887 115.919 105.341 116.277 105.695 116.737C106.048 117.197 106.268 117.734 106.353 118.348H104.845C104.73 117.9 104.474 117.504 104.078 117.159C103.686 116.809 103.157 116.635 102.492 116.635C101.904 116.635 101.389 116.788 100.945 117.095C100.507 117.397 100.164 117.826 99.9164 118.38C99.6735 118.929 99.552 119.575 99.552 120.316C99.552 121.075 99.6713 121.735 99.91 122.298C100.153 122.86 100.494 123.297 100.933 123.608C101.376 123.919 101.896 124.075 102.492 124.075C102.884 124.075 103.24 124.007 103.56 123.87C103.879 123.734 104.15 123.538 104.372 123.282C104.593 123.027 104.751 122.72 104.845 122.362H106.353C106.268 122.941 106.057 123.463 105.72 123.928C105.388 124.388 104.947 124.755 104.397 125.027C103.852 125.296 103.217 125.43 102.492 125.43ZM112.828 115.407V116.686H107.74V115.407H112.828ZM109.223 113.055H110.732V122.413C110.732 122.839 110.794 123.159 110.917 123.372C111.045 123.581 111.207 123.721 111.403 123.794C111.603 123.862 111.814 123.896 112.036 123.896C112.202 123.896 112.338 123.887 112.445 123.87C112.551 123.849 112.637 123.832 112.7 123.819L113.007 125.174C112.905 125.213 112.762 125.251 112.579 125.289C112.396 125.332 112.164 125.353 111.882 125.353C111.456 125.353 111.039 125.262 110.629 125.078C110.225 124.895 109.888 124.616 109.619 124.241C109.355 123.866 109.223 123.393 109.223 122.822V113.055ZM121.285 121.211V115.407H122.794V125.225H121.285V123.564H121.183C120.953 124.062 120.595 124.486 120.109 124.836C119.623 125.181 119.009 125.353 118.268 125.353C117.654 125.353 117.109 125.219 116.632 124.951C116.154 124.678 115.779 124.269 115.507 123.723C115.234 123.174 115.097 122.481 115.097 121.646V115.407H116.606V121.544C116.606 122.26 116.806 122.831 117.207 123.257C117.612 123.683 118.127 123.896 118.754 123.896C119.129 123.896 119.51 123.8 119.898 123.608C120.29 123.417 120.618 123.122 120.882 122.726C121.151 122.33 121.285 121.825 121.285 121.211ZM125.556 125.225V115.407H127.014V116.89H127.116C127.295 116.404 127.619 116.01 128.088 115.708C128.556 115.405 129.085 115.254 129.673 115.254C129.784 115.254 129.922 115.256 130.088 115.26C130.255 115.265 130.38 115.271 130.466 115.279V116.814C130.414 116.801 130.297 116.782 130.114 116.756C129.935 116.726 129.745 116.711 129.545 116.711C129.068 116.711 128.642 116.811 128.267 117.012C127.896 117.208 127.602 117.48 127.385 117.83C127.172 118.175 127.065 118.569 127.065 119.012V125.225H125.556ZM135.143 125.456C134.521 125.456 133.956 125.338 133.449 125.104C132.942 124.865 132.539 124.522 132.241 124.075C131.943 123.623 131.794 123.078 131.794 122.439C131.794 121.876 131.904 121.42 132.126 121.071C132.347 120.717 132.644 120.44 133.014 120.24C133.385 120.039 133.794 119.89 134.242 119.792C134.693 119.69 135.147 119.609 135.603 119.549C136.2 119.473 136.683 119.415 137.054 119.377C137.429 119.334 137.702 119.264 137.872 119.166C138.047 119.068 138.134 118.897 138.134 118.654V118.603C138.134 117.973 137.962 117.483 137.617 117.133C137.276 116.784 136.758 116.609 136.063 116.609C135.343 116.609 134.779 116.767 134.369 117.082C133.96 117.397 133.673 117.734 133.507 118.092L132.075 117.581C132.33 116.984 132.671 116.519 133.097 116.187C133.528 115.85 133.997 115.616 134.504 115.484C135.015 115.348 135.518 115.279 136.012 115.279C136.328 115.279 136.69 115.318 137.099 115.394C137.512 115.467 137.911 115.618 138.294 115.848C138.682 116.078 139.004 116.426 139.259 116.89C139.515 117.355 139.643 117.977 139.643 118.757V125.225H138.134V123.896H138.058C137.955 124.109 137.785 124.337 137.546 124.58C137.308 124.823 136.99 125.029 136.594 125.2C136.198 125.37 135.714 125.456 135.143 125.456ZM135.373 124.1C135.97 124.1 136.472 123.983 136.882 123.749C137.295 123.515 137.606 123.212 137.815 122.841C138.028 122.47 138.134 122.081 138.134 121.671V120.291C138.07 120.368 137.93 120.438 137.713 120.502C137.499 120.561 137.252 120.615 136.971 120.662C136.694 120.704 136.423 120.743 136.159 120.777C135.899 120.806 135.688 120.832 135.526 120.853C135.134 120.904 134.768 120.988 134.427 121.103C134.09 121.213 133.818 121.382 133.609 121.608C133.404 121.829 133.302 122.132 133.302 122.515C133.302 123.039 133.496 123.436 133.884 123.704C134.276 123.968 134.772 124.1 135.373 124.1ZM151.166 125.43C150.348 125.43 149.626 125.223 148.999 124.81C148.373 124.392 147.883 123.804 147.529 123.046C147.175 122.283 146.999 121.382 146.999 120.342C146.999 119.311 147.175 118.416 147.529 117.657C147.883 116.899 148.375 116.313 149.006 115.899C149.636 115.486 150.365 115.279 151.192 115.279C151.831 115.279 152.336 115.386 152.707 115.599C153.082 115.808 153.367 116.046 153.563 116.315C153.763 116.579 153.919 116.796 154.03 116.967H154.158V112.135H155.666V125.225H154.209V123.717H154.03C153.919 123.896 153.761 124.122 153.557 124.394C153.352 124.663 153.06 124.904 152.681 125.117C152.302 125.326 151.797 125.43 151.166 125.43ZM151.371 124.075C151.976 124.075 152.487 123.917 152.905 123.602C153.322 123.282 153.64 122.841 153.857 122.279C154.075 121.712 154.183 121.058 154.183 120.316C154.183 119.583 154.077 118.942 153.864 118.392C153.651 117.838 153.335 117.408 152.918 117.101C152.5 116.79 151.984 116.635 151.371 116.635C150.732 116.635 150.199 116.799 149.773 117.127C149.351 117.451 149.033 117.892 148.82 118.45C148.612 119.004 148.507 119.626 148.507 120.316C148.507 121.015 148.614 121.65 148.827 122.221C149.044 122.788 149.364 123.24 149.786 123.576C150.212 123.909 150.74 124.075 151.371 124.075ZM162.755 125.43C161.809 125.43 160.993 125.221 160.307 124.804C159.625 124.382 159.099 123.794 158.728 123.039C158.362 122.281 158.178 121.399 158.178 120.393C158.178 119.387 158.362 118.501 158.728 117.734C159.099 116.963 159.614 116.362 160.275 115.931C160.94 115.497 161.715 115.279 162.602 115.279C163.113 115.279 163.618 115.365 164.116 115.535C164.615 115.706 165.069 115.983 165.478 116.366C165.887 116.745 166.213 117.248 166.456 117.875C166.699 118.501 166.82 119.272 166.82 120.189V120.828H159.252V119.524H165.286C165.286 118.97 165.175 118.475 164.954 118.041C164.737 117.606 164.425 117.263 164.021 117.012C163.62 116.76 163.147 116.635 162.602 116.635C162.001 116.635 161.481 116.784 161.042 117.082C160.607 117.376 160.273 117.76 160.038 118.233C159.804 118.706 159.687 119.213 159.687 119.754V120.623C159.687 121.365 159.815 121.993 160.07 122.509C160.33 123.02 160.69 123.41 161.151 123.679C161.611 123.943 162.146 124.075 162.755 124.075C163.151 124.075 163.509 124.019 163.829 123.909C164.153 123.794 164.432 123.623 164.666 123.397C164.901 123.167 165.082 122.882 165.21 122.541L166.667 122.95C166.513 123.444 166.256 123.879 165.893 124.254C165.531 124.625 165.084 124.914 164.551 125.123C164.018 125.328 163.42 125.43 162.755 125.43ZM91.6379 147.43C90.8197 147.43 90.0974 147.223 89.471 146.81C88.8445 146.392 88.3545 145.804 88.0008 145.046C87.6471 144.283 87.4703 143.382 87.4703 142.342C87.4703 141.311 87.6471 140.416 88.0008 139.657C88.3545 138.899 88.8467 138.313 89.4774 137.899C90.108 137.486 90.8367 137.279 91.6634 137.279C92.3026 137.279 92.8076 137.386 93.1784 137.599C93.5534 137.808 93.8389 138.046 94.0349 138.315C94.2352 138.579 94.3907 138.796 94.5015 138.967H94.6294V134.135H96.1379V147.225H94.6805V145.717H94.5015C94.3907 145.896 94.233 146.122 94.0285 146.394C93.824 146.663 93.532 146.904 93.1528 147.117C92.7735 147.326 92.2686 147.43 91.6379 147.43ZM91.8424 146.075C92.4475 146.075 92.9589 145.917 93.3765 145.602C93.7941 145.282 94.1116 144.841 94.3289 144.279C94.5463 143.712 94.6549 143.058 94.6549 142.316C94.6549 141.583 94.5484 140.942 94.3353 140.392C94.1222 139.838 93.8069 139.408 93.3893 139.101C92.9717 138.79 92.4561 138.635 91.8424 138.635C91.2032 138.635 90.6705 138.799 90.2444 139.127C89.8225 139.451 89.5051 139.892 89.292 140.45C89.0832 141.004 88.9788 141.626 88.9788 142.316C88.9788 143.015 89.0853 143.65 89.2984 144.221C89.5157 144.788 89.8353 145.24 90.2572 145.576C90.6833 145.909 91.2117 146.075 91.8424 146.075ZM101.999 147.456C101.377 147.456 100.813 147.338 100.305 147.104C99.7984 146.865 99.3957 146.522 99.0974 146.075C98.7991 145.623 98.6499 145.078 98.6499 144.439C98.6499 143.876 98.7607 143.42 98.9823 143.071C99.2039 142.717 99.5001 142.44 99.8708 142.24C100.242 142.039 100.651 141.89 101.098 141.792C101.55 141.69 102.004 141.609 102.46 141.549C103.056 141.473 103.54 141.415 103.911 141.377C104.286 141.334 104.558 141.264 104.729 141.166C104.903 141.068 104.991 140.897 104.991 140.654V140.603C104.991 139.973 104.818 139.483 104.473 139.133C104.132 138.784 103.614 138.609 102.92 138.609C102.2 138.609 101.635 138.767 101.226 139.082C100.817 139.397 100.529 139.734 100.363 140.092L98.9312 139.581C99.1869 138.984 99.5278 138.519 99.9539 138.187C100.384 137.85 100.853 137.616 101.36 137.484C101.872 137.348 102.374 137.279 102.869 137.279C103.184 137.279 103.546 137.318 103.955 137.394C104.369 137.467 104.767 137.618 105.151 137.848C105.538 138.078 105.86 138.426 106.116 138.89C106.372 139.355 106.499 139.977 106.499 140.757V147.225H104.991V145.896H104.914C104.812 146.109 104.641 146.337 104.403 146.58C104.164 146.823 103.847 147.029 103.45 147.2C103.054 147.37 102.57 147.456 101.999 147.456ZM102.229 146.1C102.826 146.1 103.329 145.983 103.738 145.749C104.151 145.515 104.462 145.212 104.671 144.841C104.884 144.47 104.991 144.081 104.991 143.671V142.291C104.927 142.368 104.786 142.438 104.569 142.502C104.356 142.561 104.109 142.615 103.828 142.662C103.551 142.704 103.28 142.743 103.016 142.777C102.756 142.806 102.545 142.832 102.383 142.853C101.991 142.904 101.624 142.988 101.283 143.103C100.947 143.213 100.674 143.382 100.465 143.608C100.261 143.829 100.158 144.132 100.158 144.515C100.158 145.039 100.352 145.436 100.74 145.704C101.132 145.968 101.629 146.1 102.229 146.1ZM113.523 137.407V138.686H108.435V137.407H113.523ZM109.918 135.055H111.426V144.413C111.426 144.839 111.488 145.159 111.611 145.372C111.739 145.581 111.901 145.721 112.097 145.794C112.297 145.862 112.508 145.896 112.73 145.896C112.896 145.896 113.033 145.887 113.139 145.87C113.246 145.849 113.331 145.832 113.395 145.819L113.702 147.174C113.599 147.213 113.457 147.251 113.273 147.289C113.09 147.332 112.858 147.353 112.577 147.353C112.15 147.353 111.733 147.262 111.324 147.078C110.919 146.895 110.582 146.616 110.314 146.241C110.05 145.866 109.918 145.393 109.918 144.822V135.055ZM119.675 147.43C118.789 147.43 118.011 147.219 117.342 146.797C116.677 146.375 116.157 145.785 115.782 145.027C115.411 144.268 115.226 143.382 115.226 142.368C115.226 141.345 115.411 140.452 115.782 139.689C116.157 138.926 116.677 138.334 117.342 137.912C118.011 137.49 118.789 137.279 119.675 137.279C120.561 137.279 121.337 137.49 122.002 137.912C122.671 138.334 123.191 138.926 123.561 139.689C123.936 140.452 124.124 141.345 124.124 142.368C124.124 143.382 123.936 144.268 123.561 145.027C123.191 145.785 122.671 146.375 122.002 146.797C121.337 147.219 120.561 147.43 119.675 147.43ZM119.675 146.075C120.348 146.075 120.902 145.902 121.337 145.557C121.772 145.212 122.093 144.758 122.302 144.196C122.511 143.633 122.615 143.024 122.615 142.368C122.615 141.711 122.511 141.1 122.302 140.533C122.093 139.966 121.772 139.508 121.337 139.159C120.902 138.809 120.348 138.635 119.675 138.635C119.002 138.635 118.448 138.809 118.013 139.159C117.578 139.508 117.257 139.966 117.048 140.533C116.839 141.1 116.735 141.711 116.735 142.368C116.735 143.024 116.839 143.633 117.048 144.196C117.257 144.758 117.578 145.212 118.013 145.557C118.448 145.902 119.002 146.075 119.675 146.075ZM133.381 139.606L132.026 139.99C131.941 139.764 131.815 139.544 131.649 139.331C131.487 139.114 131.265 138.935 130.984 138.794C130.703 138.654 130.343 138.583 129.904 138.583C129.303 138.583 128.802 138.722 128.402 138.999C128.005 139.272 127.807 139.619 127.807 140.041C127.807 140.416 127.944 140.712 128.216 140.929C128.489 141.147 128.915 141.328 129.495 141.473L130.952 141.831C131.83 142.044 132.484 142.37 132.915 142.809C133.345 143.243 133.56 143.804 133.56 144.49C133.56 145.052 133.398 145.555 133.074 145.998C132.755 146.441 132.307 146.791 131.732 147.046C131.157 147.302 130.488 147.43 129.725 147.43C128.723 147.43 127.895 147.213 127.238 146.778C126.582 146.343 126.167 145.708 125.992 144.873L127.424 144.515C127.56 145.044 127.818 145.44 128.197 145.704C128.581 145.968 129.081 146.1 129.699 146.1C130.402 146.1 130.961 145.951 131.374 145.653C131.792 145.35 132 144.988 132 144.566C132 144.225 131.881 143.94 131.642 143.71C131.404 143.475 131.037 143.301 130.543 143.186L128.907 142.802C128.008 142.589 127.347 142.259 126.925 141.811C126.508 141.36 126.299 140.795 126.299 140.118C126.299 139.564 126.454 139.073 126.765 138.647C127.081 138.221 127.509 137.887 128.05 137.644C128.596 137.401 129.214 137.279 129.904 137.279C130.875 137.279 131.638 137.493 132.192 137.919C132.75 138.345 133.147 138.907 133.381 139.606Z" fill="#FAFAFA"/>
<path d="M131 66C133.761 66 136 63.7615 136 61C136 58.2385 133.761 56 131 56C128.239 56 126 58.2385 126 61C126 63.7615 128.239 66 131 66Z" stroke="#FAFAFA" stroke-width="4" stroke-linecap="round" stroke-linejoin="round"/>
<path d="M131 46C133.761 46 136 43.7614 136 41C136 38.2386 133.761 36 131 36C128.239 36 126 38.2386 126 41C126 43.7614 128.239 46 131 46Z" stroke="#FAFAFA" stroke-width="4" stroke-linecap="round" stroke-linejoin="round"/>
<path d="M131 86C133.761 86 136 83.7615 136 81C136 78.2385 133.761 76 131 76C128.239 76 126 78.2385 126 81C126 83.7615 128.239 86 131 86Z" stroke="#FAFAFA" stroke-width="4" stroke-linecap="round" stroke-linejoin="round"/>
<path d="M91 66C93.7614 66 96 63.7615 96 61C96 58.2385 93.7614 56 91 56C88.2386 56 86 58.2385 86 61C86 63.7615 88.2386 66 91 66Z" stroke="#FAFAFA" stroke-width="4" stroke-linecap="round" stroke-linejoin="round"/>
<path d="M96 61H126" stroke="#FAFAFA" stroke-width="4" stroke-linecap="round" stroke-linejoin="round"/>
<path d="M126 41H116C111 41 108.5 43.5 108.5 48.5V73.5C108.5 78.5 111 81 116 81H126" stroke="#FAFAFA" stroke-width="4" stroke-linecap="round" stroke-linejoin="round"/>
</svg>
