<svg width="220" height="175" viewBox="0 0 220 175" fill="none" xmlns="http://www.w3.org/2000/svg">
<rect width="220" height="175" rx="5" fill="#B5BF00"/>
<line x1="82" y1="99.5" x2="139" y2="99.5" stroke="#FAFAFA"/>
<path d="M48.1676 125V110.455H56.946V112.017H49.929V116.932H56.4915V118.494H49.929V123.438H57.0597V125H48.1676ZM67.6207 116.534L66.1151 116.96C66.0204 116.709 65.8807 116.465 65.696 116.229C65.5161 115.987 65.2699 115.788 64.9574 115.632C64.6449 115.476 64.2448 115.398 63.7571 115.398C63.0895 115.398 62.5331 115.552 62.0881 115.859C61.6477 116.162 61.4276 116.548 61.4276 117.017C61.4276 117.434 61.5791 117.763 61.8821 118.004C62.1851 118.246 62.6586 118.447 63.3026 118.608L64.9219 119.006C65.8973 119.242 66.6241 119.605 67.1023 120.092C67.5805 120.575 67.8196 121.198 67.8196 121.96C67.8196 122.585 67.6397 123.144 67.2798 123.636C66.9247 124.129 66.4276 124.517 65.7884 124.801C65.1491 125.085 64.4058 125.227 63.5582 125.227C62.4455 125.227 61.5246 124.986 60.7955 124.503C60.0663 124.02 59.6046 123.314 59.4105 122.386L61.0014 121.989C61.1529 122.576 61.4394 123.016 61.8608 123.31C62.2869 123.603 62.8433 123.75 63.5298 123.75C64.3111 123.75 64.9313 123.584 65.3906 123.253C65.8546 122.917 66.0866 122.514 66.0866 122.045C66.0866 121.667 65.9541 121.349 65.6889 121.094C65.4238 120.833 65.0166 120.639 64.4673 120.511L62.6491 120.085C61.6501 119.848 60.9162 119.482 60.4474 118.984C59.9834 118.482 59.7514 117.855 59.7514 117.102C59.7514 116.487 59.9242 115.942 60.2699 115.469C60.6203 114.995 61.0961 114.624 61.6974 114.354C62.3035 114.084 62.9901 113.949 63.7571 113.949C64.8366 113.949 65.6842 114.186 66.2997 114.659C66.92 115.133 67.3603 115.758 67.6207 116.534ZM75.087 114.091V115.511H69.4336V114.091H75.087ZM71.0813 111.477H72.7575V121.875C72.7575 122.348 72.8261 122.704 72.9634 122.94C73.1055 123.172 73.2854 123.329 73.5032 123.409C73.7257 123.485 73.9601 123.523 74.2063 123.523C74.391 123.523 74.5425 123.513 74.6609 123.494C74.7792 123.471 74.8739 123.452 74.945 123.438L75.2859 124.943C75.1722 124.986 75.0136 125.028 74.81 125.071C74.6064 125.118 74.3484 125.142 74.0359 125.142C73.5624 125.142 73.0984 125.04 72.6438 124.837C72.194 124.633 71.82 124.323 71.5217 123.906C71.2281 123.49 71.0813 122.964 71.0813 122.33V111.477ZM77.6083 125V114.091H79.2276V115.739H79.3413C79.5401 115.199 79.9 114.761 80.4208 114.425C80.9416 114.089 81.5288 113.92 82.1822 113.92C82.3053 113.92 82.4592 113.923 82.6438 113.928C82.8285 113.932 82.9682 113.939 83.0629 113.949V115.653C83.006 115.639 82.8758 115.618 82.6722 115.589C82.4734 115.556 82.2627 115.54 82.0401 115.54C81.5098 115.54 81.0363 115.651 80.6197 115.874C80.2077 116.091 79.881 116.394 79.6396 116.783C79.4028 117.166 79.2844 117.604 79.2844 118.097V125H77.6083ZM91.9247 120.54V114.091H93.6009V125H91.9247V123.153H91.8111C91.5554 123.707 91.1577 124.179 90.6179 124.567C90.0781 124.95 89.3963 125.142 88.5724 125.142C87.8906 125.142 87.2846 124.993 86.7543 124.695C86.224 124.392 85.8073 123.937 85.5043 123.331C85.2012 122.72 85.0497 121.951 85.0497 121.023V114.091H86.7259V120.909C86.7259 121.705 86.9484 122.339 87.3935 122.812C87.8433 123.286 88.4162 123.523 89.1122 123.523C89.5289 123.523 89.9527 123.416 90.3835 123.203C90.8191 122.99 91.1837 122.663 91.4773 122.223C91.7756 121.783 91.9247 121.222 91.9247 120.54ZM101.103 125.227C100.08 125.227 99.1992 124.986 98.4606 124.503C97.7219 124.02 97.1538 123.355 96.756 122.507C96.3583 121.66 96.1594 120.691 96.1594 119.602C96.1594 118.494 96.363 117.517 96.7702 116.669C97.1822 115.817 97.7551 115.152 98.489 114.673C99.2276 114.19 100.089 113.949 101.074 113.949C101.841 113.949 102.533 114.091 103.148 114.375C103.764 114.659 104.268 115.057 104.661 115.568C105.054 116.08 105.298 116.676 105.392 117.358H103.716C103.588 116.861 103.304 116.42 102.864 116.037C102.428 115.649 101.841 115.455 101.103 115.455C100.449 115.455 99.8763 115.625 99.3839 115.966C98.8962 116.302 98.515 116.778 98.2404 117.393C97.9705 118.004 97.8356 118.722 97.8356 119.545C97.8356 120.388 97.9682 121.122 98.2333 121.747C98.5032 122.372 98.882 122.857 99.3697 123.203C99.8621 123.549 100.44 123.722 101.103 123.722C101.538 123.722 101.934 123.646 102.289 123.494C102.644 123.343 102.944 123.125 103.191 122.841C103.437 122.557 103.612 122.216 103.716 121.818H105.392C105.298 122.462 105.063 123.042 104.689 123.558C104.32 124.07 103.83 124.477 103.219 124.78C102.613 125.078 101.908 125.227 101.103 125.227ZM112.587 114.091V115.511H106.934V114.091H112.587ZM108.581 111.477H110.257V121.875C110.257 122.348 110.326 122.704 110.463 122.94C110.605 123.172 110.785 123.329 111.003 123.409C111.226 123.485 111.46 123.523 111.706 123.523C111.891 123.523 112.042 123.513 112.161 123.494C112.279 123.471 112.374 123.452 112.445 123.438L112.786 124.943C112.672 124.986 112.514 125.028 112.31 125.071C112.106 125.118 111.848 125.142 111.536 125.142C111.062 125.142 110.598 125.04 110.144 124.837C109.694 124.633 109.32 124.323 109.022 123.906C108.728 123.49 108.581 122.964 108.581 122.33V111.477ZM121.983 120.54V114.091H123.659V125H121.983V123.153H121.87C121.614 123.707 121.216 124.179 120.676 124.567C120.137 124.95 119.455 125.142 118.631 125.142C117.949 125.142 117.343 124.993 116.813 124.695C116.283 124.392 115.866 123.937 115.563 123.331C115.26 122.72 115.108 121.951 115.108 121.023V114.091H116.784V120.909C116.784 121.705 117.007 122.339 117.452 122.812C117.902 123.286 118.475 123.523 119.171 123.523C119.587 123.523 120.011 123.416 120.442 123.203C120.878 122.99 121.242 122.663 121.536 122.223C121.834 121.783 121.983 121.222 121.983 120.54ZM126.729 125V114.091H128.349V115.739H128.462C128.661 115.199 129.021 114.761 129.542 114.425C130.063 114.089 130.65 113.92 131.303 113.92C131.426 113.92 131.58 113.923 131.765 113.928C131.95 113.932 132.089 113.939 132.184 113.949V115.653C132.127 115.639 131.997 115.618 131.793 115.589C131.594 115.556 131.384 115.54 131.161 115.54C130.631 115.54 130.157 115.651 129.741 115.874C129.329 116.091 129.002 116.394 128.761 116.783C128.524 117.166 128.406 117.604 128.406 118.097V125H126.729ZM137.381 125.256C136.69 125.256 136.062 125.125 135.499 124.865C134.935 124.6 134.488 124.219 134.157 123.722C133.825 123.22 133.659 122.614 133.659 121.903C133.659 121.278 133.783 120.772 134.029 120.384C134.275 119.991 134.604 119.683 135.016 119.46C135.428 119.238 135.882 119.072 136.38 118.963C136.882 118.849 137.386 118.759 137.892 118.693C138.555 118.608 139.093 118.544 139.505 118.501C139.921 118.454 140.224 118.376 140.414 118.267C140.608 118.158 140.705 117.969 140.705 117.699V117.642C140.705 116.941 140.513 116.397 140.13 116.009C139.751 115.62 139.176 115.426 138.404 115.426C137.604 115.426 136.976 115.601 136.522 115.952C136.067 116.302 135.748 116.676 135.563 117.074L133.972 116.506C134.256 115.843 134.635 115.327 135.108 114.957C135.587 114.583 136.107 114.323 136.671 114.176C137.239 114.025 137.798 113.949 138.347 113.949C138.697 113.949 139.1 113.991 139.554 114.077C140.014 114.157 140.456 114.325 140.882 114.581C141.313 114.837 141.671 115.223 141.955 115.739C142.239 116.255 142.381 116.946 142.381 117.812V125H140.705V123.523H140.62C140.506 123.759 140.317 124.013 140.051 124.283C139.786 124.553 139.434 124.782 138.993 124.972C138.553 125.161 138.016 125.256 137.381 125.256ZM137.637 123.75C138.3 123.75 138.858 123.62 139.313 123.359C139.772 123.099 140.118 122.763 140.35 122.351C140.587 121.939 140.705 121.506 140.705 121.051V119.517C140.634 119.602 140.478 119.68 140.236 119.751C139.999 119.818 139.725 119.877 139.412 119.929C139.105 119.976 138.804 120.019 138.51 120.057C138.221 120.09 137.987 120.118 137.807 120.142C137.372 120.199 136.964 120.291 136.586 120.419C136.212 120.542 135.908 120.729 135.676 120.98C135.449 121.226 135.336 121.562 135.336 121.989C135.336 122.571 135.551 123.011 135.982 123.31C136.417 123.603 136.969 123.75 137.637 123.75ZM155.185 125.227C154.276 125.227 153.473 124.998 152.777 124.538C152.081 124.074 151.536 123.421 151.143 122.578C150.75 121.731 150.554 120.729 150.554 119.574C150.554 118.428 150.75 117.434 151.143 116.591C151.536 115.748 152.083 115.097 152.784 114.638C153.485 114.179 154.295 113.949 155.213 113.949C155.923 113.949 156.484 114.067 156.896 114.304C157.313 114.536 157.63 114.801 157.848 115.099C158.071 115.393 158.243 115.634 158.366 115.824H158.509V110.455H160.185V125H158.565V123.324H158.366C158.243 123.523 158.068 123.774 157.841 124.077C157.614 124.375 157.289 124.643 156.868 124.879C156.446 125.111 155.885 125.227 155.185 125.227ZM155.412 123.722C156.084 123.722 156.652 123.546 157.116 123.196C157.58 122.841 157.933 122.351 158.175 121.726C158.416 121.096 158.537 120.369 158.537 119.545C158.537 118.731 158.419 118.018 158.182 117.408C157.945 116.792 157.595 116.314 157.131 115.973C156.667 115.627 156.094 115.455 155.412 115.455C154.702 115.455 154.11 115.637 153.636 116.001C153.168 116.361 152.815 116.851 152.578 117.472C152.346 118.087 152.23 118.778 152.23 119.545C152.23 120.322 152.348 121.027 152.585 121.662C152.827 122.292 153.182 122.794 153.651 123.168C154.124 123.537 154.711 123.722 155.412 123.722ZM168.061 125.227C167.01 125.227 166.103 124.995 165.341 124.531C164.583 124.062 163.999 123.409 163.587 122.571C163.179 121.728 162.976 120.748 162.976 119.631C162.976 118.513 163.179 117.528 163.587 116.676C163.999 115.819 164.571 115.152 165.305 114.673C166.044 114.19 166.906 113.949 167.891 113.949C168.459 113.949 169.02 114.044 169.574 114.233C170.128 114.422 170.632 114.73 171.087 115.156C171.541 115.578 171.903 116.136 172.173 116.832C172.443 117.528 172.578 118.385 172.578 119.403V120.114H164.169V118.665H170.874C170.874 118.049 170.75 117.5 170.504 117.017C170.263 116.534 169.917 116.153 169.467 115.874C169.022 115.594 168.497 115.455 167.891 115.455C167.223 115.455 166.645 115.62 166.158 115.952C165.675 116.278 165.303 116.705 165.043 117.23C164.782 117.756 164.652 118.319 164.652 118.92V119.886C164.652 120.71 164.794 121.409 165.078 121.982C165.367 122.55 165.767 122.983 166.278 123.281C166.79 123.575 167.384 123.722 168.061 123.722C168.501 123.722 168.899 123.66 169.254 123.537C169.614 123.409 169.924 123.22 170.185 122.969C170.445 122.713 170.646 122.396 170.788 122.017L172.408 122.472C172.237 123.021 171.951 123.504 171.548 123.92C171.146 124.332 170.649 124.654 170.057 124.886C169.465 125.114 168.8 125.227 168.061 125.227ZM47.7725 149.227C46.7498 149.227 45.8691 148.986 45.1305 148.503C44.3919 148.02 43.8237 147.355 43.426 146.507C43.0282 145.66 42.8294 144.691 42.8294 143.602C42.8294 142.494 43.033 141.517 43.4402 140.669C43.8521 139.817 44.425 139.152 45.1589 138.673C45.8975 138.19 46.7593 137.949 47.7441 137.949C48.5112 137.949 49.2025 138.091 49.818 138.375C50.4335 138.659 50.9378 139.057 51.3308 139.568C51.7238 140.08 51.9676 140.676 52.0623 141.358H50.3862C50.2583 140.861 49.9743 140.42 49.5339 140.037C49.0983 139.649 48.5112 139.455 47.7725 139.455C47.1191 139.455 46.5462 139.625 46.0538 139.966C45.5661 140.302 45.185 140.778 44.9103 141.393C44.6404 142.004 44.5055 142.722 44.5055 143.545C44.5055 144.388 44.6381 145.122 44.9032 145.747C45.1731 146.372 45.5519 146.857 46.0396 147.203C46.532 147.549 47.1097 147.722 47.7725 147.722C48.2082 147.722 48.6035 147.646 48.9586 147.494C49.3137 147.343 49.6144 147.125 49.8606 146.841C50.1068 146.557 50.282 146.216 50.3862 145.818H52.0623C51.9676 146.462 51.7333 147.042 51.3592 147.558C50.9899 148.07 50.4998 148.477 49.889 148.78C49.283 149.078 48.5775 149.227 47.7725 149.227ZM58.9444 149.227C57.9596 149.227 57.0955 148.993 56.3521 148.524C55.6135 148.055 55.0358 147.4 54.6191 146.557C54.2072 145.714 54.0012 144.729 54.0012 143.602C54.0012 142.466 54.2072 141.474 54.6191 140.626C55.0358 139.779 55.6135 139.121 56.3521 138.652C57.0955 138.183 57.9596 137.949 58.9444 137.949C59.9293 137.949 60.791 138.183 61.5297 138.652C62.273 139.121 62.8507 139.779 63.2626 140.626C63.6793 141.474 63.8876 142.466 63.8876 143.602C63.8876 144.729 63.6793 145.714 63.2626 146.557C62.8507 147.4 62.273 148.055 61.5297 148.524C60.791 148.993 59.9293 149.227 58.9444 149.227ZM58.9444 147.722C59.6925 147.722 60.3081 147.53 60.791 147.146C61.274 146.763 61.6315 146.259 61.8635 145.634C62.0955 145.009 62.2115 144.331 62.2115 143.602C62.2115 142.873 62.0955 142.194 61.8635 141.564C61.6315 140.934 61.274 140.425 60.791 140.037C60.3081 139.649 59.6925 139.455 58.9444 139.455C58.1963 139.455 57.5808 139.649 57.0978 140.037C56.6149 140.425 56.2574 140.934 56.0254 141.564C55.7934 142.194 55.6774 142.873 55.6774 143.602C55.6774 144.331 55.7934 145.009 56.0254 145.634C56.2574 146.259 56.6149 146.763 57.0978 147.146C57.5808 147.53 58.1963 147.722 58.9444 147.722ZM66.4462 149V138.091H68.0655V139.795H68.2076C68.4348 139.213 68.8018 138.761 69.3084 138.439C69.815 138.112 70.4235 137.949 71.1337 137.949C71.8534 137.949 72.4524 138.112 72.9306 138.439C73.4135 138.761 73.79 139.213 74.0598 139.795H74.1735C74.4528 139.232 74.8719 138.785 75.4306 138.453C75.9893 138.117 76.6593 137.949 77.4405 137.949C78.4159 137.949 79.2137 138.254 79.834 138.865C80.4543 139.471 80.7644 140.416 80.7644 141.699V149H79.0882V141.699C79.0882 140.894 78.8681 140.319 78.4277 139.973C77.9874 139.627 77.4689 139.455 76.8723 139.455C76.1053 139.455 75.5111 139.687 75.0897 140.151C74.6683 140.61 74.4576 141.192 74.4576 141.898V149H72.753V141.528C72.753 140.908 72.5518 140.409 72.1493 140.03C71.7469 139.646 71.2284 139.455 70.5939 139.455C70.1583 139.455 69.7511 139.571 69.3723 139.803C68.9983 140.035 68.6953 140.357 68.4632 140.768C68.236 141.176 68.1223 141.647 68.1223 142.182V149H66.4462ZM83.829 153.091V138.091H85.4483V139.824H85.6472C85.7703 139.634 85.9408 139.393 86.1586 139.099C86.3811 138.801 86.6983 138.536 87.1103 138.304C87.5269 138.067 88.0904 137.949 88.8006 137.949C89.7192 137.949 90.5288 138.179 91.2296 138.638C91.9303 139.097 92.4772 139.748 92.8702 140.591C93.2632 141.434 93.4597 142.428 93.4597 143.574C93.4597 144.729 93.2632 145.731 92.8702 146.578C92.4772 147.421 91.9327 148.074 91.2367 148.538C90.5407 148.998 89.7381 149.227 88.829 149.227C88.1283 149.227 87.5672 149.111 87.1458 148.879C86.7244 148.643 86.4 148.375 86.1728 148.077C85.9455 147.774 85.7703 147.523 85.6472 147.324H85.5051V153.091H83.829ZM85.4767 143.545C85.4767 144.369 85.5975 145.096 85.839 145.726C86.0804 146.351 86.4332 146.841 86.8972 147.196C87.3612 147.546 87.9294 147.722 88.6017 147.722C89.3025 147.722 89.8873 147.537 90.356 147.168C90.8295 146.794 91.1846 146.292 91.4213 145.662C91.6628 145.027 91.7836 144.322 91.7836 143.545C91.7836 142.778 91.6652 142.087 91.4284 141.472C91.1964 140.851 90.8437 140.361 90.3702 140.001C89.9015 139.637 89.312 139.455 88.6017 139.455C87.9199 139.455 87.347 139.627 86.883 139.973C86.419 140.314 86.0686 140.792 85.8319 141.408C85.5951 142.018 85.4767 142.731 85.4767 143.545ZM102.892 144.54V138.091H104.568V149H102.892V147.153H102.778C102.522 147.707 102.124 148.179 101.585 148.567C101.045 148.95 100.363 149.142 99.5392 149.142C98.8574 149.142 98.2514 148.993 97.7211 148.695C97.1908 148.392 96.7741 147.937 96.4711 147.331C96.168 146.72 96.0165 145.951 96.0165 145.023V138.091H97.6926V144.909C97.6926 145.705 97.9152 146.339 98.3603 146.812C98.8101 147.286 99.383 147.523 100.079 147.523C100.496 147.523 100.919 147.416 101.35 147.203C101.786 146.99 102.151 146.663 102.444 146.223C102.742 145.783 102.892 145.222 102.892 144.54ZM112.382 138.091V139.511H106.729V138.091H112.382ZM108.376 135.477H110.052V145.875C110.052 146.348 110.121 146.704 110.258 146.94C110.4 147.172 110.58 147.329 110.798 147.409C111.021 147.485 111.255 147.523 111.501 147.523C111.686 147.523 111.837 147.513 111.956 147.494C112.074 147.471 112.169 147.452 112.24 147.438L112.581 148.943C112.467 148.986 112.309 149.028 112.105 149.071C111.901 149.118 111.643 149.142 111.331 149.142C110.857 149.142 110.393 149.04 109.939 148.837C109.489 148.633 109.115 148.323 108.817 147.906C108.523 147.49 108.376 146.964 108.376 146.33V135.477ZM118.113 149.256C117.422 149.256 116.795 149.125 116.231 148.865C115.668 148.6 115.22 148.219 114.889 147.722C114.558 147.22 114.392 146.614 114.392 145.903C114.392 145.278 114.515 144.772 114.761 144.384C115.007 143.991 115.336 143.683 115.748 143.46C116.16 143.238 116.615 143.072 117.112 142.963C117.614 142.849 118.118 142.759 118.625 142.693C119.288 142.608 119.825 142.544 120.237 142.501C120.654 142.454 120.957 142.376 121.146 142.267C121.34 142.158 121.437 141.969 121.437 141.699V141.642C121.437 140.941 121.246 140.397 120.862 140.009C120.483 139.62 119.908 139.426 119.136 139.426C118.336 139.426 117.709 139.601 117.254 139.952C116.8 140.302 116.48 140.676 116.295 141.074L114.704 140.506C114.988 139.843 115.367 139.327 115.841 138.957C116.319 138.583 116.84 138.323 117.403 138.176C117.971 138.025 118.53 137.949 119.079 137.949C119.43 137.949 119.832 137.991 120.287 138.077C120.746 138.157 121.189 138.325 121.615 138.581C122.046 138.837 122.403 139.223 122.687 139.739C122.971 140.255 123.113 140.946 123.113 141.812V149H121.437V147.523H121.352C121.238 147.759 121.049 148.013 120.784 148.283C120.519 148.553 120.166 148.782 119.726 148.972C119.285 149.161 118.748 149.256 118.113 149.256ZM118.369 147.75C119.032 147.75 119.591 147.62 120.045 147.359C120.505 147.099 120.85 146.763 121.082 146.351C121.319 145.939 121.437 145.506 121.437 145.051V143.517C121.366 143.602 121.21 143.68 120.969 143.751C120.732 143.818 120.457 143.877 120.145 143.929C119.837 143.976 119.536 144.019 119.243 144.057C118.954 144.09 118.72 144.118 118.54 144.142C118.104 144.199 117.697 144.291 117.318 144.419C116.944 144.542 116.641 144.729 116.409 144.98C116.182 145.226 116.068 145.562 116.068 145.989C116.068 146.571 116.283 147.011 116.714 147.31C117.15 147.603 117.702 147.75 118.369 147.75ZM130.292 149.227C129.383 149.227 128.58 148.998 127.884 148.538C127.188 148.074 126.644 147.421 126.251 146.578C125.858 145.731 125.661 144.729 125.661 143.574C125.661 142.428 125.858 141.434 126.251 140.591C126.644 139.748 127.191 139.097 127.892 138.638C128.592 138.179 129.402 137.949 130.32 137.949C131.031 137.949 131.592 138.067 132.004 138.304C132.42 138.536 132.738 138.801 132.955 139.099C133.178 139.393 133.351 139.634 133.474 139.824H133.616V134.455H135.292V149H133.673V147.324H133.474C133.351 147.523 133.176 147.774 132.948 148.077C132.721 148.375 132.397 148.643 131.975 148.879C131.554 149.111 130.993 149.227 130.292 149.227ZM130.519 147.722C131.192 147.722 131.76 147.546 132.224 147.196C132.688 146.841 133.041 146.351 133.282 145.726C133.524 145.096 133.644 144.369 133.644 143.545C133.644 142.731 133.526 142.018 133.289 141.408C133.052 140.792 132.702 140.314 132.238 139.973C131.774 139.627 131.201 139.455 130.519 139.455C129.809 139.455 129.217 139.637 128.744 140.001C128.275 140.361 127.922 140.851 127.686 141.472C127.454 142.087 127.338 142.778 127.338 143.545C127.338 144.322 127.456 145.027 127.693 145.662C127.934 146.292 128.289 146.794 128.758 147.168C129.231 147.537 129.819 147.722 130.519 147.722ZM143.026 149.227C142.042 149.227 141.177 148.993 140.434 148.524C139.695 148.055 139.118 147.4 138.701 146.557C138.289 145.714 138.083 144.729 138.083 143.602C138.083 142.466 138.289 141.474 138.701 140.626C139.118 139.779 139.695 139.121 140.434 138.652C141.177 138.183 142.042 137.949 143.026 137.949C144.011 137.949 144.873 138.183 145.612 138.652C146.355 139.121 146.933 139.779 147.345 140.626C147.761 141.474 147.97 142.466 147.97 143.602C147.97 144.729 147.761 145.714 147.345 146.557C146.933 147.4 146.355 148.055 145.612 148.524C144.873 148.993 144.011 149.227 143.026 149.227ZM143.026 147.722C143.775 147.722 144.39 147.53 144.873 147.146C145.356 146.763 145.713 146.259 145.945 145.634C146.177 145.009 146.294 144.331 146.294 143.602C146.294 142.873 146.177 142.194 145.945 141.564C145.713 140.934 145.356 140.425 144.873 140.037C144.39 139.649 143.775 139.455 143.026 139.455C142.278 139.455 141.663 139.649 141.18 140.037C140.697 140.425 140.339 140.934 140.107 141.564C139.875 142.194 139.759 142.873 139.759 143.602C139.759 144.331 139.875 145.009 140.107 145.634C140.339 146.259 140.697 146.763 141.18 147.146C141.663 147.53 142.278 147.722 143.026 147.722ZM150.528 149V138.091H152.148V139.739H152.261C152.46 139.199 152.82 138.761 153.341 138.425C153.862 138.089 154.449 137.92 155.102 137.92C155.225 137.92 155.379 137.923 155.564 137.928C155.748 137.932 155.888 137.939 155.983 137.949V139.653C155.926 139.639 155.796 139.618 155.592 139.589C155.393 139.556 155.183 139.54 154.96 139.54C154.43 139.54 153.956 139.651 153.54 139.874C153.128 140.091 152.801 140.394 152.559 140.783C152.323 141.166 152.204 141.604 152.204 142.097V149H150.528ZM162.211 149.227C161.16 149.227 160.254 148.995 159.491 148.531C158.734 148.062 158.149 147.409 157.737 146.571C157.33 145.728 157.126 144.748 157.126 143.631C157.126 142.513 157.33 141.528 157.737 140.676C158.149 139.819 158.722 139.152 159.456 138.673C160.194 138.19 161.056 137.949 162.041 137.949C162.609 137.949 163.17 138.044 163.724 138.233C164.278 138.422 164.782 138.73 165.237 139.156C165.692 139.578 166.054 140.136 166.324 140.832C166.594 141.528 166.729 142.385 166.729 143.403V144.114H158.319V142.665H165.024C165.024 142.049 164.901 141.5 164.655 141.017C164.413 140.534 164.068 140.153 163.618 139.874C163.173 139.594 162.647 139.455 162.041 139.455C161.373 139.455 160.796 139.62 160.308 139.952C159.825 140.278 159.453 140.705 159.193 141.23C158.933 141.756 158.802 142.319 158.802 142.92V143.886C158.802 144.71 158.944 145.409 159.229 145.982C159.517 146.55 159.917 146.983 160.429 147.281C160.94 147.575 161.534 147.722 162.211 147.722C162.652 147.722 163.05 147.66 163.405 147.537C163.765 147.409 164.075 147.22 164.335 146.969C164.595 146.713 164.797 146.396 164.939 146.017L166.558 146.472C166.388 147.021 166.101 147.504 165.699 147.92C165.296 148.332 164.799 148.654 164.207 148.886C163.615 149.114 162.95 149.227 162.211 149.227ZM177.006 140.534L175.5 140.96C175.405 140.709 175.265 140.465 175.081 140.229C174.901 139.987 174.655 139.788 174.342 139.632C174.03 139.476 173.63 139.398 173.142 139.398C172.474 139.398 171.918 139.552 171.473 139.859C171.032 140.162 170.812 140.548 170.812 141.017C170.812 141.434 170.964 141.763 171.267 142.004C171.57 142.246 172.043 142.447 172.687 142.608L174.307 143.006C175.282 143.242 176.009 143.605 176.487 144.092C176.965 144.575 177.204 145.198 177.204 145.96C177.204 146.585 177.024 147.144 176.665 147.636C176.309 148.129 175.812 148.517 175.173 148.801C174.534 149.085 173.791 149.227 172.943 149.227C171.83 149.227 170.909 148.986 170.18 148.503C169.451 148.02 168.989 147.314 168.795 146.386L170.386 145.989C170.538 146.576 170.824 147.016 171.246 147.31C171.672 147.603 172.228 147.75 172.915 147.75C173.696 147.75 174.316 147.584 174.775 147.253C175.239 146.917 175.471 146.514 175.471 146.045C175.471 145.667 175.339 145.349 175.074 145.094C174.809 144.833 174.401 144.639 173.852 144.511L172.034 144.085C171.035 143.848 170.301 143.482 169.832 142.984C169.368 142.482 169.136 141.855 169.136 141.102C169.136 140.487 169.309 139.942 169.655 139.469C170.005 138.995 170.481 138.624 171.082 138.354C171.688 138.084 172.375 137.949 173.142 137.949C174.221 137.949 175.069 138.186 175.684 138.659C176.305 139.133 176.745 139.758 177.006 140.534Z" fill="#FAFAFA"/>
<g clip-path="url(#clip0_21_375)">
<path d="M137.776 31.2065H80.2245C79.5482 31.2065 79 31.7547 79 32.431V73.5204C79 74.1967 79.5482 74.7449 80.2245 74.7449H101.699L100.088 79.4263H90.2776C89.6014 79.4263 89.0531 79.9745 89.0531 80.6508V85.569C89.0531 86.2453 89.6014 86.7935 90.2776 86.7935H127.722C128.399 86.7935 128.947 86.2453 128.947 85.569V80.6508C128.947 79.9745 128.399 79.4263 127.722 79.4263H117.912L116.301 74.7449H137.776C138.452 74.7449 139 74.1967 139 73.5204V32.431C139 31.7547 138.452 31.2065 137.776 31.2065ZM126.498 84.3445H91.502V81.8753H126.498V84.3445ZM115.322 79.4263H102.678L104.289 74.7449H113.711L115.322 79.4263ZM136.551 72.2959H81.449V33.6555H136.551V72.2959Z" fill="#FAFAFA" stroke="#FAFAFA" stroke-width="0.408163"/>
<path d="M134.128 65.0507H83.872C83.1958 65.0507 82.6475 64.5025 82.6475 63.8262C82.6475 63.1499 83.1957 62.6017 83.872 62.6017H134.128C134.804 62.6017 135.353 63.1499 135.353 63.8262C135.353 64.5025 134.804 65.0507 134.128 65.0507Z" fill="#FAFAFA" stroke="#FAFAFA" stroke-width="0.408163"/>
<path d="M110.479 68.5997C110.479 69.416 109.817 70.0781 109 70.0781C108.183 70.0781 107.521 69.4159 107.521 68.5997C107.521 67.7834 108.183 67.1219 109 67.1219C109.817 67.1219 110.479 67.7834 110.479 68.5997Z" fill="#FAFAFA" stroke="#FAFAFA" stroke-width="0.408163"/>
<path d="M123.957 47.7511L120.846 44.6405C120.368 44.1624 119.593 44.1624 119.115 44.6405C118.636 45.1187 118.636 45.8941 119.115 46.3723L120.135 47.3926H97.865L98.8853 46.3723C99.3636 45.8942 99.3636 45.1188 98.8853 44.6407C98.407 44.1625 97.6317 44.1625 97.1535 44.6407L94.0433 47.7512C93.565 48.2294 93.565 49.0047 94.0433 49.4829L97.1535 52.5931C97.3926 52.8323 97.706 52.9518 98.0194 52.9518C98.3328 52.9518 98.646 52.8321 98.8852 52.5931C99.3634 52.115 99.3634 51.3396 98.8852 50.8614L97.8652 49.8416H120.134L119.114 50.8614C118.636 51.3396 118.636 52.1148 119.114 52.5931C119.353 52.8323 119.667 52.9518 119.98 52.9518C120.293 52.9518 120.607 52.8323 120.846 52.5931L123.956 49.4829C124.186 49.2533 124.315 48.9418 124.315 48.6171C124.315 48.2923 124.186 47.9808 123.957 47.7511Z" fill="#FAFAFA" stroke="#FAFAFA" stroke-width="0.408163"/>
</g>
<defs>
<clipPath id="clip0_21_375">
<rect width="60" height="60" fill="white" transform="translate(79 29)"/>
</clipPath>
</defs>
</svg>
