<svg width="220" height="175" viewBox="0 0 220 175" fill="none" xmlns="http://www.w3.org/2000/svg">
<rect width="220" height="175" rx="5" fill="#B5BF00"/>
<line x1="82" y1="99.5" x2="139" y2="99.5" stroke="#FAFAFA"/>
<path d="M54.8509 124V110.909H62.7514V112.315H56.4361V116.739H62.3423V118.145H56.4361V122.594H62.8537V124H54.8509ZM72.3587 116.381L71.0036 116.764C70.9183 116.538 70.7926 116.319 70.6264 116.106C70.4645 115.888 70.2429 115.71 69.9616 115.569C69.6804 115.428 69.3203 115.358 68.8814 115.358C68.2805 115.358 67.7798 115.496 67.3793 115.773C66.983 116.046 66.7848 116.393 66.7848 116.815C66.7848 117.19 66.9212 117.487 67.1939 117.704C67.4666 117.921 67.8928 118.102 68.4723 118.247L69.9297 118.605C70.8075 118.818 71.4616 119.144 71.892 119.583C72.3224 120.018 72.5376 120.578 72.5376 121.264C72.5376 121.827 72.3757 122.33 72.0518 122.773C71.7322 123.216 71.2848 123.565 70.7095 123.821C70.1342 124.077 69.4652 124.205 68.7024 124.205C67.701 124.205 66.8722 123.987 66.2159 123.553C65.5597 123.118 65.1442 122.483 64.9695 121.648L66.4013 121.29C66.5376 121.818 66.7955 122.214 67.1747 122.479C67.5582 122.743 68.0589 122.875 68.6768 122.875C69.38 122.875 69.9382 122.726 70.3516 122.428C70.7692 122.125 70.978 121.763 70.978 121.341C70.978 121 70.8587 120.714 70.62 120.484C70.3814 120.25 70.0149 120.075 69.5206 119.96L67.8842 119.577C66.9851 119.364 66.3246 119.033 65.9027 118.586C65.4851 118.134 65.2763 117.57 65.2763 116.892C65.2763 116.338 65.4318 115.848 65.7429 115.422C66.0582 114.996 66.4865 114.661 67.0277 114.418C67.5732 114.175 68.1911 114.054 68.8814 114.054C69.853 114.054 70.6158 114.267 71.1697 114.693C71.728 115.119 72.1243 115.682 72.3587 116.381ZM79.0783 114.182V115.46H73.9902V114.182H79.0783ZM75.4732 111.83H76.9817V121.188C76.9817 121.614 77.0435 121.933 77.1671 122.146C77.2949 122.355 77.4569 122.496 77.6529 122.568C77.8532 122.636 78.0641 122.67 78.2857 122.67C78.4519 122.67 78.5882 122.662 78.6948 122.645C78.8013 122.624 78.8865 122.607 78.9505 122.594L79.2573 123.949C79.155 123.987 79.0123 124.026 78.829 124.064C78.6458 124.107 78.4135 124.128 78.1323 124.128C77.7061 124.128 77.2885 124.036 76.8794 123.853C76.4746 123.67 76.138 123.391 75.8695 123.016C75.6053 122.641 75.4732 122.168 75.4732 121.597V111.83ZM81.3475 124V114.182H82.8049V115.665H82.9071C83.0861 115.179 83.41 114.785 83.8787 114.482C84.3475 114.18 84.8759 114.028 85.464 114.028C85.5748 114.028 85.7132 114.031 85.8794 114.035C86.0456 114.039 86.1713 114.045 86.2566 114.054V115.588C86.2054 115.575 86.0882 115.556 85.905 115.531C85.726 115.501 85.5364 115.486 85.3361 115.486C84.8588 115.486 84.4327 115.586 84.0577 115.786C83.687 115.982 83.3929 116.255 83.1756 116.604C82.9625 116.95 82.856 117.344 82.856 117.787V124H81.3475ZM94.2322 119.986V114.182H95.7408V124H94.2322V122.338H94.13C93.8999 122.837 93.5419 123.261 93.0561 123.61C92.5703 123.955 91.9567 124.128 91.2152 124.128C90.6016 124.128 90.0561 123.994 89.5788 123.725C89.1016 123.452 88.7266 123.043 88.4538 122.498C88.1811 121.948 88.0447 121.256 88.0447 120.42V114.182H89.5533V120.318C89.5533 121.034 89.7536 121.605 90.1541 122.031C90.5589 122.457 91.0746 122.67 91.701 122.67C92.076 122.67 92.4574 122.575 92.8452 122.383C93.2372 122.191 93.5653 121.897 93.8295 121.501C94.098 121.104 94.2322 120.599 94.2322 119.986ZM102.492 124.205C101.572 124.205 100.779 123.987 100.115 123.553C99.4498 123.118 98.9384 122.519 98.5804 121.756C98.2225 120.994 98.0435 120.122 98.0435 119.142C98.0435 118.145 98.2267 117.265 98.5932 116.502C98.964 115.735 99.4796 115.136 100.14 114.706C100.805 114.271 101.58 114.054 102.467 114.054C103.157 114.054 103.779 114.182 104.333 114.438C104.887 114.693 105.341 115.051 105.695 115.511C106.048 115.972 106.268 116.509 106.353 117.122H104.845C104.73 116.675 104.474 116.278 104.078 115.933C103.686 115.584 103.157 115.409 102.492 115.409C101.904 115.409 101.389 115.562 100.945 115.869C100.507 116.172 100.164 116.6 99.9164 117.154C99.6735 117.704 99.552 118.349 99.552 119.091C99.552 119.849 99.6713 120.51 99.91 121.072C100.153 121.635 100.494 122.072 100.933 122.383C101.376 122.694 101.896 122.849 102.492 122.849C102.884 122.849 103.24 122.781 103.56 122.645C103.879 122.509 104.15 122.312 104.372 122.057C104.593 121.801 104.751 121.494 104.845 121.136H106.353C106.268 121.716 106.057 122.238 105.72 122.702C105.388 123.163 104.947 123.529 104.397 123.802C103.852 124.07 103.217 124.205 102.492 124.205ZM112.828 114.182V115.46H107.74V114.182H112.828ZM109.223 111.83H110.732V121.188C110.732 121.614 110.794 121.933 110.917 122.146C111.045 122.355 111.207 122.496 111.403 122.568C111.603 122.636 111.814 122.67 112.036 122.67C112.202 122.67 112.338 122.662 112.445 122.645C112.551 122.624 112.637 122.607 112.7 122.594L113.007 123.949C112.905 123.987 112.762 124.026 112.579 124.064C112.396 124.107 112.164 124.128 111.882 124.128C111.456 124.128 111.039 124.036 110.629 123.853C110.225 123.67 109.888 123.391 109.619 123.016C109.355 122.641 109.223 122.168 109.223 121.597V111.83ZM121.285 119.986V114.182H122.794V124H121.285V122.338H121.183C120.953 122.837 120.595 123.261 120.109 123.61C119.623 123.955 119.009 124.128 118.268 124.128C117.654 124.128 117.109 123.994 116.632 123.725C116.154 123.452 115.779 123.043 115.507 122.498C115.234 121.948 115.097 121.256 115.097 120.42V114.182H116.606V120.318C116.606 121.034 116.806 121.605 117.207 122.031C117.612 122.457 118.127 122.67 118.754 122.67C119.129 122.67 119.51 122.575 119.898 122.383C120.29 122.191 120.618 121.897 120.882 121.501C121.151 121.104 121.285 120.599 121.285 119.986ZM125.556 124V114.182H127.014V115.665H127.116C127.295 115.179 127.619 114.785 128.088 114.482C128.556 114.18 129.085 114.028 129.673 114.028C129.784 114.028 129.922 114.031 130.088 114.035C130.255 114.039 130.38 114.045 130.466 114.054V115.588C130.414 115.575 130.297 115.556 130.114 115.531C129.935 115.501 129.745 115.486 129.545 115.486C129.068 115.486 128.642 115.586 128.267 115.786C127.896 115.982 127.602 116.255 127.385 116.604C127.172 116.95 127.065 117.344 127.065 117.787V124H125.556ZM135.143 124.23C134.521 124.23 133.956 124.113 133.449 123.879C132.942 123.64 132.539 123.297 132.241 122.849C131.943 122.398 131.794 121.852 131.794 121.213C131.794 120.651 131.904 120.195 132.126 119.845C132.347 119.491 132.644 119.214 133.014 119.014C133.385 118.814 133.794 118.665 134.242 118.567C134.693 118.464 135.147 118.384 135.603 118.324C136.2 118.247 136.683 118.19 137.054 118.151C137.429 118.109 137.702 118.038 137.872 117.94C138.047 117.842 138.134 117.672 138.134 117.429V117.378C138.134 116.747 137.962 116.257 137.617 115.908C137.276 115.558 136.758 115.384 136.063 115.384C135.343 115.384 134.779 115.541 134.369 115.857C133.96 116.172 133.673 116.509 133.507 116.866L132.075 116.355C132.33 115.759 132.671 115.294 133.097 114.962C133.528 114.625 133.997 114.391 134.504 114.259C135.015 114.122 135.518 114.054 136.012 114.054C136.328 114.054 136.69 114.092 137.099 114.169C137.512 114.241 137.911 114.393 138.294 114.623C138.682 114.853 139.004 115.2 139.259 115.665C139.515 116.129 139.643 116.751 139.643 117.531V124H138.134V122.67H138.058C137.955 122.884 137.785 123.112 137.546 123.354C137.308 123.597 136.99 123.804 136.594 123.974C136.198 124.145 135.714 124.23 135.143 124.23ZM135.373 122.875C135.97 122.875 136.472 122.758 136.882 122.523C137.295 122.289 137.606 121.987 137.815 121.616C138.028 121.245 138.134 120.855 138.134 120.446V119.065C138.07 119.142 137.93 119.212 137.713 119.276C137.499 119.336 137.252 119.389 136.971 119.436C136.694 119.479 136.423 119.517 136.159 119.551C135.899 119.581 135.688 119.607 135.526 119.628C135.134 119.679 134.768 119.762 134.427 119.877C134.09 119.988 133.818 120.156 133.609 120.382C133.404 120.604 133.302 120.906 133.302 121.29C133.302 121.814 133.496 122.21 133.884 122.479C134.276 122.743 134.772 122.875 135.373 122.875ZM151.166 124.205C150.348 124.205 149.626 123.998 148.999 123.585C148.373 123.167 147.883 122.579 147.529 121.82C147.175 121.058 146.999 120.156 146.999 119.116C146.999 118.085 147.175 117.19 147.529 116.432C147.883 115.673 148.375 115.087 149.006 114.674C149.636 114.261 150.365 114.054 151.192 114.054C151.831 114.054 152.336 114.161 152.707 114.374C153.082 114.582 153.367 114.821 153.563 115.089C153.763 115.354 153.919 115.571 154.03 115.741H154.158V110.909H155.666V124H154.209V122.491H154.03C153.919 122.67 153.761 122.896 153.557 123.169C153.352 123.437 153.06 123.678 152.681 123.891C152.302 124.1 151.797 124.205 151.166 124.205ZM151.371 122.849C151.976 122.849 152.487 122.692 152.905 122.376C153.322 122.057 153.64 121.616 153.857 121.053C154.075 120.487 154.183 119.832 154.183 119.091C154.183 118.358 154.077 117.717 153.864 117.167C153.651 116.613 153.335 116.183 152.918 115.876C152.5 115.565 151.984 115.409 151.371 115.409C150.732 115.409 150.199 115.573 149.773 115.901C149.351 116.225 149.033 116.666 148.82 117.224C148.612 117.778 148.507 118.401 148.507 119.091C148.507 119.79 148.614 120.425 148.827 120.996C149.044 121.562 149.364 122.014 149.786 122.351C150.212 122.683 150.74 122.849 151.371 122.849ZM162.755 124.205C161.809 124.205 160.993 123.996 160.307 123.578C159.625 123.156 159.099 122.568 158.728 121.814C158.362 121.055 158.178 120.173 158.178 119.168C158.178 118.162 158.362 117.276 158.728 116.509C159.099 115.737 159.614 115.136 160.275 114.706C160.94 114.271 161.715 114.054 162.602 114.054C163.113 114.054 163.618 114.139 164.116 114.31C164.615 114.48 165.069 114.757 165.478 115.141C165.887 115.52 166.213 116.023 166.456 116.649C166.699 117.276 166.82 118.047 166.82 118.963V119.602H159.252V118.298H165.286C165.286 117.744 165.175 117.25 164.954 116.815C164.737 116.381 164.425 116.038 164.021 115.786C163.62 115.535 163.147 115.409 162.602 115.409C162.001 115.409 161.481 115.558 161.042 115.857C160.607 116.151 160.273 116.534 160.038 117.007C159.804 117.48 159.687 117.987 159.687 118.528V119.398C159.687 120.139 159.815 120.768 160.07 121.283C160.33 121.795 160.69 122.185 161.151 122.453C161.611 122.717 162.146 122.849 162.755 122.849C163.151 122.849 163.509 122.794 163.829 122.683C164.153 122.568 164.432 122.398 164.666 122.172C164.901 121.942 165.082 121.656 165.21 121.315L166.667 121.724C166.513 122.219 166.256 122.653 165.893 123.028C165.531 123.399 165.084 123.689 164.551 123.898C164.018 124.102 163.42 124.205 162.755 124.205ZM91.6379 146.205C90.8197 146.205 90.0974 145.998 89.471 145.585C88.8445 145.167 88.3545 144.579 88.0008 143.82C87.6471 143.058 87.4703 142.156 87.4703 141.116C87.4703 140.085 87.6471 139.19 88.0008 138.432C88.3545 137.673 88.8467 137.087 89.4774 136.674C90.108 136.261 90.8367 136.054 91.6634 136.054C92.3026 136.054 92.8076 136.161 93.1784 136.374C93.5534 136.582 93.8389 136.821 94.0349 137.089C94.2352 137.354 94.3907 137.571 94.5015 137.741H94.6294V132.909H96.1379V146H94.6805V144.491H94.5015C94.3907 144.67 94.233 144.896 94.0285 145.169C93.824 145.437 93.532 145.678 93.1528 145.891C92.7735 146.1 92.2686 146.205 91.6379 146.205ZM91.8424 144.849C92.4475 144.849 92.9589 144.692 93.3765 144.376C93.7941 144.057 94.1116 143.616 94.3289 143.053C94.5463 142.487 94.6549 141.832 94.6549 141.091C94.6549 140.358 94.5484 139.717 94.3353 139.167C94.1222 138.613 93.8069 138.183 93.3893 137.876C92.9717 137.565 92.4561 137.409 91.8424 137.409C91.2032 137.409 90.6705 137.573 90.2444 137.901C89.8225 138.225 89.5051 138.666 89.292 139.224C89.0832 139.778 88.9788 140.401 88.9788 141.091C88.9788 141.79 89.0853 142.425 89.2984 142.996C89.5157 143.562 89.8353 144.014 90.2572 144.351C90.6833 144.683 91.2117 144.849 91.8424 144.849ZM101.999 146.23C101.377 146.23 100.813 146.113 100.305 145.879C99.7984 145.64 99.3957 145.297 99.0974 144.849C98.7991 144.398 98.6499 143.852 98.6499 143.213C98.6499 142.651 98.7607 142.195 98.9823 141.845C99.2039 141.491 99.5001 141.214 99.8708 141.014C100.242 140.814 100.651 140.665 101.098 140.567C101.55 140.464 102.004 140.384 102.46 140.324C103.056 140.247 103.54 140.19 103.911 140.151C104.286 140.109 104.558 140.038 104.729 139.94C104.903 139.842 104.991 139.672 104.991 139.429V139.378C104.991 138.747 104.818 138.257 104.473 137.908C104.132 137.558 103.614 137.384 102.92 137.384C102.2 137.384 101.635 137.541 101.226 137.857C100.817 138.172 100.529 138.509 100.363 138.866L98.9312 138.355C99.1869 137.759 99.5278 137.294 99.9539 136.962C100.384 136.625 100.853 136.391 101.36 136.259C101.872 136.122 102.374 136.054 102.869 136.054C103.184 136.054 103.546 136.092 103.955 136.169C104.369 136.241 104.767 136.393 105.151 136.623C105.538 136.853 105.86 137.2 106.116 137.665C106.372 138.129 106.499 138.751 106.499 139.531V146H104.991V144.67H104.914C104.812 144.884 104.641 145.112 104.403 145.354C104.164 145.597 103.847 145.804 103.45 145.974C103.054 146.145 102.57 146.23 101.999 146.23ZM102.229 144.875C102.826 144.875 103.329 144.758 103.738 144.523C104.151 144.289 104.462 143.987 104.671 143.616C104.884 143.245 104.991 142.855 104.991 142.446V141.065C104.927 141.142 104.786 141.212 104.569 141.276C104.356 141.336 104.109 141.389 103.828 141.436C103.551 141.479 103.28 141.517 103.016 141.551C102.756 141.581 102.545 141.607 102.383 141.628C101.991 141.679 101.624 141.762 101.283 141.877C100.947 141.988 100.674 142.156 100.465 142.382C100.261 142.604 100.158 142.906 100.158 143.29C100.158 143.814 100.352 144.21 100.74 144.479C101.132 144.743 101.629 144.875 102.229 144.875ZM113.523 136.182V137.46H108.435V136.182H113.523ZM109.918 133.83H111.426V143.188C111.426 143.614 111.488 143.933 111.611 144.146C111.739 144.355 111.901 144.496 112.097 144.568C112.297 144.636 112.508 144.67 112.73 144.67C112.896 144.67 113.033 144.662 113.139 144.645C113.246 144.624 113.331 144.607 113.395 144.594L113.702 145.949C113.599 145.987 113.457 146.026 113.273 146.064C113.09 146.107 112.858 146.128 112.577 146.128C112.15 146.128 111.733 146.036 111.324 145.853C110.919 145.67 110.582 145.391 110.314 145.016C110.05 144.641 109.918 144.168 109.918 143.597V133.83ZM119.675 146.205C118.789 146.205 118.011 145.994 117.342 145.572C116.677 145.15 116.157 144.56 115.782 143.801C115.411 143.043 115.226 142.156 115.226 141.142C115.226 140.119 115.411 139.227 115.782 138.464C116.157 137.701 116.677 137.109 117.342 136.687C118.011 136.265 118.789 136.054 119.675 136.054C120.561 136.054 121.337 136.265 122.002 136.687C122.671 137.109 123.191 137.701 123.561 138.464C123.936 139.227 124.124 140.119 124.124 141.142C124.124 142.156 123.936 143.043 123.561 143.801C123.191 144.56 122.671 145.15 122.002 145.572C121.337 145.994 120.561 146.205 119.675 146.205ZM119.675 144.849C120.348 144.849 120.902 144.677 121.337 144.332C121.772 143.987 122.093 143.533 122.302 142.97C122.511 142.408 122.615 141.798 122.615 141.142C122.615 140.486 122.511 139.874 122.302 139.308C122.093 138.741 121.772 138.283 121.337 137.933C120.902 137.584 120.348 137.409 119.675 137.409C119.002 137.409 118.448 137.584 118.013 137.933C117.578 138.283 117.257 138.741 117.048 139.308C116.839 139.874 116.735 140.486 116.735 141.142C116.735 141.798 116.839 142.408 117.048 142.97C117.257 143.533 117.578 143.987 118.013 144.332C118.448 144.677 119.002 144.849 119.675 144.849ZM133.381 138.381L132.026 138.764C131.941 138.538 131.815 138.319 131.649 138.106C131.487 137.888 131.265 137.71 130.984 137.569C130.703 137.428 130.343 137.358 129.904 137.358C129.303 137.358 128.802 137.496 128.402 137.773C128.005 138.046 127.807 138.393 127.807 138.815C127.807 139.19 127.944 139.487 128.216 139.704C128.489 139.921 128.915 140.102 129.495 140.247L130.952 140.605C131.83 140.818 132.484 141.144 132.915 141.583C133.345 142.018 133.56 142.578 133.56 143.264C133.56 143.827 133.398 144.33 133.074 144.773C132.755 145.216 132.307 145.565 131.732 145.821C131.157 146.077 130.488 146.205 129.725 146.205C128.723 146.205 127.895 145.987 127.238 145.553C126.582 145.118 126.167 144.483 125.992 143.648L127.424 143.29C127.56 143.818 127.818 144.214 128.197 144.479C128.581 144.743 129.081 144.875 129.699 144.875C130.402 144.875 130.961 144.726 131.374 144.428C131.792 144.125 132 143.763 132 143.341C132 143 131.881 142.714 131.642 142.484C131.404 142.25 131.037 142.075 130.543 141.96L128.907 141.577C128.008 141.364 127.347 141.033 126.925 140.586C126.508 140.134 126.299 139.57 126.299 138.892C126.299 138.338 126.454 137.848 126.765 137.422C127.081 136.996 127.509 136.661 128.05 136.418C128.596 136.175 129.214 136.054 129.904 136.054C130.875 136.054 131.638 136.267 132.192 136.693C132.75 137.119 133.147 137.682 133.381 138.381Z" fill="#FAFAFA"/>
<path d="M115.25 39.1667C115.25 36.083 112.676 33.5833 109.5 33.5833C106.324 33.5833 103.75 36.083 103.75 39.1667C103.75 42.2503 106.324 44.75 109.5 44.75C112.676 44.75 115.25 42.2503 115.25 39.1667Z" stroke="#FAFAFA" stroke-width="2.4" stroke-linecap="round" stroke-linejoin="round"/>
<path d="M92.25 39.1667C92.25 36.083 89.6756 33.5833 86.5 33.5833C83.3244 33.5833 80.75 36.083 80.75 39.1667C80.75 42.2503 83.3244 44.75 86.5 44.75C89.6756 44.75 92.25 42.2503 92.25 39.1667Z" stroke="#FAFAFA" stroke-width="2.4" stroke-linecap="round" stroke-linejoin="round"/>
<path d="M138.25 39.1667C138.25 36.083 135.676 33.5833 132.5 33.5833C129.324 33.5833 126.75 36.083 126.75 39.1667C126.75 42.2503 129.324 44.75 132.5 44.75C135.676 44.75 138.25 42.2503 138.25 39.1667Z" stroke="#FAFAFA" stroke-width="2.4" stroke-linecap="round" stroke-linejoin="round"/>
<path d="M115.25 83.8334C115.25 80.7498 112.676 78.25 109.5 78.25C106.324 78.25 103.75 80.7498 103.75 83.8334C103.75 86.9169 106.324 89.4167 109.5 89.4167C112.676 89.4167 115.25 86.9169 115.25 83.8334Z" stroke="#FAFAFA" stroke-width="2.4" stroke-linecap="round" stroke-linejoin="round"/>
<path d="M109.5 78.25V44.75" stroke="#FAFAFA" stroke-width="2.4" stroke-linecap="round" stroke-linejoin="round"/>
<path d="M86.5 44.75V55.9167C86.5 61.5 89.375 64.2917 95.125 64.2917H123.875C129.625 64.2917 132.5 61.5 132.5 55.9167V44.75" stroke="#FAFAFA" stroke-width="2.4" stroke-linecap="round" stroke-linejoin="round"/>
</svg>
