<svg width="220" height="175" viewBox="0 0 220 175" fill="none" xmlns="http://www.w3.org/2000/svg">
<rect width="220" height="175" rx="5" fill="#B5BF00"/>
<line x1="82" y1="99.5" x2="139" y2="99.5" stroke="#FAFAFA"/>
<path d="M40.9817 124V110.909H48.8311V112.315H42.5669V116.739H48.2431V118.145H42.5669V124H40.9817ZM56.9139 119.986V114.182H58.4224V124H56.9139V122.338H56.8116C56.5815 122.837 56.2235 123.261 55.7377 123.61C55.252 123.955 54.6383 124.128 53.8968 124.128C53.2832 124.128 52.7377 123.994 52.2605 123.725C51.7832 123.452 51.4082 123.043 51.1355 122.498C50.8627 121.948 50.7264 121.256 50.7264 120.42V114.182H52.2349V120.318C52.2349 121.034 52.4352 121.605 52.8358 122.031C53.2406 122.457 53.7562 122.67 54.3826 122.67C54.7576 122.67 55.139 122.575 55.5268 122.383C55.9189 122.191 56.247 121.897 56.5112 121.501C56.7797 121.104 56.9139 120.599 56.9139 119.986ZM62.6939 118.094V124H61.1854V114.182H62.6428V115.716H62.7706C63.0007 115.217 63.3501 114.817 63.8189 114.514C64.2876 114.207 64.8928 114.054 65.6342 114.054C66.299 114.054 66.8807 114.19 67.3793 114.463C67.8778 114.732 68.2656 115.141 68.5426 115.69C68.8196 116.236 68.9581 116.926 68.9581 117.761V124H67.4496V117.864C67.4496 117.092 67.2493 116.491 66.8487 116.061C66.4482 115.626 65.8984 115.409 65.1996 115.409C64.718 115.409 64.2876 115.513 63.9084 115.722C63.5334 115.931 63.2372 116.236 63.0199 116.636C62.8026 117.037 62.6939 117.523 62.6939 118.094ZM75.4221 124.205C74.6039 124.205 73.8816 123.998 73.2551 123.585C72.6287 123.167 72.1387 122.579 71.785 121.82C71.4313 121.058 71.2544 120.156 71.2544 119.116C71.2544 118.085 71.4313 117.19 71.785 116.432C72.1387 115.673 72.6309 115.087 73.2615 114.674C73.8922 114.261 74.6209 114.054 75.4476 114.054C76.0868 114.054 76.5918 114.161 76.9625 114.374C77.3375 114.582 77.623 114.821 77.8191 115.089C78.0194 115.354 78.1749 115.571 78.2857 115.741H78.4135V110.909H79.9221V124H78.4647V122.491H78.2857C78.1749 122.67 78.0172 122.896 77.8127 123.169C77.6081 123.437 77.3162 123.678 76.937 123.891C76.5577 124.1 76.0527 124.205 75.4221 124.205ZM75.6266 122.849C76.2317 122.849 76.7431 122.692 77.1607 122.376C77.5783 122.057 77.8958 121.616 78.1131 121.053C78.3304 120.487 78.4391 119.832 78.4391 119.091C78.4391 118.358 78.3326 117.717 78.1195 117.167C77.9064 116.613 77.5911 116.183 77.1735 115.876C76.7559 115.565 76.2402 115.409 75.6266 115.409C74.9874 115.409 74.4547 115.573 74.0286 115.901C73.6067 116.225 73.2892 116.666 73.0762 117.224C72.8674 117.778 72.763 118.401 72.763 119.091C72.763 119.79 72.8695 120.425 73.0826 120.996C73.2999 121.562 73.6195 122.014 74.0414 122.351C74.4675 122.683 74.9959 122.849 75.6266 122.849ZM85.7836 124.23C85.1614 124.23 84.5968 124.113 84.0897 123.879C83.5826 123.64 83.1799 123.297 82.8816 122.849C82.5833 122.398 82.4341 121.852 82.4341 121.213C82.4341 120.651 82.5449 120.195 82.7665 119.845C82.9881 119.491 83.2843 119.214 83.655 119.014C84.0257 118.814 84.4348 118.665 84.8823 118.567C85.334 118.464 85.7878 118.384 86.2438 118.324C86.8404 118.247 87.324 118.19 87.6948 118.151C88.0698 118.109 88.3425 118.038 88.513 117.94C88.6877 117.842 88.775 117.672 88.775 117.429V117.378C88.775 116.747 88.6025 116.257 88.2573 115.908C87.9164 115.558 87.3986 115.384 86.704 115.384C85.9838 115.384 85.4192 115.541 85.0101 115.857C84.601 116.172 84.3134 116.509 84.1472 116.866L82.7154 116.355C82.9711 115.759 83.312 115.294 83.7381 114.962C84.1685 114.625 84.6373 114.391 85.1444 114.259C85.6557 114.122 86.1586 114.054 86.6529 114.054C86.9682 114.054 87.3304 114.092 87.7395 114.169C88.1529 114.241 88.5513 114.393 88.9348 114.623C89.3226 114.853 89.6444 115.2 89.9 115.665C90.1557 116.129 90.2836 116.751 90.2836 117.531V124H88.775V122.67H88.6983C88.5961 122.884 88.4256 123.112 88.187 123.354C87.9483 123.597 87.6309 123.804 87.2346 123.974C86.8382 124.145 86.3546 124.23 85.7836 124.23ZM86.0137 122.875C86.6103 122.875 87.1131 122.758 87.5222 122.523C87.9355 122.289 88.2466 121.987 88.4554 121.616C88.6685 121.245 88.775 120.855 88.775 120.446V119.065C88.7111 119.142 88.5705 119.212 88.3532 119.276C88.1401 119.336 87.8929 119.389 87.6117 119.436C87.3347 119.479 87.0641 119.517 86.7999 119.551C86.54 119.581 86.329 119.607 86.1671 119.628C85.775 119.679 85.4086 119.762 85.0676 119.877C84.731 119.988 84.4583 120.156 84.2495 120.382C84.0449 120.604 83.9426 120.906 83.9426 121.29C83.9426 121.814 84.1365 122.21 84.5243 122.479C84.9164 122.743 85.4128 122.875 86.0137 122.875ZM93.0369 124V114.182H94.4943V115.716H94.6222C94.8267 115.192 95.157 114.785 95.6129 114.495C96.0689 114.201 96.6165 114.054 97.2557 114.054C97.9034 114.054 98.4425 114.201 98.8729 114.495C99.3075 114.785 99.6463 115.192 99.8892 115.716H99.9915C100.243 115.209 100.62 114.806 101.123 114.508C101.626 114.205 102.229 114.054 102.932 114.054C103.81 114.054 104.528 114.329 105.086 114.879C105.644 115.424 105.923 116.274 105.923 117.429V124H104.415V117.429C104.415 116.705 104.217 116.187 103.82 115.876C103.424 115.565 102.957 115.409 102.42 115.409C101.73 115.409 101.195 115.618 100.816 116.036C100.437 116.449 100.247 116.973 100.247 117.608V124H98.7131V117.276C98.7131 116.717 98.532 116.268 98.1697 115.927C97.8075 115.582 97.3409 115.409 96.7699 115.409C96.3778 115.409 96.0114 115.513 95.6705 115.722C95.3338 115.931 95.0611 116.221 94.8523 116.592C94.6477 116.958 94.5455 117.382 94.5455 117.864V124H93.0369ZM112.798 124.205C111.852 124.205 111.036 123.996 110.35 123.578C109.668 123.156 109.142 122.568 108.771 121.814C108.404 121.055 108.221 120.173 108.221 119.168C108.221 118.162 108.404 117.276 108.771 116.509C109.142 115.737 109.657 115.136 110.318 114.706C110.983 114.271 111.758 114.054 112.645 114.054C113.156 114.054 113.661 114.139 114.159 114.31C114.658 114.48 115.112 114.757 115.521 115.141C115.93 115.52 116.256 116.023 116.499 116.649C116.742 117.276 116.863 118.047 116.863 118.963V119.602H109.295V118.298H115.329C115.329 117.744 115.218 117.25 114.997 116.815C114.779 116.381 114.468 116.038 114.064 115.786C113.663 115.535 113.19 115.409 112.645 115.409C112.044 115.409 111.524 115.558 111.085 115.857C110.65 116.151 110.316 116.534 110.081 117.007C109.847 117.48 109.73 117.987 109.73 118.528V119.398C109.73 120.139 109.858 120.768 110.113 121.283C110.373 121.795 110.733 122.185 111.194 122.453C111.654 122.717 112.189 122.849 112.798 122.849C113.194 122.849 113.552 122.794 113.872 122.683C114.196 122.568 114.475 122.398 114.709 122.172C114.944 121.942 115.125 121.656 115.252 121.315L116.71 121.724C116.556 122.219 116.299 122.653 115.936 123.028C115.574 123.399 115.127 123.689 114.594 123.898C114.061 124.102 113.463 124.205 112.798 124.205ZM120.667 118.094V124H119.158V114.182H120.615V115.716H120.743C120.973 115.217 121.323 114.817 121.792 114.514C122.26 114.207 122.865 114.054 123.607 114.054C124.272 114.054 124.853 114.19 125.352 114.463C125.85 114.732 126.238 115.141 126.515 115.69C126.792 116.236 126.931 116.926 126.931 117.761V124H125.422V117.864C125.422 117.092 125.222 116.491 124.821 116.061C124.421 115.626 123.871 115.409 123.172 115.409C122.691 115.409 122.26 115.513 121.881 115.722C121.506 115.931 121.21 116.236 120.993 116.636C120.775 117.037 120.667 117.523 120.667 118.094ZM133.957 114.182V115.46H128.869V114.182H133.957ZM130.352 111.83H131.861V121.188C131.861 121.614 131.922 121.933 132.046 122.146C132.174 122.355 132.336 122.496 132.532 122.568C132.732 122.636 132.943 122.67 133.165 122.67C133.331 122.67 133.467 122.662 133.574 122.645C133.68 122.624 133.765 122.607 133.829 122.594L134.136 123.949C134.034 123.987 133.891 124.026 133.708 124.064C133.525 124.107 133.292 124.128 133.011 124.128C132.585 124.128 132.167 124.036 131.758 123.853C131.354 123.67 131.017 123.391 130.748 123.016C130.484 122.641 130.352 122.168 130.352 121.597V111.83ZM140.11 124.205C139.223 124.205 138.445 123.994 137.776 123.572C137.112 123.15 136.592 122.56 136.217 121.801C135.846 121.043 135.661 120.156 135.661 119.142C135.661 118.119 135.846 117.227 136.217 116.464C136.592 115.701 137.112 115.109 137.776 114.687C138.445 114.265 139.223 114.054 140.11 114.054C140.996 114.054 141.771 114.265 142.436 114.687C143.105 115.109 143.625 115.701 143.996 116.464C144.371 117.227 144.558 118.119 144.558 119.142C144.558 120.156 144.371 121.043 143.996 121.801C143.625 122.56 143.105 123.15 142.436 123.572C141.771 123.994 140.996 124.205 140.11 124.205ZM140.11 122.849C140.783 122.849 141.337 122.677 141.771 122.332C142.206 121.987 142.528 121.533 142.737 120.97C142.945 120.408 143.05 119.798 143.05 119.142C143.05 118.486 142.945 117.874 142.737 117.308C142.528 116.741 142.206 116.283 141.771 115.933C141.337 115.584 140.783 115.409 140.11 115.409C139.436 115.409 138.882 115.584 138.448 115.933C138.013 116.283 137.691 116.741 137.482 117.308C137.274 117.874 137.169 118.486 137.169 119.142C137.169 119.798 137.274 120.408 137.482 120.97C137.691 121.533 138.013 121.987 138.448 122.332C138.882 122.677 139.436 122.849 140.11 122.849ZM153.816 116.381L152.461 116.764C152.375 116.538 152.25 116.319 152.083 116.106C151.922 115.888 151.7 115.71 151.419 115.569C151.137 115.428 150.777 115.358 150.338 115.358C149.738 115.358 149.237 115.496 148.836 115.773C148.44 116.046 148.242 116.393 148.242 116.815C148.242 117.19 148.378 117.487 148.651 117.704C148.924 117.921 149.35 118.102 149.929 118.247L151.387 118.605C152.265 118.818 152.919 119.144 153.349 119.583C153.779 120.018 153.995 120.578 153.995 121.264C153.995 121.827 153.833 122.33 153.509 122.773C153.189 123.216 152.742 123.565 152.167 123.821C151.591 124.077 150.922 124.205 150.159 124.205C149.158 124.205 148.329 123.987 147.673 123.553C147.017 123.118 146.601 122.483 146.426 121.648L147.858 121.29C147.995 121.818 148.252 122.214 148.632 122.479C149.015 122.743 149.516 122.875 150.134 122.875C150.837 122.875 151.395 122.726 151.809 122.428C152.226 122.125 152.435 121.763 152.435 121.341C152.435 121 152.316 120.714 152.077 120.484C151.838 120.25 151.472 120.075 150.978 119.96L149.341 119.577C148.442 119.364 147.782 119.033 147.36 118.586C146.942 118.134 146.733 117.57 146.733 116.892C146.733 116.338 146.889 115.848 147.2 115.422C147.515 114.996 147.944 114.661 148.485 114.418C149.03 114.175 149.648 114.054 150.338 114.054C151.31 114.054 152.073 114.267 152.627 114.693C153.185 115.119 153.581 115.682 153.816 116.381ZM165.035 124.205C164.217 124.205 163.495 123.998 162.868 123.585C162.242 123.167 161.752 122.579 161.398 121.82C161.045 121.058 160.868 120.156 160.868 119.116C160.868 118.085 161.045 117.19 161.398 116.432C161.752 115.673 162.244 115.087 162.875 114.674C163.506 114.261 164.234 114.054 165.061 114.054C165.7 114.054 166.205 114.161 166.576 114.374C166.951 114.582 167.236 114.821 167.432 115.089C167.633 115.354 167.788 115.571 167.899 115.741H168.027V110.909H169.535V124H168.078V122.491H167.899C167.788 122.67 167.631 122.896 167.426 123.169C167.221 123.437 166.93 123.678 166.55 123.891C166.171 124.1 165.666 124.205 165.035 124.205ZM165.24 122.849C165.845 122.849 166.356 122.692 166.774 122.376C167.192 122.057 167.509 121.616 167.726 121.053C167.944 120.487 168.052 119.832 168.052 119.091C168.052 118.358 167.946 117.717 167.733 117.167C167.52 116.613 167.204 116.183 166.787 115.876C166.369 115.565 165.854 115.409 165.24 115.409C164.601 115.409 164.068 115.573 163.642 115.901C163.22 116.225 162.903 116.666 162.689 117.224C162.481 117.778 162.376 118.401 162.376 119.091C162.376 119.79 162.483 120.425 162.696 120.996C162.913 121.562 163.233 122.014 163.655 122.351C164.081 122.683 164.609 122.849 165.24 122.849ZM176.624 124.205C175.678 124.205 174.862 123.996 174.176 123.578C173.494 123.156 172.968 122.568 172.597 121.814C172.231 121.055 172.047 120.173 172.047 119.168C172.047 118.162 172.231 117.276 172.597 116.509C172.968 115.737 173.483 115.136 174.144 114.706C174.809 114.271 175.584 114.054 176.471 114.054C176.982 114.054 177.487 114.139 177.986 114.31C178.484 114.48 178.938 114.757 179.347 115.141C179.756 115.52 180.082 116.023 180.325 116.649C180.568 117.276 180.689 118.047 180.689 118.963V119.602H173.121V118.298H179.155C179.155 117.744 179.045 117.25 178.823 116.815C178.606 116.381 178.295 116.038 177.89 115.786C177.489 115.535 177.016 115.409 176.471 115.409C175.87 115.409 175.35 115.558 174.911 115.857C174.476 116.151 174.142 116.534 173.907 117.007C173.673 117.48 173.556 117.987 173.556 118.528V119.398C173.556 120.139 173.684 120.768 173.939 121.283C174.199 121.795 174.559 122.185 175.02 122.453C175.48 122.717 176.015 122.849 176.624 122.849C177.02 122.849 177.378 122.794 177.698 122.683C178.022 122.568 178.301 122.398 178.535 122.172C178.77 121.942 178.951 121.656 179.079 121.315L180.536 121.724C180.383 122.219 180.125 122.653 179.763 123.028C179.4 123.399 178.953 123.689 178.42 123.898C177.888 124.102 177.289 124.205 176.624 124.205ZM92.6614 146V132.909H97.0847C98.1117 132.909 98.9512 133.094 99.6032 133.465C100.259 133.832 100.745 134.328 101.061 134.955C101.376 135.581 101.534 136.28 101.534 137.051C101.534 137.822 101.376 138.523 101.061 139.154C100.749 139.785 100.268 140.288 99.6159 140.663C98.964 141.033 98.1287 141.219 97.1103 141.219H93.9398V139.812H97.0591C97.7623 139.812 98.3269 139.691 98.753 139.448C99.1792 139.205 99.4881 138.877 99.6799 138.464C99.8759 138.046 99.9739 137.575 99.9739 137.051C99.9739 136.527 99.8759 136.058 99.6799 135.645C99.4881 135.232 99.177 134.908 98.7466 134.673C98.3162 134.435 97.7452 134.315 97.0336 134.315H94.2466V146H92.6614ZM115.133 139.455C115.133 140.835 114.883 142.028 114.385 143.034C113.886 144.04 113.202 144.815 112.333 145.361C111.464 145.906 110.471 146.179 109.354 146.179C108.238 146.179 107.245 145.906 106.376 145.361C105.506 144.815 104.822 144.04 104.324 143.034C103.825 142.028 103.576 140.835 103.576 139.455C103.576 138.074 103.825 136.881 104.324 135.875C104.822 134.869 105.506 134.094 106.376 133.548C107.245 133.003 108.238 132.73 109.354 132.73C110.471 132.73 111.464 133.003 112.333 133.548C113.202 134.094 113.886 134.869 114.385 135.875C114.883 136.881 115.133 138.074 115.133 139.455ZM113.599 139.455C113.599 138.321 113.409 137.364 113.03 136.585C112.655 135.805 112.145 135.214 111.502 134.814C110.863 134.413 110.147 134.213 109.354 134.213C108.562 134.213 107.844 134.413 107.2 134.814C106.561 135.214 106.052 135.805 105.672 136.585C105.297 137.364 105.11 138.321 105.11 139.455C105.11 140.588 105.297 141.545 105.672 142.325C106.052 143.104 106.561 143.695 107.2 144.095C107.844 144.496 108.562 144.696 109.354 144.696C110.147 144.696 110.863 144.496 111.502 144.095C112.145 143.695 112.655 143.104 113.03 142.325C113.409 141.545 113.599 140.588 113.599 139.455ZM128.844 139.455C128.844 140.835 128.594 142.028 128.096 143.034C127.597 144.04 126.913 144.815 126.044 145.361C125.175 145.906 124.182 146.179 123.065 146.179C121.949 146.179 120.956 145.906 120.086 145.361C119.217 144.815 118.533 144.04 118.035 143.034C117.536 142.028 117.287 140.835 117.287 139.455C117.287 138.074 117.536 136.881 118.035 135.875C118.533 134.869 119.217 134.094 120.086 133.548C120.956 133.003 121.949 132.73 123.065 132.73C124.182 132.73 125.175 133.003 126.044 133.548C126.913 134.094 127.597 134.869 128.096 135.875C128.594 136.881 128.844 138.074 128.844 139.455ZM127.309 139.455C127.309 138.321 127.12 137.364 126.741 136.585C126.366 135.805 125.856 135.214 125.213 134.814C124.574 134.413 123.858 134.213 123.065 134.213C122.273 134.213 121.555 134.413 120.911 134.814C120.272 135.214 119.763 135.805 119.383 136.585C119.008 137.364 118.821 138.321 118.821 139.455C118.821 140.588 119.008 141.545 119.383 142.325C119.763 143.104 120.272 143.695 120.911 144.095C121.555 144.496 122.273 144.696 123.065 144.696C123.858 144.696 124.574 144.496 125.213 144.095C125.856 143.695 126.366 143.104 126.741 142.325C127.12 141.545 127.309 140.588 127.309 139.455Z" fill="#FAFAFA"/>
<g clip-path="url(#clip0_21_365)">
<path d="M102.5 50.7266L108.625 54.1291C109.375 54.6152 109.875 55.3443 109.875 56.195V63.1215C109.875 63.9722 109.375 64.8228 108.625 65.1874L102.5 68.7114C101.75 69.1975 100.75 69.1975 100 68.7114L93.875 65.3089C93.125 64.8228 92.625 64.0937 92.625 63.2431V56.3165C92.625 55.4659 93.125 54.6152 93.875 54.2507L100 50.8481C100.75 50.2405 101.75 50.2405 102.5 50.7266Z" fill="#FAFAFA" stroke="#FAFAFA" stroke-width="1.6"/>
<path d="M120.25 38.6962C120 38.5747 119.875 38.5747 119.625 38.6962L114.375 41.6127C114.125 41.7342 114.125 41.9772 114.125 42.0987V47.9316C114.125 48.1747 114.25 48.2962 114.375 48.4177L119.625 51.3342C119.875 51.4557 120 51.4557 120.25 51.3342L125.5 48.4177C125.75 48.2962 125.75 48.0532 125.75 47.9316V42.0987C125.75 41.8557 125.625 41.7342 125.5 41.6127L120.25 38.6962ZM121 37.724L126.25 40.6405C126.875 41.0051 127.25 41.6127 127.25 42.2203V48.0532C127.25 48.6608 126.875 49.2684 126.25 49.6329L121 52.5494C120.375 52.9139 119.75 52.9139 119.125 52.5494L113.875 49.6329C113.25 49.2684 112.875 48.6608 112.875 48.0532V42.2203C112.875 41.6127 113.25 41.0051 113.875 40.6405L119.125 37.724C119.625 37.3595 120.375 37.3595 121 37.724ZM123.75 70.8987L118.5 73.8152V79.6481L123.75 82.5646L129 79.6481V73.8152L123.75 70.8987ZM130.25 71.6278C131 72.1139 131.5 72.843 131.5 73.6937V79.5266C131.5 80.3772 131 81.2278 130.25 81.5924L125 84.7519C124.25 85.238 123.25 85.238 122.5 84.7519L117.25 81.8354C116.5 81.3494 116 80.6202 116 79.7696V73.9367C116 73.0861 116.5 72.2354 117.25 71.8709L122.5 68.9544C123.25 68.4683 124.25 68.4683 125 68.9544L130.25 71.6278ZM83.75 31.2835V34.6861L86.875 36.3873L90 34.6861V31.2835L86.875 29.5823L83.75 31.2835ZM91.5 29.3392C92.125 29.7038 92.5 30.3114 92.5 30.919V35.0506C92.5 35.6582 92.125 36.2658 91.5 36.6304L87.75 38.6962C87.125 39.0608 86.5 39.0608 85.875 38.6962L82.125 36.6304C81.625 36.2658 81.25 35.6582 81.25 35.0506V30.919C81.25 30.3114 81.625 29.7038 82.25 29.3392L86 27.2734C86.625 26.9089 87.25 26.9089 87.875 27.2734L91.5 29.3392ZM85 77.4608L81.25 79.5266V83.6582L85 85.724L88.75 83.6582V79.5266L85 77.4608ZM85.625 76.3671L89.375 78.4329C89.75 78.6759 90 79.0405 90 79.5266V83.6582C90 84.1443 89.75 84.5089 89.375 84.7519L85.625 86.8177C85.25 87.0608 84.75 87.0608 84.375 86.8177L80.625 84.7519C80.25 84.5089 80 84.1443 80 83.6582V79.5266C80 79.0405 80.25 78.6759 80.625 78.4329L84.375 76.3671C84.75 76.124 85.25 76.124 85.625 76.3671Z" fill="#FAFAFA" stroke="#FAFAFA" stroke-width="1.6"/>
<path d="M101.5 77.3393L96.625 82.0785C96.5 82.2 96.375 82.2 96.125 82.2H89.25C88.875 82.2 88.625 81.957 88.625 81.5924C88.625 81.2279 88.875 80.9848 89.25 80.9848H95.875L100.5 76.4886V71.2633C100.5 70.8987 100.75 70.6557 101.125 70.6557C101.5 70.6557 101.75 70.8987 101.75 71.2633V76.1241H115C115.375 76.1241 115.625 76.3671 115.625 76.7317C115.625 77.0962 115.375 77.3393 115 77.3393H101.5ZM100.625 44.1646L92.125 36.9949C91.875 36.7519 91.875 36.3874 92 36.1443C92.25 35.9013 92.625 35.9013 92.875 36.0228L101.5 43.1924H111.25C111.625 43.1924 111.875 43.4355 111.875 43.8C111.875 44.1646 111.625 44.4076 111.25 44.4076H101.875V48.7823C101.875 49.1468 101.625 49.3899 101.25 49.3899C100.875 49.3899 100.625 49.1468 100.625 48.7823V44.1646ZM132.5 73.6937C132.125 73.6937 131.875 73.4506 131.875 73.0861C131.875 72.7215 132.125 72.4785 132.5 72.4785H139.375C139.75 72.4785 140 72.7215 140 73.0861C140 73.4506 139.75 73.6937 139.375 73.6937H132.5ZM128.625 40.6405C128.375 40.8836 128 40.8836 127.75 40.762C127.5 40.519 127.5 40.1544 127.625 39.9114L135.125 31.4051C135.375 31.162 135.75 31.162 136 31.2836C136.25 31.5266 136.25 31.8912 136.125 32.1342L128.625 40.6405ZM82.5 56.681C82.125 56.681 81.875 56.438 81.875 56.0734C81.875 55.7089 82.125 55.4658 82.5 55.4658H91.25C91.625 55.4658 91.875 55.7089 91.875 56.0734C91.875 56.438 91.625 56.681 91.25 56.681H82.5ZM124.375 67.6177C124.375 67.9823 124.125 68.2253 123.75 68.2253C123.375 68.2253 123.125 67.9823 123.125 67.6177V59.719C123.125 59.3544 123.375 59.1114 123.75 59.1114C124.125 59.1114 124.375 59.3544 124.375 59.719V67.6177Z" fill="#FAFAFA" stroke="#FAFAFA" stroke-width="1.6"/>
</g>
<defs>
<clipPath id="clip0_21_365">
<rect width="60" height="60" fill="white" transform="translate(80 27)"/>
</clipPath>
</defs>
</svg>
