<svg width="220" height="175" viewBox="0 0 220 175" fill="none" xmlns="http://www.w3.org/2000/svg">
<rect width="220" height="175" rx="5" fill="#B5BF00"/>
<line x1="82" y1="99.5" x2="139" y2="99.5" stroke="#FAFAFA"/>
<path d="M59.7256 124H55.6858V110.909H59.9046C61.1744 110.909 62.2611 111.171 63.1645 111.695C64.0679 112.215 64.7604 112.963 65.2419 113.939C65.7235 114.911 65.9642 116.074 65.9642 117.429C65.9642 118.793 65.7213 119.967 65.2355 120.951C64.7497 121.931 64.0423 122.685 63.1134 123.214C62.1844 123.738 61.0551 124 59.7256 124ZM57.271 122.594H59.6233C60.7057 122.594 61.6027 122.385 62.3144 121.967C63.026 121.55 63.5566 120.955 63.906 120.184C64.2554 119.413 64.4301 118.494 64.4301 117.429C64.4301 116.372 64.2575 115.462 63.9124 114.7C63.5672 113.933 63.0516 113.344 62.3655 112.935C61.6794 112.522 60.825 112.315 59.8023 112.315H57.271V122.594ZM72.5352 124.205C71.5892 124.205 70.7732 123.996 70.0871 123.578C69.4053 123.156 68.879 122.568 68.5083 121.814C68.1418 121.055 67.9585 120.173 67.9585 119.168C67.9585 118.162 68.1418 117.276 68.5083 116.509C68.879 115.737 69.3946 115.136 70.0551 114.706C70.7199 114.271 71.4955 114.054 72.3818 114.054C72.8932 114.054 73.3982 114.139 73.8968 114.31C74.3953 114.48 74.8492 114.757 75.2583 115.141C75.6673 115.52 75.9933 116.023 76.2362 116.649C76.4791 117.276 76.6006 118.047 76.6006 118.963V119.602H69.0324V118.298H75.0665C75.0665 117.744 74.9557 117.25 74.7341 116.815C74.5168 116.381 74.2057 116.038 73.8009 115.786C73.4003 115.535 72.9273 115.409 72.3818 115.409C71.781 115.409 71.2611 115.558 70.8222 115.857C70.3875 116.151 70.053 116.534 69.8186 117.007C69.5843 117.48 69.4671 117.987 69.4671 118.528V119.398C69.4671 120.139 69.5949 120.768 69.8506 121.283C70.1105 121.795 70.4706 122.185 70.9308 122.453C71.3911 122.717 71.9259 122.849 72.5352 122.849C72.9316 122.849 73.2895 122.794 73.6091 122.683C73.933 122.568 74.2121 122.398 74.4465 122.172C74.6808 121.942 74.8619 121.656 74.9898 121.315L76.4472 121.724C76.2938 122.219 76.036 122.653 75.6737 123.028C75.3115 123.399 74.8641 123.689 74.3314 123.898C73.7987 124.102 73.2 124.205 72.5352 124.205ZM85.8499 116.381L84.4948 116.764C84.4095 116.538 84.2838 116.319 84.1176 116.106C83.9557 115.888 83.7341 115.71 83.4529 115.569C83.1716 115.428 82.8115 115.358 82.3726 115.358C81.7718 115.358 81.271 115.496 80.8705 115.773C80.4742 116.046 80.276 116.393 80.276 116.815C80.276 117.19 80.4124 117.487 80.6851 117.704C80.9578 117.921 81.384 118.102 81.9635 118.247L83.4209 118.605C84.2987 118.818 84.9529 119.144 85.3833 119.583C85.8137 120.018 86.0289 120.578 86.0289 121.264C86.0289 121.827 85.8669 122.33 85.5431 122.773C85.2235 123.216 84.776 123.565 84.2007 123.821C83.6254 124.077 82.9564 124.205 82.1936 124.205C81.1922 124.205 80.3634 123.987 79.7071 123.553C79.0509 123.118 78.6354 122.483 78.4607 121.648L79.8925 121.29C80.0289 121.818 80.2867 122.214 80.6659 122.479C81.0494 122.743 81.5502 122.875 82.1681 122.875C82.8712 122.875 83.4294 122.726 83.8428 122.428C84.2604 122.125 84.4692 121.763 84.4692 121.341C84.4692 121 84.3499 120.714 84.1112 120.484C83.8726 120.25 83.5061 120.075 83.0118 119.96L81.3754 119.577C80.4763 119.364 79.8158 119.033 79.3939 118.586C78.9763 118.134 78.7675 117.57 78.7675 116.892C78.7675 116.338 78.923 115.848 79.2341 115.422C79.5494 114.996 79.9777 114.661 80.5189 114.418C81.0644 114.175 81.6823 114.054 82.3726 114.054C83.3442 114.054 84.107 114.267 84.661 114.693C85.2192 115.119 85.6155 115.682 85.8499 116.381ZM91.1888 124.23C90.5667 124.23 90.002 124.113 89.4949 123.879C88.9878 123.64 88.5851 123.297 88.2868 122.849C87.9885 122.398 87.8394 121.852 87.8394 121.213C87.8394 120.651 87.9502 120.195 88.1718 119.845C88.3934 119.491 88.6895 119.214 89.0603 119.014C89.431 118.814 89.8401 118.665 90.2876 118.567C90.7393 118.464 91.1931 118.384 91.6491 118.324C92.2456 118.247 92.7293 118.19 93.1001 118.151C93.4751 118.109 93.7478 118.038 93.9182 117.94C94.093 117.842 94.1803 117.672 94.1803 117.429V117.378C94.1803 116.747 94.0077 116.257 93.6626 115.908C93.3216 115.558 92.8039 115.384 92.1093 115.384C91.3891 115.384 90.8245 115.541 90.4154 115.857C90.0063 116.172 89.7187 116.509 89.5525 116.866L88.1206 116.355C88.3763 115.759 88.7172 115.294 89.1434 114.962C89.5738 114.625 90.0425 114.391 90.5496 114.259C91.061 114.122 91.5638 114.054 92.0582 114.054C92.3735 114.054 92.7357 114.092 93.1448 114.169C93.5582 114.241 93.9566 114.393 94.3401 114.623C94.7279 114.853 95.0496 115.2 95.3053 115.665C95.561 116.129 95.6888 116.751 95.6888 117.531V124H94.1803V122.67H94.1036C94.0013 122.884 93.8309 123.112 93.5922 123.354C93.3536 123.597 93.0361 123.804 92.6398 123.974C92.2435 124.145 91.7599 124.23 91.1888 124.23ZM91.4189 122.875C92.0155 122.875 92.5184 122.758 92.9275 122.523C93.3408 122.289 93.6519 121.987 93.8607 121.616C94.0738 121.245 94.1803 120.855 94.1803 120.446V119.065C94.1164 119.142 93.9758 119.212 93.7584 119.276C93.5454 119.336 93.2982 119.389 93.017 119.436C92.74 119.479 92.4694 119.517 92.2052 119.551C91.9452 119.581 91.7343 119.607 91.5724 119.628C91.1803 119.679 90.8138 119.762 90.4729 119.877C90.1363 119.988 89.8635 120.156 89.6547 120.382C89.4502 120.604 89.3479 120.906 89.3479 121.29C89.3479 121.814 89.5418 122.21 89.9296 122.479C90.3216 122.743 90.8181 122.875 91.4189 122.875ZM98.4422 124V114.182H99.8996V115.665H100.002C100.181 115.179 100.505 114.785 100.973 114.482C101.442 114.18 101.971 114.028 102.559 114.028C102.669 114.028 102.808 114.031 102.974 114.035C103.14 114.039 103.266 114.045 103.351 114.054V115.588C103.3 115.575 103.183 115.556 103 115.531C102.821 115.501 102.631 115.486 102.431 115.486C101.954 115.486 101.527 115.586 101.152 115.786C100.782 115.982 100.488 116.255 100.27 116.604C100.057 116.95 99.9507 117.344 99.9507 117.787V124H98.4422ZM105.139 124V114.182H106.597V115.665H106.699C106.878 115.179 107.202 114.785 107.671 114.482C108.139 114.18 108.668 114.028 109.256 114.028C109.367 114.028 109.505 114.031 109.671 114.035C109.838 114.039 109.963 114.045 110.049 114.054V115.588C109.997 115.575 109.88 115.556 109.697 115.531C109.518 115.501 109.328 115.486 109.128 115.486C108.651 115.486 108.225 115.586 107.85 115.786C107.479 115.982 107.185 116.255 106.968 116.604C106.755 116.95 106.648 117.344 106.648 117.787V124H105.139ZM115.527 124.205C114.64 124.205 113.862 123.994 113.193 123.572C112.529 123.15 112.009 122.56 111.634 121.801C111.263 121.043 111.078 120.156 111.078 119.142C111.078 118.119 111.263 117.227 111.634 116.464C112.009 115.701 112.529 115.109 113.193 114.687C113.862 114.265 114.64 114.054 115.527 114.054C116.413 114.054 117.188 114.265 117.853 114.687C118.522 115.109 119.042 115.701 119.413 116.464C119.788 117.227 119.975 118.119 119.975 119.142C119.975 120.156 119.788 121.043 119.413 121.801C119.042 122.56 118.522 123.15 117.853 123.572C117.188 123.994 116.413 124.205 115.527 124.205ZM115.527 122.849C116.2 122.849 116.754 122.677 117.188 122.332C117.623 121.987 117.945 121.533 118.154 120.97C118.362 120.408 118.467 119.798 118.467 119.142C118.467 118.486 118.362 117.874 118.154 117.308C117.945 116.741 117.623 116.283 117.188 115.933C116.754 115.584 116.2 115.409 115.527 115.409C114.853 115.409 114.299 115.584 113.865 115.933C113.43 116.283 113.108 116.741 112.899 117.308C112.691 117.874 112.586 118.486 112.586 119.142C112.586 119.798 112.691 120.408 112.899 120.97C113.108 121.533 113.43 121.987 113.865 122.332C114.299 122.677 114.853 122.849 115.527 122.849ZM123.787 110.909V124H122.278V110.909H123.787ZM128.058 110.909V124H126.55V110.909H128.058ZM134.81 124.205C133.923 124.205 133.146 123.994 132.477 123.572C131.812 123.15 131.292 122.56 130.917 121.801C130.546 121.043 130.361 120.156 130.361 119.142C130.361 118.119 130.546 117.227 130.917 116.464C131.292 115.701 131.812 115.109 132.477 114.687C133.146 114.265 133.923 114.054 134.81 114.054C135.696 114.054 136.472 114.265 137.136 114.687C137.805 115.109 138.325 115.701 138.696 116.464C139.071 117.227 139.259 118.119 139.259 119.142C139.259 120.156 139.071 121.043 138.696 121.801C138.325 122.56 137.805 123.15 137.136 123.572C136.472 123.994 135.696 124.205 134.81 124.205ZM134.81 122.849C135.483 122.849 136.037 122.677 136.472 122.332C136.906 121.987 137.228 121.533 137.437 120.97C137.646 120.408 137.75 119.798 137.75 119.142C137.75 118.486 137.646 117.874 137.437 117.308C137.228 116.741 136.906 116.283 136.472 115.933C136.037 115.584 135.483 115.409 134.81 115.409C134.136 115.409 133.582 115.584 133.148 115.933C132.713 116.283 132.391 116.741 132.183 117.308C131.974 117.874 131.869 118.486 131.869 119.142C131.869 119.798 131.974 120.408 132.183 120.97C132.391 121.533 132.713 121.987 133.148 122.332C133.582 122.677 134.136 122.849 134.81 122.849ZM150.331 124.205C149.513 124.205 148.791 123.998 148.164 123.585C147.538 123.167 147.048 122.579 146.694 121.82C146.34 121.058 146.164 120.156 146.164 119.116C146.164 118.085 146.34 117.19 146.694 116.432C147.048 115.673 147.54 115.087 148.171 114.674C148.801 114.261 149.53 114.054 150.357 114.054C150.996 114.054 151.501 114.161 151.872 114.374C152.247 114.582 152.532 114.821 152.728 115.089C152.929 115.354 153.084 115.571 153.195 115.741H153.323V110.909H154.831V124H153.374V122.491H153.195C153.084 122.67 152.926 122.896 152.722 123.169C152.517 123.437 152.225 123.678 151.846 123.891C151.467 124.1 150.962 124.205 150.331 124.205ZM150.536 122.849C151.141 122.849 151.652 122.692 152.07 122.376C152.487 122.057 152.805 121.616 153.022 121.053C153.24 120.487 153.348 119.832 153.348 119.091C153.348 118.358 153.242 117.717 153.029 117.167C152.816 116.613 152.5 116.183 152.083 115.876C151.665 115.565 151.149 115.409 150.536 115.409C149.897 115.409 149.364 115.573 148.938 115.901C148.516 116.225 148.198 116.666 147.985 117.224C147.777 117.778 147.672 118.401 147.672 119.091C147.672 119.79 147.779 120.425 147.992 120.996C148.209 121.562 148.529 122.014 148.951 122.351C149.377 122.683 149.905 122.849 150.536 122.849ZM161.92 124.205C160.974 124.205 160.158 123.996 159.472 123.578C158.79 123.156 158.264 122.568 157.893 121.814C157.527 121.055 157.343 120.173 157.343 119.168C157.343 118.162 157.527 117.276 157.893 116.509C158.264 115.737 158.779 115.136 159.44 114.706C160.105 114.271 160.88 114.054 161.767 114.054C162.278 114.054 162.783 114.139 163.282 114.31C163.78 114.48 164.234 114.757 164.643 115.141C165.052 115.52 165.378 116.023 165.621 116.649C165.864 117.276 165.985 118.047 165.985 118.963V119.602H158.417V118.298H164.451C164.451 117.744 164.34 117.25 164.119 116.815C163.902 116.381 163.59 116.038 163.186 115.786C162.785 115.535 162.312 115.409 161.767 115.409C161.166 115.409 160.646 115.558 160.207 115.857C159.772 116.151 159.438 116.534 159.203 117.007C158.969 117.48 158.852 117.987 158.852 118.528V119.398C158.852 120.139 158.98 120.768 159.235 121.283C159.495 121.795 159.855 122.185 160.316 122.453C160.776 122.717 161.311 122.849 161.92 122.849C162.316 122.849 162.674 122.794 162.994 122.683C163.318 122.568 163.597 122.398 163.831 122.172C164.066 121.942 164.247 121.656 164.375 121.315L165.832 121.724C165.679 122.219 165.421 122.653 165.059 123.028C164.696 123.399 164.249 123.689 163.716 123.898C163.184 124.102 162.585 124.205 161.92 124.205ZM68.4052 136.182L64.7745 146H63.2404L59.6097 136.182H61.2461L63.9563 144.006H64.0586L66.7688 136.182H68.4052ZM70.3963 146V136.182H71.9048V146H70.3963ZM71.1634 134.545C70.8693 134.545 70.6158 134.445 70.4027 134.245C70.1939 134.045 70.0895 133.804 70.0895 133.523C70.0895 133.241 70.1939 133.001 70.4027 132.8C70.6158 132.6 70.8693 132.5 71.1634 132.5C71.4574 132.5 71.7088 132.6 71.9176 132.8C72.1307 133.001 72.2372 133.241 72.2372 133.523C72.2372 133.804 72.1307 134.045 71.9176 134.245C71.7088 134.445 71.4574 134.545 71.1634 134.545ZM78.3752 146.205C77.557 146.205 76.8347 145.998 76.2083 145.585C75.5819 145.167 75.0918 144.579 74.7381 143.82C74.3844 143.058 74.2076 142.156 74.2076 141.116C74.2076 140.085 74.3844 139.19 74.7381 138.432C75.0918 137.673 75.584 137.087 76.2147 136.674C76.8453 136.261 77.574 136.054 78.4007 136.054C79.04 136.054 79.5449 136.161 79.9157 136.374C80.2907 136.582 80.5762 136.821 80.7722 137.089C80.9725 137.354 81.128 137.571 81.2388 137.741H81.3667V132.909H82.8752V146H81.4178V144.491H81.2388C81.128 144.67 80.9703 144.896 80.7658 145.169C80.5613 145.437 80.2694 145.678 79.8901 145.891C79.5108 146.1 79.0059 146.205 78.3752 146.205ZM78.5797 144.849C79.1848 144.849 79.6962 144.692 80.1138 144.376C80.5314 144.057 80.8489 143.616 81.0662 143.053C81.2836 142.487 81.3922 141.832 81.3922 141.091C81.3922 140.358 81.2857 139.717 81.0726 139.167C80.8596 138.613 80.5442 138.183 80.1266 137.876C79.709 137.565 79.1934 137.409 78.5797 137.409C77.9405 137.409 77.4078 137.573 76.9817 137.901C76.5598 138.225 76.2424 138.666 76.0293 139.224C75.8205 139.778 75.7161 140.401 75.7161 141.091C75.7161 141.79 75.8226 142.425 76.0357 142.996C76.253 143.562 76.5726 144.014 76.9945 144.351C77.4206 144.683 77.949 144.849 78.5797 144.849ZM89.964 146.205C89.0179 146.205 88.2019 145.996 87.5158 145.578C86.834 145.156 86.3077 144.568 85.937 143.814C85.5705 143.055 85.3873 142.173 85.3873 141.168C85.3873 140.162 85.5705 139.276 85.937 138.509C86.3077 137.737 86.8233 137.136 87.4838 136.706C88.1486 136.271 88.9242 136.054 89.8105 136.054C90.3219 136.054 90.8269 136.139 91.3255 136.31C91.824 136.48 92.2779 136.757 92.687 137.141C93.0961 137.52 93.4221 138.023 93.665 138.649C93.9078 139.276 94.0293 140.047 94.0293 140.963V141.602H86.4611V140.298H92.4952C92.4952 139.744 92.3844 139.25 92.1628 138.815C91.9455 138.381 91.6344 138.038 91.2296 137.786C90.829 137.535 90.356 137.409 89.8105 137.409C89.2097 137.409 88.6898 137.558 88.2509 137.857C87.8162 138.151 87.4817 138.534 87.2473 139.007C87.013 139.48 86.8958 139.987 86.8958 140.528V141.398C86.8958 142.139 87.0236 142.768 87.2793 143.283C87.5392 143.795 87.8993 144.185 88.3596 144.453C88.8198 144.717 89.3546 144.849 89.964 144.849C90.3603 144.849 90.7182 144.794 91.0378 144.683C91.3617 144.568 91.6408 144.398 91.8752 144.172C92.1096 143.942 92.2907 143.656 92.4185 143.315L93.8759 143.724C93.7225 144.219 93.4647 144.653 93.1025 145.028C92.7402 145.399 92.2928 145.689 91.7601 145.898C91.2275 146.102 90.6287 146.205 89.964 146.205ZM100.313 146.205C99.4263 146.205 98.6486 145.994 97.9796 145.572C97.3148 145.15 96.7949 144.56 96.4199 143.801C96.0492 143.043 95.8638 142.156 95.8638 141.142C95.8638 140.119 96.0492 139.227 96.4199 138.464C96.7949 137.701 97.3148 137.109 97.9796 136.687C98.6486 136.265 99.4263 136.054 100.313 136.054C101.199 136.054 101.975 136.265 102.639 136.687C103.308 137.109 103.828 137.701 104.199 138.464C104.574 139.227 104.762 140.119 104.762 141.142C104.762 142.156 104.574 143.043 104.199 143.801C103.828 144.56 103.308 145.15 102.639 145.572C101.975 145.994 101.199 146.205 100.313 146.205ZM100.313 144.849C100.986 144.849 101.54 144.677 101.975 144.332C102.409 143.987 102.731 143.533 102.94 142.97C103.149 142.408 103.253 141.798 103.253 141.142C103.253 140.486 103.149 139.874 102.94 139.308C102.731 138.741 102.409 138.283 101.975 137.933C101.54 137.584 100.986 137.409 100.313 137.409C99.6394 137.409 99.0854 137.584 98.6507 137.933C98.2161 138.283 97.8944 138.741 97.6855 139.308C97.4767 139.874 97.3723 140.486 97.3723 141.142C97.3723 141.798 97.4767 142.408 97.6855 142.97C97.8944 143.533 98.2161 143.987 98.6507 144.332C99.0854 144.677 99.6394 144.849 100.313 144.849ZM107.064 136.182H108.573V146.716C108.573 147.321 108.468 147.845 108.26 148.288C108.055 148.732 107.744 149.075 107.326 149.317C106.913 149.56 106.391 149.682 105.76 149.682C105.709 149.682 105.658 149.682 105.607 149.682C105.556 149.682 105.505 149.682 105.453 149.682V148.276C105.505 148.276 105.551 148.276 105.594 148.276C105.637 148.276 105.684 148.276 105.735 148.276C106.195 148.276 106.532 148.139 106.745 147.866C106.958 147.598 107.064 147.214 107.064 146.716V136.182ZM107.806 134.545C107.512 134.545 107.258 134.445 107.045 134.245C106.836 134.045 106.732 133.804 106.732 133.523C106.732 133.241 106.836 133.001 107.045 132.8C107.258 132.6 107.512 132.5 107.806 132.5C108.1 132.5 108.351 132.6 108.56 132.8C108.773 133.001 108.88 133.241 108.88 133.523C108.88 133.804 108.773 134.045 108.56 134.245C108.351 134.445 108.1 134.545 107.806 134.545ZM117.523 141.986V136.182H119.032V146H117.523V144.338H117.421C117.191 144.837 116.833 145.261 116.347 145.61C115.861 145.955 115.248 146.128 114.506 146.128C113.893 146.128 113.347 145.994 112.87 145.725C112.393 145.452 112.018 145.043 111.745 144.498C111.472 143.948 111.336 143.256 111.336 142.42V136.182H112.844V142.318C112.844 143.034 113.045 143.605 113.445 144.031C113.85 144.457 114.366 144.67 114.992 144.67C115.367 144.67 115.748 144.575 116.136 144.383C116.528 144.191 116.856 143.897 117.121 143.501C117.389 143.104 117.523 142.599 117.523 141.986ZM125.911 146.205C124.965 146.205 124.149 145.996 123.463 145.578C122.781 145.156 122.255 144.568 121.884 143.814C121.518 143.055 121.335 142.173 121.335 141.168C121.335 140.162 121.518 139.276 121.884 138.509C122.255 137.737 122.771 137.136 123.431 136.706C124.096 136.271 124.871 136.054 125.758 136.054C126.269 136.054 126.774 136.139 127.273 136.31C127.771 136.48 128.225 136.757 128.634 137.141C129.043 137.52 129.369 138.023 129.612 138.649C129.855 139.276 129.977 140.047 129.977 140.963V141.602H122.408V140.298H128.442C128.442 139.744 128.332 139.25 128.11 138.815C127.893 138.381 127.582 138.038 127.177 137.786C126.776 137.535 126.303 137.409 125.758 137.409C125.157 137.409 124.637 137.558 124.198 137.857C123.763 138.151 123.429 138.534 123.195 139.007C122.96 139.48 122.843 139.987 122.843 140.528V141.398C122.843 142.139 122.971 142.768 123.227 143.283C123.487 143.795 123.847 144.185 124.307 144.453C124.767 144.717 125.302 144.849 125.911 144.849C126.308 144.849 126.665 144.794 126.985 144.683C127.309 144.568 127.588 144.398 127.822 144.172C128.057 143.942 128.238 143.656 128.366 143.315L129.823 143.724C129.67 144.219 129.412 144.653 129.05 145.028C128.688 145.399 128.24 145.689 127.707 145.898C127.175 146.102 126.576 146.205 125.911 146.205ZM136.234 149.886C135.506 149.886 134.879 149.793 134.355 149.605C133.831 149.422 133.394 149.179 133.045 148.876C132.7 148.578 132.425 148.259 132.22 147.918L133.422 147.074C133.558 147.253 133.731 147.457 133.94 147.688C134.148 147.922 134.434 148.124 134.796 148.295C135.163 148.469 135.642 148.557 136.234 148.557C137.027 148.557 137.681 148.365 138.197 147.982C138.712 147.598 138.97 146.997 138.97 146.179V144.185H138.842C138.732 144.364 138.574 144.585 138.369 144.849C138.169 145.109 137.879 145.342 137.5 145.546C137.125 145.746 136.618 145.847 135.979 145.847C135.186 145.847 134.474 145.659 133.844 145.284C133.217 144.909 132.721 144.364 132.354 143.648C131.992 142.932 131.811 142.062 131.811 141.04C131.811 140.034 131.988 139.158 132.342 138.413C132.695 137.663 133.188 137.083 133.818 136.674C134.449 136.261 135.178 136.054 136.004 136.054C136.643 136.054 137.151 136.161 137.526 136.374C137.905 136.582 138.195 136.821 138.395 137.089C138.599 137.354 138.757 137.571 138.868 137.741H139.021V136.182H140.479V146.281C140.479 147.125 140.287 147.811 139.903 148.339C139.524 148.872 139.013 149.262 138.369 149.509C137.73 149.761 137.018 149.886 136.234 149.886ZM136.183 144.491C136.788 144.491 137.3 144.353 137.717 144.076C138.135 143.799 138.452 143.401 138.67 142.881C138.887 142.361 138.996 141.739 138.996 141.014C138.996 140.307 138.889 139.683 138.676 139.141C138.463 138.6 138.148 138.176 137.73 137.869C137.313 137.562 136.797 137.409 136.183 137.409C135.544 137.409 135.011 137.571 134.585 137.895C134.163 138.219 133.846 138.653 133.633 139.199C133.424 139.744 133.32 140.349 133.32 141.014C133.32 141.696 133.426 142.299 133.639 142.823C133.857 143.343 134.176 143.752 134.598 144.05C135.024 144.344 135.553 144.491 136.183 144.491ZM147.229 146.205C146.342 146.205 145.565 145.994 144.896 145.572C144.231 145.15 143.711 144.56 143.336 143.801C142.965 143.043 142.78 142.156 142.78 141.142C142.78 140.119 142.965 139.227 143.336 138.464C143.711 137.701 144.231 137.109 144.896 136.687C145.565 136.265 146.342 136.054 147.229 136.054C148.115 136.054 148.891 136.265 149.555 136.687C150.224 137.109 150.744 137.701 151.115 138.464C151.49 139.227 151.678 140.119 151.678 141.142C151.678 142.156 151.49 143.043 151.115 143.801C150.744 144.56 150.224 145.15 149.555 145.572C148.891 145.994 148.115 146.205 147.229 146.205ZM147.229 144.849C147.902 144.849 148.456 144.677 148.891 144.332C149.325 143.987 149.647 143.533 149.856 142.97C150.065 142.408 150.169 141.798 150.169 141.142C150.169 140.486 150.065 139.874 149.856 139.308C149.647 138.741 149.325 138.283 148.891 137.933C148.456 137.584 147.902 137.409 147.229 137.409C146.555 137.409 146.001 137.584 145.567 137.933C145.132 138.283 144.81 138.741 144.602 139.308C144.393 139.874 144.288 140.486 144.288 141.142C144.288 141.798 144.393 142.408 144.602 142.97C144.81 143.533 145.132 143.987 145.567 144.332C146.001 144.677 146.555 144.849 147.229 144.849ZM160.935 138.381L159.58 138.764C159.494 138.538 159.369 138.319 159.203 138.106C159.041 137.888 158.819 137.71 158.538 137.569C158.257 137.428 157.896 137.358 157.458 137.358C156.857 137.358 156.356 137.496 155.955 137.773C155.559 138.046 155.361 138.393 155.361 138.815C155.361 139.19 155.497 139.487 155.77 139.704C156.043 139.921 156.469 140.102 157.048 140.247L158.506 140.605C159.384 140.818 160.038 141.144 160.468 141.583C160.899 142.018 161.114 142.578 161.114 143.264C161.114 143.827 160.952 144.33 160.628 144.773C160.308 145.216 159.861 145.565 159.286 145.821C158.71 146.077 158.041 146.205 157.279 146.205C156.277 146.205 155.448 145.987 154.792 145.553C154.136 145.118 153.72 144.483 153.546 143.648L154.977 143.29C155.114 143.818 155.372 144.214 155.751 144.479C156.134 144.743 156.635 144.875 157.253 144.875C157.956 144.875 158.514 144.726 158.928 144.428C159.345 144.125 159.554 143.763 159.554 143.341C159.554 143 159.435 142.714 159.196 142.484C158.958 142.25 158.591 142.075 158.097 141.96L156.46 141.577C155.561 141.364 154.901 141.033 154.479 140.586C154.061 140.134 153.852 139.57 153.852 138.892C153.852 138.338 154.008 137.848 154.319 137.422C154.634 136.996 155.063 136.661 155.604 136.418C156.149 136.175 156.767 136.054 157.458 136.054C158.429 136.054 159.192 136.267 159.746 136.693C160.304 137.119 160.7 137.682 160.935 138.381Z" fill="#FAFAFA"/>
<path d="M92.2344 55.9596V46.3494" stroke="#FAFAFA" stroke-width="2.4" stroke-linecap="round" stroke-linejoin="round"/>
<path d="M87.4294 51.1545H97.0394" stroke="#FAFAFA" stroke-width="2.4" stroke-linecap="round" stroke-linejoin="round"/>
<path d="M97.4352 38.2461V35.3901C97.4352 34.3612 96.6011 33.5272 95.5723 33.5272H88.8966C87.8678 33.5272 87.0337 34.3612 87.0337 35.3901V38.5259" stroke="#FAFAFA" stroke-width="2.4" stroke-linecap="round" stroke-linejoin="round"/>
<path d="M118.431 63.115L126.495 75.2097C129.124 79.1545 134.245 80.5794 138.535 78.56C142.549 76.6702 144.74 72.2778 143.825 67.9362C142.082 59.6656 140.692 51.9529 139.269 46.717C137.772 41.2055 132.392 37.3663 126.37 37.3663C122.736 37.3663 119.444 38.8021 117.007 41.1269H101.994C99.5565 38.8021 96.2641 37.3663 92.6302 37.3663C86.6083 37.3663 81.2285 41.2057 79.7311 46.717C78.3084 51.9529 76.9183 59.6657 75.1755 67.9362C74.2605 72.2778 76.4513 76.6702 80.4656 78.56C84.7548 80.5794 89.876 79.1545 92.5057 75.2097L100.569 63.115H118.431Z" stroke="#FAFAFA" stroke-width="2.4" stroke-linecap="round" stroke-linejoin="round"/>
<path d="M121.565 38.2461V35.3901C121.565 34.3612 122.399 33.5272 123.428 33.5272H130.104C131.132 33.5272 131.966 34.3612 131.966 35.3901V38.5259" stroke="#FAFAFA" stroke-width="2.4" stroke-linecap="round" stroke-linejoin="round"/>
<path d="M121.949 52.4827C122.682 52.4827 123.277 51.888 123.277 51.1545C123.277 50.421 122.682 49.8264 121.949 49.8264C121.215 49.8264 120.621 50.421 120.621 51.1545C120.621 51.888 121.215 52.4827 121.949 52.4827Z" fill="#FAFAFA" stroke="#FAFAFA" stroke-width="2.4"/>
<path d="M131.571 52.4827C132.304 52.4827 132.899 51.888 132.899 51.1545C132.899 50.421 132.304 49.8264 131.571 49.8264C130.837 49.8264 130.242 50.421 130.242 51.1545C130.242 51.888 130.837 52.4827 131.571 52.4827Z" fill="#FAFAFA" stroke="#FAFAFA" stroke-width="2.4"/>
<path d="M126.766 47.6776C127.499 47.6776 128.094 47.0829 128.094 46.3494C128.094 45.6159 127.499 45.0213 126.766 45.0213C126.032 45.0213 125.438 45.6159 125.438 46.3494C125.438 47.0829 126.032 47.6776 126.766 47.6776Z" fill="#FAFAFA" stroke="#FAFAFA" stroke-width="2.4"/>
<path d="M126.766 57.3497C127.533 57.3497 128.156 56.7273 128.156 55.9596C128.156 55.1918 127.533 54.5695 126.766 54.5695C125.998 54.5695 125.375 55.1918 125.375 55.9596C125.375 56.7273 125.998 57.3497 126.766 57.3497Z" fill="#FAFAFA" stroke="#FAFAFA" stroke-width="2.4"/>
</svg>
