<svg width="210" height="210" viewBox="0 0 210 210" fill="none" xmlns="http://www.w3.org/2000/svg">
<rect width="210" height="210" rx="5" fill="#FAFAFA"/>
<path d="M91.7191 183V176.455H94.0522C94.5614 176.455 94.9833 176.547 95.3178 176.733C95.6523 176.918 95.9027 177.172 96.0689 177.493C96.2351 177.813 96.3182 178.173 96.3182 178.574C96.3182 178.976 96.234 179.338 96.0657 179.66C95.8995 179.98 95.6481 180.233 95.3114 180.421C94.9769 180.606 94.5561 180.699 94.049 180.699H92.4446V179.862H93.9595C94.2813 179.862 94.5423 179.806 94.7425 179.695C94.9428 179.582 95.0898 179.429 95.1836 179.235C95.2773 179.041 95.3242 178.821 95.3242 178.574C95.3242 178.326 95.2773 178.107 95.1836 177.915C95.0898 177.723 94.9418 177.573 94.7393 177.464C94.5391 177.356 94.2749 177.301 93.9467 177.301H92.7067V183H91.7191ZM97.3992 183V178.091H98.3229V178.871H98.374C98.4635 178.607 98.6212 178.399 98.847 178.248C99.075 178.094 99.3328 178.017 99.6205 178.017C99.6801 178.017 99.7504 178.02 99.8314 178.024C99.9145 178.028 99.9795 178.033 100.026 178.04V178.954C99.988 178.943 99.9198 178.931 99.8218 178.919C99.7238 178.904 99.6258 178.896 99.5278 178.896C99.3019 178.896 99.1006 178.944 98.9237 179.04C98.749 179.134 98.6105 179.265 98.5083 179.433C98.406 179.599 98.3548 179.789 98.3548 180.002V183H97.3992ZM102.793 183.099C102.31 183.099 101.893 182.996 101.544 182.789C101.196 182.58 100.928 182.287 100.738 181.91C100.551 181.531 100.457 181.087 100.457 180.577C100.457 180.075 100.551 179.631 100.738 179.248C100.928 178.864 101.192 178.565 101.531 178.35C101.872 178.135 102.27 178.027 102.726 178.027C103.003 178.027 103.272 178.073 103.532 178.164C103.792 178.256 104.025 178.4 104.232 178.596C104.438 178.792 104.601 179.047 104.721 179.36C104.84 179.671 104.9 180.049 104.9 180.494V180.833H100.997V180.117H103.963C103.963 179.866 103.912 179.643 103.81 179.449C103.707 179.253 103.564 179.099 103.378 178.986C103.195 178.873 102.98 178.816 102.733 178.816C102.464 178.816 102.23 178.882 102.029 179.015C101.831 179.145 101.678 179.315 101.569 179.526C101.463 179.735 101.409 179.962 101.409 180.207V180.766C101.409 181.094 101.467 181.373 101.582 181.603C101.699 181.833 101.862 182.009 102.071 182.131C102.28 182.25 102.524 182.31 102.803 182.31C102.984 182.31 103.149 182.284 103.298 182.233C103.447 182.18 103.576 182.101 103.685 181.996C103.794 181.892 103.877 181.763 103.934 181.61L104.839 181.773C104.766 182.039 104.636 182.272 104.449 182.473C104.263 182.671 104.03 182.825 103.749 182.936C103.47 183.045 103.151 183.099 102.793 183.099ZM109.638 179.289L108.772 179.443C108.736 179.332 108.679 179.227 108.6 179.126C108.523 179.026 108.419 178.944 108.286 178.88C108.154 178.816 107.989 178.784 107.791 178.784C107.521 178.784 107.295 178.845 107.114 178.967C106.932 179.086 106.842 179.24 106.842 179.43C106.842 179.594 106.903 179.726 107.024 179.826C107.146 179.926 107.342 180.009 107.612 180.072L108.392 180.251C108.844 180.356 109.18 180.517 109.402 180.734C109.623 180.951 109.734 181.234 109.734 181.581C109.734 181.875 109.649 182.137 109.479 182.367C109.31 182.595 109.075 182.774 108.772 182.904C108.472 183.034 108.123 183.099 107.727 183.099C107.177 183.099 106.729 182.982 106.382 182.748C106.034 182.511 105.821 182.175 105.742 181.741L106.666 181.6C106.724 181.841 106.842 182.023 107.021 182.147C107.2 182.268 107.433 182.329 107.721 182.329C108.034 182.329 108.284 182.264 108.472 182.134C108.659 182.002 108.753 181.841 108.753 181.651C108.753 181.498 108.696 181.369 108.581 181.265C108.468 181.16 108.294 181.081 108.06 181.028L107.229 180.846C106.771 180.741 106.432 180.575 106.212 180.347C105.995 180.119 105.886 179.831 105.886 179.481C105.886 179.191 105.967 178.938 106.129 178.721C106.291 178.503 106.515 178.334 106.8 178.212C107.086 178.089 107.413 178.027 107.782 178.027C108.312 178.027 108.73 178.142 109.034 178.372C109.339 178.6 109.54 178.906 109.638 179.289ZM112.901 183.099C112.417 183.099 112.001 182.996 111.651 182.789C111.304 182.58 111.035 182.287 110.846 181.91C110.658 181.531 110.564 181.087 110.564 180.577C110.564 180.075 110.658 179.631 110.846 179.248C111.035 178.864 111.3 178.565 111.638 178.35C111.979 178.135 112.378 178.027 112.834 178.027C113.111 178.027 113.379 178.073 113.639 178.164C113.899 178.256 114.132 178.4 114.339 178.596C114.546 178.792 114.709 179.047 114.828 179.36C114.947 179.671 115.007 180.049 115.007 180.494V180.833H111.105V180.117H114.07C114.07 179.866 114.019 179.643 113.917 179.449C113.815 179.253 113.671 179.099 113.486 178.986C113.302 178.873 113.087 178.816 112.84 178.816C112.572 178.816 112.337 178.882 112.137 179.015C111.939 179.145 111.785 179.315 111.677 179.526C111.57 179.735 111.517 179.962 111.517 180.207V180.766C111.517 181.094 111.574 181.373 111.689 181.603C111.807 181.833 111.97 182.009 112.178 182.131C112.387 182.25 112.631 182.31 112.91 182.31C113.091 182.31 113.257 182.284 113.406 182.233C113.555 182.18 113.684 182.101 113.792 181.996C113.901 181.892 113.984 181.763 114.042 181.61L114.946 181.773C114.874 182.039 114.744 182.272 114.556 182.473C114.371 182.671 114.138 182.825 113.856 182.936C113.577 183.045 113.259 183.099 112.901 183.099ZM117.023 180.085V183H116.067V178.091H116.984V178.89H117.045C117.158 178.63 117.335 178.421 117.576 178.263C117.819 178.106 118.124 178.027 118.493 178.027C118.828 178.027 119.12 178.097 119.372 178.238C119.623 178.376 119.818 178.583 119.957 178.858C120.095 179.133 120.165 179.473 120.165 179.877V183H119.209V179.993C119.209 179.637 119.116 179.359 118.931 179.158C118.745 178.956 118.491 178.855 118.167 178.855C117.945 178.855 117.748 178.903 117.576 178.999C117.405 179.094 117.27 179.235 117.17 179.42C117.072 179.604 117.023 179.825 117.023 180.085ZM123.514 183.099C123.039 183.099 122.63 182.991 122.287 182.776C121.946 182.559 121.684 182.26 121.5 181.878C121.317 181.497 121.226 181.06 121.226 180.568C121.226 180.069 121.319 179.629 121.507 179.248C121.694 178.864 121.959 178.565 122.299 178.35C122.64 178.135 123.042 178.027 123.504 178.027C123.877 178.027 124.21 178.096 124.502 178.235C124.793 178.371 125.029 178.563 125.208 178.81C125.389 179.057 125.497 179.346 125.531 179.676H124.601C124.549 179.446 124.432 179.248 124.249 179.082C124.068 178.915 123.825 178.832 123.52 178.832C123.254 178.832 123.021 178.903 122.82 179.043C122.622 179.182 122.468 179.38 122.357 179.638C122.246 179.893 122.191 180.196 122.191 180.545C122.191 180.903 122.245 181.212 122.354 181.472C122.462 181.732 122.616 181.934 122.814 182.076C123.014 182.219 123.25 182.29 123.52 182.29C123.701 182.29 123.866 182.257 124.013 182.191C124.162 182.123 124.286 182.026 124.386 181.901C124.489 181.775 124.56 181.624 124.601 181.447H125.531C125.497 181.764 125.393 182.048 125.221 182.297C125.048 182.546 124.817 182.742 124.527 182.885C124.239 183.028 123.902 183.099 123.514 183.099ZM126.553 183V178.091H127.508V183H126.553ZM127.035 177.333C126.869 177.333 126.726 177.278 126.607 177.167C126.49 177.054 126.431 176.92 126.431 176.765C126.431 176.607 126.49 176.473 126.607 176.362C126.726 176.249 126.869 176.192 127.035 176.192C127.201 176.192 127.343 176.249 127.46 176.362C127.58 176.473 127.639 176.607 127.639 176.765C127.639 176.92 127.58 177.054 127.46 177.167C127.343 177.278 127.201 177.333 127.035 177.333ZM130.222 183.109C129.911 183.109 129.63 183.051 129.379 182.936C129.127 182.819 128.928 182.65 128.781 182.428C128.636 182.206 128.564 181.935 128.564 181.613C128.564 181.336 128.617 181.108 128.723 180.929C128.83 180.75 128.974 180.608 129.155 180.504C129.336 180.4 129.538 180.321 129.762 180.267C129.986 180.214 130.214 180.174 130.446 180.146C130.74 180.112 130.979 180.084 131.162 180.063C131.345 180.039 131.478 180.002 131.562 179.951C131.645 179.9 131.686 179.817 131.686 179.702V179.679C131.686 179.4 131.607 179.184 131.45 179.031C131.294 178.877 131.062 178.8 130.753 178.8C130.431 178.8 130.178 178.872 129.992 179.015C129.809 179.155 129.682 179.312 129.612 179.484L128.714 179.28C128.82 178.982 128.976 178.741 129.18 178.558C129.387 178.372 129.625 178.238 129.893 178.155C130.162 178.07 130.444 178.027 130.74 178.027C130.936 178.027 131.144 178.05 131.363 178.097C131.585 178.142 131.792 178.225 131.983 178.347C132.177 178.468 132.336 178.642 132.46 178.868C132.583 179.091 132.645 179.382 132.645 179.74V183H131.712V182.329H131.673C131.612 182.452 131.519 182.574 131.395 182.693C131.272 182.812 131.113 182.912 130.919 182.99C130.725 183.069 130.493 183.109 130.222 183.109ZM130.43 182.342C130.694 182.342 130.92 182.289 131.108 182.185C131.297 182.081 131.441 181.944 131.539 181.776C131.639 181.605 131.689 181.423 131.689 181.229V180.597C131.655 180.631 131.589 180.663 131.491 180.692C131.395 180.72 131.286 180.745 131.162 180.766C131.038 180.785 130.918 180.803 130.801 180.82C130.684 180.835 130.586 180.848 130.507 180.859C130.321 180.882 130.152 180.922 129.999 180.977C129.847 181.032 129.726 181.112 129.634 181.217C129.545 181.319 129.5 181.455 129.5 181.626C129.5 181.862 129.587 182.041 129.762 182.163C129.937 182.282 130.16 182.342 130.43 182.342ZM134.873 176.455V183H133.918V176.455H134.873Z" fill="#B5BF00"/>
<path d="M72.5384 141.305V140.455H77.6041V141.305H75.5618V147H74.5775V141.305H72.5384ZM82.2935 142.174C82.2594 141.871 82.1187 141.637 81.8716 141.471C81.6244 141.303 81.3133 141.218 80.9383 141.218C80.6699 141.218 80.4376 141.261 80.2416 141.346C80.0456 141.429 79.8932 141.544 79.7846 141.691C79.678 141.836 79.6248 142.001 79.6248 142.187C79.6248 142.342 79.661 142.477 79.7334 142.589C79.808 142.702 79.905 142.797 80.0243 142.874C80.1457 142.949 80.2757 143.011 80.4142 143.062C80.5527 143.112 80.6859 143.152 80.8137 143.184L81.4529 143.35C81.6617 143.401 81.8758 143.471 82.0953 143.558C82.3148 143.645 82.5182 143.76 82.7057 143.903C82.8932 144.046 83.0445 144.223 83.1596 144.434C83.2768 144.645 83.3354 144.897 83.3354 145.191C83.3354 145.562 83.2395 145.891 83.0477 146.179C82.8581 146.466 82.5822 146.693 82.2199 146.859C81.8599 147.026 81.4241 147.109 80.9128 147.109C80.4227 147.109 79.9987 147.031 79.6408 146.875C79.2828 146.72 79.0026 146.499 78.8002 146.214C78.5978 145.926 78.4859 145.585 78.4646 145.191H79.4554C79.4746 145.428 79.5513 145.625 79.6855 145.782C79.8219 145.938 79.9955 146.054 80.2065 146.131C80.4195 146.205 80.6528 146.243 80.9064 146.243C81.1855 146.243 81.4337 146.199 81.6511 146.112C81.8705 146.022 82.0431 145.898 82.1688 145.741C82.2945 145.581 82.3574 145.395 82.3574 145.181C82.3574 144.988 82.302 144.829 82.1912 144.705C82.0825 144.582 81.9344 144.479 81.7469 144.398C81.5616 144.317 81.3517 144.246 81.1173 144.184L80.3439 143.973C79.8197 143.831 79.4043 143.621 79.0974 143.344C78.7927 143.067 78.6404 142.7 78.6404 142.244C78.6404 141.867 78.7427 141.538 78.9472 141.257C79.1518 140.975 79.4288 140.757 79.7782 140.602C80.1276 140.444 80.5218 140.365 80.9607 140.365C81.4039 140.365 81.7949 140.443 82.1337 140.598C82.4746 140.754 82.743 140.968 82.9391 141.241C83.1351 141.511 83.2373 141.822 83.2459 142.174H82.2935ZM85.5031 140.455V147H84.5155V140.455H85.5031ZM89.0123 147.089C88.6117 147.089 88.2516 147.013 87.932 146.859C87.6146 146.704 87.361 146.491 87.1714 146.22C86.9818 145.95 86.8805 145.641 86.8678 145.293H87.8266C87.85 145.575 87.9747 145.806 88.2005 145.987C88.4264 146.168 88.697 146.259 89.0123 146.259C89.2637 146.259 89.4864 146.201 89.6803 146.086C89.8763 145.969 90.0297 145.808 90.1405 145.603C90.2534 145.399 90.3099 145.165 90.3099 144.903C90.3099 144.637 90.2524 144.4 90.1373 144.191C90.0222 143.982 89.8635 143.818 89.6611 143.699C89.4608 143.579 89.2307 143.518 88.9707 143.516C88.7726 143.516 88.5734 143.55 88.3731 143.619C88.1728 143.687 88.0109 143.776 87.8873 143.887L86.9828 143.753L87.3504 140.455H90.9491V141.301H88.1717L87.964 143.133H88.0024C88.1302 143.009 88.2996 142.906 88.5105 142.823C88.7236 142.74 88.9516 142.698 89.1945 142.698C89.5929 142.698 89.9477 142.793 90.2587 142.983C90.572 143.172 90.818 143.431 90.997 143.759C91.1781 144.085 91.2676 144.46 91.2655 144.884C91.2676 145.308 91.1717 145.686 90.9779 146.019C90.7861 146.351 90.5198 146.613 90.1788 146.805C89.8401 146.995 89.4512 147.089 89.0123 147.089ZM94.9161 140.455V147H93.9254V141.445H93.887L92.321 142.468V141.522L93.9541 140.455H94.9161ZM98.9655 147.089C98.5266 147.089 98.1345 147.014 97.7894 146.863C97.4463 146.711 97.1747 146.501 96.9744 146.233C96.7762 145.962 96.6697 145.649 96.6548 145.293H97.6583C97.6711 145.487 97.7361 145.656 97.8533 145.798C97.9726 145.939 98.1282 146.048 98.3199 146.124C98.5117 146.201 98.7247 146.239 98.9591 146.239C99.2169 146.239 99.4449 146.195 99.6431 146.105C99.8434 146.016 100 145.891 100.113 145.731C100.226 145.569 100.282 145.383 100.282 145.172C100.282 144.952 100.226 144.76 100.113 144.593C100.002 144.425 99.8391 144.293 99.6239 144.197C99.4108 144.101 99.153 144.053 98.8505 144.053H98.2975V143.248H98.8505C99.0934 143.248 99.3064 143.204 99.4897 143.117C99.675 143.029 99.8199 142.908 99.9243 142.752C100.029 142.595 100.081 142.411 100.081 142.2C100.081 141.997 100.035 141.821 99.9435 141.672C99.854 141.521 99.7262 141.403 99.56 141.317C99.3959 141.232 99.202 141.19 98.9783 141.19C98.7652 141.19 98.566 141.229 98.3806 141.308C98.1974 141.385 98.0483 141.495 97.9332 141.64C97.8181 141.783 97.7563 141.955 97.7478 142.155H96.7922C96.8029 141.801 96.9073 141.49 97.1054 141.222C97.3057 140.953 97.5699 140.743 97.898 140.592C98.2262 140.441 98.5905 140.365 98.9911 140.365C99.4108 140.365 99.773 140.447 100.078 140.611C100.385 140.773 100.621 140.989 100.787 141.26C100.956 141.531 101.039 141.827 101.037 142.148C101.039 142.515 100.936 142.826 100.73 143.082C100.525 143.337 100.252 143.509 99.9115 143.596V143.647C100.346 143.713 100.683 143.886 100.921 144.165C101.162 144.444 101.282 144.79 101.279 145.204C101.282 145.564 101.181 145.887 100.979 146.172C100.779 146.458 100.505 146.683 100.158 146.847C99.8103 147.009 99.413 147.089 98.9655 147.089Z" fill="#B5BF00"/>
<path d="M0 5C0 2.23858 2.23858 0 5 0H205C207.761 0 210 2.23858 210 5V21H0V5Z" fill="#B5BF00"/>
<rect x="31.4502" y="91.5" width="45" height="10" rx="5" fill="#D9D9D9" fill-opacity="0.5" stroke="#D9D9D9"/>
<path d="M43.3725 100V94.1818H44.0771V99.375H46.7816V100H43.3725ZM50.5316 98.2159V95.6364H51.2021V100H50.5316V99.2614H50.4862C50.3839 99.483 50.2248 99.6714 50.0089 99.8267C49.793 99.9801 49.5202 100.057 49.1907 100.057C48.918 100.057 48.6755 99.9972 48.4634 99.8778C48.2513 99.7566 48.0846 99.5748 47.9634 99.3324C47.8422 99.0881 47.7816 98.7803 47.7816 98.4091V95.6364H48.4521V98.3636C48.4521 98.6818 48.5411 98.9356 48.7191 99.125C48.899 99.3144 49.1282 99.4091 49.4066 99.4091C49.5733 99.4091 49.7428 99.3665 49.9151 99.2812C50.0894 99.196 50.2352 99.0653 50.3526 98.8892C50.4719 98.7131 50.5316 98.4886 50.5316 98.2159ZM53.1005 97.375V100H52.43V95.6364H53.0778V96.3182H53.1346C53.2369 96.0966 53.3922 95.9186 53.6005 95.7841C53.8088 95.6477 54.0778 95.5795 54.4073 95.5795C54.7028 95.5795 54.9613 95.6402 55.1829 95.7614C55.4045 95.8807 55.5768 96.0625 55.6999 96.3068C55.823 96.5492 55.8846 96.8561 55.8846 97.2273V100H55.2141V97.2727C55.2141 96.9299 55.1251 96.6629 54.9471 96.4716C54.7691 96.2784 54.5247 96.1818 54.2141 96.1818C54.0001 96.1818 53.8088 96.2282 53.6403 96.321C53.4736 96.4138 53.342 96.5492 53.2454 96.7273C53.1488 96.9053 53.1005 97.1212 53.1005 97.375ZM58.9393 100.091C58.5188 100.091 58.1561 99.9981 57.8512 99.8125C57.5482 99.625 57.3143 99.3636 57.1495 99.0284C56.9866 98.6913 56.9052 98.2992 56.9052 97.8523C56.9052 97.4053 56.9866 97.0114 57.1495 96.6705C57.3143 96.3277 57.5434 96.0606 57.837 95.8693C58.1325 95.6761 58.4772 95.5795 58.8711 95.5795C59.0984 95.5795 59.3228 95.6174 59.5444 95.6932C59.766 95.7689 59.9677 95.892 60.1495 96.0625C60.3313 96.2311 60.4762 96.4545 60.5842 96.733C60.6921 97.0114 60.7461 97.3542 60.7461 97.7614V98.0455H57.3825V97.4659H60.0643C60.0643 97.2197 60.015 97 59.9165 96.8068C59.82 96.6136 59.6817 96.4612 59.5018 96.3494C59.3237 96.2377 59.1135 96.1818 58.8711 96.1818C58.604 96.1818 58.373 96.2481 58.1779 96.3807C57.9847 96.5114 57.8361 96.6818 57.7319 96.892C57.6277 97.1023 57.5756 97.3277 57.5756 97.5682V97.9545C57.5756 98.2841 57.6325 98.5634 57.7461 98.7926C57.8616 99.0199 58.0217 99.1932 58.2262 99.3125C58.4308 99.4299 58.6684 99.4886 58.9393 99.4886C59.1154 99.4886 59.2745 99.464 59.4165 99.4148C59.5605 99.3636 59.6845 99.2879 59.7887 99.1875C59.8929 99.0852 59.9734 98.9583 60.0302 98.8068L60.6779 98.9886C60.6097 99.2083 60.4951 99.4015 60.3342 99.5682C60.1732 99.733 59.9743 99.8617 59.7376 99.9545C59.5008 100.045 59.2347 100.091 58.9393 100.091ZM64.8569 96.6136L64.2546 96.7841C64.2167 96.6837 64.1609 96.5862 64.087 96.4915C64.015 96.3949 63.9165 96.3153 63.7915 96.2528C63.6665 96.1903 63.5065 96.1591 63.3114 96.1591C63.0444 96.1591 62.8219 96.2206 62.6438 96.3438C62.4677 96.465 62.3796 96.6193 62.3796 96.8068C62.3796 96.9735 62.4402 97.1051 62.5614 97.2017C62.6826 97.2983 62.872 97.3788 63.1296 97.4432L63.7773 97.6023C64.1675 97.697 64.4582 97.8419 64.6495 98.0369C64.8408 98.2301 64.9364 98.4792 64.9364 98.7841C64.9364 99.0341 64.8645 99.2576 64.7205 99.4545C64.5785 99.6515 64.3796 99.8068 64.1239 99.9205C63.8683 100.034 63.5709 100.091 63.2319 100.091C62.7868 100.091 62.4184 99.9943 62.1268 99.8011C61.8351 99.608 61.6504 99.3258 61.5728 98.9545L62.2092 98.7955C62.2698 99.0303 62.3844 99.2064 62.5529 99.3239C62.7234 99.4413 62.9459 99.5 63.2205 99.5C63.533 99.5 63.7811 99.4337 63.9648 99.3011C64.1504 99.1667 64.2433 99.0057 64.2433 98.8182C64.2433 98.6667 64.1902 98.5398 64.0842 98.4375C63.9781 98.3333 63.8152 98.2557 63.5955 98.2045L62.8683 98.0341C62.4686 97.9394 62.1751 97.7926 61.9876 97.5938C61.802 97.393 61.7092 97.142 61.7092 96.8409C61.7092 96.5947 61.7783 96.3769 61.9165 96.1875C62.0567 95.9981 62.247 95.8494 62.4876 95.7415C62.73 95.6335 63.0046 95.5795 63.3114 95.5795C63.7433 95.5795 64.0823 95.6742 64.3285 95.8636C64.5766 96.053 64.7527 96.303 64.8569 96.6136Z" fill="#CCCCCC"/>
<rect x="85.4502" y="91.7105" width="45" height="10" rx="5" stroke="#C7D200"/>
<path d="M95.4194 94.1818H96.2603L98.2376 99.0114H98.3058L100.283 94.1818H101.124V100H100.465V95.5795H100.408L98.5898 100H97.9535L96.1353 95.5795H96.0785V100H95.4194V94.1818ZM103.73 100.102C103.453 100.102 103.202 100.05 102.977 99.946C102.752 99.84 102.573 99.6875 102.44 99.4886C102.307 99.2879 102.241 99.0455 102.241 98.7614C102.241 98.5114 102.29 98.3087 102.389 98.1534C102.487 97.9962 102.619 97.8731 102.784 97.7841C102.949 97.6951 103.13 97.6288 103.329 97.5852C103.53 97.5398 103.732 97.5038 103.934 97.4773C104.199 97.4432 104.414 97.4176 104.579 97.4006C104.746 97.3816 104.867 97.3504 104.943 97.3068C105.02 97.2633 105.059 97.1875 105.059 97.0795V97.0568C105.059 96.7765 104.983 96.5587 104.829 96.4034C104.678 96.2481 104.448 96.1705 104.139 96.1705C103.819 96.1705 103.568 96.2405 103.386 96.3807C103.204 96.5208 103.076 96.6705 103.002 96.8295L102.366 96.6023C102.48 96.3371 102.631 96.1307 102.821 95.983C103.012 95.8333 103.22 95.7292 103.446 95.6705C103.673 95.6098 103.896 95.5795 104.116 95.5795C104.256 95.5795 104.417 95.5966 104.599 95.6307C104.783 95.6629 104.96 95.7301 105.13 95.8324C105.303 95.9347 105.446 96.089 105.559 96.2955C105.673 96.5019 105.73 96.7784 105.73 97.125V100H105.059V99.4091H105.025C104.98 99.5038 104.904 99.6051 104.798 99.7131C104.692 99.821 104.551 99.9129 104.375 99.9886C104.199 100.064 103.984 100.102 103.73 100.102ZM103.832 99.5C104.097 99.5 104.321 99.4479 104.502 99.3438C104.686 99.2396 104.824 99.1051 104.917 98.9403C105.012 98.7756 105.059 98.6023 105.059 98.4205V97.8068C105.031 97.8409 104.968 97.8722 104.872 97.9006C104.777 97.9271 104.667 97.9508 104.542 97.9716C104.419 97.9905 104.299 98.0076 104.181 98.0227C104.066 98.036 103.972 98.0473 103.9 98.0568C103.726 98.0795 103.563 98.1165 103.412 98.1676C103.262 98.2169 103.141 98.2917 103.048 98.392C102.957 98.4905 102.912 98.625 102.912 98.7955C102.912 99.0284 102.998 99.2045 103.17 99.3239C103.344 99.4413 103.565 99.5 103.832 99.5ZM106.953 100V95.6364H107.601V96.2955H107.647C107.726 96.0795 107.87 95.9044 108.078 95.7699C108.287 95.6354 108.522 95.5682 108.783 95.5682C108.832 95.5682 108.894 95.5691 108.968 95.571C109.042 95.5729 109.097 95.5758 109.135 95.5795V96.2614C109.113 96.2557 109.06 96.2472 108.979 96.2358C108.9 96.2225 108.815 96.2159 108.726 96.2159C108.514 96.2159 108.325 96.2604 108.158 96.3494C107.993 96.4366 107.863 96.5578 107.766 96.7131C107.671 96.8665 107.624 97.0417 107.624 97.2386V100H106.953ZM112.101 95.6364V96.2045H109.84V95.6364H112.101ZM110.499 94.5909H111.169V98.75C111.169 98.9394 111.197 99.0814 111.252 99.1761C111.309 99.2689 111.381 99.3314 111.468 99.3636C111.557 99.3939 111.65 99.4091 111.749 99.4091C111.823 99.4091 111.883 99.4053 111.931 99.3977C111.978 99.3883 112.016 99.3807 112.044 99.375L112.181 99.9773C112.135 99.9943 112.072 100.011 111.99 100.028C111.909 100.047 111.806 100.057 111.681 100.057C111.491 100.057 111.306 100.016 111.124 99.9347C110.944 99.8532 110.794 99.7292 110.675 99.5625C110.558 99.3958 110.499 99.1856 110.499 98.9318V94.5909ZM114.892 100.091C114.472 100.091 114.109 99.9981 113.804 99.8125C113.501 99.625 113.267 99.3636 113.103 99.0284C112.94 98.6913 112.858 98.2992 112.858 97.8523C112.858 97.4053 112.94 97.0114 113.103 96.6705C113.267 96.3277 113.497 96.0606 113.79 95.8693C114.086 95.6761 114.43 95.5795 114.824 95.5795C115.051 95.5795 115.276 95.6174 115.498 95.6932C115.719 95.7689 115.921 95.892 116.103 96.0625C116.284 96.2311 116.429 96.4545 116.537 96.733C116.645 97.0114 116.699 97.3542 116.699 97.7614V98.0455H113.336V97.4659H116.017C116.017 97.2197 115.968 97 115.87 96.8068C115.773 96.6136 115.635 96.4612 115.455 96.3494C115.277 96.2377 115.067 96.1818 114.824 96.1818C114.557 96.1818 114.326 96.2481 114.131 96.3807C113.938 96.5114 113.789 96.6818 113.685 96.892C113.581 97.1023 113.529 97.3277 113.529 97.5682V97.9545C113.529 98.2841 113.586 98.5634 113.699 98.7926C113.815 99.0199 113.975 99.1932 114.179 99.3125C114.384 99.4299 114.622 99.4886 114.892 99.4886C115.069 99.4886 115.228 99.464 115.37 99.4148C115.514 99.3636 115.638 99.2879 115.742 99.1875C115.846 99.0852 115.926 98.9583 115.983 98.8068L116.631 98.9886C116.563 99.2083 116.448 99.4015 116.287 99.5682C116.126 99.733 115.927 99.8617 115.691 99.9545C115.454 100.045 115.188 100.091 114.892 100.091ZM120.81 96.6136L120.208 96.7841C120.17 96.6837 120.114 96.5862 120.04 96.4915C119.968 96.3949 119.87 96.3153 119.745 96.2528C119.62 96.1903 119.46 96.1591 119.265 96.1591C118.998 96.1591 118.775 96.2206 118.597 96.3438C118.421 96.465 118.333 96.6193 118.333 96.8068C118.333 96.9735 118.393 97.1051 118.515 97.2017C118.636 97.2983 118.825 97.3788 119.083 97.4432L119.73 97.6023C120.121 97.697 120.411 97.8419 120.603 98.0369C120.794 98.2301 120.89 98.4792 120.89 98.7841C120.89 99.0341 120.818 99.2576 120.674 99.4545C120.532 99.6515 120.333 99.8068 120.077 99.9205C119.821 100.034 119.524 100.091 119.185 100.091C118.74 100.091 118.372 99.9943 118.08 99.8011C117.788 99.608 117.604 99.3258 117.526 98.9545L118.162 98.7955C118.223 99.0303 118.337 99.2064 118.506 99.3239C118.676 99.4413 118.899 99.5 119.174 99.5C119.486 99.5 119.734 99.4337 119.918 99.3011C120.104 99.1667 120.196 99.0057 120.196 98.8182C120.196 98.6667 120.143 98.5398 120.037 98.4375C119.931 98.3333 119.768 98.2557 119.549 98.2045L118.821 98.0341C118.422 97.9394 118.128 97.7926 117.941 97.5938C117.755 97.393 117.662 97.142 117.662 96.8409C117.662 96.5947 117.731 96.3769 117.87 96.1875C118.01 95.9981 118.2 95.8494 118.441 95.7415C118.683 95.6335 118.958 95.5795 119.265 95.5795C119.696 95.5795 120.035 95.6742 120.282 95.8636C120.53 96.053 120.706 96.303 120.81 96.6136Z" fill="#616161"/>
<rect x="136.9" y="91.7105" width="45" height="10" rx="5" stroke="#C7D200"/>
<path d="M142.958 94.1818H143.799L145.777 99.0114H145.845L147.822 94.1818H148.663V100H148.004V95.5795H147.947L146.129 100H145.493L143.674 95.5795H143.618V100H142.958V94.1818ZM149.985 100V95.6364H150.655V100H149.985ZM150.326 94.9091C150.195 94.9091 150.082 94.8646 149.988 94.7756C149.895 94.6866 149.848 94.5795 149.848 94.4545C149.848 94.3295 149.895 94.2225 149.988 94.1335C150.082 94.0445 150.195 94 150.326 94C150.456 94 150.568 94.0445 150.661 94.1335C150.756 94.2225 150.803 94.3295 150.803 94.4545C150.803 94.5795 150.756 94.6866 150.661 94.7756C150.568 94.8646 150.456 94.9091 150.326 94.9091ZM153.713 100.091C153.292 100.091 152.93 99.9981 152.625 99.8125C152.322 99.625 152.088 99.3636 151.923 99.0284C151.76 98.6913 151.679 98.2992 151.679 97.8523C151.679 97.4053 151.76 97.0114 151.923 96.6705C152.088 96.3277 152.317 96.0606 152.61 95.8693C152.906 95.6761 153.251 95.5795 153.645 95.5795C153.872 95.5795 154.096 95.6174 154.318 95.6932C154.539 95.7689 154.741 95.892 154.923 96.0625C155.105 96.2311 155.25 96.4545 155.358 96.733C155.466 97.0114 155.52 97.3542 155.52 97.7614V98.0455H152.156V97.4659H154.838C154.838 97.2197 154.788 97 154.69 96.8068C154.593 96.6136 154.455 96.4612 154.275 96.3494C154.097 96.2377 153.887 96.1818 153.645 96.1818C153.377 96.1818 153.146 96.2481 152.951 96.3807C152.758 96.5114 152.609 96.6818 152.505 96.892C152.401 97.1023 152.349 97.3277 152.349 97.5682V97.9545C152.349 98.2841 152.406 98.5634 152.52 98.7926C152.635 99.0199 152.795 99.1932 153 99.3125C153.204 99.4299 153.442 99.4886 153.713 99.4886C153.889 99.4886 154.048 99.464 154.19 99.4148C154.334 99.3636 154.458 99.2879 154.562 99.1875C154.666 99.0852 154.747 98.9583 154.804 98.8068L155.451 98.9886C155.383 99.2083 155.269 99.4015 155.108 99.5682C154.947 99.733 154.748 99.8617 154.511 99.9545C154.274 100.045 154.008 100.091 153.713 100.091ZM153.304 95.0455L153.997 93.7273H154.781L153.895 95.0455H153.304ZM156.539 100V95.6364H157.187V96.2955H157.233C157.312 96.0795 157.456 95.9044 157.664 95.7699C157.873 95.6354 158.108 95.5682 158.369 95.5682C158.418 95.5682 158.48 95.5691 158.554 95.571C158.627 95.5729 158.683 95.5758 158.721 95.5795V96.2614C158.699 96.2557 158.646 96.2472 158.565 96.2358C158.485 96.2225 158.401 96.2159 158.312 96.2159C158.1 96.2159 157.911 96.2604 157.744 96.3494C157.579 96.4366 157.449 96.5578 157.352 96.7131C157.257 96.8665 157.21 97.0417 157.21 97.2386V100H156.539ZM161.156 100.091C160.747 100.091 160.395 99.9943 160.099 99.8011C159.804 99.608 159.576 99.3419 159.417 99.0028C159.258 98.6638 159.179 98.2765 159.179 97.8409C159.179 97.3977 159.26 97.0066 159.423 96.6676C159.588 96.3267 159.817 96.0606 160.11 95.8693C160.406 95.6761 160.751 95.5795 161.145 95.5795C161.451 95.5795 161.728 95.6364 161.974 95.75C162.22 95.8636 162.422 96.0227 162.579 96.2273C162.736 96.4318 162.834 96.6705 162.872 96.9432H162.201C162.15 96.7443 162.037 96.5682 161.86 96.4148C161.686 96.2595 161.451 96.1818 161.156 96.1818C160.895 96.1818 160.665 96.25 160.468 96.3864C160.273 96.5208 160.121 96.7112 160.011 96.9574C159.903 97.2017 159.849 97.4886 159.849 97.8182C159.849 98.1553 159.902 98.4489 160.008 98.6989C160.116 98.9489 160.268 99.143 160.463 99.2812C160.66 99.4195 160.891 99.4886 161.156 99.4886C161.33 99.4886 161.488 99.4583 161.63 99.3977C161.772 99.3371 161.893 99.25 161.991 99.1364C162.09 99.0227 162.16 98.8864 162.201 98.7273H162.872C162.834 98.9848 162.74 99.2169 162.591 99.4233C162.443 99.6278 162.247 99.7907 162.002 99.9119C161.76 100.031 161.478 100.091 161.156 100.091ZM165.625 100.091C165.231 100.091 164.885 99.9972 164.588 99.8097C164.292 99.6222 164.061 99.3598 163.895 99.0227C163.73 98.6856 163.647 98.2917 163.647 97.8409C163.647 97.3864 163.73 96.9896 163.895 96.6506C164.061 96.3116 164.292 96.0483 164.588 95.8608C164.885 95.6733 165.231 95.5795 165.625 95.5795C166.019 95.5795 166.363 95.6733 166.659 95.8608C166.956 96.0483 167.187 96.3116 167.352 96.6506C167.519 96.9896 167.602 97.3864 167.602 97.8409C167.602 98.2917 167.519 98.6856 167.352 99.0227C167.187 99.3598 166.956 99.6222 166.659 99.8097C166.363 99.9972 166.019 100.091 165.625 100.091ZM165.625 99.4886C165.924 99.4886 166.17 99.4119 166.363 99.2585C166.556 99.1051 166.699 98.9034 166.792 98.6534C166.885 98.4034 166.931 98.1326 166.931 97.8409C166.931 97.5492 166.885 97.2775 166.792 97.0256C166.699 96.7737 166.556 96.5701 166.363 96.4148C166.17 96.2595 165.924 96.1818 165.625 96.1818C165.325 96.1818 165.079 96.2595 164.886 96.4148C164.693 96.5701 164.55 96.7737 164.457 97.0256C164.364 97.2775 164.318 97.5492 164.318 97.8409C164.318 98.1326 164.364 98.4034 164.457 98.6534C164.55 98.9034 164.693 99.1051 164.886 99.2585C165.079 99.4119 165.325 99.4886 165.625 99.4886ZM169.296 94.1818V100H168.625V94.1818H169.296ZM172.353 100.091C171.933 100.091 171.57 99.9981 171.265 99.8125C170.962 99.625 170.728 99.3636 170.564 99.0284C170.401 98.6913 170.319 98.2992 170.319 97.8523C170.319 97.4053 170.401 97.0114 170.564 96.6705C170.728 96.3277 170.958 96.0606 171.251 95.8693C171.547 95.6761 171.891 95.5795 172.285 95.5795C172.512 95.5795 172.737 95.6174 172.958 95.6932C173.18 95.7689 173.382 95.892 173.564 96.0625C173.745 96.2311 173.89 96.4545 173.998 96.733C174.106 97.0114 174.16 97.3542 174.16 97.7614V98.0455H170.797V97.4659H173.478C173.478 97.2197 173.429 97 173.331 96.8068C173.234 96.6136 173.096 96.4612 172.916 96.3494C172.738 96.2377 172.528 96.1818 172.285 96.1818C172.018 96.1818 171.787 96.2481 171.592 96.3807C171.399 96.5114 171.25 96.6818 171.146 96.892C171.042 97.1023 170.99 97.3277 170.99 97.5682V97.9545C170.99 98.2841 171.047 98.5634 171.16 98.7926C171.276 99.0199 171.436 99.1932 171.64 99.3125C171.845 99.4299 172.083 99.4886 172.353 99.4886C172.529 99.4886 172.689 99.464 172.831 99.4148C172.975 99.3636 173.099 99.2879 173.203 99.1875C173.307 99.0852 173.387 98.9583 173.444 98.8068L174.092 98.9886C174.024 99.2083 173.909 99.4015 173.748 99.5682C173.587 99.733 173.388 99.8617 173.152 99.9545C172.915 100.045 172.649 100.091 172.353 100.091ZM178.271 96.6136L177.669 96.7841C177.631 96.6837 177.575 96.5862 177.501 96.4915C177.429 96.3949 177.331 96.3153 177.206 96.2528C177.081 96.1903 176.921 96.1591 176.725 96.1591C176.458 96.1591 176.236 96.2206 176.058 96.3438C175.882 96.465 175.794 96.6193 175.794 96.8068C175.794 96.9735 175.854 97.1051 175.975 97.2017C176.097 97.2983 176.286 97.3788 176.544 97.4432L177.191 97.6023C177.582 97.697 177.872 97.8419 178.064 98.0369C178.255 98.2301 178.35 98.4792 178.35 98.7841C178.35 99.0341 178.279 99.2576 178.135 99.4545C177.993 99.6515 177.794 99.8068 177.538 99.9205C177.282 100.034 176.985 100.091 176.646 100.091C176.201 100.091 175.833 99.9943 175.541 99.8011C175.249 99.608 175.065 99.3258 174.987 98.9545L175.623 98.7955C175.684 99.0303 175.798 99.2064 175.967 99.3239C176.137 99.4413 176.36 99.5 176.635 99.5C176.947 99.5 177.195 99.4337 177.379 99.3011C177.565 99.1667 177.657 99.0057 177.657 98.8182C177.657 98.6667 177.604 98.5398 177.498 98.4375C177.392 98.3333 177.229 98.2557 177.01 98.2045L176.282 98.0341C175.883 97.9394 175.589 97.7926 175.402 97.5938C175.216 97.393 175.123 97.142 175.123 96.8409C175.123 96.5947 175.192 96.3769 175.331 96.1875C175.471 95.9981 175.661 95.8494 175.902 95.7415C176.144 95.6335 176.419 95.5795 176.725 95.5795C177.157 95.5795 177.496 95.6742 177.743 95.8636C177.991 96.053 178.167 96.303 178.271 96.6136Z" fill="#616161"/>
<rect x="61.2998" y="107.184" width="45" height="10" rx="5" fill="#D9D9D9" fill-opacity="0.5" stroke="#D9D9D9"/>
<path opacity="0.8" d="M73.408 109.966H74.1126V114.125C74.1126 114.496 74.0444 114.812 73.908 115.071C73.7717 115.331 73.5794 115.528 73.3313 115.662C73.0832 115.797 72.7906 115.864 72.4535 115.864C72.1353 115.864 71.8522 115.806 71.6041 115.69C71.3559 115.573 71.1609 115.406 71.0188 115.19C70.8768 114.975 70.8058 114.718 70.8058 114.421H71.4989C71.4989 114.585 71.5397 114.729 71.6211 114.852C71.7044 114.974 71.8181 115.068 71.962 115.137C72.1059 115.205 72.2698 115.239 72.4535 115.239C72.6561 115.239 72.8285 115.196 72.9705 115.111C73.1126 115.026 73.2205 114.901 73.2944 114.736C73.3702 114.569 73.408 114.366 73.408 114.125V109.966ZM78.1836 114V111.421H78.8541V115.784H78.1836V115.046H78.1381C78.0359 115.267 77.8768 115.456 77.6609 115.611C77.445 115.764 77.1722 115.841 76.8427 115.841C76.57 115.841 76.3275 115.781 76.1154 115.662C75.9033 115.541 75.7366 115.359 75.6154 115.117C75.4942 114.872 75.4336 114.565 75.4336 114.193V111.421H76.1041V114.148C76.1041 114.466 76.1931 114.72 76.3711 114.909C76.551 115.099 76.7802 115.193 77.0586 115.193C77.2253 115.193 77.3948 115.151 77.5671 115.065C77.7414 114.98 77.8872 114.85 78.0046 114.673C78.1239 114.497 78.1836 114.273 78.1836 114ZM81.9116 115.875C81.4911 115.875 81.1284 115.782 80.8235 115.597C80.5205 115.409 80.2866 115.148 80.1218 114.813C79.9589 114.476 79.8775 114.083 79.8775 113.637C79.8775 113.19 79.9589 112.796 80.1218 112.455C80.2866 112.112 80.5157 111.845 80.8093 111.654C81.1048 111.46 81.4495 111.364 81.8434 111.364C82.0707 111.364 82.2951 111.402 82.5167 111.477C82.7383 111.553 82.94 111.676 83.1218 111.847C83.3036 112.015 83.4485 112.239 83.5565 112.517C83.6644 112.796 83.7184 113.138 83.7184 113.546V113.83H80.3548V113.25H83.0366C83.0366 113.004 82.9873 112.784 82.8889 112.591C82.7923 112.398 82.654 112.245 82.4741 112.134C82.2961 112.022 82.0858 111.966 81.8434 111.966C81.5764 111.966 81.3453 112.032 81.1502 112.165C80.957 112.296 80.8084 112.466 80.7042 112.676C80.6 112.887 80.5479 113.112 80.5479 113.352V113.739C80.5479 114.068 80.6048 114.348 80.7184 114.577C80.8339 114.804 80.994 114.977 81.1985 115.097C81.4031 115.214 81.6407 115.273 81.9116 115.273C82.0877 115.273 82.2468 115.248 82.3889 115.199C82.5328 115.148 82.6568 115.072 82.761 114.972C82.8652 114.869 82.9457 114.743 83.0025 114.591L83.6502 114.773C83.582 114.993 83.4675 115.186 83.3065 115.352C83.1455 115.517 82.9466 115.646 82.7099 115.739C82.4731 115.83 82.207 115.875 81.9116 115.875ZM88.1737 111.421L86.56 115.784H85.8782L84.2646 111.421H84.9918L86.1964 114.898H86.2418L87.4464 111.421H88.1737ZM90.7319 115.875C90.3114 115.875 89.9488 115.782 89.6438 115.597C89.3408 115.409 89.1069 115.148 88.9421 114.813C88.7792 114.476 88.6978 114.083 88.6978 113.637C88.6978 113.19 88.7792 112.796 88.9421 112.455C89.1069 112.112 89.3361 111.845 89.6296 111.654C89.9251 111.46 90.2698 111.364 90.6637 111.364C90.891 111.364 91.1154 111.402 91.337 111.477C91.5586 111.553 91.7603 111.676 91.9421 111.847C92.1239 112.015 92.2688 112.239 92.3768 112.517C92.4847 112.796 92.5387 113.138 92.5387 113.546V113.83H89.1751V113.25H91.8569C91.8569 113.004 91.8077 112.784 91.7092 112.591C91.6126 112.398 91.4743 112.245 91.2944 112.134C91.1164 112.022 90.9061 111.966 90.6637 111.966C90.3967 111.966 90.1656 112.032 89.9705 112.165C89.7773 112.296 89.6287 112.466 89.5245 112.676C89.4203 112.887 89.3683 113.112 89.3683 113.352V113.739C89.3683 114.068 89.4251 114.348 89.5387 114.577C89.6542 114.804 89.8143 114.977 90.0188 115.097C90.2234 115.214 90.4611 115.273 90.7319 115.273C90.908 115.273 91.0671 115.248 91.2092 115.199C91.3531 115.148 91.4772 115.072 91.5813 114.972C91.6855 114.869 91.766 114.743 91.8228 114.591L92.4705 114.773C92.4023 114.993 92.2878 115.186 92.1268 115.352C91.9658 115.517 91.7669 115.646 91.5302 115.739C91.2934 115.83 91.0273 115.875 90.7319 115.875ZM96.6495 112.398L96.0472 112.568C96.0094 112.468 95.9535 112.37 95.8796 112.276C95.8077 112.179 95.7092 112.1 95.5842 112.037C95.4592 111.975 95.2991 111.943 95.1041 111.943C94.837 111.943 94.6145 112.005 94.4364 112.128C94.2603 112.249 94.1722 112.404 94.1722 112.591C94.1722 112.758 94.2328 112.889 94.3541 112.986C94.4753 113.083 94.6647 113.163 94.9222 113.227L95.57 113.387C95.9601 113.481 96.2508 113.626 96.4421 113.821C96.6334 114.014 96.7291 114.263 96.7291 114.568C96.7291 114.818 96.6571 115.042 96.5131 115.239C96.3711 115.436 96.1722 115.591 95.9166 115.705C95.6609 115.818 95.3635 115.875 95.0245 115.875C94.5794 115.875 94.2111 115.779 93.9194 115.585C93.6277 115.392 93.4431 115.11 93.3654 114.739L94.0018 114.58C94.0624 114.815 94.177 114.991 94.3455 115.108C94.516 115.226 94.7385 115.284 95.0131 115.284C95.3256 115.284 95.5738 115.218 95.7575 115.085C95.9431 114.951 96.0359 114.79 96.0359 114.602C96.0359 114.451 95.9828 114.324 95.8768 114.222C95.7707 114.118 95.6078 114.04 95.3881 113.989L94.6609 113.818C94.2613 113.724 93.9677 113.577 93.7802 113.378C93.5946 113.177 93.5018 112.926 93.5018 112.625C93.5018 112.379 93.5709 112.161 93.7092 111.972C93.8493 111.782 94.0397 111.634 94.2802 111.526C94.5226 111.418 94.7972 111.364 95.1041 111.364C95.5359 111.364 95.8749 111.458 96.1211 111.648C96.3692 111.837 96.5453 112.087 96.6495 112.398Z" fill="#CCCCCC"/>
<rect x="112.75" y="107.184" width="45" height="10" rx="5" fill="#D9D9D9" fill-opacity="0.5" stroke="#D9D9D9"/>
<path d="M122.217 110.182L123.944 115.08H124.012L125.739 110.182H126.478L124.342 116H123.614L121.478 110.182H122.217ZM127.293 116V111.636H127.964V116H127.293ZM127.634 110.909C127.504 110.909 127.391 110.865 127.296 110.776C127.203 110.687 127.157 110.58 127.157 110.455C127.157 110.33 127.203 110.223 127.296 110.134C127.391 110.045 127.504 110 127.634 110C127.765 110 127.877 110.045 127.969 110.134C128.064 110.223 128.112 110.33 128.112 110.455C128.112 110.58 128.064 110.687 127.969 110.776C127.877 110.865 127.765 110.909 127.634 110.909ZM131.021 116.091C130.601 116.091 130.238 115.998 129.933 115.812C129.63 115.625 129.396 115.364 129.232 115.028C129.069 114.691 128.987 114.299 128.987 113.852C128.987 113.405 129.069 113.011 129.232 112.67C129.396 112.328 129.625 112.061 129.919 111.869C130.214 111.676 130.559 111.58 130.953 111.58C131.18 111.58 131.405 111.617 131.626 111.693C131.848 111.769 132.05 111.892 132.232 112.062C132.413 112.231 132.558 112.455 132.666 112.733C132.774 113.011 132.828 113.354 132.828 113.761V114.045H129.464V113.466H132.146C132.146 113.22 132.097 113 131.999 112.807C131.902 112.614 131.764 112.461 131.584 112.349C131.406 112.238 131.196 112.182 130.953 112.182C130.686 112.182 130.455 112.248 130.26 112.381C130.067 112.511 129.918 112.682 129.814 112.892C129.71 113.102 129.658 113.328 129.658 113.568V113.955C129.658 114.284 129.714 114.563 129.828 114.793C129.944 115.02 130.104 115.193 130.308 115.312C130.513 115.43 130.75 115.489 131.021 115.489C131.197 115.489 131.357 115.464 131.499 115.415C131.643 115.364 131.767 115.288 131.871 115.188C131.975 115.085 132.055 114.958 132.112 114.807L132.76 114.989C132.692 115.208 132.577 115.402 132.416 115.568C132.255 115.733 132.056 115.862 131.82 115.955C131.583 116.045 131.317 116.091 131.021 116.091ZM133.848 116V111.636H134.496V112.295H134.541C134.621 112.08 134.765 111.904 134.973 111.77C135.181 111.635 135.416 111.568 135.678 111.568C135.727 111.568 135.788 111.569 135.862 111.571C135.936 111.573 135.992 111.576 136.03 111.58V112.261C136.007 112.256 135.955 112.247 135.874 112.236C135.794 112.223 135.71 112.216 135.621 112.216C135.409 112.216 135.219 112.26 135.053 112.349C134.888 112.437 134.757 112.558 134.661 112.713C134.566 112.866 134.518 113.042 134.518 113.239V116H133.848ZM137.495 113.375V116H136.825V111.636H137.472V112.318H137.529C137.631 112.097 137.787 111.919 137.995 111.784C138.203 111.648 138.472 111.58 138.802 111.58C139.097 111.58 139.356 111.64 139.577 111.761C139.799 111.881 139.971 112.062 140.094 112.307C140.218 112.549 140.279 112.856 140.279 113.227V116H139.609V113.273C139.609 112.93 139.52 112.663 139.342 112.472C139.164 112.278 138.919 112.182 138.609 112.182C138.395 112.182 138.203 112.228 138.035 112.321C137.868 112.414 137.737 112.549 137.64 112.727C137.543 112.905 137.495 113.121 137.495 113.375ZM143.334 116.091C142.913 116.091 142.551 115.998 142.246 115.812C141.943 115.625 141.709 115.364 141.544 115.028C141.381 114.691 141.3 114.299 141.3 113.852C141.3 113.405 141.381 113.011 141.544 112.67C141.709 112.328 141.938 112.061 142.232 111.869C142.527 111.676 142.872 111.58 143.266 111.58C143.493 111.58 143.717 111.617 143.939 111.693C144.161 111.769 144.362 111.892 144.544 112.062C144.726 112.231 144.871 112.455 144.979 112.733C145.087 113.011 145.141 113.354 145.141 113.761V114.045H141.777V113.466H144.459C144.459 113.22 144.41 113 144.311 112.807C144.214 112.614 144.076 112.461 143.896 112.349C143.718 112.238 143.508 112.182 143.266 112.182C142.999 112.182 142.768 112.248 142.572 112.381C142.379 112.511 142.231 112.682 142.126 112.892C142.022 113.102 141.97 113.328 141.97 113.568V113.955C141.97 114.284 142.027 114.563 142.141 114.793C142.256 115.02 142.416 115.193 142.621 115.312C142.825 115.43 143.063 115.489 143.334 115.489C143.51 115.489 143.669 115.464 143.811 115.415C143.955 115.364 144.079 115.288 144.183 115.188C144.287 115.085 144.368 114.958 144.425 114.807L145.072 114.989C145.004 115.208 144.89 115.402 144.729 115.568C144.568 115.733 144.369 115.862 144.132 115.955C143.895 116.045 143.629 116.091 143.334 116.091ZM149.251 112.614L148.649 112.784C148.611 112.684 148.555 112.586 148.482 112.491C148.41 112.395 148.311 112.315 148.186 112.253C148.061 112.19 147.901 112.159 147.706 112.159C147.439 112.159 147.216 112.221 147.038 112.344C146.862 112.465 146.774 112.619 146.774 112.807C146.774 112.973 146.835 113.105 146.956 113.202C147.077 113.298 147.267 113.379 147.524 113.443L148.172 113.602C148.562 113.697 148.853 113.842 149.044 114.037C149.235 114.23 149.331 114.479 149.331 114.784C149.331 115.034 149.259 115.258 149.115 115.455C148.973 115.652 148.774 115.807 148.518 115.92C148.263 116.034 147.965 116.091 147.626 116.091C147.181 116.091 146.813 115.994 146.521 115.801C146.23 115.608 146.045 115.326 145.967 114.955L146.604 114.795C146.664 115.03 146.779 115.206 146.947 115.324C147.118 115.441 147.34 115.5 147.615 115.5C147.928 115.5 148.176 115.434 148.359 115.301C148.545 115.167 148.638 115.006 148.638 114.818C148.638 114.667 148.585 114.54 148.479 114.438C148.373 114.333 148.21 114.256 147.99 114.205L147.263 114.034C146.863 113.939 146.57 113.793 146.382 113.594C146.196 113.393 146.104 113.142 146.104 112.841C146.104 112.595 146.173 112.377 146.311 112.188C146.451 111.998 146.642 111.849 146.882 111.741C147.125 111.634 147.399 111.58 147.706 111.58C148.138 111.58 148.477 111.674 148.723 111.864C148.971 112.053 149.147 112.303 149.251 112.614Z" fill="#D9D9D9"/>
<path d="M29.7898 77H27.2V69H29.8719C30.6557 69 31.3289 69.1602 31.8914 69.4805C32.4539 69.7982 32.8849 70.2552 33.1844 70.8516C33.4865 71.4453 33.6375 72.1576 33.6375 72.9883C33.6375 73.8216 33.4852 74.5378 33.1805 75.1367C32.8784 75.7357 32.4409 76.1966 31.868 76.5195C31.295 76.8398 30.6023 77 29.7898 77ZM28.407 75.9453H29.7234C30.3328 75.9453 30.8393 75.8307 31.243 75.6016C31.6466 75.3698 31.9487 75.0352 32.1492 74.5977C32.3497 74.1576 32.45 73.6211 32.45 72.9883C32.45 72.3607 32.3497 71.8281 32.1492 71.3906C31.9513 70.9531 31.6557 70.6211 31.2625 70.3945C30.8693 70.168 30.381 70.0547 29.7977 70.0547H28.407V75.9453ZM35.0447 77V71H36.2127V77H35.0447ZM35.6346 70.0742C35.4314 70.0742 35.257 70.0065 35.1111 69.8711C34.9679 69.7331 34.8963 69.569 34.8963 69.3789C34.8963 69.1862 34.9679 69.0221 35.1111 68.8867C35.257 68.7487 35.4314 68.6797 35.6346 68.6797C35.8377 68.6797 36.0109 68.7487 36.1541 68.8867C36.2999 69.0221 36.3728 69.1862 36.3728 69.3789C36.3728 69.569 36.2999 69.7331 36.1541 69.8711C36.0109 70.0065 35.8377 70.0742 35.6346 70.0742ZM42.2801 72.4648L41.2215 72.6523C41.1772 72.5169 41.1069 72.388 41.0105 72.2656C40.9168 72.1432 40.7892 72.043 40.6277 71.9648C40.4663 71.8867 40.2645 71.8477 40.0223 71.8477C39.6915 71.8477 39.4155 71.9219 39.1941 72.0703C38.9728 72.2161 38.8621 72.4049 38.8621 72.6367C38.8621 72.8372 38.9363 72.9987 39.0848 73.1211C39.2332 73.2435 39.4728 73.3437 39.8035 73.4219L40.7566 73.6406C41.3087 73.7682 41.7202 73.9648 41.991 74.2305C42.2618 74.4961 42.3973 74.8411 42.3973 75.2656C42.3973 75.625 42.2931 75.9453 42.0848 76.2266C41.879 76.5052 41.5913 76.724 41.2215 76.8828C40.8543 77.0417 40.4285 77.1211 39.9441 77.1211C39.2723 77.1211 38.7241 76.9779 38.2996 76.6914C37.8751 76.4023 37.6147 75.9922 37.5184 75.4609L38.6473 75.2891C38.7176 75.5833 38.8621 75.806 39.0809 75.957C39.2996 76.1055 39.5848 76.1797 39.9363 76.1797C40.3191 76.1797 40.6251 76.1003 40.8543 75.9414C41.0835 75.7799 41.198 75.5833 41.198 75.3516C41.198 75.1641 41.1277 75.0065 40.9871 74.8789C40.8491 74.7513 40.6368 74.6549 40.3504 74.5898L39.3348 74.3672C38.7749 74.2396 38.3608 74.0365 38.0926 73.7578C37.827 73.4792 37.6941 73.1263 37.6941 72.6992C37.6941 72.3451 37.7931 72.0352 37.991 71.7695C38.1889 71.5039 38.4624 71.2969 38.8113 71.1484C39.1603 70.9974 39.56 70.9219 40.0105 70.9219C40.659 70.9219 41.1694 71.0625 41.5418 71.3437C41.9142 71.6224 42.1603 71.9961 42.2801 72.4648ZM43.6814 79.25V71H44.8221V71.9727H44.9197C44.9874 71.8477 45.0851 71.7031 45.2127 71.5391C45.3403 71.375 45.5174 71.2318 45.7439 71.1094C45.9705 70.9844 46.27 70.9219 46.6424 70.9219C47.1268 70.9219 47.559 71.0443 47.9393 71.2891C48.3195 71.5339 48.6176 71.8867 48.8338 72.3477C49.0525 72.8086 49.1619 73.3633 49.1619 74.0117C49.1619 74.6602 49.0538 75.2161 48.8377 75.6797C48.6215 76.1406 48.3247 76.4961 47.9471 76.7461C47.5695 76.9935 47.1385 77.1172 46.6541 77.1172C46.2895 77.1172 45.9913 77.056 45.7596 76.9336C45.5304 76.8112 45.3507 76.668 45.2205 76.5039C45.0903 76.3398 44.99 76.194 44.9197 76.0664H44.8494V79.25H43.6814ZM44.826 74C44.826 74.4219 44.8872 74.7917 45.0096 75.1094C45.132 75.4271 45.309 75.6758 45.5408 75.8555C45.7726 76.0326 46.0564 76.1211 46.3924 76.1211C46.7413 76.1211 47.033 76.0286 47.2674 75.8437C47.5018 75.6562 47.6788 75.4023 47.7986 75.082C47.921 74.7617 47.9822 74.401 47.9822 74C47.9822 73.6042 47.9223 73.2487 47.8025 72.9336C47.6853 72.6185 47.5083 72.3698 47.2713 72.1875C47.0369 72.0052 46.7439 71.9141 46.3924 71.9141C46.0538 71.9141 45.7674 72.0013 45.533 72.1758C45.3012 72.3503 45.1255 72.5937 45.0057 72.9062C44.8859 73.2187 44.826 73.5833 44.826 74ZM52.9978 77.1211C52.4353 77.1211 51.9445 76.9922 51.5252 76.7344C51.1059 76.4766 50.7804 76.1159 50.5486 75.6523C50.3169 75.1888 50.201 74.6471 50.201 74.0273C50.201 73.4049 50.3169 72.8607 50.5486 72.3945C50.7804 71.9284 51.1059 71.5664 51.5252 71.3086C51.9445 71.0508 52.4353 70.9219 52.9978 70.9219C53.5603 70.9219 54.0512 71.0508 54.4705 71.3086C54.8898 71.5664 55.2153 71.9284 55.4471 72.3945C55.6788 72.8607 55.7947 73.4049 55.7947 74.0273C55.7947 74.6471 55.6788 75.1888 55.4471 75.6523C55.2153 76.1159 54.8898 76.4766 54.4705 76.7344C54.0512 76.9922 53.5603 77.1211 52.9978 77.1211ZM53.0018 76.1406C53.3663 76.1406 53.6684 76.0443 53.908 75.8516C54.1476 75.6589 54.3247 75.4023 54.4393 75.082C54.5564 74.7617 54.615 74.4089 54.615 74.0234C54.615 73.6406 54.5564 73.2891 54.4393 72.9687C54.3247 72.6458 54.1476 72.3867 53.908 72.1914C53.6684 71.9961 53.3663 71.8984 53.0018 71.8984C52.6346 71.8984 52.3299 71.9961 52.0877 72.1914C51.8481 72.3867 51.6697 72.6458 51.5525 72.9687C51.438 73.2891 51.3807 73.6406 51.3807 74.0234C51.3807 74.4089 51.438 74.7617 51.5525 75.082C51.6697 75.4023 51.8481 75.6589 52.0877 75.8516C52.3299 76.0443 52.6346 76.1406 53.0018 76.1406ZM58.2664 73.4375V77H57.0984V71H58.2195V71.9766H58.2937C58.4318 71.6589 58.6479 71.4036 58.9422 71.2109C59.2391 71.0182 59.6128 70.9219 60.0633 70.9219C60.4721 70.9219 60.8302 71.0078 61.1375 71.1797C61.4448 71.349 61.6831 71.6016 61.8523 71.9375C62.0216 72.2734 62.1062 72.6888 62.1062 73.1836V77H60.9383V73.3242C60.9383 72.8893 60.825 72.5495 60.5984 72.3047C60.3719 72.0573 60.0607 71.9336 59.6648 71.9336C59.394 71.9336 59.1531 71.9922 58.9422 72.1094C58.7339 72.2266 58.5685 72.3984 58.4461 72.625C58.3263 72.849 58.2664 73.1198 58.2664 73.4375ZM63.6727 77V71H64.8406V77H63.6727ZM64.2625 70.0742C64.0594 70.0742 63.8849 70.0065 63.7391 69.8711C63.5958 69.7331 63.5242 69.569 63.5242 69.3789C63.5242 69.1862 63.5958 69.0221 63.7391 68.8867C63.8849 68.7487 64.0594 68.6797 64.2625 68.6797C64.4656 68.6797 64.6388 68.7487 64.782 68.8867C64.9279 69.0221 65.0008 69.1862 65.0008 69.3789C65.0008 69.569 64.9279 69.7331 64.782 69.8711C64.6388 70.0065 64.4656 70.0742 64.2625 70.0742ZM66.5057 77V69H67.6736V71.9727H67.7439C67.8117 71.8477 67.9093 71.7031 68.0369 71.5391C68.1645 71.375 68.3416 71.2318 68.5682 71.1094C68.7947 70.9844 69.0942 70.9219 69.4666 70.9219C69.951 70.9219 70.3833 71.0443 70.7635 71.2891C71.1437 71.5339 71.4419 71.8867 71.658 72.3477C71.8768 72.8086 71.9861 73.3633 71.9861 74.0117C71.9861 74.6602 71.8781 75.2161 71.6619 75.6797C71.4458 76.1406 71.1489 76.4961 70.7713 76.7461C70.3937 76.9935 69.9627 77.1172 69.4783 77.1172C69.1137 77.1172 68.8156 77.056 68.5838 76.9336C68.3546 76.8112 68.1749 76.668 68.0447 76.5039C67.9145 76.3398 67.8143 76.194 67.7439 76.0664H67.6463V77H66.5057ZM67.6502 74C67.6502 74.4219 67.7114 74.7917 67.8338 75.1094C67.9562 75.4271 68.1333 75.6758 68.365 75.8555C68.5968 76.0326 68.8807 76.1211 69.2166 76.1211C69.5656 76.1211 69.8572 76.0286 70.0916 75.8437C70.326 75.6562 70.5031 75.4023 70.6228 75.082C70.7452 74.7617 70.8064 74.401 70.8064 74C70.8064 73.6042 70.7465 73.2487 70.6268 72.9336C70.5096 72.6185 70.3325 72.3698 70.0955 72.1875C69.8611 72.0052 69.5682 71.9141 69.2166 71.9141C68.8781 71.9141 68.5916 72.0013 68.3572 72.1758C68.1255 72.3503 67.9497 72.5937 67.8299 72.9062C67.7101 73.2187 67.6502 73.5833 67.6502 74ZM73.2977 77V71H74.4656V77H73.2977ZM73.8875 70.0742C73.6844 70.0742 73.5099 70.0065 73.3641 69.8711C73.2208 69.7331 73.1492 69.569 73.1492 69.3789C73.1492 69.1862 73.2208 69.0221 73.3641 68.8867C73.5099 68.7487 73.6844 68.6797 73.8875 68.6797C74.0906 68.6797 74.2638 68.7487 74.407 68.8867C74.5529 69.0221 74.6258 69.1862 74.6258 69.3789C74.6258 69.569 74.5529 69.7331 74.407 69.8711C74.2638 70.0065 74.0906 70.0742 73.8875 70.0742ZM77.2049 69V77H76.0369V69H77.2049ZM78.7762 77V71H79.9441V77H78.7762ZM79.366 70.0742C79.1629 70.0742 78.9884 70.0065 78.8426 69.8711C78.6993 69.7331 78.6277 69.569 78.6277 69.3789C78.6277 69.1862 78.6993 69.0221 78.8426 68.8867C78.9884 68.7487 79.1629 68.6797 79.366 68.6797C79.5691 68.6797 79.7423 68.7487 79.8855 68.8867C80.0314 69.0221 80.1043 69.1862 80.1043 69.3789C80.1043 69.569 80.0314 69.7331 79.8855 69.8711C79.7423 70.0065 79.5691 70.0742 79.366 70.0742ZM83.7615 77.1172C83.2771 77.1172 82.8449 76.9935 82.4646 76.7461C82.087 76.4961 81.7902 76.1406 81.574 75.6797C81.3605 75.2161 81.2537 74.6602 81.2537 74.0117C81.2537 73.3633 81.3618 72.8086 81.5779 72.3477C81.7967 71.8867 82.0962 71.5339 82.4764 71.2891C82.8566 71.0443 83.2876 70.9219 83.7693 70.9219C84.1417 70.9219 84.4412 70.9844 84.6678 71.1094C84.8969 71.2318 85.074 71.375 85.199 71.5391C85.3266 71.7031 85.4256 71.8477 85.4959 71.9727H85.5662V69H86.7342V77H85.5936V76.0664H85.4959C85.4256 76.194 85.324 76.3398 85.1912 76.5039C85.061 76.668 84.8813 76.8112 84.6521 76.9336C84.423 77.056 84.1261 77.1172 83.7615 77.1172ZM84.0193 76.1211C84.3553 76.1211 84.6391 76.0326 84.8709 75.8555C85.1053 75.6758 85.2824 75.4271 85.4021 75.1094C85.5245 74.7917 85.5857 74.4219 85.5857 74C85.5857 73.5833 85.5258 73.2187 85.4061 72.9062C85.2863 72.5937 85.1105 72.3503 84.8787 72.1758C84.6469 72.0013 84.3605 71.9141 84.0193 71.9141C83.6678 71.9141 83.3748 72.0052 83.1404 72.1875C82.9061 72.3698 82.729 72.6185 82.6092 72.9336C82.492 73.2487 82.4334 73.6042 82.4334 74C82.4334 74.401 82.4933 74.7617 82.6131 75.082C82.7329 75.4023 82.91 75.6562 83.1443 75.8437C83.3813 76.0286 83.673 76.1211 84.0193 76.1211ZM90.1473 77.1328C89.7671 77.1328 89.4233 77.0625 89.116 76.9219C88.8087 76.7786 88.5652 76.5716 88.3855 76.3008C88.2085 76.0299 88.1199 75.6979 88.1199 75.3047C88.1199 74.9661 88.185 74.6875 88.3152 74.4687C88.4454 74.25 88.6212 74.0768 88.8426 73.9492C89.0639 73.8216 89.3113 73.7253 89.5848 73.6602C89.8582 73.5951 90.1368 73.5456 90.4207 73.5117C90.7801 73.4701 91.0717 73.4362 91.2957 73.4102C91.5197 73.3815 91.6824 73.3359 91.784 73.2734C91.8855 73.2109 91.9363 73.1094 91.9363 72.9687V72.9414C91.9363 72.6003 91.84 72.3359 91.6473 72.1484C91.4572 71.9609 91.1733 71.8672 90.7957 71.8672C90.4025 71.8672 90.0926 71.9544 89.866 72.1289C89.6421 72.3008 89.4871 72.4922 89.4012 72.7031L88.3035 72.4531C88.4337 72.0885 88.6238 71.7943 88.8738 71.5703C89.1264 71.3437 89.4168 71.1797 89.7449 71.0781C90.073 70.974 90.4181 70.9219 90.7801 70.9219C91.0197 70.9219 91.2736 70.9505 91.5418 71.0078C91.8126 71.0625 92.0652 71.1641 92.2996 71.3125C92.5366 71.4609 92.7306 71.6732 92.8816 71.9492C93.0327 72.2227 93.1082 72.5781 93.1082 73.0156V77H91.9676V76.1797H91.9207C91.8452 76.3307 91.7319 76.4792 91.5809 76.625C91.4298 76.7708 91.2358 76.8919 90.9988 76.9883C90.7618 77.0846 90.478 77.1328 90.1473 77.1328ZM90.4012 76.1953C90.7241 76.1953 91.0001 76.1315 91.2293 76.0039C91.4611 75.8763 91.6368 75.7096 91.7566 75.5039C91.879 75.2956 91.9402 75.0729 91.9402 74.8359V74.0625C91.8986 74.1042 91.8178 74.1432 91.698 74.1797C91.5809 74.2135 91.4467 74.2435 91.2957 74.2695C91.1447 74.293 90.9975 74.3151 90.8543 74.3359C90.7111 74.3542 90.5913 74.3698 90.4949 74.3828C90.2684 74.4115 90.0613 74.4596 89.8738 74.5273C89.6889 74.5951 89.5405 74.6927 89.4285 74.8203C89.3191 74.9453 89.2645 75.112 89.2645 75.3203C89.2645 75.6094 89.3712 75.8281 89.5848 75.9766C89.7983 76.1224 90.0704 76.1953 90.4012 76.1953ZM96.91 77.1172C96.4256 77.1172 95.9933 76.9935 95.6131 76.7461C95.2355 76.4961 94.9386 76.1406 94.7225 75.6797C94.5089 75.2161 94.4021 74.6602 94.4021 74.0117C94.4021 73.3633 94.5102 72.8086 94.7264 72.3477C94.9451 71.8867 95.2446 71.5339 95.6248 71.2891C96.005 71.0443 96.436 70.9219 96.9178 70.9219C97.2902 70.9219 97.5896 70.9844 97.8162 71.1094C98.0454 71.2318 98.2225 71.375 98.3475 71.5391C98.4751 71.7031 98.574 71.8477 98.6443 71.9727H98.7146V69H99.8826V77H98.742V76.0664H98.6443C98.574 76.194 98.4725 76.3398 98.3396 76.5039C98.2094 76.668 98.0297 76.8112 97.8006 76.9336C97.5714 77.056 97.2745 77.1172 96.91 77.1172ZM97.1678 76.1211C97.5037 76.1211 97.7876 76.0326 98.0193 75.8555C98.2537 75.6758 98.4308 75.4271 98.5506 75.1094C98.673 74.7917 98.7342 74.4219 98.7342 74C98.7342 73.5833 98.6743 73.2187 98.5545 72.9062C98.4347 72.5937 98.2589 72.3503 98.0271 72.1758C97.7954 72.0013 97.5089 71.9141 97.1678 71.9141C96.8162 71.9141 96.5232 72.0052 96.2889 72.1875C96.0545 72.3698 95.8774 72.6185 95.7576 72.9336C95.6404 73.2487 95.5818 73.6042 95.5818 74C95.5818 74.401 95.6417 74.7617 95.7615 75.082C95.8813 75.4023 96.0584 75.6562 96.2928 75.8437C96.5297 76.0286 96.8214 76.1211 97.1678 76.1211ZM102.319 77.0742C102.106 77.0742 101.922 76.9987 101.768 76.8477C101.615 76.694 101.538 76.5091 101.538 76.293C101.538 76.0794 101.615 75.8971 101.768 75.7461C101.922 75.5924 102.106 75.5156 102.319 75.5156C102.533 75.5156 102.716 75.5924 102.87 75.7461C103.024 75.8971 103.1 76.0794 103.1 76.293C103.1 76.4362 103.064 76.5677 102.991 76.6875C102.921 76.8047 102.827 76.8984 102.71 76.9687C102.593 77.0391 102.462 77.0742 102.319 77.0742ZM102.319 72.707C102.106 72.707 101.922 72.6302 101.768 72.4766C101.615 72.3229 101.538 72.1393 101.538 71.9258C101.538 71.7122 101.615 71.5299 101.768 71.3789C101.922 71.2253 102.106 71.1484 102.319 71.1484C102.533 71.1484 102.716 71.2253 102.87 71.3789C103.024 71.5299 103.1 71.7122 103.1 71.9258C103.1 72.069 103.064 72.2005 102.991 72.3203C102.921 72.4375 102.827 72.5312 102.71 72.6016C102.593 72.6719 102.462 72.707 102.319 72.707Z" fill="#616161"/>
<path d="M32.5864 141.602H31.3677C31.3208 141.341 31.2336 141.112 31.106 140.914C30.9784 140.716 30.8221 140.548 30.6372 140.41C30.4523 140.272 30.2453 140.168 30.0161 140.098C29.7896 140.027 29.5487 139.992 29.2935 139.992C28.8325 139.992 28.4198 140.108 28.0552 140.34C27.6932 140.572 27.4067 140.911 27.1958 141.359C26.9875 141.807 26.8833 142.354 26.8833 143C26.8833 143.651 26.9875 144.201 27.1958 144.648C27.4067 145.096 27.6945 145.435 28.0591 145.664C28.4237 145.893 28.8338 146.008 29.2896 146.008C29.5422 146.008 29.7817 145.974 30.0083 145.906C30.2375 145.836 30.4445 145.733 30.6294 145.598C30.8143 145.462 30.9705 145.297 31.0981 145.102C31.2284 144.904 31.3182 144.677 31.3677 144.422L32.5864 144.426C32.5213 144.819 32.395 145.181 32.2075 145.512C32.0226 145.84 31.7843 146.124 31.4927 146.363C31.2036 146.6 30.8729 146.784 30.5005 146.914C30.1281 147.044 29.7218 147.109 29.2817 147.109C28.589 147.109 27.9718 146.945 27.4302 146.617C26.8885 146.286 26.4614 145.814 26.1489 145.199C25.839 144.585 25.6841 143.852 25.6841 143C25.6841 142.146 25.8403 141.413 26.1528 140.801C26.4653 140.186 26.8924 139.715 27.4341 139.387C27.9757 139.056 28.5916 138.891 29.2817 138.891C29.7062 138.891 30.1021 138.952 30.4692 139.074C30.839 139.194 31.1711 139.371 31.4653 139.605C31.7596 139.837 32.0031 140.121 32.1958 140.457C32.3885 140.79 32.5187 141.172 32.5864 141.602ZM36.4644 147.121C35.9019 147.121 35.411 146.992 34.9917 146.734C34.5724 146.477 34.2469 146.116 34.0151 145.652C33.7834 145.189 33.6675 144.647 33.6675 144.027C33.6675 143.405 33.7834 142.861 34.0151 142.395C34.2469 141.928 34.5724 141.566 34.9917 141.309C35.411 141.051 35.9019 140.922 36.4644 140.922C37.0269 140.922 37.5177 141.051 37.937 141.309C38.3563 141.566 38.6818 141.928 38.9136 142.395C39.1453 142.861 39.2612 143.405 39.2612 144.027C39.2612 144.647 39.1453 145.189 38.9136 145.652C38.6818 146.116 38.3563 146.477 37.937 146.734C37.5177 146.992 37.0269 147.121 36.4644 147.121ZM36.4683 146.141C36.8328 146.141 37.1349 146.044 37.3745 145.852C37.6141 145.659 37.7912 145.402 37.9058 145.082C38.0229 144.762 38.0815 144.409 38.0815 144.023C38.0815 143.641 38.0229 143.289 37.9058 142.969C37.7912 142.646 37.6141 142.387 37.3745 142.191C37.1349 141.996 36.8328 141.898 36.4683 141.898C36.1011 141.898 35.7964 141.996 35.5542 142.191C35.3146 142.387 35.1362 142.646 35.019 142.969C34.9045 143.289 34.8472 143.641 34.8472 144.023C34.8472 144.409 34.9045 144.762 35.019 145.082C35.1362 145.402 35.3146 145.659 35.5542 145.852C35.7964 146.044 36.1011 146.141 36.4683 146.141ZM35.9839 140.199L36.8979 138.398H38.1284L36.9175 140.199H35.9839ZM42.811 147.117C42.3267 147.117 41.8944 146.993 41.5142 146.746C41.1366 146.496 40.8397 146.141 40.6235 145.68C40.41 145.216 40.3032 144.66 40.3032 144.012C40.3032 143.363 40.4113 142.809 40.6274 142.348C40.8462 141.887 41.1457 141.534 41.5259 141.289C41.9061 141.044 42.3371 140.922 42.8188 140.922C43.1912 140.922 43.4907 140.984 43.7173 141.109C43.9465 141.232 44.1235 141.375 44.2485 141.539C44.3761 141.703 44.4751 141.848 44.5454 141.973H44.6157V139H45.7837V147H44.6431V146.066H44.5454C44.4751 146.194 44.3735 146.34 44.2407 146.504C44.1105 146.668 43.9308 146.811 43.7017 146.934C43.4725 147.056 43.1756 147.117 42.811 147.117ZM43.0688 146.121C43.4048 146.121 43.6886 146.033 43.9204 145.855C44.1548 145.676 44.3319 145.427 44.4517 145.109C44.5741 144.792 44.6353 144.422 44.6353 144C44.6353 143.583 44.5754 143.219 44.4556 142.906C44.3358 142.594 44.16 142.35 43.9282 142.176C43.6965 142.001 43.41 141.914 43.0688 141.914C42.7173 141.914 42.4243 142.005 42.1899 142.188C41.9556 142.37 41.7785 142.618 41.6587 142.934C41.5415 143.249 41.4829 143.604 41.4829 144C41.4829 144.401 41.5428 144.762 41.6626 145.082C41.7824 145.402 41.9595 145.656 42.1938 145.844C42.4308 146.029 42.7225 146.121 43.0688 146.121ZM47.4507 147V141H48.6187V147H47.4507ZM48.0405 140.074C47.8374 140.074 47.6629 140.007 47.5171 139.871C47.3739 139.733 47.3022 139.569 47.3022 139.379C47.3022 139.186 47.3739 139.022 47.5171 138.887C47.6629 138.749 47.8374 138.68 48.0405 138.68C48.2437 138.68 48.4168 138.749 48.5601 138.887C48.7059 139.022 48.7788 139.186 48.7788 139.379C48.7788 139.569 48.7059 139.733 48.5601 139.871C48.4168 140.007 48.2437 140.074 48.0405 140.074ZM52.7056 149.375C52.229 149.375 51.8188 149.313 51.4751 149.188C51.134 149.063 50.8553 148.897 50.6392 148.691C50.423 148.486 50.2616 148.26 50.1548 148.016L51.1587 147.602C51.229 147.716 51.3228 147.837 51.4399 147.965C51.5597 148.095 51.7212 148.206 51.9243 148.297C52.13 148.388 52.3944 148.434 52.7173 148.434C53.16 148.434 53.5259 148.326 53.8149 148.109C54.104 147.896 54.2485 147.555 54.2485 147.086V145.906H54.1743C54.104 146.034 54.0024 146.176 53.8696 146.332C53.7394 146.488 53.5597 146.624 53.3306 146.738C53.1014 146.853 52.8032 146.91 52.436 146.91C51.9621 146.91 51.535 146.799 51.1548 146.578C50.7772 146.354 50.4777 146.025 50.2563 145.59C50.0376 145.152 49.9282 144.615 49.9282 143.977C49.9282 143.339 50.0363 142.792 50.2524 142.336C50.4712 141.88 50.7707 141.531 51.1509 141.289C51.5311 141.044 51.9621 140.922 52.4438 140.922C52.8162 140.922 53.117 140.984 53.3462 141.109C53.5754 141.232 53.7537 141.375 53.8813 141.539C54.0116 141.703 54.1118 141.848 54.1821 141.973H54.2681V141H55.4126V147.133C55.4126 147.648 55.2928 148.072 55.0532 148.402C54.8136 148.733 54.4894 148.978 54.0806 149.137C53.6743 149.296 53.216 149.375 52.7056 149.375ZM52.6938 145.941C53.0298 145.941 53.3136 145.863 53.5454 145.707C53.7798 145.548 53.9569 145.322 54.0767 145.027C54.1991 144.73 54.2603 144.375 54.2603 143.961C54.2603 143.557 54.2004 143.202 54.0806 142.895C53.9608 142.587 53.785 142.348 53.5532 142.176C53.3215 142.001 53.035 141.914 52.6938 141.914C52.3423 141.914 52.0493 142.005 51.8149 142.188C51.5806 142.367 51.4035 142.612 51.2837 142.922C51.1665 143.232 51.1079 143.578 51.1079 143.961C51.1079 144.354 51.1678 144.699 51.2876 144.996C51.4074 145.293 51.5845 145.525 51.8188 145.691C52.0558 145.858 52.3475 145.941 52.6938 145.941ZM59.5063 147.121C58.9438 147.121 58.453 146.992 58.0337 146.734C57.6144 146.477 57.2889 146.116 57.0571 145.652C56.8254 145.189 56.7095 144.647 56.7095 144.027C56.7095 143.405 56.8254 142.861 57.0571 142.395C57.2889 141.928 57.6144 141.566 58.0337 141.309C58.453 141.051 58.9438 140.922 59.5063 140.922C60.0688 140.922 60.5597 141.051 60.979 141.309C61.3983 141.566 61.7238 141.928 61.9556 142.395C62.1873 142.861 62.3032 143.405 62.3032 144.027C62.3032 144.647 62.1873 145.189 61.9556 145.652C61.7238 146.116 61.3983 146.477 60.979 146.734C60.5597 146.992 60.0688 147.121 59.5063 147.121ZM59.5103 146.141C59.8748 146.141 60.1769 146.044 60.4165 145.852C60.6561 145.659 60.8332 145.402 60.9478 145.082C61.0649 144.762 61.1235 144.409 61.1235 144.023C61.1235 143.641 61.0649 143.289 60.9478 142.969C60.8332 142.646 60.6561 142.387 60.4165 142.191C60.1769 141.996 59.8748 141.898 59.5103 141.898C59.1431 141.898 58.8384 141.996 58.5962 142.191C58.3566 142.387 58.1782 142.646 58.061 142.969C57.9465 143.289 57.8892 143.641 57.8892 144.023C57.8892 144.409 57.9465 144.762 58.061 145.082C58.1782 145.402 58.3566 145.659 58.5962 145.852C58.8384 146.044 59.1431 146.141 59.5103 146.141ZM64.3765 147.074C64.1629 147.074 63.9793 146.999 63.8257 146.848C63.672 146.694 63.5952 146.509 63.5952 146.293C63.5952 146.079 63.672 145.897 63.8257 145.746C63.9793 145.592 64.1629 145.516 64.3765 145.516C64.59 145.516 64.7736 145.592 64.9272 145.746C65.0809 145.897 65.1577 146.079 65.1577 146.293C65.1577 146.436 65.1213 146.568 65.0483 146.687C64.978 146.805 64.8843 146.898 64.7671 146.969C64.6499 147.039 64.5197 147.074 64.3765 147.074ZM64.3765 142.707C64.1629 142.707 63.9793 142.63 63.8257 142.477C63.672 142.323 63.5952 142.139 63.5952 141.926C63.5952 141.712 63.672 141.53 63.8257 141.379C63.9793 141.225 64.1629 141.148 64.3765 141.148C64.59 141.148 64.7736 141.225 64.9272 141.379C65.0809 141.53 65.1577 141.712 65.1577 141.926C65.1577 142.069 65.1213 142.201 65.0483 142.32C64.978 142.437 64.8843 142.531 64.7671 142.602C64.6499 142.672 64.5197 142.707 64.3765 142.707Z" fill="#616161"/>
<path d="M26.7407 175H28.2056L30.7524 181.219H30.8462L33.3931 175H34.8579V183H33.7095V177.211H33.6353L31.2759 182.988H30.3228L27.9634 177.207H27.8892V183H26.7407V175ZM39.0464 183.121C38.4839 183.121 37.993 182.992 37.5737 182.734C37.1545 182.477 36.8289 182.116 36.5972 181.652C36.3654 181.189 36.2495 180.647 36.2495 180.027C36.2495 179.405 36.3654 178.861 36.5972 178.395C36.8289 177.928 37.1545 177.566 37.5737 177.309C37.993 177.051 38.4839 176.922 39.0464 176.922C39.6089 176.922 40.0998 177.051 40.519 177.309C40.9383 177.566 41.2638 177.928 41.4956 178.395C41.7274 178.861 41.8433 179.405 41.8433 180.027C41.8433 180.647 41.7274 181.189 41.4956 181.652C41.2638 182.116 40.9383 182.477 40.519 182.734C40.0998 182.992 39.6089 183.121 39.0464 183.121ZM39.0503 182.141C39.4149 182.141 39.717 182.044 39.9565 181.852C40.1961 181.659 40.3732 181.402 40.4878 181.082C40.605 180.762 40.6636 180.409 40.6636 180.023C40.6636 179.641 40.605 179.289 40.4878 178.969C40.3732 178.646 40.1961 178.387 39.9565 178.191C39.717 177.996 39.4149 177.898 39.0503 177.898C38.6831 177.898 38.3784 177.996 38.1362 178.191C37.8966 178.387 37.7183 178.646 37.6011 178.969C37.4865 179.289 37.4292 179.641 37.4292 180.023C37.4292 180.409 37.4865 180.762 37.6011 181.082C37.7183 181.402 37.8966 181.659 38.1362 181.852C38.3784 182.044 38.6831 182.141 39.0503 182.141ZM45.3931 183.117C44.9087 183.117 44.4764 182.993 44.0962 182.746C43.7186 182.496 43.4217 182.141 43.2056 181.68C42.992 181.216 42.8853 180.66 42.8853 180.012C42.8853 179.363 42.9933 178.809 43.2095 178.348C43.4282 177.887 43.7277 177.534 44.1079 177.289C44.4881 177.044 44.9191 176.922 45.4009 176.922C45.7733 176.922 46.0728 176.984 46.2993 177.109C46.5285 177.232 46.7056 177.375 46.8306 177.539C46.9582 177.703 47.0571 177.848 47.1274 177.973H47.1978V175H48.3657V183H47.2251V182.066H47.1274C47.0571 182.194 46.9556 182.34 46.8228 182.504C46.6925 182.668 46.5129 182.811 46.2837 182.934C46.0545 183.056 45.7576 183.117 45.3931 183.117ZM45.6509 182.121C45.9868 182.121 46.2707 182.033 46.5024 181.855C46.7368 181.676 46.9139 181.427 47.0337 181.109C47.1561 180.792 47.2173 180.422 47.2173 180C47.2173 179.583 47.1574 179.219 47.0376 178.906C46.9178 178.594 46.742 178.35 46.5103 178.176C46.2785 178.001 45.992 177.914 45.6509 177.914C45.2993 177.914 45.0063 178.005 44.772 178.188C44.5376 178.37 44.3605 178.618 44.2407 178.934C44.1235 179.249 44.0649 179.604 44.0649 180C44.0649 180.401 44.1248 180.762 44.2446 181.082C44.3644 181.402 44.5415 181.656 44.7759 181.844C45.0129 182.029 45.3045 182.121 45.6509 182.121ZM51.7788 183.133C51.3986 183.133 51.0549 183.063 50.7476 182.922C50.4403 182.779 50.1968 182.572 50.0171 182.301C49.84 182.03 49.7515 181.698 49.7515 181.305C49.7515 180.966 49.8166 180.687 49.9468 180.469C50.077 180.25 50.2528 180.077 50.4741 179.949C50.6955 179.822 50.9429 179.725 51.2163 179.66C51.4897 179.595 51.7684 179.546 52.0522 179.512C52.4116 179.47 52.7033 179.436 52.9272 179.41C53.1512 179.382 53.314 179.336 53.4155 179.273C53.5171 179.211 53.5679 179.109 53.5679 178.969V178.941C53.5679 178.6 53.4715 178.336 53.2788 178.148C53.0887 177.961 52.8049 177.867 52.4272 177.867C52.034 177.867 51.7241 177.954 51.4976 178.129C51.2736 178.301 51.1187 178.492 51.0327 178.703L49.9351 178.453C50.0653 178.089 50.2554 177.794 50.5054 177.57C50.758 177.344 51.0483 177.18 51.3765 177.078C51.7046 176.974 52.0496 176.922 52.4116 176.922C52.6512 176.922 52.9051 176.951 53.1733 177.008C53.4442 177.062 53.6968 177.164 53.9312 177.312C54.1681 177.461 54.3621 177.673 54.5132 177.949C54.6642 178.223 54.7397 178.578 54.7397 179.016V183H53.5991V182.18H53.5522C53.4767 182.331 53.3634 182.479 53.2124 182.625C53.0614 182.771 52.8674 182.892 52.6304 182.988C52.3934 183.085 52.1095 183.133 51.7788 183.133ZM52.0327 182.195C52.3556 182.195 52.6317 182.132 52.8608 182.004C53.0926 181.876 53.2684 181.71 53.3882 181.504C53.5106 181.296 53.5718 181.073 53.5718 180.836V180.062C53.5301 180.104 53.4494 180.143 53.3296 180.18C53.2124 180.214 53.0783 180.243 52.9272 180.27C52.7762 180.293 52.6291 180.315 52.4858 180.336C52.3426 180.354 52.2228 180.37 52.1265 180.383C51.8999 180.411 51.6929 180.46 51.5054 180.527C51.3205 180.595 51.172 180.693 51.0601 180.82C50.9507 180.945 50.896 181.112 50.896 181.32C50.896 181.609 51.0028 181.828 51.2163 181.977C51.4299 182.122 51.702 182.195 52.0327 182.195ZM57.4634 175V183H56.2954V175H57.4634ZM59.0347 183V177H60.2026V183H59.0347ZM59.6245 176.074C59.4214 176.074 59.2469 176.007 59.1011 175.871C58.9578 175.733 58.8862 175.569 58.8862 175.379C58.8862 175.186 58.9578 175.022 59.1011 174.887C59.2469 174.749 59.4214 174.68 59.6245 174.68C59.8276 174.68 60.0008 174.749 60.144 174.887C60.2899 175.022 60.3628 175.186 60.3628 175.379C60.3628 175.569 60.2899 175.733 60.144 175.871C60.0008 176.007 59.8276 176.074 59.6245 176.074ZM64.02 183.117C63.5356 183.117 63.1034 182.993 62.7231 182.746C62.3455 182.496 62.0487 182.141 61.8325 181.68C61.619 181.216 61.5122 180.66 61.5122 180.012C61.5122 179.363 61.6203 178.809 61.8364 178.348C62.0552 177.887 62.3547 177.534 62.7349 177.289C63.1151 177.044 63.5461 176.922 64.0278 176.922C64.4002 176.922 64.6997 176.984 64.9263 177.109C65.1554 177.232 65.3325 177.375 65.4575 177.539C65.5851 177.703 65.6841 177.848 65.7544 177.973H65.8247V175H66.9927V183H65.8521V182.066H65.7544C65.6841 182.194 65.5825 182.34 65.4497 182.504C65.3195 182.668 65.1398 182.811 64.9106 182.934C64.6815 183.056 64.3846 183.117 64.02 183.117ZM64.2778 182.121C64.6138 182.121 64.8976 182.033 65.1294 181.855C65.3638 181.676 65.5409 181.427 65.6606 181.109C65.783 180.792 65.8442 180.422 65.8442 180C65.8442 179.583 65.7843 179.219 65.6646 178.906C65.5448 178.594 65.369 178.35 65.1372 178.176C64.9054 178.001 64.619 177.914 64.2778 177.914C63.9263 177.914 63.6333 178.005 63.3989 178.188C63.1646 178.37 62.9875 178.618 62.8677 178.934C62.7505 179.249 62.6919 179.604 62.6919 180C62.6919 180.401 62.7518 180.762 62.8716 181.082C62.9914 181.402 63.1685 181.656 63.4028 181.844C63.6398 182.029 63.9315 182.121 64.2778 182.121ZM70.4058 183.133C70.0256 183.133 69.6818 183.063 69.3745 182.922C69.0672 182.779 68.8237 182.572 68.644 182.301C68.467 182.03 68.3784 181.698 68.3784 181.305C68.3784 180.966 68.4435 180.687 68.5737 180.469C68.7039 180.25 68.8797 180.077 69.1011 179.949C69.3224 179.822 69.5698 179.725 69.8433 179.66C70.1167 179.595 70.3953 179.546 70.6792 179.512C71.0386 179.47 71.3302 179.436 71.5542 179.41C71.7782 179.382 71.9409 179.336 72.0425 179.273C72.144 179.211 72.1948 179.109 72.1948 178.969V178.941C72.1948 178.6 72.0985 178.336 71.9058 178.148C71.7157 177.961 71.4318 177.867 71.0542 177.867C70.661 177.867 70.3511 177.954 70.1245 178.129C69.9006 178.301 69.7456 178.492 69.6597 178.703L68.562 178.453C68.6922 178.089 68.8823 177.794 69.1323 177.57C69.3849 177.344 69.6753 177.18 70.0034 177.078C70.3315 176.974 70.6766 176.922 71.0386 176.922C71.2782 176.922 71.5321 176.951 71.8003 177.008C72.0711 177.062 72.3237 177.164 72.5581 177.312C72.7951 177.461 72.9891 177.673 73.1401 177.949C73.2912 178.223 73.3667 178.578 73.3667 179.016V183H72.2261V182.18H72.1792C72.1037 182.331 71.9904 182.479 71.8394 182.625C71.6883 182.771 71.4943 182.892 71.2573 182.988C71.0203 183.085 70.7365 183.133 70.4058 183.133ZM70.6597 182.195C70.9826 182.195 71.2586 182.132 71.4878 182.004C71.7196 181.876 71.8953 181.71 72.0151 181.504C72.1375 181.296 72.1987 181.073 72.1987 180.836V180.062C72.1571 180.104 72.0763 180.143 71.9565 180.18C71.8394 180.214 71.7052 180.243 71.5542 180.27C71.4032 180.293 71.256 180.315 71.1128 180.336C70.9696 180.354 70.8498 180.37 70.7534 180.383C70.5269 180.411 70.3198 180.46 70.1323 180.527C69.9474 180.595 69.799 180.693 69.687 180.82C69.5776 180.945 69.5229 181.112 69.5229 181.32C69.5229 181.609 69.6297 181.828 69.8433 181.977C70.0568 182.122 70.3289 182.195 70.6597 182.195ZM77.1685 183.117C76.6841 183.117 76.2518 182.993 75.8716 182.746C75.494 182.496 75.1971 182.141 74.981 181.68C74.7674 181.216 74.6606 180.66 74.6606 180.012C74.6606 179.363 74.7687 178.809 74.9849 178.348C75.2036 177.887 75.5031 177.534 75.8833 177.289C76.2635 177.044 76.6945 176.922 77.1763 176.922C77.5487 176.922 77.8481 176.984 78.0747 177.109C78.3039 177.232 78.481 177.375 78.606 177.539C78.7336 177.703 78.8325 177.848 78.9028 177.973H78.9731V175H80.1411V183H79.0005V182.066H78.9028C78.8325 182.194 78.731 182.34 78.5981 182.504C78.4679 182.668 78.2882 182.811 78.0591 182.934C77.8299 183.056 77.533 183.117 77.1685 183.117ZM77.4263 182.121C77.7622 182.121 78.0461 182.033 78.2778 181.855C78.5122 181.676 78.6893 181.427 78.8091 181.109C78.9315 180.792 78.9927 180.422 78.9927 180C78.9927 179.583 78.9328 179.219 78.813 178.906C78.6932 178.594 78.5174 178.35 78.2856 178.176C78.0539 178.001 77.7674 177.914 77.4263 177.914C77.0747 177.914 76.7817 178.005 76.5474 178.188C76.313 178.37 76.1359 178.618 76.0161 178.934C75.8989 179.249 75.8403 179.604 75.8403 180C75.8403 180.401 75.9002 180.762 76.02 181.082C76.1398 181.402 76.3169 181.656 76.5513 181.844C76.7882 182.029 77.0799 182.121 77.4263 182.121ZM82.5776 183.074C82.3641 183.074 82.1805 182.999 82.0269 182.848C81.8732 182.694 81.7964 182.509 81.7964 182.293C81.7964 182.079 81.8732 181.897 82.0269 181.746C82.1805 181.592 82.3641 181.516 82.5776 181.516C82.7912 181.516 82.9748 181.592 83.1284 181.746C83.2821 181.897 83.3589 182.079 83.3589 182.293C83.3589 182.436 83.3224 182.568 83.2495 182.687C83.1792 182.805 83.0854 182.898 82.9683 182.969C82.8511 183.039 82.7209 183.074 82.5776 183.074ZM82.5776 178.707C82.3641 178.707 82.1805 178.63 82.0269 178.477C81.8732 178.323 81.7964 178.139 81.7964 177.926C81.7964 177.712 81.8732 177.53 82.0269 177.379C82.1805 177.225 82.3641 177.148 82.5776 177.148C82.7912 177.148 82.9748 177.225 83.1284 177.379C83.2821 177.53 83.3589 177.712 83.3589 177.926C83.3589 178.069 83.3224 178.201 83.2495 178.32C83.1792 178.437 83.0854 178.531 82.9683 178.602C82.8511 178.672 82.7209 178.707 82.5776 178.707Z" fill="#616161"/>
<path d="M35.0081 47H32.7013L36.2162 36.8182H38.9903L42.5003 47H40.1934L37.643 39.1449H37.5635L35.0081 47ZM34.8639 42.9979H40.3128V44.6783H34.8639V42.9979ZM43.686 49.8636V39.3636H45.7741V40.6463H45.8685C45.9613 40.4408 46.0956 40.232 46.2712 40.0199C46.4502 39.8045 46.6822 39.6255 46.9672 39.483C47.2556 39.3371 47.6135 39.2642 48.0411 39.2642C48.5979 39.2642 49.1117 39.41 49.5823 39.7017C50.0529 39.9901 50.4291 40.4259 50.7108 41.0092C50.9926 41.5893 51.1334 42.3168 51.1334 43.1918C51.1334 44.0436 50.9959 44.7628 50.7208 45.3494C50.449 45.9328 50.0778 46.3752 49.6072 46.6768C49.1398 46.9751 48.6162 47.1243 48.0361 47.1243C47.6251 47.1243 47.2755 47.0563 46.9871 46.9205C46.7021 46.7846 46.4684 46.6139 46.2861 46.4084C46.1038 46.1996 45.9646 45.9891 45.8685 45.777H45.8039V49.8636H43.686ZM45.7591 43.1818C45.7591 43.6359 45.8221 44.032 45.9481 44.37C46.074 44.7081 46.2563 44.9716 46.4949 45.1605C46.7336 45.3461 47.0236 45.4389 47.365 45.4389C47.7097 45.4389 48.0013 45.3445 48.24 45.1555C48.4786 44.9633 48.6592 44.6982 48.7819 44.3601C48.9078 44.0187 48.9708 43.6259 48.9708 43.1818C48.9708 42.741 48.9095 42.3532 48.7868 42.0185C48.6642 41.6837 48.4836 41.4219 48.2449 41.233C48.0063 41.044 47.713 40.9496 47.365 40.9496C47.0203 40.9496 46.7286 41.0407 46.49 41.223C46.2546 41.4053 46.074 41.6638 45.9481 41.9986C45.8221 42.3333 45.7591 42.7277 45.7591 43.1818ZM54.6633 36.8182V47H52.5454V36.8182H54.6633ZM56.3598 47V39.3636H58.4777V47H56.3598ZM57.4237 38.3793C57.1089 38.3793 56.8387 38.2749 56.6134 38.0661C56.3913 37.8539 56.2803 37.6004 56.2803 37.3054C56.2803 37.0137 56.3913 36.7635 56.6134 36.5547C56.8387 36.3426 57.1089 36.2365 57.4237 36.2365C57.7386 36.2365 58.0071 36.3426 58.2291 36.5547C58.4545 36.7635 58.5672 37.0137 58.5672 37.3054C58.5672 37.6004 58.4545 37.8539 58.2291 38.0661C58.0071 38.2749 57.7386 38.3793 57.4237 38.3793ZM63.6246 47.1491C62.8424 47.1491 62.1695 46.9834 61.6061 46.652C61.046 46.3172 60.6151 45.8532 60.3135 45.2599C60.0152 44.6667 59.866 43.9839 59.866 43.2116C59.866 42.4295 60.0168 41.7434 60.3184 41.1534C60.6234 40.5601 61.0559 40.0978 61.616 39.7663C62.1762 39.4316 62.8424 39.2642 63.6146 39.2642C64.2808 39.2642 64.8641 39.3852 65.3646 39.6271C65.8651 39.8691 66.2612 40.2088 66.5528 40.6463C66.8445 41.0838 67.0052 41.5975 67.0351 42.1875H65.0365C64.9801 41.8063 64.831 41.4998 64.589 41.2678C64.3504 41.0324 64.0372 40.9148 63.6494 40.9148C63.3213 40.9148 63.0346 41.0043 62.7893 41.1832C62.5474 41.3589 62.3585 41.6158 62.2226 41.9538C62.0867 42.2919 62.0187 42.7012 62.0187 43.1818C62.0187 43.669 62.085 44.0833 62.2176 44.4247C62.3535 44.7661 62.5441 45.0263 62.7893 45.2053C63.0346 45.3842 63.3213 45.4737 63.6494 45.4737C63.8914 45.4737 64.1085 45.424 64.3007 45.3246C64.4962 45.2251 64.657 45.081 64.7829 44.892C64.9122 44.6998 64.9967 44.4695 65.0365 44.201H67.0351C67.0019 44.7843 66.8428 45.2981 66.5578 45.7422C66.2761 46.183 65.8866 46.5277 65.3895 46.7763C64.8923 47.0249 64.304 47.1491 63.6246 47.1491ZM70.5686 47.1442C70.0814 47.1442 69.6472 47.0597 69.2661 46.8906C68.8849 46.7183 68.5833 46.4647 68.3612 46.13C68.1425 45.7919 68.0331 45.371 68.0331 44.8672C68.0331 44.4429 68.111 44.0866 68.2668 43.7983C68.4226 43.5099 68.6347 43.2779 68.9031 43.1023C69.1716 42.9266 69.4765 42.794 69.8179 42.7045C70.1626 42.6151 70.5239 42.5521 70.9017 42.5156C71.3459 42.4692 71.7038 42.4261 71.9756 42.3864C72.2474 42.3433 72.4446 42.2803 72.5672 42.1974C72.6898 42.1146 72.7512 41.992 72.7512 41.8295V41.7997C72.7512 41.4848 72.6517 41.2412 72.4529 41.0689C72.2573 40.8965 71.9789 40.8104 71.6176 40.8104C71.2365 40.8104 70.9332 40.8949 70.7078 41.0639C70.4825 41.2296 70.3333 41.4384 70.2604 41.6903L68.3016 41.5312C68.401 41.0672 68.5966 40.6662 68.8882 40.3281C69.1799 39.9867 69.5561 39.7249 70.0168 39.5426C70.4808 39.357 71.0177 39.2642 71.6276 39.2642C72.0518 39.2642 72.4578 39.3139 72.8456 39.4134C73.2367 39.5128 73.5831 39.6669 73.8847 39.8757C74.1896 40.0845 74.4299 40.353 74.6056 40.6811C74.7812 41.0059 74.8691 41.3954 74.8691 41.8494V47H72.8605V45.9411H72.8009C72.6782 46.1797 72.5142 46.3902 72.3087 46.5724C72.1032 46.7514 71.8563 46.8923 71.5679 46.995C71.2796 47.0945 70.9465 47.1442 70.5686 47.1442ZM71.1752 45.6825C71.4867 45.6825 71.7618 45.6212 72.0004 45.4986C72.2391 45.3726 72.4263 45.2036 72.5622 44.9915C72.6981 44.7794 72.7661 44.5391 72.7661 44.2706V43.4602C72.6998 43.5033 72.6086 43.5431 72.4926 43.5795C72.3799 43.6127 72.2523 43.6442 72.1098 43.674C71.9673 43.7005 71.8248 43.7254 71.6823 43.7486C71.5397 43.7685 71.4105 43.7867 71.2945 43.8033C71.0459 43.8397 70.8288 43.8977 70.6432 43.9773C70.4576 44.0568 70.3134 44.1645 70.2107 44.3004C70.1079 44.433 70.0566 44.5987 70.0566 44.7976C70.0566 45.0859 70.161 45.3063 70.3698 45.4588C70.5819 45.608 70.8503 45.6825 71.1752 45.6825ZM79.9624 47.1491C79.1802 47.1491 78.5074 46.9834 77.944 46.652C77.3838 46.3172 76.953 45.8532 76.6514 45.2599C76.3531 44.6667 76.2039 43.9839 76.2039 43.2116C76.2039 42.4295 76.3547 41.7434 76.6563 41.1534C76.9613 40.5601 77.3938 40.0978 77.9539 39.7663C78.5141 39.4316 79.1802 39.2642 79.9525 39.2642C80.6187 39.2642 81.202 39.3852 81.7025 39.6271C82.203 39.8691 82.599 40.2088 82.8907 40.6463C83.1824 41.0838 83.3431 41.5975 83.373 42.1875H81.3744C81.318 41.8063 81.1689 41.4998 80.9269 41.2678C80.6883 41.0324 80.3751 40.9148 79.9873 40.9148C79.6592 40.9148 79.3725 41.0043 79.1272 41.1832C78.8853 41.3589 78.6963 41.6158 78.5605 41.9538C78.4246 42.2919 78.3566 42.7012 78.3566 43.1818C78.3566 43.669 78.4229 44.0833 78.5555 44.4247C78.6914 44.7661 78.882 45.0263 79.1272 45.2053C79.3725 45.3842 79.6592 45.4737 79.9873 45.4737C80.2293 45.4737 80.4463 45.424 80.6386 45.3246C80.8341 45.2251 80.9949 45.081 81.1208 44.892C81.2501 44.6998 81.3346 44.4695 81.3744 44.201H83.373C83.3398 44.7843 83.1807 45.2981 82.8957 45.7422C82.614 46.183 82.2245 46.5277 81.7274 46.7763C81.2302 47.0249 80.6419 47.1491 79.9624 47.1491ZM84.729 47V39.3636H86.8469V47H84.729ZM85.7929 38.3793C85.478 38.3793 85.2079 38.2749 84.9825 38.0661C84.7604 37.8539 84.6494 37.6004 84.6494 37.3054C84.6494 37.0137 84.7604 36.7635 84.9825 36.5547C85.2079 36.3426 85.478 36.2365 85.7929 36.2365C86.1077 36.2365 86.3762 36.3426 86.5983 36.5547C86.8237 36.7635 86.9363 37.0137 86.9363 37.3054C86.9363 37.6004 86.8237 37.8539 86.5983 38.0661C86.3762 38.2749 86.1077 38.3793 85.7929 38.3793ZM91.9937 47.1491C91.2214 47.1491 90.5536 46.9851 89.9901 46.657C89.43 46.3255 88.9975 45.8648 88.6926 45.2749C88.3876 44.6816 88.2352 43.9938 88.2352 43.2116C88.2352 42.4228 88.3876 41.7334 88.6926 41.1435C88.9975 40.5502 89.43 40.0895 89.9901 39.7614C90.5536 39.4299 91.2214 39.2642 91.9937 39.2642C92.766 39.2642 93.4321 39.4299 93.9923 39.7614C94.5557 40.0895 94.9899 40.5502 95.2948 41.1435C95.5998 41.7334 95.7522 42.4228 95.7522 43.2116C95.7522 43.9938 95.5998 44.6816 95.2948 45.2749C94.9899 45.8648 94.5557 46.3255 93.9923 46.657C93.4321 46.9851 92.766 47.1491 91.9937 47.1491ZM92.0036 45.5085C92.355 45.5085 92.6483 45.4091 92.8836 45.2102C93.1189 45.008 93.2963 44.733 93.4156 44.3849C93.5382 44.0369 93.5995 43.6409 93.5995 43.1967C93.5995 42.7526 93.5382 42.3565 93.4156 42.0085C93.2963 41.6605 93.1189 41.3854 92.8836 41.1832C92.6483 40.9811 92.355 40.88 92.0036 40.88C91.649 40.88 91.3507 40.9811 91.1088 41.1832C90.8701 41.3854 90.6895 41.6605 90.5669 42.0085C90.4475 42.3565 90.3879 42.7526 90.3879 43.1967C90.3879 43.6409 90.4475 44.0369 90.5669 44.3849C90.6895 44.733 90.8701 45.008 91.1088 45.2102C91.3507 45.4091 91.649 45.5085 92.0036 45.5085ZM99.2472 42.5852V47H97.1294V39.3636H99.1478V40.7109H99.2373C99.4063 40.2668 99.6897 39.9155 100.087 39.657C100.485 39.3951 100.967 39.2642 101.534 39.2642C102.064 39.2642 102.527 39.3802 102.921 39.6122C103.316 39.8442 103.622 40.1757 103.841 40.6065C104.06 41.0341 104.169 41.5445 104.169 42.1378V47H102.051V42.5156C102.055 42.0483 101.935 41.6837 101.693 41.4219C101.451 41.1567 101.118 41.0241 100.694 41.0241C100.409 41.0241 100.157 41.0855 99.9383 41.2081C99.7229 41.3307 99.5538 41.5097 99.4312 41.745C99.3119 41.977 99.2506 42.2571 99.2472 42.5852ZM109.318 47.1491C108.533 47.1491 107.857 46.9901 107.29 46.6719C106.727 46.3504 106.292 45.8963 105.987 45.3097C105.683 44.7197 105.53 44.022 105.53 43.2166C105.53 42.4311 105.683 41.7417 105.987 41.1484C106.292 40.5552 106.722 40.0928 107.275 39.7614C107.832 39.4299 108.485 39.2642 109.234 39.2642C109.738 39.2642 110.207 39.3454 110.641 39.5078C111.078 39.6669 111.46 39.9072 111.784 40.2287C112.112 40.5502 112.368 40.9545 112.55 41.4418C112.732 41.9257 112.823 42.4924 112.823 43.142V43.7237H106.375V42.4112H110.83C110.83 42.1063 110.764 41.8362 110.631 41.6009C110.498 41.3655 110.314 41.1816 110.079 41.049C109.847 40.9131 109.577 40.8452 109.269 40.8452C108.947 40.8452 108.662 40.9197 108.414 41.0689C108.168 41.2147 107.976 41.4119 107.837 41.6605C107.698 41.9058 107.626 42.1792 107.623 42.4808V43.7287C107.623 44.1065 107.693 44.433 107.832 44.7081C107.974 44.9832 108.175 45.1953 108.434 45.3445C108.692 45.4936 108.999 45.5682 109.353 45.5682C109.589 45.5682 109.804 45.535 110 45.4688C110.195 45.4025 110.362 45.303 110.502 45.1705C110.641 45.0379 110.747 44.8755 110.82 44.6832L112.779 44.8125C112.679 45.2831 112.475 45.6941 112.167 46.0455C111.862 46.3935 111.468 46.6652 110.984 46.8608C110.503 47.053 109.948 47.1491 109.318 47.1491ZM120.559 41.5412L118.62 41.6605C118.587 41.4948 118.516 41.3456 118.407 41.2131C118.297 41.0772 118.153 40.9695 117.974 40.8899C117.798 40.8071 117.588 40.7656 117.343 40.7656C117.014 40.7656 116.738 40.8352 116.512 40.9744C116.287 41.1103 116.174 41.2926 116.174 41.5213C116.174 41.7036 116.247 41.8577 116.393 41.9837C116.539 42.1096 116.789 42.2107 117.144 42.2869L118.526 42.5653C119.268 42.7178 119.822 42.9631 120.186 43.3011C120.551 43.6392 120.733 44.0833 120.733 44.6335C120.733 45.134 120.586 45.5732 120.291 45.951C119.999 46.3288 119.598 46.6238 119.088 46.8359C118.581 47.0447 117.996 47.1491 117.333 47.1491C116.322 47.1491 115.516 46.9387 114.916 46.5178C114.32 46.0935 113.97 45.5168 113.867 44.7876L115.951 44.6783C116.014 44.9865 116.166 45.2218 116.408 45.3842C116.65 45.5433 116.96 45.6229 117.338 45.6229C117.709 45.6229 118.007 45.5516 118.233 45.4091C118.461 45.2633 118.577 45.076 118.581 44.8473C118.577 44.6551 118.496 44.4976 118.337 44.375C118.178 44.2491 117.933 44.1529 117.601 44.0866L116.279 43.8232C115.533 43.674 114.978 43.4155 114.613 43.0476C114.252 42.6797 114.071 42.2107 114.071 41.6406C114.071 41.1501 114.204 40.7275 114.469 40.3729C114.737 40.0182 115.114 39.7448 115.598 39.5526C116.085 39.3603 116.655 39.2642 117.308 39.2642C118.272 39.2642 119.031 39.468 119.585 39.8757C120.142 40.2834 120.466 40.8385 120.559 41.5412ZM125.307 47V39.3636H127.326V40.7109H127.415C127.574 40.2635 127.839 39.9105 128.21 39.652C128.582 39.3935 129.026 39.2642 129.543 39.2642C130.067 39.2642 130.512 39.3951 130.88 39.657C131.248 39.9155 131.493 40.2668 131.616 40.7109H131.696C131.851 40.2734 132.133 39.9238 132.541 39.6619C132.952 39.3968 133.437 39.2642 133.997 39.2642C134.71 39.2642 135.288 39.4912 135.733 39.9453C136.18 40.3961 136.404 41.0357 136.404 41.8643V47H134.291V42.282C134.291 41.8577 134.178 41.5395 133.953 41.3274C133.727 41.1153 133.446 41.0092 133.108 41.0092C132.723 41.0092 132.423 41.1319 132.208 41.3771C131.992 41.6191 131.884 41.9389 131.884 42.3366V47H129.831V42.2372C129.831 41.8627 129.724 41.5644 129.508 41.3423C129.296 41.1203 129.016 41.0092 128.668 41.0092C128.433 41.0092 128.22 41.0689 128.032 41.1882C127.846 41.3042 127.698 41.4683 127.589 41.6804C127.48 41.8892 127.425 42.1345 127.425 42.4162V47H125.307ZM141.527 47.1491C140.755 47.1491 140.087 46.9851 139.523 46.657C138.963 46.3255 138.531 45.8648 138.226 45.2749C137.921 44.6816 137.768 43.9938 137.768 43.2116C137.768 42.4228 137.921 41.7334 138.226 41.1435C138.531 40.5502 138.963 40.0895 139.523 39.7614C140.087 39.4299 140.755 39.2642 141.527 39.2642C142.299 39.2642 142.965 39.4299 143.525 39.7614C144.089 40.0895 144.523 40.5502 144.828 41.1435C145.133 41.7334 145.285 42.4228 145.285 43.2116C145.285 43.9938 145.133 44.6816 144.828 45.2749C144.523 45.8648 144.089 46.3255 143.525 46.657C142.965 46.9851 142.299 47.1491 141.527 47.1491ZM141.537 45.5085C141.888 45.5085 142.181 45.4091 142.417 45.2102C142.652 45.008 142.829 44.733 142.949 44.3849C143.071 44.0369 143.133 43.6409 143.133 43.1967C143.133 42.7526 143.071 42.3565 142.949 42.0085C142.829 41.6605 142.652 41.3854 142.417 41.1832C142.181 40.9811 141.888 40.88 141.537 40.88C141.182 40.88 140.884 40.9811 140.642 41.1832C140.403 41.3854 140.223 41.6605 140.1 42.0085C139.981 42.3565 139.921 42.7526 139.921 43.1967C139.921 43.6409 139.981 44.0369 140.1 44.3849C140.223 44.733 140.403 45.008 140.642 45.2102C140.884 45.4091 141.182 45.5085 141.537 45.5085ZM140.766 38.3793L141.82 36.1172H143.779L142.263 38.3793H140.766ZM153.536 39.3636L150.866 47H148.48L145.81 39.3636H148.047L149.633 44.8274H149.713L151.294 39.3636H153.536ZM154.62 47V39.3636H156.737V47H154.62ZM155.684 38.3793C155.369 38.3793 155.099 38.2749 154.873 38.0661C154.651 37.8539 154.54 37.6004 154.54 37.3054C154.54 37.0137 154.651 36.7635 154.873 36.5547C155.099 36.3426 155.369 36.2365 155.684 36.2365C155.998 36.2365 156.267 36.3426 156.489 36.5547C156.714 36.7635 156.827 37.0137 156.827 37.3054C156.827 37.6004 156.714 37.8539 156.489 38.0661C156.267 38.2749 155.998 38.3793 155.684 38.3793ZM160.552 36.8182V47H158.434V36.8182H160.552ZM165.729 47.1491C164.943 47.1491 164.267 46.9901 163.7 46.6719C163.137 46.3504 162.703 45.8963 162.398 45.3097C162.093 44.7197 161.94 44.022 161.94 43.2166C161.94 42.4311 162.093 41.7417 162.398 41.1484C162.703 40.5552 163.132 40.0928 163.685 39.7614C164.242 39.4299 164.895 39.2642 165.644 39.2642C166.148 39.2642 166.617 39.3454 167.051 39.5078C167.489 39.6669 167.87 39.9072 168.195 40.2287C168.523 40.5502 168.778 40.9545 168.96 41.4418C169.142 41.9257 169.234 42.4924 169.234 43.142V43.7237H162.785V42.4112H167.24C167.24 42.1063 167.174 41.8362 167.041 41.6009C166.909 41.3655 166.725 41.1816 166.489 41.049C166.257 40.9131 165.987 40.8452 165.679 40.8452C165.357 40.8452 165.072 40.9197 164.824 41.0689C164.579 41.2147 164.386 41.4119 164.247 41.6605C164.108 41.9058 164.037 42.1792 164.033 42.4808V43.7287C164.033 44.1065 164.103 44.433 164.242 44.7081C164.385 44.9832 164.585 45.1953 164.844 45.3445C165.102 45.4936 165.409 45.5682 165.763 45.5682C165.999 45.5682 166.214 45.535 166.41 45.4688C166.605 45.4025 166.773 45.303 166.912 45.1705C167.051 45.0379 167.157 44.8755 167.23 44.6832L169.189 44.8125C169.089 45.2831 168.886 45.6941 168.577 46.0455C168.272 46.3935 167.878 46.6652 167.394 46.8608C166.914 47.053 166.358 47.1491 165.729 47.1491ZM176.969 41.5412L175.03 41.6605C174.997 41.4948 174.926 41.3456 174.817 41.2131C174.707 41.0772 174.563 40.9695 174.384 40.8899C174.208 40.8071 173.998 40.7656 173.753 40.7656C173.425 40.7656 173.148 40.8352 172.922 40.9744C172.697 41.1103 172.584 41.2926 172.584 41.5213C172.584 41.7036 172.657 41.8577 172.803 41.9837C172.949 42.1096 173.199 42.2107 173.554 42.2869L174.936 42.5653C175.678 42.7178 176.232 42.9631 176.597 43.3011C176.961 43.6392 177.143 44.0833 177.143 44.6335C177.143 45.134 176.996 45.5732 176.701 45.951C176.409 46.3288 176.008 46.6238 175.498 46.8359C174.991 47.0447 174.406 47.1491 173.743 47.1491C172.732 47.1491 171.927 46.9387 171.327 46.5178C170.73 46.0935 170.38 45.5168 170.278 44.7876L172.361 44.6783C172.424 44.9865 172.576 45.2218 172.818 45.3842C173.06 45.5433 173.37 45.6229 173.748 45.6229C174.119 45.6229 174.417 45.5516 174.643 45.4091C174.871 45.2633 174.987 45.076 174.991 44.8473C174.987 44.6551 174.906 44.4976 174.747 44.375C174.588 44.2491 174.343 44.1529 174.011 44.0866L172.689 43.8232C171.943 43.674 171.388 43.4155 171.023 43.0476C170.662 42.6797 170.481 42.2107 170.481 41.6406C170.481 41.1501 170.614 40.7275 170.879 40.3729C171.148 40.0182 171.524 39.7448 172.008 39.5526C172.495 39.3603 173.065 39.2642 173.718 39.2642C174.682 39.2642 175.441 39.468 175.995 39.8757C176.552 40.2834 176.877 40.8385 176.969 41.5412Z" fill="#616161"/>
<path d="M0 204H210V205C210 207.761 207.761 210 205 210H5.00001C2.23858 210 0 207.761 0 205V204Z" fill="#B5BF00"/>
</svg>
