<svg width="210" height="210" viewBox="0 0 210 210" fill="none" xmlns="http://www.w3.org/2000/svg">
<rect width="210" height="210" rx="5" fill="#FAFAFA"/>
<path d="M0 204H210V205C210 207.761 207.761 210 205 210H5.00001C2.23858 210 0 207.761 0 205V204Z" fill="#B5BF00"/>
<path d="M91.9888 178V172.182H94.0627C94.5153 172.182 94.8903 172.264 95.1877 172.429C95.485 172.594 95.7076 172.819 95.8553 173.105C96.003 173.389 96.0769 173.709 96.0769 174.065C96.0769 174.423 96.0021 174.745 95.8525 175.031C95.7047 175.315 95.4812 175.541 95.182 175.707C94.8846 175.872 94.5106 175.955 94.0598 175.955H92.6337V175.21H93.9803C94.2663 175.21 94.4983 175.161 94.6763 175.062C94.8543 174.962 94.985 174.826 95.0684 174.653C95.1517 174.481 95.1934 174.285 95.1934 174.065C95.1934 173.846 95.1517 173.651 95.0684 173.48C94.985 173.31 94.8534 173.176 94.6735 173.08C94.4954 172.983 94.2606 172.935 93.9689 172.935H92.8667V178H91.9888ZM97.0378 178V173.636H97.8588V174.33H97.9043C97.9838 174.095 98.124 173.91 98.3248 173.776C98.5274 173.639 98.7566 173.571 99.0123 173.571C99.0653 173.571 99.1278 173.573 99.1998 173.577C99.2736 173.58 99.3314 173.585 99.373 173.591V174.403C99.339 174.394 99.2784 174.384 99.1912 174.372C99.1041 174.359 99.017 174.352 98.9299 174.352C98.7291 174.352 98.5501 174.395 98.3929 174.48C98.2376 174.563 98.1145 174.68 98.0236 174.83C97.9327 174.977 97.8873 175.146 97.8873 175.335V178H97.0378ZM101.833 178.088C101.403 178.088 101.032 177.996 100.722 177.812C100.413 177.627 100.174 177.366 100.006 177.031C99.8392 176.694 99.7559 176.299 99.7559 175.847C99.7559 175.4 99.8392 175.006 100.006 174.665C100.174 174.324 100.409 174.058 100.71 173.866C101.013 173.675 101.368 173.58 101.773 173.58C102.019 173.58 102.258 173.62 102.489 173.702C102.72 173.783 102.927 173.911 103.111 174.085C103.295 174.259 103.44 174.486 103.546 174.764C103.652 175.041 103.705 175.377 103.705 175.773V176.074H100.236V175.438H102.872C102.872 175.214 102.827 175.016 102.736 174.844C102.645 174.67 102.517 174.532 102.352 174.432C102.19 174.331 101.998 174.281 101.779 174.281C101.54 174.281 101.332 174.34 101.154 174.457C100.977 174.573 100.841 174.724 100.744 174.912C100.65 175.098 100.602 175.299 100.602 175.517V176.014C100.602 176.306 100.654 176.554 100.756 176.759C100.86 176.963 101.005 177.119 101.191 177.227C101.376 177.333 101.593 177.386 101.841 177.386C102.002 177.386 102.149 177.364 102.281 177.318C102.414 177.271 102.529 177.201 102.625 177.108C102.722 177.015 102.796 176.901 102.847 176.764L103.651 176.909C103.586 177.146 103.471 177.353 103.304 177.531C103.139 177.707 102.932 177.845 102.682 177.943C102.434 178.04 102.151 178.088 101.833 178.088ZM107.917 174.702L107.147 174.838C107.115 174.74 107.064 174.646 106.994 174.557C106.926 174.468 106.833 174.395 106.715 174.338C106.598 174.281 106.451 174.253 106.275 174.253C106.035 174.253 105.834 174.307 105.673 174.415C105.512 174.521 105.431 174.658 105.431 174.827C105.431 174.973 105.485 175.09 105.593 175.179C105.701 175.268 105.875 175.341 106.116 175.398L106.809 175.557C107.211 175.65 107.51 175.793 107.707 175.986C107.904 176.179 108.002 176.43 108.002 176.739C108.002 177 107.927 177.233 107.775 177.438C107.625 177.64 107.416 177.799 107.147 177.915C106.88 178.03 106.57 178.088 106.218 178.088C105.73 178.088 105.331 177.984 105.022 177.776C104.713 177.565 104.524 177.267 104.454 176.881L105.275 176.756C105.326 176.97 105.431 177.132 105.59 177.241C105.749 177.349 105.957 177.403 106.213 177.403C106.491 177.403 106.713 177.346 106.88 177.23C107.047 177.113 107.13 176.97 107.13 176.801C107.13 176.665 107.079 176.55 106.977 176.457C106.876 176.365 106.722 176.295 106.514 176.247L105.775 176.085C105.368 175.992 105.067 175.845 104.872 175.642C104.678 175.439 104.582 175.183 104.582 174.872C104.582 174.615 104.654 174.389 104.798 174.196C104.942 174.003 105.141 173.852 105.394 173.744C105.648 173.634 105.939 173.58 106.267 173.58C106.738 173.58 107.109 173.682 107.38 173.886C107.651 174.089 107.83 174.361 107.917 174.702ZM110.817 178.088C110.387 178.088 110.017 177.996 109.706 177.812C109.397 177.627 109.159 177.366 108.99 177.031C108.824 176.694 108.74 176.299 108.74 175.847C108.74 175.4 108.824 175.006 108.99 174.665C109.159 174.324 109.394 174.058 109.695 173.866C109.998 173.675 110.352 173.58 110.757 173.58C111.003 173.58 111.242 173.62 111.473 173.702C111.704 173.783 111.912 173.911 112.095 174.085C112.279 174.259 112.424 174.486 112.53 174.764C112.636 175.041 112.689 175.377 112.689 175.773V176.074H109.22V175.438H111.857C111.857 175.214 111.811 175.016 111.72 174.844C111.629 174.67 111.502 174.532 111.337 174.432C111.174 174.331 110.983 174.281 110.763 174.281C110.524 174.281 110.316 174.34 110.138 174.457C109.962 174.573 109.825 174.724 109.729 174.912C109.634 175.098 109.587 175.299 109.587 175.517V176.014C109.587 176.306 109.638 176.554 109.74 176.759C109.844 176.963 109.989 177.119 110.175 177.227C110.36 177.333 110.577 177.386 110.825 177.386C110.986 177.386 111.133 177.364 111.266 177.318C111.398 177.271 111.513 177.201 111.61 177.108C111.706 177.015 111.78 176.901 111.831 176.764L112.635 176.909C112.571 177.146 112.455 177.353 112.289 177.531C112.124 177.707 111.916 177.845 111.666 177.943C111.418 178.04 111.135 178.088 110.817 178.088ZM114.481 175.409V178H113.632V173.636H114.447V174.347H114.501C114.601 174.116 114.758 173.93 114.972 173.79C115.188 173.65 115.46 173.58 115.788 173.58C116.085 173.58 116.346 173.642 116.569 173.767C116.793 173.89 116.966 174.074 117.089 174.318C117.212 174.562 117.274 174.865 117.274 175.224V178H116.424V175.327C116.424 175.01 116.342 174.763 116.177 174.585C116.012 174.405 115.786 174.315 115.498 174.315C115.301 174.315 115.126 174.358 114.972 174.443C114.821 174.528 114.701 174.653 114.612 174.818C114.525 174.981 114.481 175.178 114.481 175.409ZM120.251 178.088C119.829 178.088 119.465 177.992 119.16 177.801C118.857 177.608 118.624 177.342 118.461 177.003C118.298 176.664 118.217 176.276 118.217 175.838C118.217 175.395 118.3 175.004 118.467 174.665C118.633 174.324 118.868 174.058 119.171 173.866C119.474 173.675 119.831 173.58 120.242 173.58C120.574 173.58 120.869 173.641 121.129 173.764C121.388 173.885 121.597 174.056 121.757 174.276C121.918 174.495 122.013 174.752 122.044 175.045H121.217C121.171 174.841 121.067 174.665 120.904 174.517C120.743 174.369 120.527 174.295 120.257 174.295C120.02 174.295 119.812 174.358 119.634 174.483C119.458 174.606 119.321 174.782 119.222 175.011C119.124 175.239 119.075 175.508 119.075 175.818C119.075 176.136 119.123 176.411 119.22 176.642C119.316 176.873 119.453 177.052 119.629 177.179C119.807 177.306 120.016 177.369 120.257 177.369C120.418 177.369 120.563 177.34 120.694 177.281C120.827 177.221 120.937 177.134 121.026 177.023C121.117 176.911 121.181 176.777 121.217 176.619H122.044C122.013 176.902 121.921 177.153 121.768 177.375C121.615 177.597 121.409 177.771 121.151 177.898C120.896 178.025 120.596 178.088 120.251 178.088ZM122.952 178V173.636H123.801V178H122.952ZM123.381 172.963C123.233 172.963 123.106 172.914 123 172.815C122.896 172.715 122.844 172.596 122.844 172.457C122.844 172.317 122.896 172.198 123 172.099C123.106 171.999 123.233 171.949 123.381 171.949C123.529 171.949 123.655 171.999 123.759 172.099C123.865 172.198 123.918 172.317 123.918 172.457C123.918 172.596 123.865 172.715 123.759 172.815C123.655 172.914 123.529 172.963 123.381 172.963ZM126.214 178.097C125.937 178.097 125.687 178.045 125.464 177.943C125.24 177.839 125.063 177.688 124.933 177.491C124.804 177.295 124.74 177.053 124.74 176.767C124.74 176.521 124.787 176.318 124.882 176.159C124.976 176 125.104 175.874 125.265 175.781C125.426 175.688 125.606 175.618 125.805 175.571C126.004 175.524 126.206 175.488 126.413 175.463C126.674 175.433 126.886 175.408 127.049 175.389C127.212 175.368 127.33 175.335 127.404 175.29C127.478 175.244 127.515 175.17 127.515 175.068V175.048C127.515 174.8 127.445 174.608 127.305 174.472C127.167 174.335 126.96 174.267 126.686 174.267C126.4 174.267 126.174 174.33 126.009 174.457C125.847 174.582 125.734 174.722 125.671 174.875L124.873 174.693C124.968 174.428 125.106 174.214 125.288 174.051C125.472 173.886 125.683 173.767 125.921 173.693C126.16 173.617 126.411 173.58 126.674 173.58C126.848 173.58 127.033 173.6 127.228 173.642C127.425 173.682 127.609 173.756 127.779 173.864C127.952 173.972 128.093 174.126 128.203 174.327C128.312 174.526 128.367 174.784 128.367 175.102V178H127.538V177.403H127.504C127.449 177.513 127.366 177.621 127.257 177.727C127.147 177.833 127.006 177.921 126.833 177.991C126.661 178.062 126.454 178.097 126.214 178.097ZM126.399 177.415C126.633 177.415 126.834 177.368 127.001 177.276C127.169 177.183 127.297 177.062 127.384 176.912C127.473 176.76 127.518 176.598 127.518 176.426V175.864C127.488 175.894 127.429 175.922 127.342 175.949C127.257 175.973 127.159 175.995 127.049 176.014C126.939 176.031 126.832 176.047 126.728 176.062C126.624 176.076 126.537 176.087 126.467 176.097C126.302 176.117 126.151 176.152 126.015 176.202C125.881 176.251 125.773 176.322 125.691 176.415C125.612 176.506 125.572 176.627 125.572 176.778C125.572 176.989 125.65 177.148 125.805 177.256C125.96 177.362 126.158 177.415 126.399 177.415ZM130.348 172.182V178H129.499V172.182H130.348Z" fill="#B5BF00"/>
<path d="M73.665 139.938V139.182H78.1678V139.938H76.3525V145H75.4775V139.938H73.665ZM82.3361 140.71C82.3058 140.441 82.1808 140.233 81.9611 140.085C81.7414 139.936 81.4649 139.861 81.1316 139.861C80.893 139.861 80.6865 139.899 80.5123 139.974C80.338 140.048 80.2026 140.151 80.106 140.281C80.0113 140.41 79.964 140.557 79.964 140.722C79.964 140.86 79.9962 140.979 80.0606 141.08C80.1269 141.18 80.213 141.264 80.3191 141.332C80.427 141.399 80.5426 141.455 80.6657 141.5C80.7888 141.544 80.9072 141.58 81.0208 141.608L81.589 141.756C81.7746 141.801 81.9649 141.863 82.16 141.94C82.3551 142.018 82.5359 142.12 82.7026 142.247C82.8693 142.374 83.0037 142.531 83.106 142.719C83.2102 142.906 83.2623 143.131 83.2623 143.392C83.2623 143.722 83.177 144.014 83.0066 144.27C82.838 144.526 82.5928 144.727 82.2708 144.875C81.9507 145.023 81.5634 145.097 81.1089 145.097C80.6733 145.097 80.2964 145.027 79.9782 144.889C79.66 144.751 79.4109 144.555 79.231 144.301C79.0511 144.045 78.9517 143.742 78.9327 143.392H79.8134C79.8305 143.602 79.8986 143.777 80.018 143.918C80.1392 144.056 80.2935 144.159 80.481 144.227C80.6704 144.294 80.8778 144.327 81.1032 144.327C81.3513 144.327 81.5719 144.288 81.7651 144.21C81.9602 144.131 82.1136 144.021 82.2253 143.881C82.3371 143.739 82.393 143.573 82.393 143.384C82.393 143.211 82.3437 143.07 82.2452 142.96C82.1486 142.85 82.017 142.759 81.8503 142.688C81.6856 142.616 81.499 142.552 81.2907 142.497L80.6032 142.31C80.1373 142.183 79.768 141.996 79.4952 141.75C79.2244 141.504 79.089 141.178 79.089 140.773C79.089 140.437 79.1799 140.145 79.3617 139.895C79.5435 139.645 79.7897 139.451 80.1003 139.312C80.4109 139.172 80.7613 139.102 81.1515 139.102C81.5454 139.102 81.893 139.171 82.1941 139.31C82.4971 139.448 82.7358 139.638 82.91 139.881C83.0842 140.121 83.1751 140.398 83.1827 140.71H82.3361ZM85.1891 139.182V145H84.3113V139.182H85.1891ZM88.4135 145.097C87.9647 145.095 87.5812 144.976 87.263 144.741C86.9448 144.507 86.7014 144.165 86.5329 143.716C86.3643 143.267 86.28 142.726 86.28 142.094C86.28 141.463 86.3643 140.924 86.5329 140.477C86.7033 140.03 86.9476 139.689 87.2658 139.455C87.5859 139.22 87.9685 139.102 88.4135 139.102C88.8586 139.102 89.2403 139.221 89.5584 139.457C89.8766 139.692 90.12 140.033 90.2885 140.48C90.459 140.925 90.5442 141.463 90.5442 142.094C90.5442 142.728 90.4599 143.27 90.2914 143.719C90.1228 144.166 89.8795 144.508 89.5613 144.744C89.2431 144.979 88.8605 145.097 88.4135 145.097ZM88.4135 144.338C88.8075 144.338 89.1153 144.146 89.3368 143.761C89.5603 143.377 89.6721 142.821 89.6721 142.094C89.6721 141.611 89.6209 141.203 89.5187 140.869C89.4183 140.534 89.2734 140.28 89.084 140.108C88.8965 139.934 88.673 139.847 88.4135 139.847C88.0215 139.847 87.7137 140.04 87.4903 140.426C87.2668 140.812 87.1541 141.368 87.1522 142.094C87.1522 142.579 87.2024 142.989 87.3028 143.324C87.405 143.657 87.5499 143.91 87.7374 144.082C87.9249 144.253 88.1503 144.338 88.4135 144.338ZM93.5776 145.097C93.1287 145.095 92.7452 144.976 92.427 144.741C92.1089 144.507 91.8655 144.165 91.6969 143.716C91.5284 143.267 91.4441 142.726 91.4441 142.094C91.4441 141.463 91.5284 140.924 91.6969 140.477C91.8674 140.03 92.1117 139.689 92.4299 139.455C92.75 139.22 93.1325 139.102 93.5776 139.102C94.0227 139.102 94.4043 139.221 94.7225 139.457C95.0407 139.692 95.284 140.033 95.4526 140.48C95.6231 140.925 95.7083 141.463 95.7083 142.094C95.7083 142.728 95.624 143.27 95.4555 143.719C95.2869 144.166 95.0435 144.508 94.7253 144.744C94.4072 144.979 94.0246 145.097 93.5776 145.097ZM93.5776 144.338C93.9715 144.338 94.2793 144.146 94.5009 143.761C94.7244 143.377 94.8361 142.821 94.8361 142.094C94.8361 141.611 94.785 141.203 94.6827 140.869C94.5823 140.534 94.4375 140.28 94.2481 140.108C94.0606 139.934 93.8371 139.847 93.5776 139.847C93.1856 139.847 92.8778 140.04 92.6543 140.426C92.4308 140.812 92.3181 141.368 92.3162 142.094C92.3162 142.579 92.3664 142.989 92.4668 143.324C92.5691 143.657 92.714 143.91 92.9015 144.082C93.089 144.253 93.3144 144.338 93.5776 144.338ZM98.9235 139.182V145H98.0428V140.062H98.0087L96.6167 140.972V140.131L98.0684 139.182H98.9235Z" fill="#B5BF00"/>
<path d="M0 5C0 2.23858 2.23858 0 5 0H205C207.761 0 210 2.23858 210 5V21H0V5Z" fill="#B5BF00"/>
<rect x="34" y="91.7105" width="45" height="10" rx="5" stroke="#C7D200"/>
<path d="M44.5441 100V93.4545H45.3367V99.2969H48.3793V100H44.5441ZM52.5981 97.9929V95.0909H53.3523V100H52.5981V99.169H52.5469C52.4319 99.4183 52.2529 99.6303 52.01 99.805C51.7671 99.9776 51.4603 100.064 51.0895 100.064C50.7827 100.064 50.51 99.9968 50.2714 99.8626C50.0327 99.7262 49.8452 99.5217 49.7089 99.2489C49.5725 98.9741 49.5043 98.6278 49.5043 98.2102V95.0909H50.2586V98.1591C50.2586 98.517 50.3587 98.8026 50.559 99.0156C50.7614 99.2287 51.0192 99.3352 51.3324 99.3352C51.5199 99.3352 51.7106 99.2873 51.9045 99.1914C52.1005 99.0955 52.2646 98.9485 52.3967 98.7504C52.5309 98.5522 52.5981 98.2997 52.5981 97.9929ZM55.4881 97.0469V100H54.7338V95.0909H55.4625V95.858H55.5264C55.6415 95.6087 55.8162 95.4084 56.0506 95.2571C56.2849 95.1037 56.5875 95.027 56.9582 95.027C57.2906 95.027 57.5815 95.0952 57.8307 95.2315C58.08 95.3658 58.2739 95.5703 58.4124 95.8452C58.5509 96.1179 58.6202 96.4631 58.6202 96.8807V100H57.8659V96.9318C57.8659 96.5462 57.7658 96.2457 57.5655 96.0305C57.3652 95.8132 57.0903 95.7045 56.7409 95.7045C56.5001 95.7045 56.2849 95.7567 56.0953 95.8612C55.9078 95.9656 55.7597 96.1179 55.6511 96.3182C55.5424 96.5185 55.4881 96.7614 55.4881 97.0469ZM62.0567 100.102C61.5837 100.102 61.1756 99.9979 60.8326 99.7891C60.4917 99.5781 60.2286 99.2841 60.0432 98.907C59.86 98.5277 59.7683 98.0866 59.7683 97.5838C59.7683 97.081 59.86 96.6378 60.0432 96.2543C60.2286 95.8686 60.4864 95.5682 60.8166 95.353C61.149 95.1357 61.5368 95.027 61.98 95.027C62.2357 95.027 62.4881 95.0696 62.7374 95.1548C62.9867 95.2401 63.2136 95.3786 63.4182 95.5703C63.6227 95.7599 63.7857 96.0114 63.9072 96.3246C64.0286 96.6378 64.0894 97.0234 64.0894 97.4815V97.8011H60.3053V97.1491H63.3223C63.3223 96.8722 63.2669 96.625 63.1561 96.4077C63.0475 96.1903 62.8919 96.0188 62.6895 95.8931C62.4892 95.7674 62.2527 95.7045 61.98 95.7045C61.6796 95.7045 61.4196 95.7791 61.2002 95.9283C60.9828 96.0753 60.8156 96.267 60.6984 96.5036C60.5812 96.7401 60.5226 96.9936 60.5226 97.2642V97.6989C60.5226 98.0696 60.5865 98.3839 60.7144 98.6417C60.8443 98.8974 61.0244 99.0923 61.2545 99.2266C61.4846 99.3587 61.752 99.4247 62.0567 99.4247C62.2548 99.4247 62.4338 99.397 62.5936 99.3416C62.7555 99.2841 62.8951 99.1989 63.0123 99.0859C63.1295 98.9709 63.22 98.8281 63.284 98.6577L64.0127 98.8622C63.9359 99.1094 63.807 99.3267 63.6259 99.5142C63.4448 99.6996 63.2211 99.8445 62.9548 99.9489C62.6884 100.051 62.3891 100.102 62.0567 100.102ZM68.714 96.1903L68.0364 96.3821C67.9938 96.2692 67.931 96.1594 67.8479 96.0529C67.7669 95.9442 67.6561 95.8548 67.5155 95.7844C67.3749 95.7141 67.1948 95.679 66.9754 95.679C66.6749 95.679 66.4246 95.7482 66.2243 95.8867C66.0261 96.0231 65.9271 96.1967 65.9271 96.4077C65.9271 96.5952 65.9953 96.7433 66.1316 96.8519C66.268 96.9606 66.481 97.0511 66.7708 97.1236L67.4995 97.3026C67.9384 97.4091 68.2655 97.5721 68.4807 97.7915C68.6959 98.0089 68.8035 98.2891 68.8035 98.6321C68.8035 98.9134 68.7225 99.1648 68.5606 99.3864C68.4008 99.608 68.1771 99.7827 67.8894 99.9105C67.6018 100.038 67.2673 100.102 66.8859 100.102C66.3852 100.102 65.9707 99.9936 65.6426 99.7763C65.3145 99.5589 65.1068 99.2415 65.0194 98.8239L65.7353 98.6449C65.8035 98.9091 65.9324 99.1072 66.122 99.2393C66.3138 99.3714 66.5641 99.4375 66.8731 99.4375C67.2247 99.4375 67.5038 99.3629 67.7104 99.2138C67.9193 99.0625 68.0237 98.8814 68.0237 98.6705C68.0237 98.5 67.964 98.3572 67.8447 98.2422C67.7254 98.125 67.5421 98.0376 67.295 97.9801L66.4768 97.7884C66.0272 97.6818 65.697 97.5167 65.486 97.293C65.2772 97.0671 65.1728 96.7848 65.1728 96.446C65.1728 96.169 65.2506 95.924 65.4061 95.7109C65.5638 95.4979 65.7779 95.3306 66.0485 95.2092C66.3212 95.0877 66.6302 95.027 66.9754 95.027C67.4612 95.027 67.8426 95.1335 68.1195 95.3466C68.3987 95.5597 68.5968 95.8409 68.714 96.1903Z" fill="#616161"/>
<rect x="85.4502" y="91.7105" width="45" height="10" rx="5" stroke="#C7D200"/>
<path d="M94.9194 94.1818H95.7603L97.7376 99.0114H97.8058L99.783 94.1818H100.624V100H99.9648V95.5795H99.908L98.0898 100H97.4535L95.6353 95.5795H95.5785V100H94.9194V94.1818ZM103.23 100.102C102.953 100.102 102.702 100.05 102.477 99.946C102.252 99.84 102.073 99.6875 101.94 99.4886C101.807 99.2879 101.741 99.0455 101.741 98.7614C101.741 98.5114 101.79 98.3087 101.889 98.1534C101.987 97.9962 102.119 97.8731 102.284 97.7841C102.449 97.6951 102.63 97.6288 102.829 97.5852C103.03 97.5398 103.232 97.5038 103.434 97.4773C103.699 97.4432 103.914 97.4176 104.079 97.4006C104.246 97.3816 104.367 97.3504 104.443 97.3068C104.52 97.2633 104.559 97.1875 104.559 97.0795V97.0568C104.559 96.7765 104.483 96.5587 104.329 96.4034C104.178 96.2481 103.948 96.1705 103.639 96.1705C103.319 96.1705 103.068 96.2405 102.886 96.3807C102.704 96.5208 102.576 96.6705 102.502 96.8295L101.866 96.6023C101.98 96.3371 102.131 96.1307 102.321 95.983C102.512 95.8333 102.72 95.7292 102.946 95.6705C103.173 95.6098 103.396 95.5795 103.616 95.5795C103.756 95.5795 103.917 95.5966 104.099 95.6307C104.283 95.6629 104.46 95.7301 104.63 95.8324C104.803 95.9347 104.946 96.089 105.059 96.2955C105.173 96.5019 105.23 96.7784 105.23 97.125V100H104.559V99.4091H104.525C104.48 99.5038 104.404 99.6051 104.298 99.7131C104.192 99.821 104.051 99.9129 103.875 99.9886C103.699 100.064 103.484 100.102 103.23 100.102ZM103.332 99.5C103.597 99.5 103.821 99.4479 104.002 99.3438C104.186 99.2396 104.324 99.1051 104.417 98.9403C104.512 98.7756 104.559 98.6023 104.559 98.4205V97.8068C104.531 97.8409 104.468 97.8722 104.372 97.9006C104.277 97.9271 104.167 97.9508 104.042 97.9716C103.919 97.9905 103.799 98.0076 103.681 98.0227C103.566 98.036 103.472 98.0473 103.4 98.0568C103.226 98.0795 103.063 98.1165 102.912 98.1676C102.762 98.2169 102.641 98.2917 102.548 98.392C102.457 98.4905 102.412 98.625 102.412 98.7955C102.412 99.0284 102.498 99.2045 102.67 99.3239C102.844 99.4413 103.065 99.5 103.332 99.5ZM106.453 100V95.6364H107.101V96.2955H107.147C107.226 96.0795 107.37 95.9044 107.578 95.7699C107.787 95.6354 108.022 95.5682 108.283 95.5682C108.332 95.5682 108.394 95.5691 108.468 95.571C108.542 95.5729 108.597 95.5758 108.635 95.5795V96.2614C108.613 96.2557 108.56 96.2472 108.479 96.2358C108.4 96.2225 108.315 96.2159 108.226 96.2159C108.014 96.2159 107.825 96.2604 107.658 96.3494C107.493 96.4366 107.363 96.5578 107.266 96.7131C107.171 96.8665 107.124 97.0417 107.124 97.2386V100H106.453ZM111.601 95.6364V96.2045H109.34V95.6364H111.601ZM109.999 94.5909H110.669V98.75C110.669 98.9394 110.697 99.0814 110.752 99.1761C110.809 99.2689 110.881 99.3314 110.968 99.3636C111.057 99.3939 111.15 99.4091 111.249 99.4091C111.323 99.4091 111.383 99.4053 111.431 99.3977C111.478 99.3883 111.516 99.3807 111.544 99.375L111.681 99.9773C111.635 99.9943 111.572 100.011 111.49 100.028C111.409 100.047 111.306 100.057 111.181 100.057C110.991 100.057 110.806 100.016 110.624 99.9347C110.444 99.8532 110.294 99.7292 110.175 99.5625C110.058 99.3958 109.999 99.1856 109.999 98.9318V94.5909ZM114.392 100.091C113.972 100.091 113.609 99.9981 113.304 99.8125C113.001 99.625 112.767 99.3636 112.603 99.0284C112.44 98.6913 112.358 98.2992 112.358 97.8523C112.358 97.4053 112.44 97.0114 112.603 96.6705C112.767 96.3277 112.997 96.0606 113.29 95.8693C113.586 95.6761 113.93 95.5795 114.324 95.5795C114.551 95.5795 114.776 95.6174 114.998 95.6932C115.219 95.7689 115.421 95.892 115.603 96.0625C115.784 96.2311 115.929 96.4545 116.037 96.733C116.145 97.0114 116.199 97.3542 116.199 97.7614V98.0455H112.836V97.4659H115.517C115.517 97.2197 115.468 97 115.37 96.8068C115.273 96.6136 115.135 96.4612 114.955 96.3494C114.777 96.2377 114.567 96.1818 114.324 96.1818C114.057 96.1818 113.826 96.2481 113.631 96.3807C113.438 96.5114 113.289 96.6818 113.185 96.892C113.081 97.1023 113.029 97.3277 113.029 97.5682V97.9545C113.029 98.2841 113.086 98.5634 113.199 98.7926C113.315 99.0199 113.475 99.1932 113.679 99.3125C113.884 99.4299 114.122 99.4886 114.392 99.4886C114.569 99.4886 114.728 99.464 114.87 99.4148C115.014 99.3636 115.138 99.2879 115.242 99.1875C115.346 99.0852 115.426 98.9583 115.483 98.8068L116.131 98.9886C116.063 99.2083 115.948 99.4015 115.787 99.5682C115.626 99.733 115.427 99.8617 115.191 99.9545C114.954 100.045 114.688 100.091 114.392 100.091ZM120.31 96.6136L119.708 96.7841C119.67 96.6837 119.614 96.5862 119.54 96.4915C119.468 96.3949 119.37 96.3153 119.245 96.2528C119.12 96.1903 118.96 96.1591 118.765 96.1591C118.498 96.1591 118.275 96.2206 118.097 96.3438C117.921 96.465 117.833 96.6193 117.833 96.8068C117.833 96.9735 117.893 97.1051 118.015 97.2017C118.136 97.2983 118.325 97.3788 118.583 97.4432L119.23 97.6023C119.621 97.697 119.911 97.8419 120.103 98.0369C120.294 98.2301 120.39 98.4792 120.39 98.7841C120.39 99.0341 120.318 99.2576 120.174 99.4545C120.032 99.6515 119.833 99.8068 119.577 99.9205C119.321 100.034 119.024 100.091 118.685 100.091C118.24 100.091 117.872 99.9943 117.58 99.8011C117.288 99.608 117.104 99.3258 117.026 98.9545L117.662 98.7955C117.723 99.0303 117.837 99.2064 118.006 99.3239C118.176 99.4413 118.399 99.5 118.674 99.5C118.986 99.5 119.234 99.4337 119.418 99.3011C119.604 99.1667 119.696 99.0057 119.696 98.8182C119.696 98.6667 119.643 98.5398 119.537 98.4375C119.431 98.3333 119.268 98.2557 119.049 98.2045L118.321 98.0341C117.922 97.9394 117.628 97.7926 117.441 97.5938C117.255 97.393 117.162 97.142 117.162 96.8409C117.162 96.5947 117.231 96.3769 117.37 96.1875C117.51 95.9981 117.7 95.8494 117.941 95.7415C118.183 95.6335 118.458 95.5795 118.765 95.5795C119.196 95.5795 119.535 95.6742 119.782 95.8636C120.03 96.053 120.206 96.303 120.31 96.6136Z" fill="#616161"/>
<rect x="136.9" y="91.7105" width="45" height="10" rx="5" stroke="#C7D200"/>
<path d="M141.958 94.1818H142.799L144.777 99.0114H144.845L146.822 94.1818H147.663V100H147.004V95.5795H146.947L145.129 100H144.493L142.674 95.5795H142.618V100H141.958V94.1818ZM148.985 100V95.6364H149.655V100H148.985ZM149.326 94.9091C149.195 94.9091 149.082 94.8646 148.988 94.7756C148.895 94.6866 148.848 94.5795 148.848 94.4545C148.848 94.3295 148.895 94.2225 148.988 94.1335C149.082 94.0445 149.195 94 149.326 94C149.456 94 149.568 94.0445 149.661 94.1335C149.756 94.2225 149.803 94.3295 149.803 94.4545C149.803 94.5795 149.756 94.6866 149.661 94.7756C149.568 94.8646 149.456 94.9091 149.326 94.9091ZM152.713 100.091C152.292 100.091 151.93 99.9981 151.625 99.8125C151.322 99.625 151.088 99.3636 150.923 99.0284C150.76 98.6913 150.679 98.2992 150.679 97.8523C150.679 97.4053 150.76 97.0114 150.923 96.6705C151.088 96.3277 151.317 96.0606 151.61 95.8693C151.906 95.6761 152.251 95.5795 152.645 95.5795C152.872 95.5795 153.096 95.6174 153.318 95.6932C153.539 95.7689 153.741 95.892 153.923 96.0625C154.105 96.2311 154.25 96.4545 154.358 96.733C154.466 97.0114 154.52 97.3542 154.52 97.7614V98.0455H151.156V97.4659H153.838C153.838 97.2197 153.788 97 153.69 96.8068C153.593 96.6136 153.455 96.4612 153.275 96.3494C153.097 96.2377 152.887 96.1818 152.645 96.1818C152.377 96.1818 152.146 96.2481 151.951 96.3807C151.758 96.5114 151.609 96.6818 151.505 96.892C151.401 97.1023 151.349 97.3277 151.349 97.5682V97.9545C151.349 98.2841 151.406 98.5634 151.52 98.7926C151.635 99.0199 151.795 99.1932 152 99.3125C152.204 99.4299 152.442 99.4886 152.713 99.4886C152.889 99.4886 153.048 99.464 153.19 99.4148C153.334 99.3636 153.458 99.2879 153.562 99.1875C153.666 99.0852 153.747 98.9583 153.804 98.8068L154.451 98.9886C154.383 99.2083 154.269 99.4015 154.108 99.5682C153.947 99.733 153.748 99.8617 153.511 99.9545C153.274 100.045 153.008 100.091 152.713 100.091ZM152.304 95.0455L152.997 93.7273H153.781L152.895 95.0455H152.304ZM155.539 100V95.6364H156.187V96.2955H156.233C156.312 96.0795 156.456 95.9044 156.664 95.7699C156.873 95.6354 157.108 95.5682 157.369 95.5682C157.418 95.5682 157.48 95.5691 157.554 95.571C157.627 95.5729 157.683 95.5758 157.721 95.5795V96.2614C157.699 96.2557 157.646 96.2472 157.565 96.2358C157.485 96.2225 157.401 96.2159 157.312 96.2159C157.1 96.2159 156.911 96.2604 156.744 96.3494C156.579 96.4366 156.449 96.5578 156.352 96.7131C156.257 96.8665 156.21 97.0417 156.21 97.2386V100H155.539ZM160.156 100.091C159.747 100.091 159.395 99.9943 159.099 99.8011C158.804 99.608 158.576 99.3419 158.417 99.0028C158.258 98.6638 158.179 98.2765 158.179 97.8409C158.179 97.3977 158.26 97.0066 158.423 96.6676C158.588 96.3267 158.817 96.0606 159.11 95.8693C159.406 95.6761 159.751 95.5795 160.145 95.5795C160.451 95.5795 160.728 95.6364 160.974 95.75C161.22 95.8636 161.422 96.0227 161.579 96.2273C161.736 96.4318 161.834 96.6705 161.872 96.9432H161.201C161.15 96.7443 161.037 96.5682 160.86 96.4148C160.686 96.2595 160.451 96.1818 160.156 96.1818C159.895 96.1818 159.665 96.25 159.468 96.3864C159.273 96.5208 159.121 96.7112 159.011 96.9574C158.903 97.2017 158.849 97.4886 158.849 97.8182C158.849 98.1553 158.902 98.4489 159.008 98.6989C159.116 98.9489 159.268 99.143 159.463 99.2812C159.66 99.4195 159.891 99.4886 160.156 99.4886C160.33 99.4886 160.488 99.4583 160.63 99.3977C160.772 99.3371 160.893 99.25 160.991 99.1364C161.09 99.0227 161.16 98.8864 161.201 98.7273H161.872C161.834 98.9848 161.74 99.2169 161.591 99.4233C161.443 99.6278 161.247 99.7907 161.002 99.9119C160.76 100.031 160.478 100.091 160.156 100.091ZM164.625 100.091C164.231 100.091 163.885 99.9972 163.588 99.8097C163.292 99.6222 163.061 99.3598 162.895 99.0227C162.73 98.6856 162.647 98.2917 162.647 97.8409C162.647 97.3864 162.73 96.9896 162.895 96.6506C163.061 96.3116 163.292 96.0483 163.588 95.8608C163.885 95.6733 164.231 95.5795 164.625 95.5795C165.019 95.5795 165.363 95.6733 165.659 95.8608C165.956 96.0483 166.187 96.3116 166.352 96.6506C166.519 96.9896 166.602 97.3864 166.602 97.8409C166.602 98.2917 166.519 98.6856 166.352 99.0227C166.187 99.3598 165.956 99.6222 165.659 99.8097C165.363 99.9972 165.019 100.091 164.625 100.091ZM164.625 99.4886C164.924 99.4886 165.17 99.4119 165.363 99.2585C165.556 99.1051 165.699 98.9034 165.792 98.6534C165.885 98.4034 165.931 98.1326 165.931 97.8409C165.931 97.5492 165.885 97.2775 165.792 97.0256C165.699 96.7737 165.556 96.5701 165.363 96.4148C165.17 96.2595 164.924 96.1818 164.625 96.1818C164.325 96.1818 164.079 96.2595 163.886 96.4148C163.693 96.5701 163.55 96.7737 163.457 97.0256C163.364 97.2775 163.318 97.5492 163.318 97.8409C163.318 98.1326 163.364 98.4034 163.457 98.6534C163.55 98.9034 163.693 99.1051 163.886 99.2585C164.079 99.4119 164.325 99.4886 164.625 99.4886ZM168.296 94.1818V100H167.625V94.1818H168.296ZM171.353 100.091C170.933 100.091 170.57 99.9981 170.265 99.8125C169.962 99.625 169.728 99.3636 169.564 99.0284C169.401 98.6913 169.319 98.2992 169.319 97.8523C169.319 97.4053 169.401 97.0114 169.564 96.6705C169.728 96.3277 169.958 96.0606 170.251 95.8693C170.547 95.6761 170.891 95.5795 171.285 95.5795C171.512 95.5795 171.737 95.6174 171.958 95.6932C172.18 95.7689 172.382 95.892 172.564 96.0625C172.745 96.2311 172.89 96.4545 172.998 96.733C173.106 97.0114 173.16 97.3542 173.16 97.7614V98.0455H169.797V97.4659H172.478C172.478 97.2197 172.429 97 172.331 96.8068C172.234 96.6136 172.096 96.4612 171.916 96.3494C171.738 96.2377 171.528 96.1818 171.285 96.1818C171.018 96.1818 170.787 96.2481 170.592 96.3807C170.399 96.5114 170.25 96.6818 170.146 96.892C170.042 97.1023 169.99 97.3277 169.99 97.5682V97.9545C169.99 98.2841 170.047 98.5634 170.16 98.7926C170.276 99.0199 170.436 99.1932 170.64 99.3125C170.845 99.4299 171.083 99.4886 171.353 99.4886C171.529 99.4886 171.689 99.464 171.831 99.4148C171.975 99.3636 172.099 99.2879 172.203 99.1875C172.307 99.0852 172.387 98.9583 172.444 98.8068L173.092 98.9886C173.024 99.2083 172.909 99.4015 172.748 99.5682C172.587 99.733 172.388 99.8617 172.152 99.9545C171.915 100.045 171.649 100.091 171.353 100.091ZM177.271 96.6136L176.669 96.7841C176.631 96.6837 176.575 96.5862 176.501 96.4915C176.429 96.3949 176.331 96.3153 176.206 96.2528C176.081 96.1903 175.921 96.1591 175.725 96.1591C175.458 96.1591 175.236 96.2206 175.058 96.3438C174.882 96.465 174.794 96.6193 174.794 96.8068C174.794 96.9735 174.854 97.1051 174.975 97.2017C175.097 97.2983 175.286 97.3788 175.544 97.4432L176.191 97.6023C176.582 97.697 176.872 97.8419 177.064 98.0369C177.255 98.2301 177.35 98.4792 177.35 98.7841C177.35 99.0341 177.279 99.2576 177.135 99.4545C176.993 99.6515 176.794 99.8068 176.538 99.9205C176.282 100.034 175.985 100.091 175.646 100.091C175.201 100.091 174.833 99.9943 174.541 99.8011C174.249 99.608 174.065 99.3258 173.987 98.9545L174.623 98.7955C174.684 99.0303 174.798 99.2064 174.967 99.3239C175.137 99.4413 175.36 99.5 175.635 99.5C175.947 99.5 176.195 99.4337 176.379 99.3011C176.565 99.1667 176.657 99.0057 176.657 98.8182C176.657 98.6667 176.604 98.5398 176.498 98.4375C176.392 98.3333 176.229 98.2557 176.01 98.2045L175.282 98.0341C174.883 97.9394 174.589 97.7926 174.402 97.5938C174.216 97.393 174.123 97.142 174.123 96.8409C174.123 96.5947 174.192 96.3769 174.331 96.1875C174.471 95.9981 174.661 95.8494 174.902 95.7415C175.144 95.6335 175.419 95.5795 175.725 95.5795C176.157 95.5795 176.496 95.6742 176.743 95.8636C176.991 96.053 177.167 96.303 177.271 96.6136Z" fill="#616161"/>
<rect x="61.2998" y="107.184" width="45" height="10" rx="5" fill="#D9D9D9" fill-opacity="0.5" stroke="#CCCCCC"/>
<path d="M73.408 109.966H74.1126V114.125C74.1126 114.496 74.0444 114.812 73.908 115.071C73.7717 115.331 73.5794 115.528 73.3313 115.662C73.0832 115.797 72.7906 115.864 72.4535 115.864C72.1353 115.864 71.8522 115.806 71.6041 115.69C71.3559 115.573 71.1609 115.406 71.0188 115.19C70.8768 114.975 70.8058 114.718 70.8058 114.421H71.4989C71.4989 114.585 71.5397 114.729 71.6211 114.852C71.7044 114.974 71.8181 115.068 71.962 115.137C72.1059 115.205 72.2698 115.239 72.4535 115.239C72.6561 115.239 72.8285 115.196 72.9705 115.111C73.1126 115.026 73.2205 114.901 73.2944 114.736C73.3702 114.569 73.408 114.366 73.408 114.125V109.966ZM78.1836 114V111.421H78.8541V115.784H78.1836V115.046H78.1381C78.0359 115.267 77.8768 115.456 77.6609 115.611C77.445 115.764 77.1722 115.841 76.8427 115.841C76.57 115.841 76.3275 115.781 76.1154 115.662C75.9033 115.541 75.7366 115.359 75.6154 115.117C75.4942 114.872 75.4336 114.565 75.4336 114.193V111.421H76.1041V114.148C76.1041 114.466 76.1931 114.72 76.3711 114.909C76.551 115.099 76.7802 115.193 77.0586 115.193C77.2253 115.193 77.3948 115.151 77.5671 115.065C77.7414 114.98 77.8872 114.85 78.0046 114.673C78.1239 114.497 78.1836 114.273 78.1836 114ZM81.9116 115.875C81.4911 115.875 81.1284 115.782 80.8235 115.597C80.5205 115.409 80.2866 115.148 80.1218 114.813C79.9589 114.476 79.8775 114.083 79.8775 113.637C79.8775 113.19 79.9589 112.796 80.1218 112.455C80.2866 112.112 80.5157 111.845 80.8093 111.654C81.1048 111.46 81.4495 111.364 81.8434 111.364C82.0707 111.364 82.2951 111.402 82.5167 111.477C82.7383 111.553 82.94 111.676 83.1218 111.847C83.3036 112.015 83.4485 112.239 83.5565 112.517C83.6644 112.796 83.7184 113.138 83.7184 113.546V113.83H80.3548V113.25H83.0366C83.0366 113.004 82.9873 112.784 82.8889 112.591C82.7923 112.398 82.654 112.245 82.4741 112.134C82.2961 112.022 82.0858 111.966 81.8434 111.966C81.5764 111.966 81.3453 112.032 81.1502 112.165C80.957 112.296 80.8084 112.466 80.7042 112.676C80.6 112.887 80.5479 113.112 80.5479 113.352V113.739C80.5479 114.068 80.6048 114.348 80.7184 114.577C80.8339 114.804 80.994 114.977 81.1985 115.097C81.4031 115.214 81.6407 115.273 81.9116 115.273C82.0877 115.273 82.2468 115.248 82.3889 115.199C82.5328 115.148 82.6568 115.072 82.761 114.972C82.8652 114.869 82.9457 114.743 83.0025 114.591L83.6502 114.773C83.582 114.993 83.4675 115.186 83.3065 115.352C83.1455 115.517 82.9466 115.646 82.7099 115.739C82.4731 115.83 82.207 115.875 81.9116 115.875ZM88.1737 111.421L86.56 115.784H85.8782L84.2646 111.421H84.9918L86.1964 114.898H86.2418L87.4464 111.421H88.1737ZM90.7319 115.875C90.3114 115.875 89.9488 115.782 89.6438 115.597C89.3408 115.409 89.1069 115.148 88.9421 114.813C88.7792 114.476 88.6978 114.083 88.6978 113.637C88.6978 113.19 88.7792 112.796 88.9421 112.455C89.1069 112.112 89.3361 111.845 89.6296 111.654C89.9251 111.46 90.2698 111.364 90.6637 111.364C90.891 111.364 91.1154 111.402 91.337 111.477C91.5586 111.553 91.7603 111.676 91.9421 111.847C92.1239 112.015 92.2688 112.239 92.3768 112.517C92.4847 112.796 92.5387 113.138 92.5387 113.546V113.83H89.1751V113.25H91.8569C91.8569 113.004 91.8077 112.784 91.7092 112.591C91.6126 112.398 91.4743 112.245 91.2944 112.134C91.1164 112.022 90.9061 111.966 90.6637 111.966C90.3967 111.966 90.1656 112.032 89.9705 112.165C89.7773 112.296 89.6287 112.466 89.5245 112.676C89.4203 112.887 89.3683 113.112 89.3683 113.352V113.739C89.3683 114.068 89.4251 114.348 89.5387 114.577C89.6542 114.804 89.8143 114.977 90.0188 115.097C90.2234 115.214 90.4611 115.273 90.7319 115.273C90.908 115.273 91.0671 115.248 91.2092 115.199C91.3531 115.148 91.4772 115.072 91.5813 114.972C91.6855 114.869 91.766 114.743 91.8228 114.591L92.4705 114.773C92.4023 114.993 92.2878 115.186 92.1268 115.352C91.9658 115.517 91.7669 115.646 91.5302 115.739C91.2934 115.83 91.0273 115.875 90.7319 115.875ZM96.6495 112.398L96.0472 112.568C96.0094 112.468 95.9535 112.37 95.8796 112.276C95.8077 112.179 95.7092 112.1 95.5842 112.037C95.4592 111.975 95.2991 111.943 95.1041 111.943C94.837 111.943 94.6145 112.005 94.4364 112.128C94.2603 112.249 94.1722 112.404 94.1722 112.591C94.1722 112.758 94.2328 112.889 94.3541 112.986C94.4753 113.083 94.6647 113.163 94.9222 113.227L95.57 113.387C95.9601 113.481 96.2508 113.626 96.4421 113.821C96.6334 114.014 96.7291 114.263 96.7291 114.568C96.7291 114.818 96.6571 115.042 96.5131 115.239C96.3711 115.436 96.1722 115.591 95.9166 115.705C95.6609 115.818 95.3635 115.875 95.0245 115.875C94.5794 115.875 94.2111 115.779 93.9194 115.585C93.6277 115.392 93.4431 115.11 93.3654 114.739L94.0018 114.58C94.0624 114.815 94.177 114.991 94.3455 115.108C94.516 115.226 94.7385 115.284 95.0131 115.284C95.3256 115.284 95.5738 115.218 95.7575 115.085C95.9431 114.951 96.0359 114.79 96.0359 114.602C96.0359 114.451 95.9828 114.324 95.8768 114.222C95.7707 114.118 95.6078 114.04 95.3881 113.989L94.6609 113.818C94.2613 113.724 93.9677 113.577 93.7802 113.378C93.5946 113.177 93.5018 112.926 93.5018 112.625C93.5018 112.379 93.5709 112.161 93.7092 111.972C93.8493 111.782 94.0397 111.634 94.2802 111.526C94.5226 111.418 94.7972 111.364 95.1041 111.364C95.5359 111.364 95.8749 111.458 96.1211 111.648C96.3692 111.837 96.5453 112.087 96.6495 112.398Z" fill="#D9D9D9"/>
<rect x="112.75" y="107.184" width="45" height="10" rx="5" stroke="#C7D200"/>
<path d="M122.217 110.182L123.944 115.08H124.012L125.739 110.182H126.478L124.342 116H123.614L121.478 110.182H122.217ZM127.293 116V111.636H127.964V116H127.293ZM127.634 110.909C127.504 110.909 127.391 110.865 127.296 110.776C127.203 110.687 127.157 110.58 127.157 110.455C127.157 110.33 127.203 110.223 127.296 110.134C127.391 110.045 127.504 110 127.634 110C127.765 110 127.877 110.045 127.969 110.134C128.064 110.223 128.112 110.33 128.112 110.455C128.112 110.58 128.064 110.687 127.969 110.776C127.877 110.865 127.765 110.909 127.634 110.909ZM131.021 116.091C130.601 116.091 130.238 115.998 129.933 115.812C129.63 115.625 129.396 115.364 129.232 115.028C129.069 114.691 128.987 114.299 128.987 113.852C128.987 113.405 129.069 113.011 129.232 112.67C129.396 112.328 129.625 112.061 129.919 111.869C130.214 111.676 130.559 111.58 130.953 111.58C131.18 111.58 131.405 111.617 131.626 111.693C131.848 111.769 132.05 111.892 132.232 112.062C132.413 112.231 132.558 112.455 132.666 112.733C132.774 113.011 132.828 113.354 132.828 113.761V114.045H129.464V113.466H132.146C132.146 113.22 132.097 113 131.999 112.807C131.902 112.614 131.764 112.461 131.584 112.349C131.406 112.238 131.196 112.182 130.953 112.182C130.686 112.182 130.455 112.248 130.26 112.381C130.067 112.511 129.918 112.682 129.814 112.892C129.71 113.102 129.658 113.328 129.658 113.568V113.955C129.658 114.284 129.714 114.563 129.828 114.793C129.944 115.02 130.104 115.193 130.308 115.312C130.513 115.43 130.75 115.489 131.021 115.489C131.197 115.489 131.357 115.464 131.499 115.415C131.643 115.364 131.767 115.288 131.871 115.188C131.975 115.085 132.055 114.958 132.112 114.807L132.76 114.989C132.692 115.208 132.577 115.402 132.416 115.568C132.255 115.733 132.056 115.862 131.82 115.955C131.583 116.045 131.317 116.091 131.021 116.091ZM133.848 116V111.636H134.496V112.295H134.541C134.621 112.08 134.765 111.904 134.973 111.77C135.181 111.635 135.416 111.568 135.678 111.568C135.727 111.568 135.788 111.569 135.862 111.571C135.936 111.573 135.992 111.576 136.03 111.58V112.261C136.007 112.256 135.955 112.247 135.874 112.236C135.794 112.223 135.71 112.216 135.621 112.216C135.409 112.216 135.219 112.26 135.053 112.349C134.888 112.437 134.757 112.558 134.661 112.713C134.566 112.866 134.518 113.042 134.518 113.239V116H133.848ZM137.495 113.375V116H136.825V111.636H137.472V112.318H137.529C137.631 112.097 137.787 111.919 137.995 111.784C138.203 111.648 138.472 111.58 138.802 111.58C139.097 111.58 139.356 111.64 139.577 111.761C139.799 111.881 139.971 112.062 140.094 112.307C140.218 112.549 140.279 112.856 140.279 113.227V116H139.609V113.273C139.609 112.93 139.52 112.663 139.342 112.472C139.164 112.278 138.919 112.182 138.609 112.182C138.395 112.182 138.203 112.228 138.035 112.321C137.868 112.414 137.737 112.549 137.64 112.727C137.543 112.905 137.495 113.121 137.495 113.375ZM143.334 116.091C142.913 116.091 142.551 115.998 142.246 115.812C141.943 115.625 141.709 115.364 141.544 115.028C141.381 114.691 141.3 114.299 141.3 113.852C141.3 113.405 141.381 113.011 141.544 112.67C141.709 112.328 141.938 112.061 142.232 111.869C142.527 111.676 142.872 111.58 143.266 111.58C143.493 111.58 143.717 111.617 143.939 111.693C144.161 111.769 144.362 111.892 144.544 112.062C144.726 112.231 144.871 112.455 144.979 112.733C145.087 113.011 145.141 113.354 145.141 113.761V114.045H141.777V113.466H144.459C144.459 113.22 144.41 113 144.311 112.807C144.214 112.614 144.076 112.461 143.896 112.349C143.718 112.238 143.508 112.182 143.266 112.182C142.999 112.182 142.768 112.248 142.572 112.381C142.379 112.511 142.231 112.682 142.126 112.892C142.022 113.102 141.97 113.328 141.97 113.568V113.955C141.97 114.284 142.027 114.563 142.141 114.793C142.256 115.02 142.416 115.193 142.621 115.312C142.825 115.43 143.063 115.489 143.334 115.489C143.51 115.489 143.669 115.464 143.811 115.415C143.955 115.364 144.079 115.288 144.183 115.188C144.287 115.085 144.368 114.958 144.425 114.807L145.072 114.989C145.004 115.208 144.89 115.402 144.729 115.568C144.568 115.733 144.369 115.862 144.132 115.955C143.895 116.045 143.629 116.091 143.334 116.091ZM149.251 112.614L148.649 112.784C148.611 112.684 148.555 112.586 148.482 112.491C148.41 112.395 148.311 112.315 148.186 112.253C148.061 112.19 147.901 112.159 147.706 112.159C147.439 112.159 147.216 112.221 147.038 112.344C146.862 112.465 146.774 112.619 146.774 112.807C146.774 112.973 146.835 113.105 146.956 113.202C147.077 113.298 147.267 113.379 147.524 113.443L148.172 113.602C148.562 113.697 148.853 113.842 149.044 114.037C149.235 114.23 149.331 114.479 149.331 114.784C149.331 115.034 149.259 115.258 149.115 115.455C148.973 115.652 148.774 115.807 148.518 115.92C148.263 116.034 147.965 116.091 147.626 116.091C147.181 116.091 146.813 115.994 146.521 115.801C146.23 115.608 146.045 115.326 145.967 114.955L146.604 114.795C146.664 115.03 146.779 115.206 146.947 115.324C147.118 115.441 147.34 115.5 147.615 115.5C147.928 115.5 148.176 115.434 148.359 115.301C148.545 115.167 148.638 115.006 148.638 114.818C148.638 114.667 148.585 114.54 148.479 114.438C148.373 114.333 148.21 114.256 147.99 114.205L147.263 114.034C146.863 113.939 146.57 113.793 146.382 113.594C146.196 113.393 146.104 113.142 146.104 112.841C146.104 112.595 146.173 112.377 146.311 112.188C146.451 111.998 146.642 111.849 146.882 111.741C147.125 111.634 147.399 111.58 147.706 111.58C148.138 111.58 148.477 111.674 148.723 111.864C148.971 112.053 149.147 112.303 149.251 112.614Z" fill="#616161"/>
<path d="M29.7898 77H27.2V69H29.8719C30.6557 69 31.3289 69.1602 31.8914 69.4805C32.4539 69.7982 32.8849 70.2552 33.1844 70.8516C33.4865 71.4453 33.6375 72.1576 33.6375 72.9883C33.6375 73.8216 33.4852 74.5378 33.1805 75.1367C32.8784 75.7357 32.4409 76.1966 31.868 76.5195C31.295 76.8398 30.6023 77 29.7898 77ZM28.407 75.9453H29.7234C30.3328 75.9453 30.8393 75.8307 31.243 75.6016C31.6466 75.3698 31.9487 75.0352 32.1492 74.5977C32.3497 74.1576 32.45 73.6211 32.45 72.9883C32.45 72.3607 32.3497 71.8281 32.1492 71.3906C31.9513 70.9531 31.6557 70.6211 31.2625 70.3945C30.8693 70.168 30.381 70.0547 29.7977 70.0547H28.407V75.9453ZM35.0447 77V71H36.2127V77H35.0447ZM35.6346 70.0742C35.4314 70.0742 35.257 70.0065 35.1111 69.8711C34.9679 69.7331 34.8963 69.569 34.8963 69.3789C34.8963 69.1862 34.9679 69.0221 35.1111 68.8867C35.257 68.7487 35.4314 68.6797 35.6346 68.6797C35.8377 68.6797 36.0109 68.7487 36.1541 68.8867C36.2999 69.0221 36.3728 69.1862 36.3728 69.3789C36.3728 69.569 36.2999 69.7331 36.1541 69.8711C36.0109 70.0065 35.8377 70.0742 35.6346 70.0742ZM42.2801 72.4648L41.2215 72.6523C41.1772 72.5169 41.1069 72.388 41.0105 72.2656C40.9168 72.1432 40.7892 72.043 40.6277 71.9648C40.4663 71.8867 40.2645 71.8477 40.0223 71.8477C39.6915 71.8477 39.4155 71.9219 39.1941 72.0703C38.9728 72.2161 38.8621 72.4049 38.8621 72.6367C38.8621 72.8372 38.9363 72.9987 39.0848 73.1211C39.2332 73.2435 39.4728 73.3437 39.8035 73.4219L40.7566 73.6406C41.3087 73.7682 41.7202 73.9648 41.991 74.2305C42.2618 74.4961 42.3973 74.8411 42.3973 75.2656C42.3973 75.625 42.2931 75.9453 42.0848 76.2266C41.879 76.5052 41.5913 76.724 41.2215 76.8828C40.8543 77.0417 40.4285 77.1211 39.9441 77.1211C39.2723 77.1211 38.7241 76.9779 38.2996 76.6914C37.8751 76.4023 37.6147 75.9922 37.5184 75.4609L38.6473 75.2891C38.7176 75.5833 38.8621 75.806 39.0809 75.957C39.2996 76.1055 39.5848 76.1797 39.9363 76.1797C40.3191 76.1797 40.6251 76.1003 40.8543 75.9414C41.0835 75.7799 41.198 75.5833 41.198 75.3516C41.198 75.1641 41.1277 75.0065 40.9871 74.8789C40.8491 74.7513 40.6368 74.6549 40.3504 74.5898L39.3348 74.3672C38.7749 74.2396 38.3608 74.0365 38.0926 73.7578C37.827 73.4792 37.6941 73.1263 37.6941 72.6992C37.6941 72.3451 37.7931 72.0352 37.991 71.7695C38.1889 71.5039 38.4624 71.2969 38.8113 71.1484C39.1603 70.9974 39.56 70.9219 40.0105 70.9219C40.659 70.9219 41.1694 71.0625 41.5418 71.3437C41.9142 71.6224 42.1603 71.9961 42.2801 72.4648ZM43.6814 79.25V71H44.8221V71.9727H44.9197C44.9874 71.8477 45.0851 71.7031 45.2127 71.5391C45.3403 71.375 45.5174 71.2318 45.7439 71.1094C45.9705 70.9844 46.27 70.9219 46.6424 70.9219C47.1268 70.9219 47.559 71.0443 47.9393 71.2891C48.3195 71.5339 48.6176 71.8867 48.8338 72.3477C49.0525 72.8086 49.1619 73.3633 49.1619 74.0117C49.1619 74.6602 49.0538 75.2161 48.8377 75.6797C48.6215 76.1406 48.3247 76.4961 47.9471 76.7461C47.5695 76.9935 47.1385 77.1172 46.6541 77.1172C46.2895 77.1172 45.9913 77.056 45.7596 76.9336C45.5304 76.8112 45.3507 76.668 45.2205 76.5039C45.0903 76.3398 44.99 76.194 44.9197 76.0664H44.8494V79.25H43.6814ZM44.826 74C44.826 74.4219 44.8872 74.7917 45.0096 75.1094C45.132 75.4271 45.309 75.6758 45.5408 75.8555C45.7726 76.0326 46.0564 76.1211 46.3924 76.1211C46.7413 76.1211 47.033 76.0286 47.2674 75.8437C47.5018 75.6562 47.6788 75.4023 47.7986 75.082C47.921 74.7617 47.9822 74.401 47.9822 74C47.9822 73.6042 47.9223 73.2487 47.8025 72.9336C47.6853 72.6185 47.5083 72.3698 47.2713 72.1875C47.0369 72.0052 46.7439 71.9141 46.3924 71.9141C46.0538 71.9141 45.7674 72.0013 45.533 72.1758C45.3012 72.3503 45.1255 72.5937 45.0057 72.9062C44.8859 73.2187 44.826 73.5833 44.826 74ZM52.9978 77.1211C52.4353 77.1211 51.9445 76.9922 51.5252 76.7344C51.1059 76.4766 50.7804 76.1159 50.5486 75.6523C50.3169 75.1888 50.201 74.6471 50.201 74.0273C50.201 73.4049 50.3169 72.8607 50.5486 72.3945C50.7804 71.9284 51.1059 71.5664 51.5252 71.3086C51.9445 71.0508 52.4353 70.9219 52.9978 70.9219C53.5603 70.9219 54.0512 71.0508 54.4705 71.3086C54.8898 71.5664 55.2153 71.9284 55.4471 72.3945C55.6788 72.8607 55.7947 73.4049 55.7947 74.0273C55.7947 74.6471 55.6788 75.1888 55.4471 75.6523C55.2153 76.1159 54.8898 76.4766 54.4705 76.7344C54.0512 76.9922 53.5603 77.1211 52.9978 77.1211ZM53.0018 76.1406C53.3663 76.1406 53.6684 76.0443 53.908 75.8516C54.1476 75.6589 54.3247 75.4023 54.4393 75.082C54.5564 74.7617 54.615 74.4089 54.615 74.0234C54.615 73.6406 54.5564 73.2891 54.4393 72.9687C54.3247 72.6458 54.1476 72.3867 53.908 72.1914C53.6684 71.9961 53.3663 71.8984 53.0018 71.8984C52.6346 71.8984 52.3299 71.9961 52.0877 72.1914C51.8481 72.3867 51.6697 72.6458 51.5525 72.9687C51.438 73.2891 51.3807 73.6406 51.3807 74.0234C51.3807 74.4089 51.438 74.7617 51.5525 75.082C51.6697 75.4023 51.8481 75.6589 52.0877 75.8516C52.3299 76.0443 52.6346 76.1406 53.0018 76.1406ZM58.2664 73.4375V77H57.0984V71H58.2195V71.9766H58.2937C58.4318 71.6589 58.6479 71.4036 58.9422 71.2109C59.2391 71.0182 59.6128 70.9219 60.0633 70.9219C60.4721 70.9219 60.8302 71.0078 61.1375 71.1797C61.4448 71.349 61.6831 71.6016 61.8523 71.9375C62.0216 72.2734 62.1062 72.6888 62.1062 73.1836V77H60.9383V73.3242C60.9383 72.8893 60.825 72.5495 60.5984 72.3047C60.3719 72.0573 60.0607 71.9336 59.6648 71.9336C59.394 71.9336 59.1531 71.9922 58.9422 72.1094C58.7339 72.2266 58.5685 72.3984 58.4461 72.625C58.3263 72.849 58.2664 73.1198 58.2664 73.4375ZM63.6727 77V71H64.8406V77H63.6727ZM64.2625 70.0742C64.0594 70.0742 63.8849 70.0065 63.7391 69.8711C63.5958 69.7331 63.5242 69.569 63.5242 69.3789C63.5242 69.1862 63.5958 69.0221 63.7391 68.8867C63.8849 68.7487 64.0594 68.6797 64.2625 68.6797C64.4656 68.6797 64.6388 68.7487 64.782 68.8867C64.9279 69.0221 65.0008 69.1862 65.0008 69.3789C65.0008 69.569 64.9279 69.7331 64.782 69.8711C64.6388 70.0065 64.4656 70.0742 64.2625 70.0742ZM66.5057 77V69H67.6736V71.9727H67.7439C67.8117 71.8477 67.9093 71.7031 68.0369 71.5391C68.1645 71.375 68.3416 71.2318 68.5682 71.1094C68.7947 70.9844 69.0942 70.9219 69.4666 70.9219C69.951 70.9219 70.3833 71.0443 70.7635 71.2891C71.1437 71.5339 71.4419 71.8867 71.658 72.3477C71.8768 72.8086 71.9861 73.3633 71.9861 74.0117C71.9861 74.6602 71.8781 75.2161 71.6619 75.6797C71.4458 76.1406 71.1489 76.4961 70.7713 76.7461C70.3937 76.9935 69.9627 77.1172 69.4783 77.1172C69.1137 77.1172 68.8156 77.056 68.5838 76.9336C68.3546 76.8112 68.1749 76.668 68.0447 76.5039C67.9145 76.3398 67.8143 76.194 67.7439 76.0664H67.6463V77H66.5057ZM67.6502 74C67.6502 74.4219 67.7114 74.7917 67.8338 75.1094C67.9562 75.4271 68.1333 75.6758 68.365 75.8555C68.5968 76.0326 68.8807 76.1211 69.2166 76.1211C69.5656 76.1211 69.8572 76.0286 70.0916 75.8437C70.326 75.6562 70.5031 75.4023 70.6228 75.082C70.7452 74.7617 70.8064 74.401 70.8064 74C70.8064 73.6042 70.7465 73.2487 70.6268 72.9336C70.5096 72.6185 70.3325 72.3698 70.0955 72.1875C69.8611 72.0052 69.5682 71.9141 69.2166 71.9141C68.8781 71.9141 68.5916 72.0013 68.3572 72.1758C68.1255 72.3503 67.9497 72.5937 67.8299 72.9062C67.7101 73.2187 67.6502 73.5833 67.6502 74ZM73.2977 77V71H74.4656V77H73.2977ZM73.8875 70.0742C73.6844 70.0742 73.5099 70.0065 73.3641 69.8711C73.2208 69.7331 73.1492 69.569 73.1492 69.3789C73.1492 69.1862 73.2208 69.0221 73.3641 68.8867C73.5099 68.7487 73.6844 68.6797 73.8875 68.6797C74.0906 68.6797 74.2638 68.7487 74.407 68.8867C74.5529 69.0221 74.6258 69.1862 74.6258 69.3789C74.6258 69.569 74.5529 69.7331 74.407 69.8711C74.2638 70.0065 74.0906 70.0742 73.8875 70.0742ZM77.2049 69V77H76.0369V69H77.2049ZM78.7762 77V71H79.9441V77H78.7762ZM79.366 70.0742C79.1629 70.0742 78.9884 70.0065 78.8426 69.8711C78.6993 69.7331 78.6277 69.569 78.6277 69.3789C78.6277 69.1862 78.6993 69.0221 78.8426 68.8867C78.9884 68.7487 79.1629 68.6797 79.366 68.6797C79.5691 68.6797 79.7423 68.7487 79.8855 68.8867C80.0314 69.0221 80.1043 69.1862 80.1043 69.3789C80.1043 69.569 80.0314 69.7331 79.8855 69.8711C79.7423 70.0065 79.5691 70.0742 79.366 70.0742ZM83.7615 77.1172C83.2771 77.1172 82.8449 76.9935 82.4646 76.7461C82.087 76.4961 81.7902 76.1406 81.574 75.6797C81.3605 75.2161 81.2537 74.6602 81.2537 74.0117C81.2537 73.3633 81.3618 72.8086 81.5779 72.3477C81.7967 71.8867 82.0962 71.5339 82.4764 71.2891C82.8566 71.0443 83.2876 70.9219 83.7693 70.9219C84.1417 70.9219 84.4412 70.9844 84.6678 71.1094C84.8969 71.2318 85.074 71.375 85.199 71.5391C85.3266 71.7031 85.4256 71.8477 85.4959 71.9727H85.5662V69H86.7342V77H85.5936V76.0664H85.4959C85.4256 76.194 85.324 76.3398 85.1912 76.5039C85.061 76.668 84.8813 76.8112 84.6521 76.9336C84.423 77.056 84.1261 77.1172 83.7615 77.1172ZM84.0193 76.1211C84.3553 76.1211 84.6391 76.0326 84.8709 75.8555C85.1053 75.6758 85.2824 75.4271 85.4021 75.1094C85.5245 74.7917 85.5857 74.4219 85.5857 74C85.5857 73.5833 85.5258 73.2187 85.4061 72.9062C85.2863 72.5937 85.1105 72.3503 84.8787 72.1758C84.6469 72.0013 84.3605 71.9141 84.0193 71.9141C83.6678 71.9141 83.3748 72.0052 83.1404 72.1875C82.9061 72.3698 82.729 72.6185 82.6092 72.9336C82.492 73.2487 82.4334 73.6042 82.4334 74C82.4334 74.401 82.4933 74.7617 82.6131 75.082C82.7329 75.4023 82.91 75.6562 83.1443 75.8437C83.3813 76.0286 83.673 76.1211 84.0193 76.1211ZM90.1473 77.1328C89.7671 77.1328 89.4233 77.0625 89.116 76.9219C88.8087 76.7786 88.5652 76.5716 88.3855 76.3008C88.2085 76.0299 88.1199 75.6979 88.1199 75.3047C88.1199 74.9661 88.185 74.6875 88.3152 74.4687C88.4454 74.25 88.6212 74.0768 88.8426 73.9492C89.0639 73.8216 89.3113 73.7253 89.5848 73.6602C89.8582 73.5951 90.1368 73.5456 90.4207 73.5117C90.7801 73.4701 91.0717 73.4362 91.2957 73.4102C91.5197 73.3815 91.6824 73.3359 91.784 73.2734C91.8855 73.2109 91.9363 73.1094 91.9363 72.9687V72.9414C91.9363 72.6003 91.84 72.3359 91.6473 72.1484C91.4572 71.9609 91.1733 71.8672 90.7957 71.8672C90.4025 71.8672 90.0926 71.9544 89.866 72.1289C89.6421 72.3008 89.4871 72.4922 89.4012 72.7031L88.3035 72.4531C88.4337 72.0885 88.6238 71.7943 88.8738 71.5703C89.1264 71.3437 89.4168 71.1797 89.7449 71.0781C90.073 70.974 90.4181 70.9219 90.7801 70.9219C91.0197 70.9219 91.2736 70.9505 91.5418 71.0078C91.8126 71.0625 92.0652 71.1641 92.2996 71.3125C92.5366 71.4609 92.7306 71.6732 92.8816 71.9492C93.0327 72.2227 93.1082 72.5781 93.1082 73.0156V77H91.9676V76.1797H91.9207C91.8452 76.3307 91.7319 76.4792 91.5809 76.625C91.4298 76.7708 91.2358 76.8919 90.9988 76.9883C90.7618 77.0846 90.478 77.1328 90.1473 77.1328ZM90.4012 76.1953C90.7241 76.1953 91.0001 76.1315 91.2293 76.0039C91.4611 75.8763 91.6368 75.7096 91.7566 75.5039C91.879 75.2956 91.9402 75.0729 91.9402 74.8359V74.0625C91.8986 74.1042 91.8178 74.1432 91.698 74.1797C91.5809 74.2135 91.4467 74.2435 91.2957 74.2695C91.1447 74.293 90.9975 74.3151 90.8543 74.3359C90.7111 74.3542 90.5913 74.3698 90.4949 74.3828C90.2684 74.4115 90.0613 74.4596 89.8738 74.5273C89.6889 74.5951 89.5405 74.6927 89.4285 74.8203C89.3191 74.9453 89.2645 75.112 89.2645 75.3203C89.2645 75.6094 89.3712 75.8281 89.5848 75.9766C89.7983 76.1224 90.0704 76.1953 90.4012 76.1953ZM96.91 77.1172C96.4256 77.1172 95.9933 76.9935 95.6131 76.7461C95.2355 76.4961 94.9386 76.1406 94.7225 75.6797C94.5089 75.2161 94.4021 74.6602 94.4021 74.0117C94.4021 73.3633 94.5102 72.8086 94.7264 72.3477C94.9451 71.8867 95.2446 71.5339 95.6248 71.2891C96.005 71.0443 96.436 70.9219 96.9178 70.9219C97.2902 70.9219 97.5896 70.9844 97.8162 71.1094C98.0454 71.2318 98.2225 71.375 98.3475 71.5391C98.4751 71.7031 98.574 71.8477 98.6443 71.9727H98.7146V69H99.8826V77H98.742V76.0664H98.6443C98.574 76.194 98.4725 76.3398 98.3396 76.5039C98.2094 76.668 98.0297 76.8112 97.8006 76.9336C97.5714 77.056 97.2745 77.1172 96.91 77.1172ZM97.1678 76.1211C97.5037 76.1211 97.7876 76.0326 98.0193 75.8555C98.2537 75.6758 98.4308 75.4271 98.5506 75.1094C98.673 74.7917 98.7342 74.4219 98.7342 74C98.7342 73.5833 98.6743 73.2187 98.5545 72.9062C98.4347 72.5937 98.2589 72.3503 98.0271 72.1758C97.7954 72.0013 97.5089 71.9141 97.1678 71.9141C96.8162 71.9141 96.5232 72.0052 96.2889 72.1875C96.0545 72.3698 95.8774 72.6185 95.7576 72.9336C95.6404 73.2487 95.5818 73.6042 95.5818 74C95.5818 74.401 95.6417 74.7617 95.7615 75.082C95.8813 75.4023 96.0584 75.6562 96.2928 75.8437C96.5297 76.0286 96.8214 76.1211 97.1678 76.1211ZM102.319 77.0742C102.106 77.0742 101.922 76.9987 101.768 76.8477C101.615 76.694 101.538 76.5091 101.538 76.293C101.538 76.0794 101.615 75.8971 101.768 75.7461C101.922 75.5924 102.106 75.5156 102.319 75.5156C102.533 75.5156 102.716 75.5924 102.87 75.7461C103.024 75.8971 103.1 76.0794 103.1 76.293C103.1 76.4362 103.064 76.5677 102.991 76.6875C102.921 76.8047 102.827 76.8984 102.71 76.9687C102.593 77.0391 102.462 77.0742 102.319 77.0742ZM102.319 72.707C102.106 72.707 101.922 72.6302 101.768 72.4766C101.615 72.3229 101.538 72.1393 101.538 71.9258C101.538 71.7122 101.615 71.5299 101.768 71.3789C101.922 71.2253 102.106 71.1484 102.319 71.1484C102.533 71.1484 102.716 71.2253 102.87 71.3789C103.024 71.5299 103.1 71.7122 103.1 71.9258C103.1 72.069 103.064 72.2005 102.991 72.3203C102.921 72.4375 102.827 72.5312 102.71 72.6016C102.593 72.6719 102.462 72.707 102.319 72.707Z" fill="#616161"/>
<path d="M32.7618 139.602H31.5431C31.4962 139.341 31.409 139.112 31.2813 138.914C31.1537 138.716 30.9975 138.548 30.8126 138.41C30.6277 138.272 30.4207 138.168 30.1915 138.098C29.9649 138.027 29.7241 137.992 29.4688 137.992C29.0079 137.992 28.5952 138.108 28.2306 138.34C27.8686 138.572 27.5821 138.911 27.3712 139.359C27.1629 139.807 27.0587 140.354 27.0587 141C27.0587 141.651 27.1629 142.201 27.3712 142.648C27.5821 143.096 27.8699 143.435 28.2345 143.664C28.5991 143.893 29.0092 144.008 29.4649 144.008C29.7175 144.008 29.9571 143.974 30.1837 143.906C30.4129 143.836 30.6199 143.733 30.8048 143.598C30.9897 143.462 31.1459 143.297 31.2735 143.102C31.4037 142.904 31.4936 142.677 31.5431 142.422L32.7618 142.426C32.6967 142.819 32.5704 143.181 32.3829 143.512C32.198 143.84 31.9597 144.124 31.6681 144.363C31.379 144.6 31.0483 144.784 30.6759 144.914C30.3035 145.044 29.8972 145.109 29.4571 145.109C28.7644 145.109 28.1472 144.945 27.6056 144.617C27.0639 144.286 26.6368 143.814 26.3243 143.199C26.0144 142.585 25.8595 141.852 25.8595 141C25.8595 140.146 26.0157 139.413 26.3282 138.801C26.6407 138.186 27.0678 137.715 27.6095 137.387C28.1511 137.056 28.767 136.891 29.4571 136.891C29.8816 136.891 30.2774 136.952 30.6446 137.074C31.0144 137.194 31.3465 137.371 31.6407 137.605C31.935 137.837 32.1785 138.121 32.3712 138.457C32.5639 138.79 32.6941 139.172 32.7618 139.602ZM36.6397 145.121C36.0772 145.121 35.5864 144.992 35.1671 144.734C34.7478 144.477 34.4223 144.116 34.1905 143.652C33.9588 143.189 33.8429 142.647 33.8429 142.027C33.8429 141.405 33.9588 140.861 34.1905 140.395C34.4223 139.928 34.7478 139.566 35.1671 139.309C35.5864 139.051 36.0772 138.922 36.6397 138.922C37.2022 138.922 37.6931 139.051 38.1124 139.309C38.5317 139.566 38.8572 139.928 39.089 140.395C39.3207 140.861 39.4366 141.405 39.4366 142.027C39.4366 142.647 39.3207 143.189 39.089 143.652C38.8572 144.116 38.5317 144.477 38.1124 144.734C37.6931 144.992 37.2022 145.121 36.6397 145.121ZM36.6437 144.141C37.0082 144.141 37.3103 144.044 37.5499 143.852C37.7895 143.659 37.9666 143.402 38.0812 143.082C38.1983 142.762 38.2569 142.409 38.2569 142.023C38.2569 141.641 38.1983 141.289 38.0812 140.969C37.9666 140.646 37.7895 140.387 37.5499 140.191C37.3103 139.996 37.0082 139.898 36.6437 139.898C36.2765 139.898 35.9718 139.996 35.7296 140.191C35.49 140.387 35.3116 140.646 35.1944 140.969C35.0799 141.289 35.0226 141.641 35.0226 142.023C35.0226 142.409 35.0799 142.762 35.1944 143.082C35.3116 143.402 35.49 143.659 35.7296 143.852C35.9718 144.044 36.2765 144.141 36.6437 144.141ZM36.1593 138.199L37.0733 136.398H38.3038L37.0929 138.199H36.1593ZM42.9864 145.117C42.5021 145.117 42.0698 144.993 41.6896 144.746C41.3119 144.496 41.0151 144.141 40.7989 143.68C40.5854 143.216 40.4786 142.66 40.4786 142.012C40.4786 141.363 40.5867 140.809 40.8028 140.348C41.0216 139.887 41.3211 139.534 41.7013 139.289C42.0815 139.044 42.5125 138.922 42.9942 138.922C43.3666 138.922 43.6661 138.984 43.8927 139.109C44.1218 139.232 44.2989 139.375 44.4239 139.539C44.5515 139.703 44.6505 139.848 44.7208 139.973H44.7911V137H45.9591V145H44.8185V144.066H44.7208C44.6505 144.194 44.5489 144.34 44.4161 144.504C44.2859 144.668 44.1062 144.811 43.8771 144.934C43.6479 145.056 43.351 145.117 42.9864 145.117ZM43.2442 144.121C43.5802 144.121 43.864 144.033 44.0958 143.855C44.3302 143.676 44.5073 143.427 44.6271 143.109C44.7494 142.792 44.8106 142.422 44.8106 142C44.8106 141.583 44.7508 141.219 44.631 140.906C44.5112 140.594 44.3354 140.35 44.1036 140.176C43.8718 140.001 43.5854 139.914 43.2442 139.914C42.8927 139.914 42.5997 140.005 42.3653 140.188C42.131 140.37 41.9539 140.618 41.8341 140.934C41.7169 141.249 41.6583 141.604 41.6583 142C41.6583 142.401 41.7182 142.762 41.838 143.082C41.9578 143.402 42.1349 143.656 42.3692 143.844C42.6062 144.029 42.8979 144.121 43.2442 144.121ZM47.6261 145V139H48.794V145H47.6261ZM48.2159 138.074C48.0128 138.074 47.8383 138.007 47.6925 137.871C47.5493 137.733 47.4776 137.569 47.4776 137.379C47.4776 137.186 47.5493 137.022 47.6925 136.887C47.8383 136.749 48.0128 136.68 48.2159 136.68C48.419 136.68 48.5922 136.749 48.7355 136.887C48.8813 137.022 48.9542 137.186 48.9542 137.379C48.9542 137.569 48.8813 137.733 48.7355 137.871C48.5922 138.007 48.419 138.074 48.2159 138.074ZM52.881 147.375C52.4044 147.375 51.9942 147.313 51.6505 147.188C51.3093 147.063 51.0307 146.897 50.8146 146.691C50.5984 146.486 50.4369 146.26 50.3302 146.016L51.3341 145.602C51.4044 145.716 51.4981 145.837 51.6153 145.965C51.7351 146.095 51.8966 146.206 52.0997 146.297C52.3054 146.388 52.5698 146.434 52.8927 146.434C53.3354 146.434 53.7013 146.326 53.9903 146.109C54.2794 145.896 54.4239 145.555 54.4239 145.086V143.906H54.3497C54.2794 144.034 54.1778 144.176 54.045 144.332C53.9148 144.488 53.7351 144.624 53.506 144.738C53.2768 144.853 52.9786 144.91 52.6114 144.91C52.1375 144.91 51.7104 144.799 51.3302 144.578C50.9526 144.354 50.6531 144.025 50.4317 143.59C50.213 143.152 50.1036 142.615 50.1036 141.977C50.1036 141.339 50.2117 140.792 50.4278 140.336C50.6466 139.88 50.9461 139.531 51.3263 139.289C51.7065 139.044 52.1375 138.922 52.6192 138.922C52.9916 138.922 53.2924 138.984 53.5216 139.109C53.7508 139.232 53.9291 139.375 54.0567 139.539C54.1869 139.703 54.2872 139.848 54.3575 139.973H54.4435V139H55.588V145.133C55.588 145.648 55.4682 146.072 55.2286 146.402C54.989 146.733 54.6648 146.978 54.256 147.137C53.8497 147.296 53.3914 147.375 52.881 147.375ZM52.8692 143.941C53.2052 143.941 53.489 143.863 53.7208 143.707C53.9552 143.548 54.1323 143.322 54.2521 143.027C54.3744 142.73 54.4356 142.375 54.4356 141.961C54.4356 141.557 54.3758 141.202 54.256 140.895C54.1362 140.587 53.9604 140.348 53.7286 140.176C53.4968 140.001 53.2104 139.914 52.8692 139.914C52.5177 139.914 52.2247 140.005 51.9903 140.188C51.756 140.367 51.5789 140.612 51.4591 140.922C51.3419 141.232 51.2833 141.578 51.2833 141.961C51.2833 142.354 51.3432 142.699 51.463 142.996C51.5828 143.293 51.7599 143.525 51.9942 143.691C52.2312 143.858 52.5229 143.941 52.8692 143.941ZM59.6817 145.121C59.1192 145.121 58.6284 144.992 58.2091 144.734C57.7898 144.477 57.4643 144.116 57.2325 143.652C57.0008 143.189 56.8849 142.647 56.8849 142.027C56.8849 141.405 57.0008 140.861 57.2325 140.395C57.4643 139.928 57.7898 139.566 58.2091 139.309C58.6284 139.051 59.1192 138.922 59.6817 138.922C60.2442 138.922 60.7351 139.051 61.1544 139.309C61.5737 139.566 61.8992 139.928 62.131 140.395C62.3627 140.861 62.4786 141.405 62.4786 142.027C62.4786 142.647 62.3627 143.189 62.131 143.652C61.8992 144.116 61.5737 144.477 61.1544 144.734C60.7351 144.992 60.2442 145.121 59.6817 145.121ZM59.6856 144.141C60.0502 144.141 60.3523 144.044 60.5919 143.852C60.8315 143.659 61.0086 143.402 61.1231 143.082C61.2403 142.762 61.2989 142.409 61.2989 142.023C61.2989 141.641 61.2403 141.289 61.1231 140.969C61.0086 140.646 60.8315 140.387 60.5919 140.191C60.3523 139.996 60.0502 139.898 59.6856 139.898C59.3185 139.898 59.0138 139.996 58.7716 140.191C58.532 140.387 58.3536 140.646 58.2364 140.969C58.1218 141.289 58.0646 141.641 58.0646 142.023C58.0646 142.409 58.1218 142.762 58.2364 143.082C58.3536 143.402 58.532 143.659 58.7716 143.852C59.0138 144.044 59.3185 144.141 59.6856 144.141ZM64.5519 145.074C64.3383 145.074 64.1547 144.999 64.0011 144.848C63.8474 144.694 63.7706 144.509 63.7706 144.293C63.7706 144.079 63.8474 143.897 64.0011 143.746C64.1547 143.592 64.3383 143.516 64.5519 143.516C64.7654 143.516 64.949 143.592 65.1026 143.746C65.2563 143.897 65.3331 144.079 65.3331 144.293C65.3331 144.436 65.2966 144.568 65.2237 144.687C65.1534 144.805 65.0597 144.898 64.9425 144.969C64.8253 145.039 64.6951 145.074 64.5519 145.074ZM64.5519 140.707C64.3383 140.707 64.1547 140.63 64.0011 140.477C63.8474 140.323 63.7706 140.139 63.7706 139.926C63.7706 139.712 63.8474 139.53 64.0011 139.379C64.1547 139.225 64.3383 139.148 64.5519 139.148C64.7654 139.148 64.949 139.225 65.1026 139.379C65.2563 139.53 65.3331 139.712 65.3331 139.926C65.3331 140.069 65.2966 140.201 65.2237 140.32C65.1534 140.437 65.0597 140.531 64.9425 140.602C64.8253 140.672 64.6951 140.707 64.5519 140.707Z" fill="#616161"/>
<path d="M26.8661 170H28.331L30.8778 176.219H30.9716L33.5185 170H34.9833V178H33.8349V172.211H33.7606L31.4013 177.988H30.4481L28.0888 172.207H28.0145V178H26.8661V170ZM39.1718 178.121C38.6093 178.121 38.1184 177.992 37.6991 177.734C37.2798 177.477 36.9543 177.116 36.7226 176.652C36.4908 176.189 36.3749 175.647 36.3749 175.027C36.3749 174.405 36.4908 173.861 36.7226 173.395C36.9543 172.928 37.2798 172.566 37.6991 172.309C38.1184 172.051 38.6093 171.922 39.1718 171.922C39.7343 171.922 40.2252 172.051 40.6444 172.309C41.0637 172.566 41.3892 172.928 41.621 173.395C41.8528 173.861 41.9687 174.405 41.9687 175.027C41.9687 175.647 41.8528 176.189 41.621 176.652C41.3892 177.116 41.0637 177.477 40.6444 177.734C40.2252 177.992 39.7343 178.121 39.1718 178.121ZM39.1757 177.141C39.5403 177.141 39.8423 177.044 40.0819 176.852C40.3215 176.659 40.4986 176.402 40.6132 176.082C40.7304 175.762 40.789 175.409 40.789 175.023C40.789 174.641 40.7304 174.289 40.6132 173.969C40.4986 173.646 40.3215 173.387 40.0819 173.191C39.8423 172.996 39.5403 172.898 39.1757 172.898C38.8085 172.898 38.5038 172.996 38.2616 173.191C38.022 173.387 37.8437 173.646 37.7265 173.969C37.6119 174.289 37.5546 174.641 37.5546 175.023C37.5546 175.409 37.6119 175.762 37.7265 176.082C37.8437 176.402 38.022 176.659 38.2616 176.852C38.5038 177.044 38.8085 177.141 39.1757 177.141ZM45.5185 178.117C45.0341 178.117 44.6018 177.993 44.2216 177.746C43.844 177.496 43.5471 177.141 43.331 176.68C43.1174 176.216 43.0106 175.66 43.0106 175.012C43.0106 174.363 43.1187 173.809 43.3349 173.348C43.5536 172.887 43.8531 172.534 44.2333 172.289C44.6135 172.044 45.0445 171.922 45.5263 171.922C45.8987 171.922 46.1981 171.984 46.4247 172.109C46.6539 172.232 46.831 172.375 46.956 172.539C47.0836 172.703 47.1825 172.848 47.2528 172.973H47.3231V170H48.4911V178H47.3505V177.066H47.2528C47.1825 177.194 47.081 177.34 46.9481 177.504C46.8179 177.668 46.6382 177.811 46.4091 177.934C46.1799 178.056 45.883 178.117 45.5185 178.117ZM45.7763 177.121C46.1122 177.121 46.3961 177.033 46.6278 176.855C46.8622 176.676 47.0393 176.427 47.1591 176.109C47.2815 175.792 47.3427 175.422 47.3427 175C47.3427 174.583 47.2828 174.219 47.163 173.906C47.0432 173.594 46.8674 173.35 46.6356 173.176C46.4039 173.001 46.1174 172.914 45.7763 172.914C45.4247 172.914 45.1317 173.005 44.8974 173.188C44.663 173.37 44.4859 173.618 44.3661 173.934C44.2489 174.249 44.1903 174.604 44.1903 175C44.1903 175.401 44.2502 175.762 44.37 176.082C44.4898 176.402 44.6669 176.656 44.9013 176.844C45.1382 177.029 45.4299 177.121 45.7763 177.121ZM51.9042 178.133C51.524 178.133 51.1802 178.063 50.8729 177.922C50.5657 177.779 50.3222 177.572 50.1425 177.301C49.9654 177.03 49.8769 176.698 49.8769 176.305C49.8769 175.966 49.942 175.687 50.0722 175.469C50.2024 175.25 50.3782 175.077 50.5995 174.949C50.8209 174.822 51.0683 174.725 51.3417 174.66C51.6151 174.595 51.8938 174.546 52.1776 174.512C52.537 174.47 52.8287 174.436 53.0526 174.41C53.2766 174.382 53.4394 174.336 53.5409 174.273C53.6425 174.211 53.6933 174.109 53.6933 173.969V173.941C53.6933 173.6 53.5969 173.336 53.4042 173.148C53.2141 172.961 52.9302 172.867 52.5526 172.867C52.1594 172.867 51.8495 172.954 51.6229 173.129C51.399 173.301 51.244 173.492 51.1581 173.703L50.0604 173.453C50.1907 173.089 50.3808 172.794 50.6308 172.57C50.8834 172.344 51.1737 172.18 51.5019 172.078C51.83 171.974 52.175 171.922 52.537 171.922C52.7766 171.922 53.0305 171.951 53.2987 172.008C53.5696 172.062 53.8222 172.164 54.0565 172.312C54.2935 172.461 54.4875 172.673 54.6386 172.949C54.7896 173.223 54.8651 173.578 54.8651 174.016V178H53.7245V177.18H53.6776C53.6021 177.331 53.4888 177.479 53.3378 177.625C53.1867 177.771 52.9927 177.892 52.7558 177.988C52.5188 178.085 52.2349 178.133 51.9042 178.133ZM52.1581 177.195C52.481 177.195 52.7571 177.132 52.9862 177.004C53.218 176.876 53.3938 176.71 53.5136 176.504C53.636 176.296 53.6972 176.073 53.6972 175.836V175.062C53.6555 175.104 53.5748 175.143 53.455 175.18C53.3378 175.214 53.2037 175.243 53.0526 175.27C52.9016 175.293 52.7545 175.315 52.6112 175.336C52.468 175.354 52.3482 175.37 52.2519 175.383C52.0253 175.411 51.8183 175.46 51.6308 175.527C51.4459 175.595 51.2974 175.693 51.1854 175.82C51.0761 175.945 51.0214 176.112 51.0214 176.32C51.0214 176.609 51.1282 176.828 51.3417 176.977C51.5552 177.122 51.8274 177.195 52.1581 177.195ZM57.5888 170V178H56.4208V170H57.5888ZM59.1601 178V172H60.328V178H59.1601ZM59.7499 171.074C59.5468 171.074 59.3723 171.007 59.2265 170.871C59.0832 170.733 59.0116 170.569 59.0116 170.379C59.0116 170.186 59.0832 170.022 59.2265 169.887C59.3723 169.749 59.5468 169.68 59.7499 169.68C59.953 169.68 60.1262 169.749 60.2694 169.887C60.4153 170.022 60.4882 170.186 60.4882 170.379C60.4882 170.569 60.4153 170.733 60.2694 170.871C60.1262 171.007 59.953 171.074 59.7499 171.074ZM64.1454 178.117C63.661 178.117 63.2287 177.993 62.8485 177.746C62.4709 177.496 62.1741 177.141 61.9579 176.68C61.7444 176.216 61.6376 175.66 61.6376 175.012C61.6376 174.363 61.7457 173.809 61.9618 173.348C62.1806 172.887 62.48 172.534 62.8603 172.289C63.2405 172.044 63.6715 171.922 64.1532 171.922C64.5256 171.922 64.8251 171.984 65.0517 172.109C65.2808 172.232 65.4579 172.375 65.5829 172.539C65.7105 172.703 65.8095 172.848 65.8798 172.973H65.9501V170H67.1181V178H65.9774V177.066H65.8798C65.8095 177.194 65.7079 177.34 65.5751 177.504C65.4449 177.668 65.2652 177.811 65.036 177.934C64.8069 178.056 64.51 178.117 64.1454 178.117ZM64.4032 177.121C64.7392 177.121 65.023 177.033 65.2548 176.855C65.4892 176.676 65.6662 176.427 65.786 176.109C65.9084 175.792 65.9696 175.422 65.9696 175C65.9696 174.583 65.9097 174.219 65.7899 173.906C65.6701 173.594 65.4944 173.35 65.2626 173.176C65.0308 173.001 64.7444 172.914 64.4032 172.914C64.0517 172.914 63.7587 173.005 63.5243 173.188C63.2899 173.37 63.1129 173.618 62.9931 173.934C62.8759 174.249 62.8173 174.604 62.8173 175C62.8173 175.401 62.8772 175.762 62.997 176.082C63.1168 176.402 63.2938 176.656 63.5282 176.844C63.7652 177.029 64.0569 177.121 64.4032 177.121ZM70.5312 178.133C70.1509 178.133 69.8072 178.063 69.4999 177.922C69.1926 177.779 68.9491 177.572 68.7694 177.301C68.5923 177.03 68.5038 176.698 68.5038 176.305C68.5038 175.966 68.5689 175.687 68.6991 175.469C68.8293 175.25 69.0051 175.077 69.2265 174.949C69.4478 174.822 69.6952 174.725 69.9687 174.66C70.2421 174.595 70.5207 174.546 70.8046 174.512C71.164 174.47 71.4556 174.436 71.6796 174.41C71.9035 174.382 72.0663 174.336 72.1679 174.273C72.2694 174.211 72.3202 174.109 72.3202 173.969V173.941C72.3202 173.6 72.2239 173.336 72.0312 173.148C71.841 172.961 71.5572 172.867 71.1796 172.867C70.7864 172.867 70.4765 172.954 70.2499 173.129C70.0259 173.301 69.871 173.492 69.7851 173.703L68.6874 173.453C68.8176 173.089 69.0077 172.794 69.2577 172.57C69.5103 172.344 69.8007 172.18 70.1288 172.078C70.4569 171.974 70.802 171.922 71.164 171.922C71.4035 171.922 71.6575 171.951 71.9257 172.008C72.1965 172.062 72.4491 172.164 72.6835 172.312C72.9205 172.461 73.1145 172.673 73.2655 172.949C73.4166 173.223 73.4921 173.578 73.4921 174.016V178H72.3515V177.18H72.3046C72.2291 177.331 72.1158 177.479 71.9647 177.625C71.8137 177.771 71.6197 177.892 71.3827 177.988C71.1457 178.085 70.8619 178.133 70.5312 178.133ZM70.7851 177.195C71.108 177.195 71.384 177.132 71.6132 177.004C71.845 176.876 72.0207 176.71 72.1405 176.504C72.2629 176.296 72.3241 176.073 72.3241 175.836V175.062C72.2825 175.104 72.2017 175.143 72.0819 175.18C71.9647 175.214 71.8306 175.243 71.6796 175.27C71.5285 175.293 71.3814 175.315 71.2382 175.336C71.095 175.354 70.9752 175.37 70.8788 175.383C70.6522 175.411 70.4452 175.46 70.2577 175.527C70.0728 175.595 69.9244 175.693 69.8124 175.82C69.703 175.945 69.6483 176.112 69.6483 176.32C69.6483 176.609 69.7551 176.828 69.9687 176.977C70.1822 177.122 70.4543 177.195 70.7851 177.195ZM77.2938 178.117C76.8095 178.117 76.3772 177.993 75.997 177.746C75.6194 177.496 75.3225 177.141 75.1063 176.68C74.8928 176.216 74.786 175.66 74.786 175.012C74.786 174.363 74.8941 173.809 75.1103 173.348C75.329 172.887 75.6285 172.534 76.0087 172.289C76.3889 172.044 76.8199 171.922 77.3017 171.922C77.6741 171.922 77.9735 171.984 78.2001 172.109C78.4293 172.232 78.6063 172.375 78.7313 172.539C78.859 172.703 78.9579 172.848 79.0282 172.973H79.0985V170H80.2665V178H79.1259V177.066H79.0282C78.9579 177.194 78.8563 177.34 78.7235 177.504C78.5933 177.668 78.4136 177.811 78.1845 177.934C77.9553 178.056 77.6584 178.117 77.2938 178.117ZM77.5517 177.121C77.8876 177.121 78.1715 177.033 78.4032 176.855C78.6376 176.676 78.8147 176.427 78.9345 176.109C79.0569 175.792 79.1181 175.422 79.1181 175C79.1181 174.583 79.0582 174.219 78.9384 173.906C78.8186 173.594 78.6428 173.35 78.411 173.176C78.1793 173.001 77.8928 172.914 77.5517 172.914C77.2001 172.914 76.9071 173.005 76.6728 173.188C76.4384 173.37 76.2613 173.618 76.1415 173.934C76.0243 174.249 75.9657 174.604 75.9657 175C75.9657 175.401 76.0256 175.762 76.1454 176.082C76.2652 176.402 76.4423 176.656 76.6767 176.844C76.9136 177.029 77.2053 177.121 77.5517 177.121ZM82.703 178.074C82.4895 178.074 82.3059 177.999 82.1522 177.848C81.9986 177.694 81.9218 177.509 81.9218 177.293C81.9218 177.079 81.9986 176.897 82.1522 176.746C82.3059 176.592 82.4895 176.516 82.703 176.516C82.9166 176.516 83.1002 176.592 83.2538 176.746C83.4075 176.897 83.4843 177.079 83.4843 177.293C83.4843 177.436 83.4478 177.568 83.3749 177.687C83.3046 177.805 83.2108 177.898 83.0937 177.969C82.9765 178.039 82.8463 178.074 82.703 178.074ZM82.703 173.707C82.4895 173.707 82.3059 173.63 82.1522 173.477C81.9986 173.323 81.9218 173.139 81.9218 172.926C81.9218 172.712 81.9986 172.53 82.1522 172.379C82.3059 172.225 82.4895 172.148 82.703 172.148C82.9166 172.148 83.1002 172.225 83.2538 172.379C83.4075 172.53 83.4843 172.712 83.4843 172.926C83.4843 173.069 83.4478 173.201 83.3749 173.32C83.3046 173.437 83.2108 173.531 83.0937 173.602C82.9765 173.672 82.8463 173.707 82.703 173.707Z" fill="#616161"/>
<path d="M20.5861 47V36.8182H24.6032C25.3754 36.8182 26.0333 36.9657 26.5769 37.2607C27.1204 37.5523 27.5347 37.9583 27.8198 38.4787C28.1081 38.9957 28.2523 39.5923 28.2523 40.2685C28.2523 40.9446 28.1065 41.5412 27.8148 42.0582C27.5231 42.5753 27.1006 42.978 26.5471 43.2663C25.9969 43.5547 25.3307 43.6989 24.5485 43.6989H21.9881V41.9737H24.2005C24.6148 41.9737 24.9561 41.9025 25.2246 41.7599C25.4964 41.6141 25.6986 41.4136 25.8311 41.1584C25.967 40.8999 26.035 40.6032 26.035 40.2685C26.035 39.9304 25.967 39.6354 25.8311 39.3835C25.6986 39.1283 25.4964 38.9311 25.2246 38.7919C24.9528 38.6494 24.6081 38.5781 24.1905 38.5781H22.7388V47H20.5861ZM32.9679 47.1491C32.1824 47.1491 31.5062 46.9901 30.9395 46.6719C30.376 46.3504 29.9418 45.8963 29.6369 45.3097C29.332 44.7197 29.1795 44.022 29.1795 43.2166C29.1795 42.4311 29.332 41.7417 29.6369 41.1484C29.9418 40.5552 30.371 40.0928 30.9245 39.7614C31.4814 39.4299 32.1343 39.2642 32.8833 39.2642C33.3871 39.2642 33.8561 39.3454 34.2903 39.5078C34.7278 39.6669 35.109 39.9072 35.4338 40.2287C35.7619 40.5502 36.0171 40.9545 36.1994 41.4418C36.3817 41.9257 36.4728 42.4924 36.4728 43.142V43.7237H30.0247V42.4112H34.4792C34.4792 42.1063 34.4129 41.8362 34.2804 41.6009C34.1478 41.3655 33.9638 41.1816 33.7285 41.049C33.4965 40.9131 33.2264 40.8452 32.9181 40.8452C32.5967 40.8452 32.3116 40.9197 32.063 41.0689C31.8178 41.2147 31.6255 41.4119 31.4863 41.6605C31.3471 41.9058 31.2759 42.1792 31.2725 42.4808V43.7287C31.2725 44.1065 31.3422 44.433 31.4814 44.7081C31.6239 44.9832 31.8244 45.1953 32.0829 45.3445C32.3414 45.4936 32.648 45.5682 33.0027 45.5682C33.238 45.5682 33.4534 45.535 33.649 45.4688C33.8445 45.4025 34.0119 45.303 34.1511 45.1705C34.2903 45.0379 34.3964 44.8755 34.4693 44.6832L36.4281 44.8125C36.3287 45.2831 36.1248 45.6941 35.8166 46.0455C35.5117 46.3935 35.1172 46.6652 34.6333 46.8608C34.1528 47.053 33.5976 47.1491 32.9679 47.1491ZM39.9728 42.5852V47H37.8549V39.3636H39.8734V40.7109H39.9629C40.1319 40.2668 40.4153 39.9155 40.813 39.657C41.2108 39.3951 41.693 39.2642 42.2598 39.2642C42.7901 39.2642 43.2524 39.3802 43.6468 39.6122C44.0413 39.8442 44.3478 40.1757 44.5666 40.6065C44.7853 41.0341 44.8947 41.5445 44.8947 42.1378V47H42.7768V42.5156C42.7801 42.0483 42.6608 41.6837 42.4189 41.4219C42.1769 41.1567 41.8438 41.0241 41.4196 41.0241C41.1345 41.0241 40.8826 41.0855 40.6639 41.2081C40.4484 41.3307 40.2794 41.5097 40.1568 41.745C40.0375 41.977 39.9761 42.2571 39.9728 42.5852ZM52.9176 41.5412L50.9787 41.6605C50.9455 41.4948 50.8743 41.3456 50.7649 41.2131C50.6555 41.0772 50.5114 40.9695 50.3324 40.8899C50.1567 40.8071 49.9463 40.7656 49.701 40.7656C49.3729 40.7656 49.0961 40.8352 48.8707 40.9744C48.6454 41.1103 48.5327 41.2926 48.5327 41.5213C48.5327 41.7036 48.6056 41.8577 48.7514 41.9837C48.8973 42.1096 49.1475 42.2107 49.5021 42.2869L50.8842 42.5653C51.6267 42.7178 52.1802 42.9631 52.5447 43.3011C52.9093 43.6392 53.0916 44.0833 53.0916 44.6335C53.0916 45.134 52.9441 45.5732 52.6491 45.951C52.3575 46.3288 51.9564 46.6238 51.446 46.8359C50.9389 47.0447 50.3539 47.1491 49.6911 47.1491C48.6802 47.1491 47.8748 46.9387 47.2749 46.5178C46.6783 46.0935 46.3286 45.5168 46.2259 44.7876L48.3089 44.6783C48.3719 44.9865 48.5244 45.2218 48.7663 45.3842C49.0083 45.5433 49.3182 45.6229 49.696 45.6229C50.0672 45.6229 50.3655 45.5516 50.5909 45.4091C50.8196 45.2633 50.9356 45.076 50.9389 44.8473C50.9356 44.6551 50.8544 44.4976 50.6953 44.375C50.5362 44.2491 50.291 44.1529 49.9595 44.0866L48.6371 43.8232C47.8913 43.674 47.3362 43.4155 46.9716 43.0476C46.6103 42.6797 46.4297 42.2107 46.4297 41.6406C46.4297 41.1501 46.5623 40.7275 46.8274 40.3729C47.0959 40.0182 47.4721 39.7448 47.956 39.5526C48.4432 39.3603 49.0133 39.2642 49.6662 39.2642C50.6307 39.2642 51.3897 39.468 51.9432 39.8757C52.5 40.2834 52.8248 40.8385 52.9176 41.5412ZM56.6028 47.1442C56.1156 47.1442 55.6814 47.0597 55.3002 46.8906C54.9191 46.7183 54.6175 46.4647 54.3954 46.13C54.1767 45.7919 54.0673 45.371 54.0673 44.8672C54.0673 44.4429 54.1452 44.0866 54.301 43.7983C54.4567 43.5099 54.6689 43.2779 54.9373 43.1023C55.2058 42.9266 55.5107 42.794 55.8521 42.7045C56.1968 42.6151 56.5581 42.5521 56.9359 42.5156C57.38 42.4692 57.738 42.4261 58.0098 42.3864C58.2815 42.3433 58.4788 42.2803 58.6014 42.1974C58.724 42.1146 58.7853 41.992 58.7853 41.8295V41.7997C58.7853 41.4848 58.6859 41.2412 58.487 41.0689C58.2915 40.8965 58.0131 40.8104 57.6518 40.8104C57.2707 40.8104 56.9674 40.8949 56.742 41.0639C56.5166 41.2296 56.3675 41.4384 56.2946 41.6903L54.3358 41.5312C54.4352 41.0672 54.6307 40.6662 54.9224 40.3281C55.2141 39.9867 55.5903 39.7249 56.051 39.5426C56.515 39.357 57.0519 39.2642 57.6618 39.2642C58.086 39.2642 58.492 39.3139 58.8798 39.4134C59.2709 39.5128 59.6172 39.6669 59.9189 39.8757C60.2238 40.0845 60.4641 40.353 60.6397 40.6811C60.8154 41.0059 60.9032 41.3954 60.9032 41.8494V47H58.8947V45.9411H58.835C58.7124 46.1797 58.5484 46.3902 58.3429 46.5724C58.1374 46.7514 57.8904 46.8923 57.6021 46.995C57.3137 47.0945 56.9806 47.1442 56.6028 47.1442ZM57.2093 45.6825C57.5209 45.6825 57.796 45.6212 58.0346 45.4986C58.2733 45.3726 58.4605 45.2036 58.5964 44.9915C58.7323 44.7794 58.8002 44.5391 58.8002 44.2706V43.4602C58.734 43.5033 58.6428 43.5431 58.5268 43.5795C58.4141 43.6127 58.2865 43.6442 58.144 43.674C58.0015 43.7005 57.859 43.7254 57.7164 43.7486C57.5739 43.7685 57.4447 43.7867 57.3287 43.8033C57.0801 43.8397 56.863 43.8977 56.6774 43.9773C56.4918 44.0568 56.3476 44.1645 56.2449 44.3004C56.1421 44.433 56.0907 44.5987 56.0907 44.7976C56.0907 45.0859 56.1951 45.3063 56.4039 45.4588C56.6161 45.608 56.8845 45.6825 57.2093 45.6825ZM62.5463 47V39.3636H64.5648V40.7109H64.6543C64.8134 40.2635 65.0785 39.9105 65.4498 39.652C65.821 39.3935 66.2651 39.2642 66.7821 39.2642C67.3058 39.2642 67.7516 39.3951 68.1195 39.657C68.4874 39.9155 68.7327 40.2668 68.8553 40.7109H68.9348C69.0906 40.2734 69.3723 39.9238 69.78 39.6619C70.191 39.3968 70.6766 39.2642 71.2367 39.2642C71.9493 39.2642 72.5276 39.4912 72.9718 39.9453C73.4192 40.3961 73.6429 41.0357 73.6429 41.8643V47H71.53V42.282C71.53 41.8577 71.4173 41.5395 71.1919 41.3274C70.9666 41.1153 70.6848 41.0092 70.3468 41.0092C69.9623 41.0092 69.6623 41.1319 69.4469 41.3771C69.2315 41.6191 69.1238 41.9389 69.1238 42.3366V47H67.0705V42.2372C67.0705 41.8627 66.9628 41.5644 66.7473 41.3423C66.5352 41.1203 66.2551 41.0092 65.9071 41.0092C65.6718 41.0092 65.4597 41.0689 65.2708 41.1882C65.0852 41.3042 64.9377 41.4683 64.8283 41.6804C64.7189 41.8892 64.6642 42.1345 64.6642 42.4162V47H62.5463ZM75.3159 47V39.3636H77.4338V47H75.3159ZM76.3798 38.3793C76.0649 38.3793 75.7948 38.2749 75.5694 38.0661C75.3474 37.8539 75.2363 37.6004 75.2363 37.3054C75.2363 37.0137 75.3474 36.7635 75.5694 36.5547C75.7948 36.3426 76.0649 36.2365 76.3798 36.2365C76.6947 36.2365 76.9631 36.3426 77.1852 36.5547C77.4106 36.7635 77.5233 37.0137 77.5233 37.3054C77.5233 37.6004 77.4106 37.8539 77.1852 38.0661C76.9631 38.2749 76.6947 38.3793 76.3798 38.3793ZM82.6104 47.1491C81.8249 47.1491 81.1488 46.9901 80.582 46.6719C80.0186 46.3504 79.5844 45.8963 79.2795 45.3097C78.9746 44.7197 78.8221 44.022 78.8221 43.2166C78.8221 42.4311 78.9746 41.7417 79.2795 41.1484C79.5844 40.5552 80.0136 40.0928 80.5671 39.7614C81.1239 39.4299 81.7769 39.2642 82.5259 39.2642C83.0297 39.2642 83.4987 39.3454 83.9329 39.5078C84.3704 39.6669 84.7515 39.9072 85.0763 40.2287C85.4045 40.5502 85.6597 40.9545 85.842 41.4418C86.0243 41.9257 86.1154 42.4924 86.1154 43.142V43.7237H79.6673V42.4112H84.1218C84.1218 42.1063 84.0555 41.8362 83.9229 41.6009C83.7904 41.3655 83.6064 41.1816 83.3711 41.049C83.1391 40.9131 82.869 40.8452 82.5607 40.8452C82.2392 40.8452 81.9542 40.9197 81.7056 41.0689C81.4603 41.2147 81.2681 41.4119 81.1289 41.6605C80.9897 41.9058 80.9184 42.1792 80.9151 42.4808V43.7287C80.9151 44.1065 80.9847 44.433 81.1239 44.7081C81.2665 44.9832 81.467 45.1953 81.7255 45.3445C81.984 45.4936 82.2906 45.5682 82.6452 45.5682C82.8806 45.5682 83.096 45.535 83.2915 45.4688C83.4871 45.4025 83.6545 45.303 83.7937 45.1705C83.9329 45.0379 84.0389 44.8755 84.1119 44.6832L86.0707 44.8125C85.9712 45.2831 85.7674 45.6941 85.4592 46.0455C85.1542 46.3935 84.7598 46.6652 84.2759 46.8608C83.7953 47.053 83.2402 47.1491 82.6104 47.1491ZM89.6154 42.5852V47H87.4975V39.3636H89.516V40.7109H89.6055C89.7745 40.2668 90.0579 39.9155 90.4556 39.657C90.8533 39.3951 91.3356 39.2642 91.9023 39.2642C92.4326 39.2642 92.895 39.3802 93.2894 39.6122C93.6838 39.8442 93.9904 40.1757 94.2092 40.6065C94.4279 41.0341 94.5373 41.5445 94.5373 42.1378V47H92.4194V42.5156C92.4227 42.0483 92.3034 41.6837 92.0614 41.4219C91.8195 41.1567 91.4864 41.0241 91.0621 41.0241C90.7771 41.0241 90.5252 41.0855 90.3065 41.2081C90.091 41.3307 89.922 41.5097 89.7994 41.745C89.68 41.977 89.6187 42.2571 89.6154 42.5852ZM100.268 39.3636V40.9545H95.6696V39.3636H100.268ZM96.7136 37.5341H98.8315V44.6534C98.8315 44.849 98.8613 45.0014 98.921 45.1108C98.9806 45.2169 99.0635 45.2914 99.1696 45.3345C99.2789 45.3776 99.4049 45.3991 99.5474 45.3991C99.6468 45.3991 99.7463 45.3909 99.8457 45.3743C99.9451 45.3544 100.021 45.3395 100.074 45.3295L100.407 46.9055C100.301 46.9387 100.152 46.9768 99.96 47.0199C99.7678 47.0663 99.5342 47.0945 99.2591 47.1044C98.7486 47.1243 98.3012 47.0563 97.9167 46.9006C97.5356 46.7448 97.2389 46.5028 97.0268 46.1747C96.8147 45.8466 96.7103 45.4323 96.7136 44.9318V37.5341ZM105.016 47.1491C104.244 47.1491 103.576 46.9851 103.013 46.657C102.452 46.3255 102.02 45.8648 101.715 45.2749C101.41 44.6816 101.258 43.9938 101.258 43.2116C101.258 42.4228 101.41 41.7334 101.715 41.1435C102.02 40.5502 102.452 40.0895 103.013 39.7614C103.576 39.4299 104.244 39.2642 105.016 39.2642C105.788 39.2642 106.455 39.4299 107.015 39.7614C107.578 40.0895 108.012 40.5502 108.317 41.1435C108.622 41.7334 108.775 42.4228 108.775 43.2116C108.775 43.9938 108.622 44.6816 108.317 45.2749C108.012 45.8648 107.578 46.3255 107.015 46.657C106.455 46.9851 105.788 47.1491 105.016 47.1491ZM105.026 45.5085C105.377 45.5085 105.671 45.4091 105.906 45.2102C106.141 45.008 106.319 44.733 106.438 44.3849C106.561 44.0369 106.622 43.6409 106.622 43.1967C106.622 42.7526 106.561 42.3565 106.438 42.0085C106.319 41.6605 106.141 41.3854 105.906 41.1832C105.671 40.9811 105.377 40.88 105.026 40.88C104.671 40.88 104.373 40.9811 104.131 41.1832C103.893 41.3854 103.712 41.6605 103.589 42.0085C103.47 42.3565 103.41 42.7526 103.41 43.1967C103.41 43.6409 103.47 44.0369 103.589 44.3849C103.712 44.733 103.893 45.008 104.131 45.2102C104.373 45.4091 104.671 45.5085 105.026 45.5085ZM115.57 47.1442C115.082 47.1442 114.648 47.0597 114.267 46.8906C113.886 46.7183 113.584 46.4647 113.362 46.13C113.143 45.7919 113.034 45.371 113.034 44.8672C113.034 44.4429 113.112 44.0866 113.268 43.7983C113.424 43.5099 113.636 43.2779 113.904 43.1023C114.173 42.9266 114.478 42.794 114.819 42.7045C115.164 42.6151 115.525 42.5521 115.903 42.5156C116.347 42.4692 116.705 42.4261 116.977 42.3864C117.248 42.3433 117.446 42.2803 117.568 42.1974C117.691 42.1146 117.752 41.992 117.752 41.8295V41.7997C117.752 41.4848 117.653 41.2412 117.454 41.0689C117.258 40.8965 116.98 40.8104 116.619 40.8104C116.237 40.8104 115.934 40.8949 115.709 41.0639C115.483 41.2296 115.334 41.4384 115.261 41.6903L113.303 41.5312C113.402 41.0672 113.598 40.6662 113.889 40.3281C114.181 39.9867 114.557 39.7249 115.018 39.5426C115.482 39.357 116.019 39.2642 116.629 39.2642C117.053 39.2642 117.459 39.3139 117.847 39.4134C118.238 39.5128 118.584 39.6669 118.886 39.8757C119.191 40.0845 119.431 40.353 119.607 40.6811C119.782 41.0059 119.87 41.3954 119.87 41.8494V47H117.862V45.9411H117.802C117.679 46.1797 117.515 46.3902 117.31 46.5724C117.104 46.7514 116.857 46.8923 116.569 46.995C116.281 47.0945 115.947 47.1442 115.57 47.1442ZM116.176 45.6825C116.488 45.6825 116.763 45.6212 117.001 45.4986C117.24 45.3726 117.427 45.2036 117.563 44.9915C117.699 44.7794 117.767 44.5391 117.767 44.2706V43.4602C117.701 43.5033 117.61 43.5431 117.494 43.5795C117.381 43.6127 117.253 43.6442 117.111 43.674C116.968 43.7005 116.826 43.7254 116.683 43.7486C116.541 43.7685 116.411 43.7867 116.295 43.8033C116.047 43.8397 115.83 43.8977 115.644 43.9773C115.459 44.0568 115.314 44.1645 115.212 44.3004C115.109 44.433 115.058 44.5987 115.058 44.7976C115.058 45.0859 115.162 45.3063 115.371 45.4588C115.583 45.608 115.851 45.6825 116.176 45.6825ZM123.631 36.8182V47H121.513V36.8182H123.631ZM128.768 50.0227C128.082 50.0227 127.494 49.9283 127.003 49.7393C126.516 49.5537 126.128 49.3002 125.84 48.9787C125.551 48.6572 125.364 48.2959 125.278 47.8949L127.237 47.6314C127.296 47.7839 127.391 47.9264 127.52 48.0589C127.649 48.1915 127.82 48.2976 128.032 48.3771C128.248 48.46 128.509 48.5014 128.818 48.5014C129.278 48.5014 129.658 48.3887 129.956 48.1634C130.258 47.9413 130.409 47.5684 130.409 47.0447V45.6477H130.319C130.226 45.8598 130.087 46.0604 129.901 46.2493C129.716 46.4382 129.477 46.5923 129.186 46.7116C128.894 46.831 128.546 46.8906 128.142 46.8906C127.568 46.8906 127.046 46.758 126.575 46.4929C126.108 46.2244 125.735 45.8151 125.457 45.2649C125.182 44.7114 125.044 44.0121 125.044 43.1669C125.044 42.3018 125.185 41.5793 125.467 40.9993C125.749 40.4193 126.123 39.9851 126.59 39.6967C127.061 39.4084 127.576 39.2642 128.137 39.2642C128.564 39.2642 128.922 39.3371 129.21 39.483C129.499 39.6255 129.731 39.8045 129.906 40.0199C130.085 40.232 130.223 40.4408 130.319 40.6463H130.399V39.3636H132.502V47.0746C132.502 47.7242 132.343 48.2678 132.024 48.7053C131.706 49.1428 131.265 49.4709 130.702 49.6896C130.142 49.9117 129.497 50.0227 128.768 50.0227ZM128.813 45.2997C129.154 45.2997 129.442 45.2152 129.678 45.0462C129.916 44.8738 130.099 44.6286 130.225 44.3104C130.354 43.9889 130.419 43.6044 130.419 43.157C130.419 42.7095 130.356 42.3217 130.23 41.9936C130.104 41.6622 129.921 41.4053 129.683 41.223C129.444 41.0407 129.154 40.9496 128.813 40.9496C128.465 40.9496 128.171 41.044 127.933 41.233C127.694 41.4186 127.513 41.6771 127.391 42.0085C127.268 42.34 127.207 42.7228 127.207 43.157C127.207 43.5978 127.268 43.9789 127.391 44.3004C127.517 44.6186 127.697 44.8655 127.933 45.0412C128.171 45.2135 128.465 45.2997 128.813 45.2997ZM137.637 47.1491C136.865 47.1491 136.197 46.9851 135.634 46.657C135.074 46.3255 134.641 45.8648 134.336 45.2749C134.031 44.6816 133.879 43.9938 133.879 43.2116C133.879 42.4228 134.031 41.7334 134.336 41.1435C134.641 40.5502 135.074 40.0895 135.634 39.7614C136.197 39.4299 136.865 39.2642 137.637 39.2642C138.41 39.2642 139.076 39.4299 139.636 39.7614C140.199 40.0895 140.633 40.5502 140.938 41.1435C141.243 41.7334 141.396 42.4228 141.396 43.2116C141.396 43.9938 141.243 44.6816 140.938 45.2749C140.633 45.8648 140.199 46.3255 139.636 46.657C139.076 46.9851 138.41 47.1491 137.637 47.1491ZM137.647 45.5085C137.999 45.5085 138.292 45.4091 138.527 45.2102C138.762 45.008 138.94 44.733 139.059 44.3849C139.182 44.0369 139.243 43.6409 139.243 43.1967C139.243 42.7526 139.182 42.3565 139.059 42.0085C138.94 41.6605 138.762 41.3854 138.527 41.1832C138.292 40.9811 137.999 40.88 137.647 40.88C137.293 40.88 136.994 40.9811 136.752 41.1832C136.514 41.3854 136.333 41.6605 136.21 42.0085C136.091 42.3565 136.031 42.7526 136.031 43.1967C136.031 43.6409 136.091 44.0369 136.21 44.3849C136.333 44.733 136.514 45.008 136.752 45.2102C136.994 45.4091 137.293 45.5085 137.647 45.5085ZM142.773 47V39.3636H144.826V40.696H144.906C145.045 40.2221 145.279 39.8641 145.607 39.6222C145.935 39.3769 146.313 39.2543 146.74 39.2543C146.846 39.2543 146.961 39.2609 147.083 39.2741C147.206 39.2874 147.314 39.3056 147.406 39.3288V41.2081C147.307 41.1783 147.169 41.1518 146.994 41.1286C146.818 41.1054 146.657 41.0938 146.512 41.0938C146.2 41.0938 145.922 41.1617 145.676 41.2976C145.434 41.4302 145.242 41.6158 145.1 41.8544C144.96 42.093 144.891 42.3681 144.891 42.6797V47H142.773ZM148.501 47V39.3636H150.619V47H148.501ZM148.805 38.3793L149.859 36.1172H151.817L150.301 38.3793H148.805ZM156.378 39.3636V40.9545H151.779V39.3636H156.378ZM152.823 37.5341H154.941V44.6534C154.941 44.849 154.971 45.0014 155.03 45.1108C155.09 45.2169 155.173 45.2914 155.279 45.3345C155.388 45.3776 155.514 45.3991 155.657 45.3991C155.756 45.3991 155.856 45.3909 155.955 45.3743C156.055 45.3544 156.131 45.3395 156.184 45.3295L156.517 46.9055C156.411 46.9387 156.262 46.9768 156.069 47.0199C155.877 47.0663 155.644 47.0945 155.368 47.1044C154.858 47.1243 154.411 47.0563 154.026 46.9006C153.645 46.7448 153.348 46.5028 153.136 46.1747C152.924 45.8466 152.82 45.4323 152.823 44.9318V37.5341ZM157.757 47V39.3636H159.776V40.7109H159.865C160.024 40.2635 160.289 39.9105 160.661 39.652C161.032 39.3935 161.476 39.2642 161.993 39.2642C162.517 39.2642 162.963 39.3951 163.33 39.657C163.698 39.9155 163.944 40.2668 164.066 40.7109H164.146C164.302 40.2734 164.583 39.9238 164.991 39.6619C165.402 39.3968 165.887 39.2642 166.448 39.2642C167.16 39.2642 167.739 39.4912 168.183 39.9453C168.63 40.3961 168.854 41.0357 168.854 41.8643V47H166.741V42.282C166.741 41.8577 166.628 41.5395 166.403 41.3274C166.177 41.1153 165.896 41.0092 165.558 41.0092C165.173 41.0092 164.873 41.1319 164.658 41.3771C164.442 41.6191 164.335 41.9389 164.335 42.3366V47H162.281V42.2372C162.281 41.8627 162.174 41.5644 161.958 41.3423C161.746 41.1203 161.466 41.0092 161.118 41.0092C160.883 41.0092 160.671 41.0689 160.482 41.1882C160.296 41.3042 160.149 41.4683 160.039 41.6804C159.93 41.8892 159.875 42.1345 159.875 42.4162V47H157.757ZM170.527 47V39.3636H172.645V47H170.527ZM171.591 38.3793C171.276 38.3793 171.006 38.2749 170.78 38.0661C170.558 37.8539 170.447 37.6004 170.447 37.3054C170.447 37.0137 170.558 36.7635 170.78 36.5547C171.006 36.3426 171.276 36.2365 171.591 36.2365C171.906 36.2365 172.174 36.3426 172.396 36.5547C172.622 36.7635 172.734 37.0137 172.734 37.3054C172.734 37.6004 172.622 37.8539 172.396 38.0661C172.174 38.2749 171.906 38.3793 171.591 38.3793ZM177.792 47.1491C177.009 47.1491 176.337 46.9834 175.773 46.652C175.213 46.3172 174.782 45.8532 174.48 45.2599C174.182 44.6667 174.033 43.9839 174.033 43.2116C174.033 42.4295 174.184 41.7434 174.485 41.1534C174.79 40.5601 175.223 40.0978 175.783 39.7663C176.343 39.4316 177.009 39.2642 177.782 39.2642C178.448 39.2642 179.031 39.3852 179.532 39.6271C180.032 39.8691 180.428 40.2088 180.72 40.6463C181.011 41.0838 181.172 41.5975 181.202 42.1875H179.203C179.147 41.8063 178.998 41.4998 178.756 41.2678C178.517 41.0324 178.204 40.9148 177.816 40.9148C177.488 40.9148 177.202 41.0043 176.956 41.1832C176.714 41.3589 176.525 41.6158 176.39 41.9538C176.254 42.2919 176.186 42.7012 176.186 43.1818C176.186 43.669 176.252 44.0833 176.385 44.4247C176.52 44.7661 176.711 45.0263 176.956 45.2053C177.202 45.3842 177.488 45.4737 177.816 45.4737C178.058 45.4737 178.275 45.424 178.468 45.3246C178.663 45.2251 178.824 45.081 178.95 44.892C179.079 44.6998 179.164 44.4695 179.203 44.201H181.202C181.169 44.7843 181.01 45.2981 180.725 45.7422C180.443 46.183 180.054 46.5277 179.556 46.7763C179.059 47.0249 178.471 47.1491 177.792 47.1491ZM186.008 47.1491C185.236 47.1491 184.568 46.9851 184.005 46.657C183.445 46.3255 183.012 45.8648 182.707 45.2749C182.402 44.6816 182.25 43.9938 182.25 43.2116C182.25 42.4228 182.402 41.7334 182.707 41.1435C183.012 40.5502 183.445 40.0895 184.005 39.7614C184.568 39.4299 185.236 39.2642 186.008 39.2642C186.781 39.2642 187.447 39.4299 188.007 39.7614C188.57 40.0895 189.005 40.5502 189.309 41.1435C189.614 41.7334 189.767 42.4228 189.767 43.2116C189.767 43.9938 189.614 44.6816 189.309 45.2749C189.005 45.8648 188.57 46.3255 188.007 46.657C187.447 46.9851 186.781 47.1491 186.008 47.1491ZM186.018 45.5085C186.37 45.5085 186.663 45.4091 186.898 45.2102C187.134 45.008 187.311 44.733 187.43 44.3849C187.553 44.0369 187.614 43.6409 187.614 43.1967C187.614 42.7526 187.553 42.3565 187.43 42.0085C187.311 41.6605 187.134 41.3854 186.898 41.1832C186.663 40.9811 186.37 40.88 186.018 40.88C185.664 40.88 185.365 40.9811 185.123 41.1832C184.885 41.3854 184.704 41.6605 184.581 42.0085C184.462 42.3565 184.403 42.7526 184.403 43.1967C184.403 43.6409 184.462 44.0369 184.581 44.3849C184.704 44.733 184.885 45.008 185.123 45.2102C185.365 45.4091 185.664 45.5085 186.018 45.5085Z" fill="#616161"/>
</svg>
