<svg width="20" height="20" viewBox="0 0 20 20" fill="none" xmlns="http://www.w3.org/2000/svg">
<path d="M5.69818 17.454C5.36465 17.261 4.93786 17.375 4.74493 17.7085C4.55199 18.042 4.66596 18.4688 4.9995 18.6618L5.69818 17.454ZM1.33825 15.0005C1.53118 15.334 1.95797 15.448 2.29151 15.2551C2.62503 15.0621 2.739 14.6353 2.54607 14.3019L1.33825 15.0005ZM18.6047 10C18.6047 14.7522 14.7522 18.6047 10 18.6047V20C15.5229 20 20 15.5229 20 10H18.6047ZM1.39535 10C1.39535 5.24779 5.24779 1.39535 10 1.39535V0C4.47715 0 0 4.47715 0 10H1.39535ZM13.2558 12.093C10.3018 12.093 7.90698 9.69823 7.90698 6.74419H6.51163C6.51163 10.4689 9.53107 13.4884 13.2558 13.4884V12.093ZM17.8375 9.50605C16.8997 11.058 15.1983 12.093 13.2558 12.093V13.4884C15.7069 13.4884 17.8518 12.1804 19.0318 10.2276L17.8375 9.50605ZM7.90698 6.74419C7.90698 4.80169 8.94205 3.10028 10.494 2.16248L9.77237 0.968233C7.81962 2.14819 6.51163 4.29311 6.51163 6.74419H7.90698ZM10 1.39535C9.91768 1.39535 9.82112 1.35821 9.75107 1.28528C9.69172 1.22351 9.67795 1.16506 9.6747 1.14142C9.67079 1.11244 9.67274 1.02844 9.77237 0.968233L10.494 2.16248C10.962 1.87967 11.1126 1.36184 11.0575 0.95467C11.0004 0.531405 10.6666 0 10 0V1.39535ZM19.0318 10.2276C18.9715 10.3273 18.8875 10.3292 18.8586 10.3253C18.835 10.322 18.7765 10.3083 18.7147 10.2489C18.6418 10.1789 18.6047 10.0823 18.6047 10H20C20 9.3334 19.4686 8.99963 19.0453 8.94251C18.6381 8.88744 18.1203 9.03795 17.8375 9.50605L19.0318 10.2276ZM10 18.6047C8.43153 18.6047 6.9631 18.1857 5.69818 17.454L4.9995 18.6618C6.47107 19.513 8.17972 20 10 20V18.6047ZM2.54607 14.3019C1.81435 13.0369 1.39535 11.5685 1.39535 10H0C0 11.8203 0.486986 13.5289 1.33825 15.0005L2.54607 14.3019Z" fill="#616161"/>
</svg>
