<svg width="220" height="175" viewBox="0 0 220 175" fill="none" xmlns="http://www.w3.org/2000/svg">
<rect width="220" height="175" rx="5" fill="#B5BF00"/>
<line x1="82" y1="99.5" x2="139" y2="99.5" stroke="#FAFAFA"/>
<path d="M51.0582 110.455H53.1605L58.1037 122.528H58.2741L63.2173 110.455H65.3196V125H63.6719V113.949H63.5298L58.9844 125H57.3935L52.848 113.949H52.706V125H51.0582V110.455ZM71.8342 125.256C71.1429 125.256 70.5155 125.125 69.9521 124.865C69.3886 124.6 68.9412 124.219 68.6097 123.722C68.2783 123.22 68.1126 122.614 68.1126 121.903C68.1126 121.278 68.2357 120.772 68.4819 120.384C68.7281 119.991 69.0572 119.683 69.4691 119.46C69.881 119.238 70.3356 119.072 70.8327 118.963C71.3346 118.849 71.8389 118.759 72.3455 118.693C73.0084 118.608 73.5458 118.544 73.9577 118.501C74.3744 118.454 74.6774 118.376 74.8668 118.267C75.061 118.158 75.158 117.969 75.158 117.699V117.642C75.158 116.941 74.9663 116.397 74.5827 116.009C74.204 115.62 73.6287 115.426 72.8569 115.426C72.0567 115.426 71.4293 115.601 70.9748 115.952C70.5202 116.302 70.2006 116.676 70.016 117.074L68.4251 116.506C68.7092 115.843 69.0879 115.327 69.5614 114.957C70.0397 114.583 70.5605 114.323 71.1239 114.176C71.6921 114.025 72.2508 113.949 72.8001 113.949C73.1504 113.949 73.5529 113.991 74.0075 114.077C74.4667 114.157 74.9094 114.325 75.3356 114.581C75.7665 114.837 76.1239 115.223 76.408 115.739C76.6921 116.255 76.8342 116.946 76.8342 117.812V125H75.158V123.523H75.0728C74.9592 123.759 74.7698 124.013 74.5046 124.283C74.2395 124.553 73.8867 124.782 73.4464 124.972C73.006 125.161 72.4686 125.256 71.8342 125.256ZM72.0898 123.75C72.7527 123.75 73.3114 123.62 73.766 123.359C74.2253 123.099 74.5709 122.763 74.8029 122.351C75.0397 121.939 75.158 121.506 75.158 121.051V119.517C75.087 119.602 74.9308 119.68 74.6893 119.751C74.4525 119.818 74.1779 119.877 73.8654 119.929C73.5576 119.976 73.257 120.019 72.9634 120.057C72.6746 120.09 72.4402 120.118 72.2603 120.142C71.8247 120.199 71.4175 120.291 71.0387 120.419C70.6647 120.542 70.3616 120.729 70.1296 120.98C69.9023 121.226 69.7887 121.562 69.7887 121.989C69.7887 122.571 70.0041 123.011 70.435 123.31C70.8706 123.603 71.4222 123.75 72.0898 123.75ZM84.6378 114.091V115.511H78.9844V114.091H84.6378ZM80.6321 111.477H82.3082V121.875C82.3082 122.348 82.3769 122.704 82.5142 122.94C82.6563 123.172 82.8362 123.329 83.054 123.409C83.2765 123.485 83.5109 123.523 83.7571 123.523C83.9418 123.523 84.0933 123.513 84.2116 123.494C84.33 123.471 84.4247 123.452 84.4957 123.438L84.8366 124.943C84.723 124.986 84.5644 125.028 84.3608 125.071C84.1572 125.118 83.8991 125.142 83.5866 125.142C83.1132 125.142 82.6491 125.04 82.1946 124.837C81.7448 124.633 81.3707 124.323 81.0724 123.906C80.7789 123.49 80.6321 122.964 80.6321 122.33V111.477ZM91.6158 125.227C90.5646 125.227 89.6579 124.995 88.8956 124.531C88.138 124.062 87.5533 123.409 87.1413 122.571C86.7341 121.728 86.5305 120.748 86.5305 119.631C86.5305 118.513 86.7341 117.528 87.1413 116.676C87.5533 115.819 88.1262 115.152 88.8601 114.673C89.5987 114.19 90.4605 113.949 91.4453 113.949C92.0135 113.949 92.5746 114.044 93.1286 114.233C93.6825 114.422 94.1868 114.73 94.6413 115.156C95.0959 115.578 95.4581 116.136 95.728 116.832C95.9979 117.528 96.1328 118.385 96.1328 119.403V120.114H87.7237V118.665H94.4283C94.4283 118.049 94.3052 117.5 94.0589 117.017C93.8175 116.534 93.4718 116.153 93.022 115.874C92.5769 115.594 92.0514 115.455 91.4453 115.455C90.7777 115.455 90.2 115.62 89.7124 115.952C89.2294 116.278 88.8577 116.705 88.5973 117.23C88.3369 117.756 88.2067 118.319 88.2067 118.92V119.886C88.2067 120.71 88.3487 121.409 88.6328 121.982C88.9216 122.55 89.3217 122.983 89.8331 123.281C90.3445 123.575 90.9387 123.722 91.6158 123.722C92.0561 123.722 92.4538 123.66 92.8089 123.537C93.1688 123.409 93.4789 123.22 93.7393 122.969C93.9998 122.713 94.201 122.396 94.343 122.017L95.9624 122.472C95.7919 123.021 95.5054 123.504 95.103 123.92C94.7005 124.332 94.2034 124.654 93.6115 124.886C93.0196 125.114 92.3544 125.227 91.6158 125.227ZM98.6825 125V114.091H100.302V115.795H100.444C100.671 115.213 101.038 114.761 101.545 114.439C102.051 114.112 102.66 113.949 103.37 113.949C104.09 113.949 104.689 114.112 105.167 114.439C105.65 114.761 106.026 115.213 106.296 115.795H106.41C106.689 115.232 107.108 114.785 107.667 114.453C108.226 114.117 108.896 113.949 109.677 113.949C110.652 113.949 111.45 114.254 112.07 114.865C112.691 115.471 113.001 116.416 113.001 117.699V125H111.325V117.699C111.325 116.894 111.104 116.319 110.664 115.973C110.224 115.627 109.705 115.455 109.109 115.455C108.342 115.455 107.747 115.687 107.326 116.151C106.905 116.61 106.694 117.192 106.694 117.898V125H104.989V117.528C104.989 116.908 104.788 116.409 104.386 116.03C103.983 115.646 103.465 115.455 102.83 115.455C102.395 115.455 101.987 115.571 101.609 115.803C101.235 116.035 100.932 116.357 100.7 116.768C100.472 117.176 100.359 117.647 100.359 118.182V125H98.6825ZM119.276 125.256C118.584 125.256 117.957 125.125 117.393 124.865C116.83 124.6 116.383 124.219 116.051 123.722C115.72 123.22 115.554 122.614 115.554 121.903C115.554 121.278 115.677 120.772 115.923 120.384C116.17 119.991 116.499 119.683 116.911 119.46C117.322 119.238 117.777 119.072 118.274 118.963C118.776 118.849 119.28 118.759 119.787 118.693C120.45 118.608 120.987 118.544 121.399 118.501C121.816 118.454 122.119 118.376 122.308 118.267C122.502 118.158 122.599 117.969 122.599 117.699V117.642C122.599 116.941 122.408 116.397 122.024 116.009C121.645 115.62 121.07 115.426 120.298 115.426C119.498 115.426 118.871 115.601 118.416 115.952C117.962 116.302 117.642 116.676 117.457 117.074L115.866 116.506C116.151 115.843 116.529 115.327 117.003 114.957C117.481 114.583 118.002 114.323 118.565 114.176C119.134 114.025 119.692 113.949 120.241 113.949C120.592 113.949 120.994 113.991 121.449 114.077C121.908 114.157 122.351 114.325 122.777 114.581C123.208 114.837 123.565 115.223 123.849 115.739C124.134 116.255 124.276 116.946 124.276 117.812V125H122.599V123.523H122.514C122.401 123.759 122.211 124.013 121.946 124.283C121.681 124.553 121.328 124.782 120.888 124.972C120.447 125.161 119.91 125.256 119.276 125.256ZM119.531 123.75C120.194 123.75 120.753 123.62 121.207 123.359C121.667 123.099 122.012 122.763 122.244 122.351C122.481 121.939 122.599 121.506 122.599 121.051V119.517C122.528 119.602 122.372 119.68 122.131 119.751C121.894 119.818 121.619 119.877 121.307 119.929C120.999 119.976 120.698 120.019 120.405 120.057C120.116 120.09 119.882 120.118 119.702 120.142C119.266 120.199 118.859 120.291 118.48 120.419C118.106 120.542 117.803 120.729 117.571 120.98C117.344 121.226 117.23 121.562 117.23 121.989C117.23 122.571 117.446 123.011 117.876 123.31C118.312 123.603 118.864 123.75 119.531 123.75ZM119.588 112.614L121.321 109.318H123.281L121.065 112.614H119.588ZM132.079 114.091V115.511H126.426V114.091H132.079ZM128.074 111.477H129.75V121.875C129.75 122.348 129.818 122.704 129.956 122.94C130.098 123.172 130.278 123.329 130.495 123.409C130.718 123.485 130.952 123.523 131.199 123.523C131.383 123.523 131.535 123.513 131.653 123.494C131.771 123.471 131.866 123.452 131.937 123.438L132.278 124.943C132.164 124.986 132.006 125.028 131.802 125.071C131.599 125.118 131.341 125.142 131.028 125.142C130.555 125.142 130.091 125.04 129.636 124.837C129.186 124.633 128.812 124.323 128.514 123.906C128.22 123.49 128.074 122.964 128.074 122.33V111.477ZM134.6 125V114.091H136.277V125H134.6ZM135.453 112.273C135.126 112.273 134.844 112.161 134.608 111.939C134.376 111.716 134.26 111.449 134.26 111.136C134.26 110.824 134.376 110.556 134.608 110.334C134.844 110.111 135.126 110 135.453 110C135.779 110 136.059 110.111 136.291 110.334C136.528 110.556 136.646 110.824 136.646 111.136C136.646 111.449 136.528 111.716 136.291 111.939C136.059 112.161 135.779 112.273 135.453 112.273ZM143.778 125.227C142.756 125.227 141.875 124.986 141.136 124.503C140.398 124.02 139.83 123.355 139.432 122.507C139.034 121.66 138.835 120.691 138.835 119.602C138.835 118.494 139.039 117.517 139.446 116.669C139.858 115.817 140.431 115.152 141.165 114.673C141.903 114.19 142.765 113.949 143.75 113.949C144.517 113.949 145.208 114.091 145.824 114.375C146.439 114.659 146.944 115.057 147.337 115.568C147.73 116.08 147.973 116.676 148.068 117.358H146.392C146.264 116.861 145.98 116.42 145.54 116.037C145.104 115.649 144.517 115.455 143.778 115.455C143.125 115.455 142.552 115.625 142.06 115.966C141.572 116.302 141.191 116.778 140.916 117.393C140.646 118.004 140.511 118.722 140.511 119.545C140.511 120.388 140.644 121.122 140.909 121.747C141.179 122.372 141.558 122.857 142.045 123.203C142.538 123.549 143.116 123.722 143.778 123.722C144.214 123.722 144.609 123.646 144.964 123.494C145.32 123.343 145.62 123.125 145.866 122.841C146.113 122.557 146.288 122.216 146.392 121.818H148.068C147.973 122.462 147.739 123.042 147.365 123.558C146.996 124.07 146.506 124.477 145.895 124.78C145.289 125.078 144.583 125.227 143.778 125.227ZM153.729 125.256C153.037 125.256 152.41 125.125 151.847 124.865C151.283 124.6 150.836 124.219 150.504 123.722C150.173 123.22 150.007 122.614 150.007 121.903C150.007 121.278 150.13 120.772 150.376 120.384C150.623 119.991 150.952 119.683 151.364 119.46C151.776 119.238 152.23 119.072 152.727 118.963C153.229 118.849 153.733 118.759 154.24 118.693C154.903 118.608 155.44 118.544 155.852 118.501C156.269 118.454 156.572 118.376 156.761 118.267C156.955 118.158 157.053 117.969 157.053 117.699V117.642C157.053 116.941 156.861 116.397 156.477 116.009C156.098 115.62 155.523 115.426 154.751 115.426C153.951 115.426 153.324 115.601 152.869 115.952C152.415 116.302 152.095 116.676 151.911 117.074L150.32 116.506C150.604 115.843 150.982 115.327 151.456 114.957C151.934 114.583 152.455 114.323 153.018 114.176C153.587 114.025 154.145 113.949 154.695 113.949C155.045 113.949 155.447 113.991 155.902 114.077C156.361 114.157 156.804 114.325 157.23 114.581C157.661 114.837 158.018 115.223 158.303 115.739C158.587 116.255 158.729 116.946 158.729 117.812V125H157.053V123.523H156.967C156.854 123.759 156.664 124.013 156.399 124.283C156.134 124.553 155.781 124.782 155.341 124.972C154.901 125.161 154.363 125.256 153.729 125.256ZM153.984 123.75C154.647 123.75 155.206 123.62 155.661 123.359C156.12 123.099 156.465 122.763 156.697 122.351C156.934 121.939 157.053 121.506 157.053 121.051V119.517C156.982 119.602 156.825 119.68 156.584 119.751C156.347 119.818 156.072 119.877 155.76 119.929C155.452 119.976 155.152 120.019 154.858 120.057C154.569 120.09 154.335 120.118 154.155 120.142C153.719 120.199 153.312 120.291 152.933 120.419C152.559 120.542 152.256 120.729 152.024 120.98C151.797 121.226 151.683 121.562 151.683 121.989C151.683 122.571 151.899 123.011 152.33 123.31C152.765 123.603 153.317 123.75 153.984 123.75ZM169.515 116.534L168.01 116.96C167.915 116.709 167.775 116.465 167.591 116.229C167.411 115.987 167.164 115.788 166.852 115.632C166.539 115.476 166.139 115.398 165.652 115.398C164.984 115.398 164.428 115.552 163.983 115.859C163.542 116.162 163.322 116.548 163.322 117.017C163.322 117.434 163.474 117.763 163.777 118.004C164.08 118.246 164.553 118.447 165.197 118.608L166.816 119.006C167.792 119.242 168.519 119.605 168.997 120.092C169.475 120.575 169.714 121.198 169.714 121.96C169.714 122.585 169.534 123.144 169.174 123.636C168.819 124.129 168.322 124.517 167.683 124.801C167.044 125.085 166.3 125.227 165.453 125.227C164.34 125.227 163.419 124.986 162.69 124.503C161.961 124.02 161.499 123.314 161.305 122.386L162.896 121.989C163.047 122.576 163.334 123.016 163.755 123.31C164.181 123.603 164.738 123.75 165.424 123.75C166.206 123.75 166.826 123.584 167.285 123.253C167.749 122.917 167.981 122.514 167.981 122.045C167.981 121.667 167.849 121.349 167.583 121.094C167.318 120.833 166.911 120.639 166.362 120.511L164.544 120.085C163.545 119.848 162.811 119.482 162.342 118.984C161.878 118.482 161.646 117.855 161.646 117.102C161.646 116.487 161.819 115.942 162.164 115.469C162.515 114.995 162.991 114.624 163.592 114.354C164.198 114.084 164.885 113.949 165.652 113.949C166.731 113.949 167.579 114.186 168.194 114.659C168.815 115.133 169.255 115.758 169.515 116.534ZM72.3917 149.227C71.4826 149.227 70.68 148.998 69.984 148.538C69.288 148.074 68.7435 147.421 68.3505 146.578C67.9575 145.731 67.761 144.729 67.761 143.574C67.761 142.428 67.9575 141.434 68.3505 140.591C68.7435 139.748 69.2904 139.097 69.9911 138.638C70.6919 138.179 71.5015 137.949 72.4201 137.949C73.1303 137.949 73.6914 138.067 74.1033 138.304C74.52 138.536 74.8372 138.801 75.055 139.099C75.2776 139.393 75.4504 139.634 75.5735 139.824H75.7156V134.455H77.3917V149H75.7724V147.324H75.5735C75.4504 147.523 75.2752 147.774 75.0479 148.077C74.8207 148.375 74.4963 148.643 74.0749 148.879C73.6535 149.111 73.0924 149.227 72.3917 149.227ZM72.619 147.722C73.2913 147.722 73.8595 147.546 74.3235 147.196C74.7875 146.841 75.1403 146.351 75.3817 145.726C75.6232 145.096 75.744 144.369 75.744 143.545C75.744 142.731 75.6256 142.018 75.3888 141.408C75.1521 140.792 74.8017 140.314 74.3377 139.973C73.8737 139.627 73.3008 139.455 72.619 139.455C71.9087 139.455 71.3169 139.637 70.8434 140.001C70.3746 140.361 70.0219 140.851 69.7852 141.472C69.5531 142.087 69.4371 142.778 69.4371 143.545C69.4371 144.322 69.5555 145.027 69.7923 145.662C70.0337 146.292 70.3888 146.794 70.8576 147.168C71.3311 147.537 71.9182 147.722 72.619 147.722ZM80.6942 149V138.091H82.3704V149H80.6942ZM81.5465 136.273C81.2198 136.273 80.9381 136.161 80.7013 135.939C80.4693 135.716 80.3533 135.449 80.3533 135.136C80.3533 134.824 80.4693 134.556 80.7013 134.334C80.9381 134.111 81.2198 134 81.5465 134C81.8732 134 82.1526 134.111 82.3846 134.334C82.6213 134.556 82.7397 134.824 82.7397 135.136C82.7397 135.449 82.6213 135.716 82.3846 135.939C82.1526 136.161 81.8732 136.273 81.5465 136.273ZM93.1676 140.534L91.6619 140.96C91.5672 140.709 91.4276 140.465 91.2429 140.229C91.063 139.987 90.8168 139.788 90.5043 139.632C90.1918 139.476 89.7917 139.398 89.304 139.398C88.6364 139.398 88.08 139.552 87.6349 139.859C87.1946 140.162 86.9744 140.548 86.9744 141.017C86.9744 141.434 87.1259 141.763 87.429 142.004C87.732 142.246 88.2055 142.447 88.8494 142.608L90.4688 143.006C91.4441 143.242 92.1709 143.605 92.6491 144.092C93.1274 144.575 93.3665 145.198 93.3665 145.96C93.3665 146.585 93.1866 147.144 92.8267 147.636C92.4716 148.129 91.9744 148.517 91.3352 148.801C90.696 149.085 89.9527 149.227 89.1051 149.227C87.9924 149.227 87.0715 148.986 86.3423 148.503C85.6132 148.02 85.1515 147.314 84.9574 146.386L86.5483 145.989C86.6998 146.576 86.9863 147.016 87.4077 147.31C87.8338 147.603 88.3902 147.75 89.0767 147.75C89.858 147.75 90.4782 147.584 90.9375 147.253C91.4015 146.917 91.6335 146.514 91.6335 146.045C91.6335 145.667 91.5009 145.349 91.2358 145.094C90.9706 144.833 90.5634 144.639 90.0142 144.511L88.196 144.085C87.197 143.848 86.4631 143.482 85.9943 142.984C85.5303 142.482 85.2983 141.855 85.2983 141.102C85.2983 140.487 85.4711 139.942 85.8168 139.469C86.1671 138.995 86.643 138.624 87.2443 138.354C87.8504 138.084 88.5369 137.949 89.304 137.949C90.3835 137.949 91.2311 138.186 91.8466 138.659C92.4669 139.133 92.9072 139.758 93.1676 140.534ZM100.321 149.227C99.2987 149.227 98.418 148.986 97.6793 148.503C96.9407 148.02 96.3725 147.355 95.9748 146.507C95.5771 145.66 95.3782 144.691 95.3782 143.602C95.3782 142.494 95.5818 141.517 95.989 140.669C96.4009 139.817 96.9738 139.152 97.7077 138.673C98.4464 138.19 99.3081 137.949 100.293 137.949C101.06 137.949 101.751 138.091 102.367 138.375C102.982 138.659 103.487 139.057 103.88 139.568C104.273 140.08 104.516 140.676 104.611 141.358H102.935C102.807 140.861 102.523 140.42 102.083 140.037C101.647 139.649 101.06 139.455 100.321 139.455C99.668 139.455 99.0951 139.625 98.6026 139.966C98.1149 140.302 97.7338 140.778 97.4592 141.393C97.1893 142.004 97.0543 142.722 97.0543 143.545C97.0543 144.388 97.1869 145.122 97.4521 145.747C97.7219 146.372 98.1007 146.857 98.5884 147.203C99.0808 147.549 99.6585 147.722 100.321 147.722C100.757 147.722 101.152 147.646 101.507 147.494C101.863 147.343 102.163 147.125 102.409 146.841C102.656 146.557 102.831 146.216 102.935 145.818H104.611C104.516 146.462 104.282 147.042 103.908 147.558C103.539 148.07 103.049 148.477 102.438 148.78C101.832 149.078 101.126 149.227 100.321 149.227ZM107.061 149V138.091H108.681V139.739H108.794C108.993 139.199 109.353 138.761 109.874 138.425C110.395 138.089 110.982 137.92 111.635 137.92C111.758 137.92 111.912 137.923 112.097 137.928C112.282 137.932 112.421 137.939 112.516 137.949V139.653C112.459 139.639 112.329 139.618 112.125 139.589C111.926 139.556 111.716 139.54 111.493 139.54C110.963 139.54 110.489 139.651 110.073 139.874C109.661 140.091 109.334 140.394 109.093 140.783C108.856 141.166 108.738 141.604 108.738 142.097V149H107.061ZM118.745 149.227C117.694 149.227 116.787 148.995 116.025 148.531C115.267 148.062 114.682 147.409 114.27 146.571C113.863 145.728 113.659 144.748 113.659 143.631C113.659 142.513 113.863 141.528 114.27 140.676C114.682 139.819 115.255 139.152 115.989 138.673C116.728 138.19 117.589 137.949 118.574 137.949C119.142 137.949 119.703 138.044 120.257 138.233C120.811 138.422 121.316 138.73 121.77 139.156C122.225 139.578 122.587 140.136 122.857 140.832C123.127 141.528 123.262 142.385 123.262 143.403V144.114H114.853V142.665H121.557C121.557 142.049 121.434 141.5 121.188 141.017C120.946 140.534 120.601 140.153 120.151 139.874C119.706 139.594 119.18 139.455 118.574 139.455C117.907 139.455 117.329 139.62 116.841 139.952C116.358 140.278 115.987 140.705 115.726 141.23C115.466 141.756 115.336 142.319 115.336 142.92V143.886C115.336 144.71 115.478 145.409 115.762 145.982C116.051 146.55 116.451 146.983 116.962 147.281C117.473 147.575 118.068 147.722 118.745 147.722C119.185 147.722 119.583 147.66 119.938 147.537C120.298 147.409 120.608 147.22 120.868 146.969C121.129 146.713 121.33 146.396 121.472 146.017L123.091 146.472C122.921 147.021 122.634 147.504 122.232 147.92C121.829 148.332 121.332 148.654 120.74 148.886C120.149 149.114 119.483 149.227 118.745 149.227ZM130.556 138.091V139.511H124.902V138.091H130.556ZM126.55 135.477H128.226V145.875C128.226 146.348 128.295 146.704 128.432 146.94C128.574 147.172 128.754 147.329 128.972 147.409C129.194 147.485 129.429 147.523 129.675 147.523C129.86 147.523 130.011 147.513 130.13 147.494C130.248 147.471 130.343 147.452 130.414 147.438L130.755 148.943C130.641 148.986 130.482 149.028 130.279 149.071C130.075 149.118 129.817 149.142 129.505 149.142C129.031 149.142 128.567 149.04 128.113 148.837C127.663 148.633 127.289 148.323 126.99 147.906C126.697 147.49 126.55 146.964 126.55 146.33V135.477ZM136.287 149.256C135.596 149.256 134.969 149.125 134.405 148.865C133.842 148.6 133.394 148.219 133.063 147.722C132.731 147.22 132.566 146.614 132.566 145.903C132.566 145.278 132.689 144.772 132.935 144.384C133.181 143.991 133.51 143.683 133.922 143.46C134.334 143.238 134.789 143.072 135.286 142.963C135.788 142.849 136.292 142.759 136.799 142.693C137.462 142.608 137.999 142.544 138.411 142.501C138.828 142.454 139.131 142.376 139.32 142.267C139.514 142.158 139.611 141.969 139.611 141.699V141.642C139.611 140.941 139.419 140.397 139.036 140.009C138.657 139.62 138.082 139.426 137.31 139.426C136.51 139.426 135.882 139.601 135.428 139.952C134.973 140.302 134.654 140.676 134.469 141.074L132.878 140.506C133.162 139.843 133.541 139.327 134.015 138.957C134.493 138.583 135.014 138.323 135.577 138.176C136.145 138.025 136.704 137.949 137.253 137.949C137.604 137.949 138.006 137.991 138.461 138.077C138.92 138.157 139.363 138.325 139.789 138.581C140.22 138.837 140.577 139.223 140.861 139.739C141.145 140.255 141.287 140.946 141.287 141.812V149H139.611V147.523H139.526C139.412 147.759 139.223 148.013 138.958 148.283C138.693 148.553 138.34 148.782 137.9 148.972C137.459 149.161 136.922 149.256 136.287 149.256ZM136.543 147.75C137.206 147.75 137.765 147.62 138.219 147.359C138.678 147.099 139.024 146.763 139.256 146.351C139.493 145.939 139.611 145.506 139.611 145.051V143.517C139.54 143.602 139.384 143.68 139.142 143.751C138.906 143.818 138.631 143.877 138.319 143.929C138.011 143.976 137.71 144.019 137.417 144.057C137.128 144.09 136.893 144.118 136.713 144.142C136.278 144.199 135.871 144.291 135.492 144.419C135.118 144.542 134.815 144.729 134.583 144.98C134.355 145.226 134.242 145.562 134.242 145.989C134.242 146.571 134.457 147.011 134.888 147.31C135.324 147.603 135.875 147.75 136.543 147.75ZM152.074 140.534L150.568 140.96C150.473 140.709 150.334 140.465 150.149 140.229C149.969 139.987 149.723 139.788 149.411 139.632C149.098 139.476 148.698 139.398 148.21 139.398C147.543 139.398 146.986 139.552 146.541 139.859C146.101 140.162 145.881 140.548 145.881 141.017C145.881 141.434 146.032 141.763 146.335 142.004C146.638 142.246 147.112 142.447 147.756 142.608L149.375 143.006C150.35 143.242 151.077 143.605 151.555 144.092C152.034 144.575 152.273 145.198 152.273 145.96C152.273 146.585 152.093 147.144 151.733 147.636C151.378 148.129 150.881 148.517 150.241 148.801C149.602 149.085 148.859 149.227 148.011 149.227C146.899 149.227 145.978 148.986 145.249 148.503C144.519 148.02 144.058 147.314 143.864 146.386L145.455 145.989C145.606 146.576 145.893 147.016 146.314 147.31C146.74 147.603 147.296 147.75 147.983 147.75C148.764 147.75 149.384 147.584 149.844 147.253C150.308 146.917 150.54 146.514 150.54 146.045C150.54 145.667 150.407 145.349 150.142 145.094C149.877 144.833 149.47 144.639 148.92 144.511L147.102 144.085C146.103 143.848 145.369 143.482 144.901 142.984C144.437 142.482 144.205 141.855 144.205 141.102C144.205 140.487 144.377 139.942 144.723 139.469C145.073 138.995 145.549 138.624 146.151 138.354C146.757 138.084 147.443 137.949 148.21 137.949C149.29 137.949 150.137 138.186 150.753 138.659C151.373 139.133 151.813 139.758 152.074 140.534Z" fill="#FAFAFA"/>
<path d="M88.9798 54.6354C92.2671 54.6354 94.932 52.1009 94.932 48.9745C94.932 45.8481 92.2671 43.3137 88.9798 43.3137C85.6925 43.3137 83.0276 45.8481 83.0276 48.9745C83.0276 52.1009 85.6925 54.6354 88.9798 54.6354Z" fill="#FAFAFA" stroke="#FAFAFA" stroke-width="0.660352"/>
<path d="M84.7232 70.2449C87.3318 70.2449 89.4465 68.2337 89.4465 65.7528C89.4465 63.272 87.3318 61.2608 84.7232 61.2608C82.1147 61.2608 80 63.272 80 65.7528C80 68.2337 82.1147 70.2449 84.7232 70.2449Z" fill="#FAFAFA" stroke="#FAFAFA" stroke-width="0.660352"/>
<path d="M92.8018 85.3046C95.1813 85.3046 97.1103 83.47 97.1103 81.2069C97.1103 78.9439 95.1813 77.1093 92.8018 77.1093C90.4222 77.1093 88.4932 78.9439 88.4932 81.2069C88.4932 83.47 90.4222 85.3046 92.8018 85.3046Z" fill="#FAFAFA" stroke="#FAFAFA" stroke-width="0.660352"/>
<path d="M109.436 92C111.697 92 113.53 90.2569 113.53 88.1066C113.53 85.9563 111.697 84.2132 109.436 84.2132C107.175 84.2132 105.343 85.9563 105.343 88.1066C105.343 90.2569 107.175 92 109.436 92Z" fill="#FAFAFA" stroke="#FAFAFA" stroke-width="0.660352"/>
<path d="M126.842 86.5422C128.769 86.5422 130.331 85.0565 130.331 83.2239C130.331 81.3913 128.769 79.9056 126.842 79.9056C124.915 79.9056 123.353 81.3913 123.353 83.2239C123.353 85.0565 124.915 86.5422 126.842 86.5422Z" fill="#FAFAFA" stroke="#FAFAFA" stroke-width="0.660352"/>
<path d="M136.876 71.8142C138.601 71.8142 140 70.4841 140 68.8433C140 67.2025 138.601 65.8723 136.876 65.8723C135.151 65.8723 133.752 67.2025 133.752 68.8433C133.752 70.4841 135.151 71.8142 136.876 71.8142Z" fill="#FAFAFA" stroke="#FAFAFA" stroke-width="0.660352"/>
<path d="M135.263 53.9625C136.58 53.7415 137.461 52.5461 137.229 51.2924C136.998 50.0382 135.74 49.2012 134.423 49.4222C133.103 49.6432 132.223 50.838 132.455 52.0923C132.688 53.3465 133.943 54.1835 135.263 53.9625Z" fill="#FAFAFA" stroke="#FAFAFA" stroke-width="0.660352"/>
<path d="M121.692 41.397C122.621 41.397 123.374 40.6808 123.374 39.7973C123.374 38.9138 122.621 38.1976 121.692 38.1976C120.763 38.1976 120.01 38.9138 120.01 39.7973C120.01 40.6808 120.763 41.397 121.692 41.397Z" fill="#FAFAFA" stroke="#FAFAFA" stroke-width="0.660352"/>
<path d="M103.58 45.4489C107.485 45.4489 110.65 42.4383 110.65 38.7244C110.65 35.0106 107.485 32 103.58 32C99.6749 32 96.5093 35.0106 96.5093 38.7244C96.5093 42.4383 99.6749 45.4489 103.58 45.4489Z" fill="#FAFAFA" stroke="#FAFAFA" stroke-width="0.660352"/>
<path d="M101.382 49.5317H99.0336C98.2017 49.5317 97.5234 50.1756 97.5234 50.9674V55.4334C97.5234 56.2246 98.2017 56.8685 99.0336 56.8685H101.382C102.214 56.8685 102.89 56.2246 102.89 55.4334V50.9674C102.89 50.1756 102.214 49.5317 101.382 49.5317ZM101.883 55.434C101.883 55.6978 101.658 55.912 101.382 55.912H99.0336C98.757 55.912 98.5298 55.6972 98.5298 55.434V50.968C98.5298 50.7043 98.7576 50.4901 99.0336 50.4901H101.382C101.659 50.4901 101.883 50.7049 101.883 50.968V55.434Z" fill="#FAFAFA" stroke="#FAFAFA" stroke-width="0.660352"/>
<path d="M113.876 56.8691H116.222C117.055 56.8691 117.733 56.2252 117.733 55.434V50.968C117.733 50.1762 117.055 49.5323 116.222 49.5323H113.876C113.044 49.5323 112.368 50.1762 112.368 50.968V55.434C112.368 56.2252 113.044 56.8691 113.876 56.8691ZM113.374 50.968C113.374 50.7043 113.599 50.4901 113.876 50.4901H116.222C116.501 50.4901 116.726 50.7049 116.726 50.968V55.434C116.726 55.6978 116.499 55.912 116.222 55.912H113.876C113.598 55.912 113.374 55.6971 113.374 55.434V50.968Z" fill="#FAFAFA" stroke="#FAFAFA" stroke-width="0.660352"/>
<path d="M111.024 66.2797V61.813C111.024 61.0224 110.348 60.3786 109.516 60.3786H107.167C106.335 60.3786 105.659 61.0224 105.659 61.813V66.2797C105.659 67.0709 106.335 67.7141 107.167 67.7141H109.516C110.348 67.7141 111.024 67.0709 111.024 66.2797ZM106.664 66.2797V61.813C106.664 61.5493 106.89 61.3351 107.166 61.3351H109.515C109.792 61.3351 110.017 61.5499 110.017 61.813V66.2797C110.017 66.5434 109.792 66.757 109.515 66.757H107.166C106.89 66.7582 106.664 66.5434 106.664 66.2797Z" fill="#FAFAFA" stroke="#FAFAFA" stroke-width="0.660352"/>
<path d="M100.921 70.0183H98.573C97.7411 70.0183 97.0635 70.6634 97.0635 71.454V75.9206C97.0635 76.7112 97.7411 77.3544 98.573 77.3544H100.921C101.753 77.3544 102.429 76.7112 102.429 75.9206V71.454C102.429 70.6634 101.753 70.0183 100.921 70.0183ZM101.423 75.9206C101.423 76.1843 101.198 76.3979 100.921 76.3979H98.573C98.2957 76.3979 98.0698 76.1837 98.0698 75.9206V71.454C98.0698 71.1896 98.2964 70.976 98.573 70.976H100.921C101.199 70.976 101.423 71.1908 101.423 71.454V75.9206Z" fill="#FAFAFA" stroke="#FAFAFA" stroke-width="0.660352"/>
<path d="M116.819 70.2152H114.471C113.639 70.2152 112.964 70.8597 112.964 71.6502V76.1169C112.964 76.9087 113.639 77.5513 114.471 77.5513H116.819C117.651 77.5513 118.328 76.9087 118.328 76.1169V71.6502C118.328 70.8597 117.651 70.2152 116.819 70.2152ZM117.321 76.1169C117.321 76.3806 117.095 76.5948 116.819 76.5948H114.471C114.194 76.5948 113.969 76.38 113.969 76.1169V71.6502C113.969 71.3865 114.196 71.1729 114.471 71.1729H116.819C117.096 71.1729 117.321 71.3877 117.321 71.6502V76.1169Z" fill="#FAFAFA" stroke="#FAFAFA" stroke-width="0.660352"/>
<path d="M105.861 51.7586L107.839 50.4492V56.3911C107.839 56.6561 108.064 56.8691 108.342 56.8691C108.619 56.8691 108.844 56.6555 108.844 56.3911V49.5317C108.844 49.3528 108.74 49.1894 108.574 49.107C108.406 49.0235 108.207 49.0365 108.054 49.1386L105.285 50.9723C105.057 51.124 105.001 51.4224 105.161 51.6391C105.32 51.8564 105.634 51.909 105.861 51.7586Z" fill="#FAFAFA" stroke="#FAFAFA" stroke-width="0.660352"/>
<path d="M101.13 67.9549C101.408 67.9549 101.633 67.7407 101.633 67.4764V60.6176C101.633 60.4399 101.529 60.2752 101.362 60.1929C101.196 60.1099 100.995 60.1235 100.842 60.2251L98.0741 62.0594C97.8462 62.2098 97.7909 62.5101 97.9497 62.7249C98.1086 62.9422 98.4217 62.9955 98.6495 62.8438L100.627 61.5344V67.4764C100.628 67.7407 100.851 67.9549 101.13 67.9549Z" fill="#FAFAFA" stroke="#FAFAFA" stroke-width="0.660352"/>
<path d="M108.929 77.5952C109.208 77.5952 109.432 77.3798 109.432 77.1167V70.2579C109.432 70.0802 109.328 69.9155 109.162 69.8326C108.995 69.7503 108.795 69.7633 108.641 69.8654L105.874 71.6991C105.645 71.8496 105.59 72.1498 105.749 72.3652C105.908 72.5813 106.221 72.6352 106.449 72.4841L108.426 71.1735V77.1167C108.427 77.381 108.651 77.5952 108.929 77.5952Z" fill="#FAFAFA" stroke="#FAFAFA" stroke-width="0.660352"/>
<path d="M116.434 67.9549C116.711 67.9549 116.937 67.7407 116.937 67.4764V60.6176C116.937 60.4399 116.832 60.2752 116.667 60.1929C116.501 60.1099 116.301 60.1235 116.145 60.2251L113.38 62.0594C113.149 62.2098 113.095 62.5101 113.254 62.7249C113.413 62.9422 113.726 62.9955 113.954 62.8438L115.93 61.5344V67.4764C115.93 67.7407 116.156 67.9549 116.434 67.9549Z" fill="#FAFAFA" stroke="#FAFAFA" stroke-width="0.660352"/>
<path d="M124.618 56.8691C125.45 56.8691 126.126 56.2252 126.126 55.434V50.968C126.126 50.1762 125.45 49.5323 124.618 49.5323H122.271C121.438 49.5323 120.762 50.1762 120.762 50.968V55.434C120.762 56.2252 121.438 56.8691 122.271 56.8691H124.618ZM121.768 55.434V50.968C121.768 50.7043 121.993 50.4901 122.269 50.4901H124.617C124.895 50.4901 125.121 50.7049 125.121 50.968V55.434C125.121 55.6978 124.893 55.912 124.617 55.912H122.271C121.993 55.912 121.768 55.6971 121.768 55.434Z" fill="#FAFAFA" stroke="#FAFAFA" stroke-width="0.660352"/>
<path d="M126.721 76.1169V71.6502C126.721 70.8597 126.045 70.2152 125.212 70.2152H122.865C122.033 70.2152 121.357 70.8597 121.357 71.6502V76.1169C121.357 76.9087 122.033 77.5513 122.865 77.5513H125.212C126.045 77.5513 126.721 76.9087 126.721 76.1169ZM122.361 76.1169V71.6502C122.361 71.3865 122.588 71.1729 122.864 71.1729H125.211C125.488 71.1729 125.714 71.3877 125.714 71.6502V76.1169C125.714 76.3806 125.487 76.5948 125.211 76.5948H122.864C122.588 76.5948 122.361 76.3806 122.361 76.1169Z" fill="#FAFAFA" stroke="#FAFAFA" stroke-width="0.660352"/>
<path d="M124.827 67.9549C125.105 67.9549 125.33 67.7407 125.33 67.4764V60.6176C125.33 60.4399 125.225 60.2752 125.061 60.1929C124.894 60.1099 124.694 60.1235 124.539 60.2251L121.773 62.0594C121.544 62.2098 121.488 62.5101 121.647 62.7249C121.806 62.9422 122.12 62.9955 122.347 62.8438L124.323 61.5344V67.4764C124.325 67.7407 124.551 67.9549 124.827 67.9549Z" fill="#FAFAFA" stroke="#FAFAFA" stroke-width="0.660352"/>
</svg>
