<svg width="30" height="40" viewBox="0 0 30 40" fill="none" xmlns="http://www.w3.org/2000/svg">
<path d="M4.09091 0C1.84813 0 0 1.80698 0 3.99991V35.9999C0 38.1929 1.84813 40 4.09091 40H25.9091C28.1519 40 30 38.1929 30 35.9999V3.99991C30 1.80698 28.1519 0 25.9091 0H4.09091ZM4.09091 2.66655H25.9091C26.6881 2.66655 27.2727 3.23826 27.2727 3.99991V35.9999C27.2727 36.7616 26.6881 37.3333 25.9091 37.3333H4.09091C3.31195 37.3333 2.72727 36.7616 2.72727 35.9999V3.99991C2.72727 3.23826 3.31195 2.66655 4.09091 2.66655Z" fill="#B5BF00"/>
<path d="M16.363 33.3363C16.363 33.6899 16.2193 34.0291 15.9636 34.2792C15.7079 34.5292 15.361 34.6696 14.9994 34.6696C14.6377 34.6696 14.2909 34.5292 14.0351 34.2792C13.7794 34.0291 13.6357 33.6899 13.6357 33.3363C13.6357 33.1612 13.671 32.9878 13.7395 32.826C13.8081 32.6642 13.9085 32.5172 14.0351 32.3934C14.1618 32.2696 14.3121 32.1714 14.4775 32.1044C14.643 32.0374 14.8203 32.0029 14.9994 32.0029C15.1785 32.0029 15.3558 32.0374 15.5212 32.1044C15.6867 32.1714 15.837 32.2696 15.9636 32.3934C16.0903 32.5172 16.1907 32.6642 16.2592 32.826C16.3278 32.9878 16.363 33.1612 16.363 33.3363Z" fill="#B5BF00"/>
<path d="M12.2771 5.32971C11.9153 5.32971 11.5684 5.47023 11.3126 5.72034C11.0568 5.97045 10.9131 6.30966 10.9131 6.66337C10.9131 7.01708 11.0568 7.3563 11.3126 7.60641C11.5684 7.85652 11.9153 7.99703 12.2771 7.99703H17.7229C18.0846 7.99703 18.4316 7.85652 18.6874 7.60641C18.9432 7.3563 19.0869 7.01708 19.0869 6.66337C19.0869 6.30966 18.9432 5.97045 18.6874 5.72034C18.4316 5.47023 18.0846 5.32971 17.7229 5.32971H12.2771Z" fill="#B5BF00"/>
</svg>
