<svg width="220" height="175" viewBox="0 0 220 175" fill="none" xmlns="http://www.w3.org/2000/svg">
<rect width="220" height="175" rx="5" fill="#B5BF00"/>
<line x1="82" y1="100.656" x2="139" y2="100.656" stroke="#FAFAFA"/>
<path d="M63.6223 112.135H65.5144L69.9632 123.001H70.1167L74.5655 112.135H76.4576V125.225H74.9746V115.279H74.8468L70.7559 125.225H69.324L65.2331 115.279H65.1053V125.225H63.6223V112.135ZM83.4201 125.43C82.5337 125.43 81.756 125.219 81.087 124.797C80.4222 124.375 79.9023 123.785 79.5273 123.027C79.1566 122.268 78.9712 121.382 78.9712 120.368C78.9712 119.345 79.1566 118.452 79.5273 117.689C79.9023 116.926 80.4222 116.334 81.087 115.912C81.756 115.49 82.5337 115.279 83.4201 115.279C84.3065 115.279 85.082 115.49 85.7468 115.912C86.4158 116.334 86.9357 116.926 87.3065 117.689C87.6815 118.452 87.869 119.345 87.869 120.368C87.869 121.382 87.6815 122.268 87.3065 123.027C86.9357 123.785 86.4158 124.375 85.7468 124.797C85.082 125.219 84.3065 125.43 83.4201 125.43ZM83.4201 124.075C84.0934 124.075 84.6474 123.902 85.082 123.557C85.5167 123.212 85.8384 122.758 86.0472 122.196C86.256 121.633 86.3604 121.024 86.3604 120.368C86.3604 119.711 86.256 119.1 86.0472 118.533C85.8384 117.966 85.5167 117.508 85.082 117.159C84.6474 116.809 84.0934 116.635 83.4201 116.635C82.7468 116.635 82.1928 116.809 81.7582 117.159C81.3235 117.508 81.0018 117.966 80.793 118.533C80.5842 119.1 80.4798 119.711 80.4798 120.368C80.4798 121.024 80.5842 121.633 80.793 122.196C81.0018 122.758 81.3235 123.212 81.7582 123.557C82.1928 123.902 82.7468 124.075 83.4201 124.075ZM94.4416 115.407V116.686H89.3535V115.407H94.4416ZM90.8365 113.055H92.345V122.413C92.345 122.839 92.4068 123.159 92.5304 123.372C92.6582 123.581 92.8201 123.721 93.0162 123.794C93.2164 123.862 93.4274 123.896 93.649 123.896C93.8152 123.896 93.9515 123.887 94.0581 123.87C94.1646 123.849 94.2498 123.832 94.3137 123.819L94.6206 125.174C94.5183 125.213 94.3755 125.251 94.1923 125.289C94.0091 125.332 93.7768 125.353 93.4956 125.353C93.0694 125.353 92.6518 125.262 92.2427 125.078C91.8379 124.895 91.5012 124.616 91.2328 124.241C90.9686 123.866 90.8365 123.393 90.8365 122.822V113.055ZM100.594 125.43C99.7076 125.43 98.9299 125.219 98.2608 124.797C97.5961 124.375 97.0762 123.785 96.7012 123.027C96.3304 122.268 96.1451 121.382 96.1451 120.368C96.1451 119.345 96.3304 118.452 96.7012 117.689C97.0762 116.926 97.5961 116.334 98.2608 115.912C98.9299 115.49 99.7076 115.279 100.594 115.279C101.48 115.279 102.256 115.49 102.921 115.912C103.59 116.334 104.11 116.926 104.48 117.689C104.855 118.452 105.043 119.345 105.043 120.368C105.043 121.382 104.855 122.268 104.48 123.027C104.11 123.785 103.59 124.375 102.921 124.797C102.256 125.219 101.48 125.43 100.594 125.43ZM100.594 124.075C101.267 124.075 101.821 123.902 102.256 123.557C102.691 123.212 103.012 122.758 103.221 122.196C103.43 121.633 103.534 121.024 103.534 120.368C103.534 119.711 103.43 119.1 103.221 118.533C103.012 117.966 102.691 117.508 102.256 117.159C101.821 116.809 101.267 116.635 100.594 116.635C99.9206 116.635 99.3667 116.809 98.932 117.159C98.4973 117.508 98.1756 117.966 97.9668 118.533C97.758 119.1 97.6536 119.711 97.6536 120.368C97.6536 121.024 97.758 121.633 97.9668 122.196C98.1756 122.758 98.4973 123.212 98.932 123.557C99.3667 123.902 99.9206 124.075 100.594 124.075ZM107.346 125.225V115.407H108.803V116.89H108.905C109.084 116.404 109.408 116.01 109.877 115.708C110.346 115.405 110.874 115.254 111.462 115.254C111.573 115.254 111.711 115.256 111.877 115.26C112.044 115.265 112.169 115.271 112.255 115.279V116.814C112.203 116.801 112.086 116.782 111.903 116.756C111.724 116.726 111.534 116.711 111.334 116.711C110.857 116.711 110.431 116.811 110.056 117.012C109.685 117.208 109.391 117.48 109.174 117.83C108.961 118.175 108.854 118.569 108.854 119.012V125.225H107.346ZM117.86 125.43C116.914 125.43 116.098 125.221 115.412 124.804C114.73 124.382 114.204 123.794 113.833 123.039C113.467 122.281 113.284 121.399 113.284 120.393C113.284 119.387 113.467 118.501 113.833 117.734C114.204 116.963 114.72 116.362 115.38 115.931C116.045 115.497 116.821 115.279 117.707 115.279C118.218 115.279 118.723 115.365 119.222 115.535C119.721 115.706 120.174 115.983 120.583 116.366C120.993 116.745 121.319 117.248 121.561 117.875C121.804 118.501 121.926 119.272 121.926 120.189V120.828H114.358V119.524H120.392C120.392 118.97 120.281 118.475 120.059 118.041C119.842 117.606 119.531 117.263 119.126 117.012C118.725 116.76 118.252 116.635 117.707 116.635C117.106 116.635 116.586 116.784 116.147 117.082C115.713 117.376 115.378 117.76 115.144 118.233C114.909 118.706 114.792 119.213 114.792 119.754V120.623C114.792 121.365 114.92 121.993 115.176 122.509C115.436 123.02 115.796 123.41 116.256 123.679C116.716 123.943 117.251 124.075 117.86 124.075C118.257 124.075 118.615 124.019 118.934 123.909C119.258 123.794 119.537 123.623 119.772 123.397C120.006 123.167 120.187 122.882 120.315 122.541L121.772 122.95C121.619 123.444 121.361 123.879 120.999 124.254C120.637 124.625 120.189 124.914 119.657 125.123C119.124 125.328 118.525 125.43 117.86 125.43ZM131.175 117.606L129.82 117.99C129.735 117.764 129.609 117.544 129.443 117.331C129.281 117.114 129.059 116.935 128.778 116.794C128.497 116.654 128.137 116.583 127.698 116.583C127.097 116.583 126.596 116.722 126.196 116.999C125.799 117.272 125.601 117.619 125.601 118.041C125.601 118.416 125.738 118.712 126.01 118.929C126.283 119.147 126.709 119.328 127.289 119.473L128.746 119.831C129.624 120.044 130.278 120.37 130.708 120.809C131.139 121.243 131.354 121.804 131.354 122.49C131.354 123.052 131.192 123.555 130.868 123.998C130.549 124.441 130.101 124.791 129.526 125.046C128.951 125.302 128.282 125.43 127.519 125.43C126.517 125.43 125.689 125.213 125.032 124.778C124.376 124.343 123.961 123.708 123.786 122.873L125.218 122.515C125.354 123.044 125.612 123.44 125.991 123.704C126.375 123.968 126.875 124.1 127.493 124.1C128.196 124.1 128.755 123.951 129.168 123.653C129.586 123.35 129.794 122.988 129.794 122.566C129.794 122.225 129.675 121.94 129.436 121.71C129.198 121.475 128.831 121.301 128.337 121.186L126.701 120.802C125.801 120.589 125.141 120.259 124.719 119.811C124.301 119.36 124.093 118.795 124.093 118.118C124.093 117.564 124.248 117.073 124.559 116.647C124.875 116.221 125.303 115.887 125.844 115.644C126.39 115.401 127.007 115.279 127.698 115.279C128.669 115.279 129.432 115.493 129.986 115.919C130.544 116.345 130.941 116.907 131.175 117.606ZM142.395 125.43C141.577 125.43 140.854 125.223 140.228 124.81C139.601 124.392 139.111 123.804 138.758 123.046C138.404 122.283 138.227 121.382 138.227 120.342C138.227 119.311 138.404 118.416 138.758 117.657C139.111 116.899 139.604 116.313 140.234 115.899C140.865 115.486 141.594 115.279 142.42 115.279C143.059 115.279 143.564 115.386 143.935 115.599C144.31 115.808 144.596 116.046 144.792 116.315C144.992 116.579 145.148 116.796 145.258 116.967H145.386V112.135H146.895V125.225H145.437V123.717H145.258C145.148 123.896 144.99 124.122 144.785 124.394C144.581 124.663 144.289 124.904 143.91 125.117C143.53 125.326 143.025 125.43 142.395 125.43ZM142.599 124.075C143.204 124.075 143.716 123.917 144.133 123.602C144.551 123.282 144.868 122.841 145.086 122.279C145.303 121.712 145.412 121.058 145.412 120.316C145.412 119.583 145.305 118.942 145.092 118.392C144.879 117.838 144.564 117.408 144.146 117.101C143.729 116.79 143.213 116.635 142.599 116.635C141.96 116.635 141.427 116.799 141.001 117.127C140.579 117.451 140.262 117.892 140.049 118.45C139.84 119.004 139.736 119.626 139.736 120.316C139.736 121.015 139.842 121.65 140.055 122.221C140.273 122.788 140.592 123.24 141.014 123.576C141.44 123.909 141.969 124.075 142.599 124.075ZM153.983 125.43C153.037 125.43 152.221 125.221 151.535 124.804C150.854 124.382 150.327 123.794 149.956 123.039C149.59 122.281 149.407 121.399 149.407 120.393C149.407 119.387 149.59 118.501 149.956 117.734C150.327 116.963 150.843 116.362 151.503 115.931C152.168 115.497 152.944 115.279 153.83 115.279C154.341 115.279 154.846 115.365 155.345 115.535C155.844 115.706 156.297 115.983 156.706 116.366C157.116 116.745 157.442 117.248 157.684 117.875C157.927 118.501 158.049 119.272 158.049 120.189V120.828H150.481V119.524H156.515C156.515 118.97 156.404 118.475 156.182 118.041C155.965 117.606 155.654 117.263 155.249 117.012C154.849 116.76 154.376 116.635 153.83 116.635C153.229 116.635 152.709 116.784 152.27 117.082C151.836 117.376 151.501 117.76 151.267 118.233C151.032 118.706 150.915 119.213 150.915 119.754V120.623C150.915 121.365 151.043 121.993 151.299 122.509C151.559 123.02 151.919 123.41 152.379 123.679C152.839 123.943 153.374 124.075 153.983 124.075C154.38 124.075 154.738 124.019 155.057 123.909C155.381 123.794 155.66 123.623 155.895 123.397C156.129 123.167 156.31 122.882 156.438 122.541L157.895 122.95C157.742 123.444 157.484 123.879 157.122 124.254C156.76 124.625 156.312 124.914 155.78 125.123C155.247 125.328 154.648 125.43 153.983 125.43ZM46.9407 147.225V134.135H48.4492V138.967H48.5771C48.6879 138.796 48.8413 138.579 49.0373 138.315C49.2376 138.046 49.5231 137.808 49.8938 137.599C50.2688 137.386 50.7759 137.279 51.4151 137.279C52.2418 137.279 52.9705 137.486 53.6012 137.899C54.2319 138.313 54.7241 138.899 55.0778 139.657C55.4315 140.416 55.6083 141.311 55.6083 142.342C55.6083 143.382 55.4315 144.283 55.0778 145.046C54.7241 145.804 54.234 146.392 53.6076 146.81C52.9812 147.223 52.2589 147.43 51.4407 147.43C50.81 147.43 50.305 147.326 49.9258 147.117C49.5465 146.904 49.2546 146.663 49.0501 146.394C48.8455 146.122 48.6879 145.896 48.5771 145.717H48.3981V147.225H46.9407ZM48.4237 142.316C48.4237 143.058 48.5323 143.712 48.7496 144.279C48.967 144.841 49.2844 145.282 49.7021 145.602C50.1197 145.917 50.631 146.075 51.2362 146.075C51.8668 146.075 52.3931 145.909 52.815 145.576C53.2411 145.24 53.5607 144.788 53.7738 144.221C53.9911 143.65 54.0998 143.015 54.0998 142.316C54.0998 141.626 53.9933 141.004 53.7802 140.45C53.5714 139.892 53.2539 139.451 52.8278 139.127C52.4059 138.799 51.8754 138.635 51.2362 138.635C50.6225 138.635 50.1069 138.79 49.6893 139.101C49.2717 139.408 48.9563 139.838 48.7433 140.392C48.5302 140.942 48.4237 141.583 48.4237 142.316ZM60.805 147.456C60.1829 147.456 59.6183 147.338 59.1112 147.104C58.604 146.865 58.2013 146.522 57.9031 146.075C57.6048 145.623 57.4556 145.078 57.4556 144.439C57.4556 143.876 57.5664 143.42 57.788 143.071C58.0096 142.717 58.3058 142.44 58.6765 142.24C59.0472 142.039 59.4563 141.89 59.9038 141.792C60.3555 141.69 60.8093 141.609 61.2653 141.549C61.8619 141.473 62.3455 141.415 62.7163 141.377C63.0913 141.334 63.364 141.264 63.5344 141.166C63.7092 141.068 63.7965 140.897 63.7965 140.654V140.603C63.7965 139.973 63.6239 139.483 63.2788 139.133C62.9379 138.784 62.4201 138.609 61.7255 138.609C61.0053 138.609 60.4407 138.767 60.0316 139.082C59.6225 139.397 59.3349 139.734 59.1687 140.092L57.7369 139.581C57.9925 138.984 58.3335 138.519 58.7596 138.187C59.19 137.85 59.6587 137.616 60.1658 137.484C60.6772 137.348 61.18 137.279 61.6744 137.279C61.9897 137.279 62.3519 137.318 62.761 137.394C63.1744 137.467 63.5728 137.618 63.9563 137.848C64.3441 138.078 64.6658 138.426 64.9215 138.89C65.1772 139.355 65.305 139.977 65.305 140.757V147.225H63.7965V145.896H63.7198C63.6175 146.109 63.4471 146.337 63.2085 146.58C62.9698 146.823 62.6523 147.029 62.256 147.2C61.8597 147.37 61.3761 147.456 60.805 147.456ZM61.0352 146.1C61.6317 146.1 62.1346 145.983 62.5437 145.749C62.957 145.515 63.2681 145.212 63.4769 144.841C63.69 144.47 63.7965 144.081 63.7965 143.671V142.291C63.7326 142.368 63.592 142.438 63.3746 142.502C63.1616 142.561 62.9144 142.615 62.6332 142.662C62.3562 142.704 62.0856 142.743 61.8214 142.777C61.5614 142.806 61.3505 142.832 61.1886 142.853C60.7965 142.904 60.43 142.988 60.0891 143.103C59.7525 143.213 59.4798 143.382 59.271 143.608C59.0664 143.829 58.9641 144.132 58.9641 144.515C58.9641 145.039 59.158 145.436 59.5458 145.704C59.9379 145.968 60.4343 146.1 61.0352 146.1ZM75.013 139.606L73.6578 139.99C73.5726 139.764 73.4469 139.544 73.2807 139.331C73.1188 139.114 72.8972 138.935 72.6159 138.794C72.3347 138.654 71.9746 138.583 71.5357 138.583C70.9348 138.583 70.4341 138.722 70.0336 138.999C69.6373 139.272 69.4391 139.619 69.4391 140.041C69.4391 140.416 69.5755 140.712 69.8482 140.929C70.1209 141.147 70.5471 141.328 71.1266 141.473L72.584 141.831C73.4618 142.044 74.1159 142.37 74.5463 142.809C74.9767 143.243 75.1919 143.804 75.1919 144.49C75.1919 145.052 75.03 145.555 74.7061 145.998C74.3865 146.441 73.9391 146.791 73.3638 147.046C72.7885 147.302 72.1195 147.43 71.3567 147.43C70.3553 147.43 69.5265 147.213 68.8702 146.778C68.214 146.343 67.7985 145.708 67.6238 144.873L69.0556 144.515C69.1919 145.044 69.4498 145.44 69.829 145.704C70.2125 145.968 70.7132 146.1 71.3311 146.1C72.0343 146.1 72.5925 145.951 73.0059 145.653C73.4235 145.35 73.6323 144.988 73.6323 144.566C73.6323 144.225 73.513 143.94 73.2743 143.71C73.0357 143.475 72.6692 143.301 72.1749 143.186L70.5385 142.802C69.6394 142.589 68.9789 142.259 68.557 141.811C68.1394 141.36 67.9306 140.795 67.9306 140.118C67.9306 139.564 68.0861 139.073 68.3972 138.647C68.7125 138.221 69.1408 137.887 69.682 137.644C70.2275 137.401 70.8453 137.279 71.5357 137.279C72.5073 137.279 73.2701 137.493 73.824 137.919C74.3823 138.345 74.7786 138.907 75.013 139.606ZM81.5792 147.43C80.6332 147.43 79.8171 147.221 79.131 146.804C78.4492 146.382 77.9229 145.794 77.5522 145.039C77.1857 144.281 77.0025 143.399 77.0025 142.393C77.0025 141.387 77.1857 140.501 77.5522 139.734C77.9229 138.963 78.4386 138.362 79.0991 137.931C79.7638 137.497 80.5394 137.279 81.4258 137.279C81.9371 137.279 82.4421 137.365 82.9407 137.535C83.4393 137.706 83.8931 137.983 84.3022 138.366C84.7113 138.745 85.0373 139.248 85.2802 139.875C85.5231 140.501 85.6445 141.272 85.6445 142.189V142.828H78.0763V141.524H84.1104C84.1104 140.97 83.9996 140.475 83.7781 140.041C83.5607 139.606 83.2496 139.263 82.8448 139.012C82.4442 138.76 81.9712 138.635 81.4258 138.635C80.8249 138.635 80.305 138.784 79.8661 139.082C79.4315 139.376 79.0969 139.76 78.8626 140.233C78.6282 140.706 78.511 141.213 78.511 141.754V142.623C78.511 143.365 78.6388 143.993 78.8945 144.509C79.1545 145.02 79.5146 145.41 79.9748 145.679C80.435 145.943 80.9698 146.075 81.5792 146.075C81.9755 146.075 82.3335 146.019 82.6531 145.909C82.9769 145.794 83.256 145.623 83.4904 145.397C83.7248 145.167 83.9059 144.882 84.0337 144.541L85.4911 144.95C85.3377 145.444 85.0799 145.879 84.7177 146.254C84.3555 146.625 83.908 146.914 83.3754 147.123C82.8427 147.328 82.244 147.43 81.5792 147.43ZM94.8938 139.606L93.5387 139.99C93.4535 139.764 93.3278 139.544 93.1616 139.331C92.9996 139.114 92.7781 138.935 92.4968 138.794C92.2156 138.654 91.8555 138.583 91.4165 138.583C90.8157 138.583 90.315 138.722 89.9144 138.999C89.5181 139.272 89.32 139.619 89.32 140.041C89.32 140.416 89.4563 140.712 89.729 140.929C90.0018 141.147 90.4279 141.328 91.0075 141.473L92.4648 141.831C93.3427 142.044 93.9968 142.37 94.4272 142.809C94.8576 143.243 95.0728 143.804 95.0728 144.49C95.0728 145.052 94.9109 145.555 94.587 145.998C94.2674 146.441 93.82 146.791 93.2447 147.046C92.6694 147.302 92.0004 147.43 91.2376 147.43C90.2362 147.43 89.4073 147.213 88.7511 146.778C88.0948 146.343 87.6793 145.708 87.5046 144.873L88.9364 144.515C89.0728 145.044 89.3306 145.44 89.7099 145.704C90.0934 145.968 90.5941 146.1 91.212 146.1C91.9151 146.1 92.4734 145.951 92.8867 145.653C93.3043 145.35 93.5131 144.988 93.5131 144.566C93.5131 144.225 93.3938 143.94 93.1552 143.71C92.9165 143.475 92.5501 143.301 92.0558 143.186L90.4194 142.802C89.5202 142.589 88.8597 142.259 88.4379 141.811C88.0202 141.36 87.8114 140.795 87.8114 140.118C87.8114 139.564 87.967 139.073 88.2781 138.647C88.5934 138.221 89.0217 137.887 89.5629 137.644C90.1083 137.401 90.7262 137.279 91.4165 137.279C92.3881 137.279 93.1509 137.493 93.7049 137.919C94.2631 138.345 94.6594 138.907 94.8938 139.606ZM106.113 147.43C105.295 147.43 104.573 147.223 103.947 146.81C103.32 146.392 102.83 145.804 102.476 145.046C102.123 144.283 101.946 143.382 101.946 142.342C101.946 141.311 102.123 140.416 102.476 139.657C102.83 138.899 103.322 138.313 103.953 137.899C104.584 137.486 105.312 137.279 106.139 137.279C106.778 137.279 107.283 137.386 107.654 137.599C108.029 137.808 108.314 138.046 108.51 138.315C108.711 138.579 108.866 138.796 108.977 138.967H109.105V134.135H110.613V147.225H109.156V145.717H108.977C108.866 145.896 108.709 146.122 108.504 146.394C108.3 146.663 108.008 146.904 107.628 147.117C107.249 147.326 106.744 147.43 106.113 147.43ZM106.318 146.075C106.923 146.075 107.434 145.917 107.852 145.602C108.27 145.282 108.587 144.841 108.805 144.279C109.022 143.712 109.131 143.058 109.131 142.316C109.131 141.583 109.024 140.942 108.811 140.392C108.598 139.838 108.282 139.408 107.865 139.101C107.447 138.79 106.932 138.635 106.318 138.635C105.679 138.635 105.146 138.799 104.72 139.127C104.298 139.451 103.981 139.892 103.768 140.45C103.559 141.004 103.454 141.626 103.454 142.316C103.454 143.015 103.561 143.65 103.774 144.221C103.991 144.788 104.311 145.24 104.733 145.576C105.159 145.909 105.687 146.075 106.318 146.075ZM117.702 147.43C116.756 147.43 115.94 147.221 115.254 146.804C114.572 146.382 114.046 145.794 113.675 145.039C113.309 144.281 113.126 143.399 113.126 142.393C113.126 141.387 113.309 140.501 113.675 139.734C114.046 138.963 114.562 138.362 115.222 137.931C115.887 137.497 116.662 137.279 117.549 137.279C118.06 137.279 118.565 137.365 119.064 137.535C119.562 137.706 120.016 137.983 120.425 138.366C120.834 138.745 121.16 139.248 121.403 139.875C121.646 140.501 121.768 141.272 121.768 142.189V142.828H114.199V141.524H120.233C120.233 140.97 120.123 140.475 119.901 140.041C119.684 139.606 119.373 139.263 118.968 139.012C118.567 138.76 118.094 138.635 117.549 138.635C116.948 138.635 116.428 138.784 115.989 139.082C115.555 139.376 115.22 139.76 114.986 140.233C114.751 140.706 114.634 141.213 114.634 141.754V142.623C114.634 143.365 114.762 143.993 115.018 144.509C115.278 145.02 115.638 145.41 116.098 145.679C116.558 145.943 117.093 146.075 117.702 146.075C118.099 146.075 118.456 146.019 118.776 145.909C119.1 145.794 119.379 145.623 119.613 145.397C119.848 145.167 120.029 144.882 120.157 144.541L121.614 144.95C121.461 145.444 121.203 145.879 120.841 146.254C120.479 146.625 120.031 146.914 119.498 147.123C118.966 147.328 118.367 147.43 117.702 147.43ZM132.832 147.43C132.014 147.43 131.292 147.223 130.665 146.81C130.039 146.392 129.549 145.804 129.195 145.046C128.841 144.283 128.665 143.382 128.665 142.342C128.665 141.311 128.841 140.416 129.195 139.657C129.549 138.899 130.041 138.313 130.672 137.899C131.302 137.486 132.031 137.279 132.858 137.279C133.497 137.279 134.002 137.386 134.373 137.599C134.748 137.808 135.033 138.046 135.229 138.315C135.43 138.579 135.585 138.796 135.696 138.967H135.824V134.135H137.332V147.225H135.875V145.717H135.696C135.585 145.896 135.427 146.122 135.223 146.394C135.018 146.663 134.726 146.904 134.347 147.117C133.968 147.326 133.463 147.43 132.832 147.43ZM133.037 146.075C133.642 146.075 134.153 145.917 134.571 145.602C134.988 145.282 135.306 144.841 135.523 144.279C135.741 143.712 135.849 143.058 135.849 142.316C135.849 141.583 135.743 140.942 135.53 140.392C135.317 139.838 135.001 139.408 134.584 139.101C134.166 138.79 133.65 138.635 133.037 138.635C132.398 138.635 131.865 138.799 131.439 139.127C131.017 139.451 130.699 139.892 130.486 140.45C130.278 141.004 130.173 141.626 130.173 142.316C130.173 143.015 130.28 143.65 130.493 144.221C130.71 144.788 131.03 145.24 131.452 145.576C131.878 145.909 132.406 146.075 133.037 146.075ZM143.194 147.456C142.572 147.456 142.007 147.338 141.5 147.104C140.993 146.865 140.59 146.522 140.292 146.075C139.993 145.623 139.844 145.078 139.844 144.439C139.844 143.876 139.955 143.42 140.177 143.071C140.398 142.717 140.694 142.44 141.065 142.24C141.436 142.039 141.845 141.89 142.292 141.792C142.744 141.69 143.198 141.609 143.654 141.549C144.251 141.473 144.734 141.415 145.105 141.377C145.48 141.334 145.753 141.264 145.923 141.166C146.098 141.068 146.185 140.897 146.185 140.654V140.603C146.185 139.973 146.013 139.483 145.667 139.133C145.327 138.784 144.809 138.609 144.114 138.609C143.394 138.609 142.829 138.767 142.42 139.082C142.011 139.397 141.724 139.734 141.557 140.092L140.126 139.581C140.381 138.984 140.722 138.519 141.148 138.187C141.579 137.85 142.047 137.616 142.555 137.484C143.066 137.348 143.569 137.279 144.063 137.279C144.378 137.279 144.741 137.318 145.15 137.394C145.563 137.467 145.961 137.618 146.345 137.848C146.733 138.078 147.055 138.426 147.31 138.89C147.566 139.355 147.694 139.977 147.694 140.757V147.225H146.185V145.896H146.108C146.006 146.109 145.836 146.337 145.597 146.58C145.358 146.823 145.041 147.029 144.645 147.2C144.248 147.37 143.765 147.456 143.194 147.456ZM143.424 146.1C144.02 146.1 144.523 145.983 144.932 145.749C145.346 145.515 145.657 145.212 145.866 144.841C146.079 144.47 146.185 144.081 146.185 143.671V142.291C146.121 142.368 145.981 142.438 145.763 142.502C145.55 142.561 145.303 142.615 145.022 142.662C144.745 142.704 144.474 142.743 144.21 142.777C143.95 142.806 143.739 142.832 143.577 142.853C143.185 142.904 142.819 142.988 142.478 143.103C142.141 143.213 141.868 143.382 141.66 143.608C141.455 143.829 141.353 144.132 141.353 144.515C141.353 145.039 141.547 145.436 141.934 145.704C142.327 145.968 142.823 146.1 143.424 146.1ZM154.717 137.407V138.686H149.629V137.407H154.717ZM151.112 135.055H152.62V144.413C152.62 144.839 152.682 145.159 152.806 145.372C152.934 145.581 153.096 145.721 153.292 145.794C153.492 145.862 153.703 145.896 153.924 145.896C154.091 145.896 154.227 145.887 154.333 145.87C154.44 145.849 154.525 145.832 154.589 145.819L154.896 147.174C154.794 147.213 154.651 147.251 154.468 147.289C154.284 147.332 154.052 147.353 153.771 147.353C153.345 147.353 152.927 147.262 152.518 147.078C152.113 146.895 151.777 146.616 151.508 146.241C151.244 145.866 151.112 145.393 151.112 144.822V135.055ZM160.869 147.43C159.983 147.43 159.205 147.219 158.536 146.797C157.871 146.375 157.352 145.785 156.977 145.027C156.606 144.268 156.42 143.382 156.42 142.368C156.42 141.345 156.606 140.452 156.977 139.689C157.352 138.926 157.871 138.334 158.536 137.912C159.205 137.49 159.983 137.279 160.869 137.279C161.756 137.279 162.531 137.49 163.196 137.912C163.865 138.334 164.385 138.926 164.756 139.689C165.131 140.452 165.318 141.345 165.318 142.368C165.318 143.382 165.131 144.268 164.756 145.027C164.385 145.785 163.865 146.375 163.196 146.797C162.531 147.219 161.756 147.43 160.869 147.43ZM160.869 146.075C161.543 146.075 162.097 145.902 162.531 145.557C162.966 145.212 163.288 144.758 163.496 144.196C163.705 143.633 163.81 143.024 163.81 142.368C163.81 141.711 163.705 141.1 163.496 140.533C163.288 139.966 162.966 139.508 162.531 139.159C162.097 138.809 161.543 138.635 160.869 138.635C160.196 138.635 159.642 138.809 159.207 139.159C158.773 139.508 158.451 139.966 158.242 140.533C158.033 141.1 157.929 141.711 157.929 142.368C157.929 143.024 158.033 143.633 158.242 144.196C158.451 144.758 158.773 145.212 159.207 145.557C159.642 145.902 160.196 146.075 160.869 146.075ZM174.575 139.606L173.22 139.99C173.135 139.764 173.009 139.544 172.843 139.331C172.681 139.114 172.46 138.935 172.178 138.794C171.897 138.654 171.537 138.583 171.098 138.583C170.497 138.583 169.997 138.722 169.596 138.999C169.2 139.272 169.002 139.619 169.002 140.041C169.002 140.416 169.138 140.712 169.411 140.929C169.683 141.147 170.11 141.328 170.689 141.473L172.146 141.831C173.024 142.044 173.678 142.37 174.109 142.809C174.539 143.243 174.754 143.804 174.754 144.49C174.754 145.052 174.593 145.555 174.269 145.998C173.949 146.441 173.502 146.791 172.926 147.046C172.351 147.302 171.682 147.43 170.919 147.43C169.918 147.43 169.089 147.213 168.433 146.778C167.776 146.343 167.361 145.708 167.186 144.873L168.618 144.515C168.754 145.044 169.012 145.44 169.392 145.704C169.775 145.968 170.276 146.1 170.894 146.1C171.597 146.1 172.155 145.951 172.568 145.653C172.986 145.35 173.195 144.988 173.195 144.566C173.195 144.225 173.075 143.94 172.837 143.71C172.598 143.475 172.232 143.301 171.737 143.186L170.101 142.802C169.202 142.589 168.541 142.259 168.119 141.811C167.702 141.36 167.493 140.795 167.493 140.118C167.493 139.564 167.649 139.073 167.96 138.647C168.275 138.221 168.703 137.887 169.244 137.644C169.79 137.401 170.408 137.279 171.098 137.279C172.07 137.279 172.833 137.493 173.387 137.919C173.945 138.345 174.341 138.907 174.575 139.606Z" fill="#FAFAFA"/>
<g clip-path="url(#clip0_21_347)">
<path d="M85 29C83.356 29 82 30.356 82 32V82C82 83.644 83.356 85 85 85H88V86C88 87.644 89.356 89 91 89H95C96.644 89 98 87.644 98 86V85H126V86C126 87.644 127.356 89 129 89H133C134.644 89 136 87.644 136 86V85H139C140.644 85 142 83.644 142 82V32C142 30.356 140.644 29 139 29H85ZM85 31H139C139.572 31 140 31.428 140 32V82C140 82.572 139.572 83 139 83H85C84.428 83 84 82.572 84 82V32C84 31.428 84.428 31 85 31ZM92 37C90.896 37 90 37.896 90 39C90 40.104 90.896 41 92 41C93.104 41 94 40.104 94 39C94 37.896 93.104 37 92 37ZM100 37C98.896 37 98 37.896 98 39C98 40.104 98.896 41 100 41C101.104 41 102 40.104 102 39C102 37.896 101.104 37 100 37ZM108 37C106.896 37 106 37.896 106 39C106 40.104 106.896 41 108 41C109.104 41 110 40.104 110 39C110 37.896 109.104 37 108 37ZM89 47C88.446 47 88 47.446 88 48C88 48.554 88.446 49 89 49H135C135.554 49 136 48.554 136 48C136 47.446 135.554 47 135 47H89ZM100 55C98.896 55 98 55.896 98 57C98 58.104 98.896 59 100 59C101.104 59 102 58.104 102 57C102 55.896 101.104 55 100 55ZM108 55C106.896 55 106 55.896 106 57C106 58.104 106.896 59 108 59C109.104 59 110 58.104 110 57C110 55.896 109.104 55 108 55ZM116 55C114.896 55 114 55.896 114 57C114 58.104 114.896 59 116 59C117.104 59 118 58.104 118 57C118 55.896 117.104 55 116 55ZM89 65C88.446 65 88 65.446 88 66C88 66.554 88.446 67 89 67H135C135.554 67 136 66.554 136 66C136 65.446 135.554 65 135 65H89ZM92 73C90.896 73 90 73.896 90 75C90 76.104 90.896 77 92 77C93.104 77 94 76.104 94 75C94 73.896 93.104 73 92 73ZM100 73C98.896 73 98 73.896 98 75C98 76.104 98.896 77 100 77C101.104 77 102 76.104 102 75C102 73.896 101.104 73 100 73ZM108 73C106.896 73 106 73.896 106 75C106 76.104 106.896 77 108 77C109.104 77 110 76.104 110 75C110 73.896 109.104 73 108 73ZM90 85H96V86C96 86.572 95.572 87 95 87H91C90.428 87 90 86.572 90 86V85ZM128 85H134V86C134 86.572 133.572 87 133 87H129C128.428 87 128 86.572 128 86V85Z" fill="#FAFAFA" stroke="#FAFAFA" stroke-width="0.6"/>
</g>
<defs>
<clipPath id="clip0_21_347">
<rect width="60" height="60" fill="white" transform="translate(82 29)"/>
</clipPath>
</defs>
</svg>
