<svg width="220" height="175" viewBox="0 0 220 175" fill="none" xmlns="http://www.w3.org/2000/svg">
<rect width="220" height="175" rx="5" fill="#B5BF00"/>
<line x1="82" y1="99.5" x2="139" y2="99.5" stroke="#FAFAFA"/>
<path d="M57.1009 124V110.909H61.5241C62.5511 110.909 63.3906 111.094 64.0426 111.465C64.6989 111.832 65.1847 112.328 65.5 112.955C65.8153 113.581 65.973 114.28 65.973 115.051C65.973 115.822 65.8153 116.523 65.5 117.154C65.1889 117.785 64.7074 118.288 64.0554 118.663C63.4034 119.033 62.5682 119.219 61.5497 119.219H58.3793V117.812H61.4986C62.2017 117.812 62.7663 117.691 63.1925 117.448C63.6186 117.205 63.9276 116.877 64.1193 116.464C64.3153 116.046 64.4134 115.575 64.4134 115.051C64.4134 114.527 64.3153 114.058 64.1193 113.645C63.9276 113.232 63.6165 112.908 63.1861 112.673C62.7557 112.435 62.1847 112.315 61.473 112.315H58.6861V124H57.1009ZM72.3331 124.205C71.3871 124.205 70.571 123.996 69.8849 123.578C69.2031 123.156 68.6768 122.568 68.3061 121.814C67.9396 121.055 67.7564 120.173 67.7564 119.168C67.7564 118.162 67.9396 117.276 68.3061 116.509C68.6768 115.737 69.1925 115.136 69.853 114.706C70.5178 114.271 71.2933 114.054 72.1797 114.054C72.6911 114.054 73.196 114.139 73.6946 114.31C74.1932 114.48 74.647 114.757 75.0561 115.141C75.4652 115.52 75.7912 116.023 76.0341 116.649C76.277 117.276 76.3984 118.047 76.3984 118.963V119.602H68.8303V118.298H74.8643C74.8643 117.744 74.7536 117.25 74.532 116.815C74.3146 116.381 74.0036 116.038 73.5987 115.786C73.1982 115.535 72.7251 115.409 72.1797 115.409C71.5788 115.409 71.0589 115.558 70.62 115.857C70.1854 116.151 69.8509 116.534 69.6165 117.007C69.3821 117.48 69.2649 117.987 69.2649 118.528V119.398C69.2649 120.139 69.3928 120.768 69.6484 121.283C69.9084 121.795 70.2685 122.185 70.7287 122.453C71.1889 122.717 71.7237 122.849 72.3331 122.849C72.7294 122.849 73.0874 122.794 73.407 122.683C73.7308 122.568 74.0099 122.398 74.2443 122.172C74.4787 121.942 74.6598 121.656 74.7876 121.315L76.245 121.724C76.0916 122.219 75.8338 122.653 75.4716 123.028C75.1094 123.399 74.6619 123.689 74.1293 123.898C73.5966 124.102 72.9979 124.205 72.3331 124.205ZM80.2017 118.094V124H78.6932V114.182H80.1506V115.716H80.2784C80.5085 115.217 80.858 114.817 81.3267 114.514C81.7955 114.207 82.4006 114.054 83.142 114.054C83.8068 114.054 84.3885 114.19 84.8871 114.463C85.3857 114.732 85.7734 115.141 86.0504 115.69C86.3274 116.236 86.4659 116.926 86.4659 117.761V124H84.9574V117.864C84.9574 117.092 84.7571 116.491 84.3565 116.061C83.956 115.626 83.4063 115.409 82.7074 115.409C82.2259 115.409 81.7955 115.513 81.4162 115.722C81.0412 115.931 80.745 116.236 80.5277 116.636C80.3104 117.037 80.2017 117.523 80.2017 118.094ZM96.177 116.381L94.8219 116.764C94.7367 116.538 94.611 116.319 94.4448 116.106C94.2828 115.888 94.0613 115.71 93.78 115.569C93.4988 115.428 93.1387 115.358 92.6998 115.358C92.0989 115.358 91.5982 115.496 91.1976 115.773C90.8013 116.046 90.6032 116.393 90.6032 116.815C90.6032 117.19 90.7395 117.487 91.0123 117.704C91.285 117.921 91.7111 118.102 92.2907 118.247L93.748 118.605C94.6259 118.818 95.28 119.144 95.7104 119.583C96.1408 120.018 96.356 120.578 96.356 121.264C96.356 121.827 96.1941 122.33 95.8702 122.773C95.5506 123.216 95.1032 123.565 94.5279 123.821C93.9526 124.077 93.2836 124.205 92.5208 124.205C91.5194 124.205 90.6905 123.987 90.0343 123.553C89.378 123.118 88.9625 122.483 88.7878 121.648L90.2196 121.29C90.356 121.818 90.6138 122.214 90.9931 122.479C91.3766 122.743 91.8773 122.875 92.4952 122.875C93.1983 122.875 93.7566 122.726 94.1699 122.428C94.5875 122.125 94.7963 121.763 94.7963 121.341C94.7963 121 94.677 120.714 94.4384 120.484C94.1998 120.25 93.8333 120.075 93.339 119.96L91.7026 119.577C90.8034 119.364 90.1429 119.033 89.7211 118.586C89.3034 118.134 89.0946 117.57 89.0946 116.892C89.0946 116.338 89.2502 115.848 89.5613 115.422C89.8766 114.996 90.3049 114.661 90.8461 114.418C91.3915 114.175 92.0094 114.054 92.6998 114.054C93.6713 114.054 94.4341 114.267 94.9881 114.693C95.5463 115.119 95.9426 115.682 96.177 116.381ZM101.516 124.23C100.894 124.23 100.329 124.113 99.8221 123.879C99.315 123.64 98.9123 123.297 98.614 122.849C98.3157 122.398 98.1665 121.852 98.1665 121.213C98.1665 120.651 98.2773 120.195 98.4989 119.845C98.7205 119.491 99.0167 119.214 99.3874 119.014C99.7582 118.814 100.167 118.665 100.615 118.567C101.066 118.464 101.52 118.384 101.976 118.324C102.573 118.247 103.056 118.19 103.427 118.151C103.802 118.109 104.075 118.038 104.245 117.94C104.42 117.842 104.507 117.672 104.507 117.429V117.378C104.507 116.747 104.335 116.257 103.99 115.908C103.649 115.558 103.131 115.384 102.436 115.384C101.716 115.384 101.152 115.541 100.743 115.857C100.333 116.172 100.046 116.509 99.8796 116.866L98.4478 116.355C98.7035 115.759 99.0444 115.294 99.4705 114.962C99.9009 114.625 100.37 114.391 100.877 114.259C101.388 114.122 101.891 114.054 102.385 114.054C102.701 114.054 103.063 114.092 103.472 114.169C103.885 114.241 104.284 114.393 104.667 114.623C105.055 114.853 105.377 115.2 105.632 115.665C105.888 116.129 106.016 116.751 106.016 117.531V124H104.507V122.67H104.431C104.328 122.884 104.158 123.112 103.919 123.354C103.681 123.597 103.363 123.804 102.967 123.974C102.571 124.145 102.087 124.23 101.516 124.23ZM101.746 122.875C102.343 122.875 102.846 122.758 103.255 122.523C103.668 122.289 103.979 121.987 104.188 121.616C104.401 121.245 104.507 120.855 104.507 120.446V119.065C104.444 119.142 104.303 119.212 104.086 119.276C103.873 119.336 103.625 119.389 103.344 119.436C103.067 119.479 102.797 119.517 102.532 119.551C102.272 119.581 102.061 119.607 101.9 119.628C101.507 119.679 101.141 119.762 100.8 119.877C100.463 119.988 100.191 120.156 99.9819 120.382C99.7773 120.604 99.6751 120.906 99.6751 121.29C99.6751 121.814 99.869 122.21 100.257 122.479C100.649 122.743 101.145 122.875 101.746 122.875ZM108.769 124V114.182H110.227V115.716H110.355C110.559 115.192 110.889 114.785 111.345 114.495C111.801 114.201 112.349 114.054 112.988 114.054C113.636 114.054 114.175 114.201 114.605 114.495C115.04 114.785 115.379 115.192 115.622 115.716H115.724C115.975 115.209 116.352 114.806 116.855 114.508C117.358 114.205 117.961 114.054 118.664 114.054C119.542 114.054 120.26 114.329 120.818 114.879C121.377 115.424 121.656 116.274 121.656 117.429V124H120.147V117.429C120.147 116.705 119.949 116.187 119.553 115.876C119.156 115.565 118.69 115.409 118.153 115.409C117.463 115.409 116.928 115.618 116.548 116.036C116.169 116.449 115.98 116.973 115.98 117.608V124H114.445V117.276C114.445 116.717 114.264 116.268 113.902 115.927C113.54 115.582 113.073 115.409 112.502 115.409C112.11 115.409 111.744 115.513 111.403 115.722C111.066 115.931 110.794 116.221 110.585 116.592C110.38 116.958 110.278 117.382 110.278 117.864V124H108.769ZM124.414 124V114.182H125.922V124H124.414ZM125.181 112.545C124.887 112.545 124.633 112.445 124.42 112.245C124.211 112.045 124.107 111.804 124.107 111.523C124.107 111.241 124.211 111.001 124.42 110.8C124.633 110.6 124.887 110.5 125.181 110.5C125.475 110.5 125.726 110.6 125.935 110.8C126.148 111.001 126.255 111.241 126.255 111.523C126.255 111.804 126.148 112.045 125.935 112.245C125.726 112.445 125.475 112.545 125.181 112.545ZM132.802 124.205C131.856 124.205 131.04 123.996 130.354 123.578C129.672 123.156 129.146 122.568 128.775 121.814C128.408 121.055 128.225 120.173 128.225 119.168C128.225 118.162 128.408 117.276 128.775 116.509C129.146 115.737 129.661 115.136 130.322 114.706C130.987 114.271 131.762 114.054 132.648 114.054C133.16 114.054 133.665 114.139 134.163 114.31C134.662 114.48 135.116 114.757 135.525 115.141C135.934 115.52 136.26 116.023 136.503 116.649C136.746 117.276 136.867 118.047 136.867 118.963V119.602H129.299V118.298H135.333C135.333 117.744 135.222 117.25 135.001 116.815C134.783 116.381 134.472 116.038 134.067 115.786C133.667 115.535 133.194 115.409 132.648 115.409C132.048 115.409 131.528 115.558 131.089 115.857C130.654 116.151 130.32 116.534 130.085 117.007C129.851 117.48 129.734 117.987 129.734 118.528V119.398C129.734 120.139 129.862 120.768 130.117 121.283C130.377 121.795 130.737 122.185 131.197 122.453C131.658 122.717 132.192 122.849 132.802 122.849C133.198 122.849 133.556 122.794 133.876 122.683C134.2 122.568 134.479 122.398 134.713 122.172C134.947 121.942 135.129 121.656 135.256 121.315L136.714 121.724C136.56 122.219 136.303 122.653 135.94 123.028C135.578 123.399 135.131 123.689 134.598 123.898C134.065 124.102 133.467 124.205 132.802 124.205ZM140.67 118.094V124H139.162V114.182H140.619V115.716H140.747C140.977 115.217 141.327 114.817 141.795 114.514C142.264 114.207 142.869 114.054 143.611 114.054C144.276 114.054 144.857 114.19 145.356 114.463C145.854 114.732 146.242 115.141 146.519 115.69C146.796 116.236 146.935 116.926 146.935 117.761V124H145.426V117.864C145.426 117.092 145.226 116.491 144.825 116.061C144.425 115.626 143.875 115.409 143.176 115.409C142.695 115.409 142.264 115.513 141.885 115.722C141.51 115.931 141.214 116.236 140.996 116.636C140.779 117.037 140.67 117.523 140.67 118.094ZM153.961 114.182V115.46H148.873V114.182H153.961ZM150.356 111.83H151.865V121.188C151.865 121.614 151.926 121.933 152.05 122.146C152.178 122.355 152.34 122.496 152.536 122.568C152.736 122.636 152.947 122.67 153.169 122.67C153.335 122.67 153.471 122.662 153.578 122.645C153.684 122.624 153.769 122.607 153.833 122.594L154.14 123.949C154.038 123.987 153.895 124.026 153.712 124.064C153.529 124.107 153.296 124.128 153.015 124.128C152.589 124.128 152.171 124.036 151.762 123.853C151.357 123.67 151.021 123.391 150.752 123.016C150.488 122.641 150.356 122.168 150.356 121.597V111.83ZM160.113 124.205C159.227 124.205 158.449 123.994 157.78 123.572C157.116 123.15 156.596 122.56 156.221 121.801C155.85 121.043 155.665 120.156 155.665 119.142C155.665 118.119 155.85 117.227 156.221 116.464C156.596 115.701 157.116 115.109 157.78 114.687C158.449 114.265 159.227 114.054 160.113 114.054C161 114.054 161.775 114.265 162.44 114.687C163.109 115.109 163.629 115.701 164 116.464C164.375 117.227 164.562 118.119 164.562 119.142C164.562 120.156 164.375 121.043 164 121.801C163.629 122.56 163.109 123.15 162.44 123.572C161.775 123.994 161 124.205 160.113 124.205ZM160.113 122.849C160.787 122.849 161.341 122.677 161.775 122.332C162.21 121.987 162.532 121.533 162.741 120.97C162.949 120.408 163.054 119.798 163.054 119.142C163.054 118.486 162.949 117.874 162.741 117.308C162.532 116.741 162.21 116.283 161.775 115.933C161.341 115.584 160.787 115.409 160.113 115.409C159.44 115.409 158.886 115.584 158.452 115.933C158.017 116.283 157.695 116.741 157.486 117.308C157.278 117.874 157.173 118.486 157.173 119.142C157.173 119.798 157.278 120.408 157.486 120.97C157.695 121.533 158.017 121.987 158.452 122.332C158.886 122.677 159.44 122.849 160.113 122.849ZM67.599 146.23C66.9768 146.23 66.4122 146.113 65.9051 145.879C65.398 145.64 64.9953 145.297 64.697 144.849C64.3987 144.398 64.2496 143.852 64.2496 143.213C64.2496 142.651 64.3604 142.195 64.5819 141.845C64.8035 141.491 65.0997 141.214 65.4704 141.014C65.8412 140.814 66.2503 140.665 66.6977 140.567C67.1494 140.464 67.6032 140.384 68.0592 140.324C68.6558 140.247 69.1395 140.19 69.5102 140.151C69.8852 140.109 70.1579 140.038 70.3284 139.94C70.5031 139.842 70.5905 139.672 70.5905 139.429V139.378C70.5905 138.747 70.4179 138.257 70.0727 137.908C69.7318 137.558 69.214 137.384 68.5194 137.384C67.7993 137.384 67.2346 137.541 66.8256 137.857C66.4165 138.172 66.1288 138.509 65.9626 138.866L64.5308 138.355C64.7865 137.759 65.1274 137.294 65.5535 136.962C65.9839 136.625 66.4527 136.391 66.9598 136.259C67.4711 136.122 67.974 136.054 68.4683 136.054C68.7836 136.054 69.1459 136.092 69.555 136.169C69.9683 136.241 70.3667 136.393 70.7503 136.623C71.1381 136.853 71.4598 137.2 71.7155 137.665C71.9711 138.129 72.099 138.751 72.099 139.531V146H70.5905V144.67H70.5138C70.4115 144.884 70.241 145.112 70.0024 145.354C69.7638 145.597 69.4463 145.804 69.05 145.974C68.6537 146.145 68.17 146.23 67.599 146.23ZM67.8291 144.875C68.4257 144.875 68.9285 144.758 69.3376 144.523C69.751 144.289 70.0621 143.987 70.2709 143.616C70.4839 143.245 70.5905 142.855 70.5905 142.446V141.065C70.5265 141.142 70.3859 141.212 70.1686 141.276C69.9555 141.336 69.7084 141.389 69.4271 141.436C69.1501 141.479 68.8795 141.517 68.6153 141.551C68.3554 141.581 68.1444 141.607 67.9825 141.628C67.5905 141.679 67.224 141.762 66.8831 141.877C66.5464 141.988 66.2737 142.156 66.0649 142.382C65.8604 142.604 65.7581 142.906 65.7581 143.29C65.7581 143.814 65.952 144.21 66.3398 144.479C66.7318 144.743 67.2282 144.875 67.8291 144.875ZM76.3609 132.909V146H74.8524V132.909H76.3609ZM83.0869 149.886C82.3582 149.886 81.7318 149.793 81.2077 149.605C80.6835 149.422 80.2467 149.179 79.8973 148.876C79.5521 148.578 79.2773 148.259 79.0727 147.918L80.2744 147.074C80.4108 147.253 80.5834 147.457 80.7922 147.688C81.001 147.922 81.2865 148.124 81.6487 148.295C82.0152 148.469 82.4946 148.557 83.0869 148.557C83.8795 148.557 84.5336 148.365 85.0493 147.982C85.5649 147.598 85.8227 146.997 85.8227 146.179V144.185H85.6949C85.5841 144.364 85.4264 144.585 85.2219 144.849C85.0216 145.109 84.7318 145.342 84.3525 145.546C83.9775 145.746 83.4704 145.847 82.8312 145.847C82.0386 145.847 81.327 145.659 80.6963 145.284C80.0699 144.909 79.5734 144.364 79.2069 143.648C78.8447 142.932 78.6636 142.062 78.6636 141.04C78.6636 140.034 78.8405 139.158 79.1942 138.413C79.5479 137.663 80.04 137.083 80.6707 136.674C81.3014 136.261 82.0301 136.054 82.8568 136.054C83.496 136.054 84.0031 136.161 84.3781 136.374C84.7574 136.582 85.0471 136.821 85.2474 137.089C85.452 137.354 85.6096 137.571 85.7204 137.741H85.8738V136.182H87.3312V146.281C87.3312 147.125 87.1395 147.811 86.7559 148.339C86.3767 148.872 85.8653 149.262 85.2219 149.509C84.5827 149.761 83.871 149.886 83.0869 149.886ZM83.0358 144.491C83.6409 144.491 84.1523 144.353 84.5699 144.076C84.9875 143.799 85.305 143.401 85.5223 142.881C85.7396 142.361 85.8483 141.739 85.8483 141.014C85.8483 140.307 85.7417 139.683 85.5287 139.141C85.3156 138.6 85.0003 138.176 84.5827 137.869C84.165 137.562 83.6494 137.409 83.0358 137.409C82.3966 137.409 81.8639 137.571 81.4378 137.895C81.0159 138.219 80.6984 138.653 80.4854 139.199C80.2765 139.744 80.1721 140.349 80.1721 141.014C80.1721 141.696 80.2787 142.299 80.4917 142.823C80.7091 143.343 81.0287 143.752 81.4506 144.05C81.8767 144.344 82.4051 144.491 83.0358 144.491ZM94.0812 146.205C93.1949 146.205 92.4172 145.994 91.7481 145.572C91.0834 145.15 90.5635 144.56 90.1885 143.801C89.8177 143.043 89.6324 142.156 89.6324 141.142C89.6324 140.119 89.8177 139.227 90.1885 138.464C90.5635 137.701 91.0834 137.109 91.7481 136.687C92.4172 136.265 93.1949 136.054 94.0812 136.054C94.9676 136.054 95.7432 136.265 96.4079 136.687C97.077 137.109 97.5969 137.701 97.9676 138.464C98.3426 139.227 98.5301 140.119 98.5301 141.142C98.5301 142.156 98.3426 143.043 97.9676 143.801C97.5969 144.56 97.077 145.15 96.4079 145.572C95.7432 145.994 94.9676 146.205 94.0812 146.205ZM94.0812 144.849C94.7545 144.849 95.3085 144.677 95.7432 144.332C96.1778 143.987 96.4996 143.533 96.7084 142.97C96.9172 142.408 97.0216 141.798 97.0216 141.142C97.0216 140.486 96.9172 139.874 96.7084 139.308C96.4996 138.741 96.1778 138.283 95.7432 137.933C95.3085 137.584 94.7545 137.409 94.0812 137.409C93.4079 137.409 92.854 137.584 92.4193 137.933C91.9846 138.283 91.6629 138.741 91.4541 139.308C91.2453 139.874 91.1409 140.486 91.1409 141.142C91.1409 141.798 91.2453 142.408 91.4541 142.97C91.6629 143.533 91.9846 143.987 92.4193 144.332C92.854 144.677 93.4079 144.849 94.0812 144.849ZM100.833 146V136.182H102.29V137.665H102.392C102.571 137.179 102.895 136.785 103.364 136.482C103.833 136.18 104.361 136.028 104.949 136.028C105.06 136.028 105.199 136.031 105.365 136.035C105.531 136.039 105.657 136.045 105.742 136.054V137.588C105.691 137.575 105.574 137.556 105.39 137.531C105.211 137.501 105.022 137.486 104.821 137.486C104.344 137.486 103.918 137.586 103.543 137.786C103.172 137.982 102.878 138.255 102.661 138.604C102.448 138.95 102.341 139.344 102.341 139.787V146H100.833ZM107.53 146V136.182H109.039V146H107.53ZM107.607 134.852L109.166 131.886H110.931L108.936 134.852H107.607ZM116.071 136.182V137.46H110.983V136.182H116.071ZM112.466 133.83H113.975V143.188C113.975 143.614 114.037 143.933 114.16 144.146C114.288 144.355 114.45 144.496 114.646 144.568C114.846 144.636 115.057 144.67 115.279 144.67C115.445 144.67 115.581 144.662 115.688 144.645C115.794 144.624 115.88 144.607 115.944 144.594L116.25 145.949C116.148 145.987 116.005 146.026 115.822 146.064C115.639 146.107 115.407 146.128 115.125 146.128C114.699 146.128 114.282 146.036 113.873 145.853C113.468 145.67 113.131 145.391 112.863 145.016C112.598 144.641 112.466 144.168 112.466 143.597V133.83ZM118.341 146V136.182H119.798V137.716H119.926C120.13 137.192 120.461 136.785 120.917 136.495C121.373 136.201 121.92 136.054 122.559 136.054C123.207 136.054 123.746 136.201 124.177 136.495C124.611 136.785 124.95 137.192 125.193 137.716H125.295C125.547 137.209 125.924 136.806 126.427 136.508C126.929 136.205 127.532 136.054 128.236 136.054C129.113 136.054 129.831 136.329 130.39 136.879C130.948 137.424 131.227 138.274 131.227 139.429V146H129.718V139.429C129.718 138.705 129.52 138.187 129.124 137.876C128.728 137.565 128.261 137.409 127.724 137.409C127.034 137.409 126.499 137.618 126.12 138.036C125.741 138.449 125.551 138.973 125.551 139.608V146H124.017V139.276C124.017 138.717 123.836 138.268 123.473 137.927C123.111 137.582 122.645 137.409 122.074 137.409C121.682 137.409 121.315 137.513 120.974 137.722C120.638 137.931 120.365 138.221 120.156 138.592C119.951 138.958 119.849 139.382 119.849 139.864V146H118.341ZM133.985 146V136.182H135.494V146H133.985ZM134.752 134.545C134.458 134.545 134.205 134.445 133.992 134.245C133.783 134.045 133.678 133.804 133.678 133.523C133.678 133.241 133.783 133.001 133.992 132.8C134.205 132.6 134.458 132.5 134.752 132.5C135.046 132.5 135.298 132.6 135.506 132.8C135.72 133.001 135.826 133.241 135.826 133.523C135.826 133.804 135.72 134.045 135.506 134.245C135.298 134.445 135.046 134.545 134.752 134.545ZM142.245 146.205C141.325 146.205 140.532 145.987 139.867 145.553C139.203 145.118 138.691 144.519 138.333 143.756C137.975 142.994 137.796 142.122 137.796 141.142C137.796 140.145 137.98 139.265 138.346 138.502C138.717 137.735 139.233 137.136 139.893 136.706C140.558 136.271 141.333 136.054 142.22 136.054C142.91 136.054 143.532 136.182 144.086 136.438C144.64 136.693 145.094 137.051 145.448 137.511C145.801 137.972 146.021 138.509 146.106 139.122H144.598C144.483 138.675 144.227 138.278 143.831 137.933C143.438 137.584 142.91 137.409 142.245 137.409C141.657 137.409 141.142 137.562 140.698 137.869C140.259 138.172 139.916 138.6 139.669 139.154C139.426 139.704 139.305 140.349 139.305 141.091C139.305 141.849 139.424 142.51 139.663 143.072C139.906 143.635 140.247 144.072 140.686 144.383C141.129 144.694 141.649 144.849 142.245 144.849C142.637 144.849 142.993 144.781 143.313 144.645C143.632 144.509 143.903 144.312 144.125 144.057C144.346 143.801 144.504 143.494 144.598 143.136H146.106C146.021 143.716 145.81 144.238 145.473 144.702C145.141 145.163 144.7 145.529 144.15 145.802C143.605 146.07 142.97 146.205 142.245 146.205ZM152.3 146.205C151.414 146.205 150.636 145.994 149.967 145.572C149.302 145.15 148.782 144.56 148.407 143.801C148.036 143.043 147.851 142.156 147.851 141.142C147.851 140.119 148.036 139.227 148.407 138.464C148.782 137.701 149.302 137.109 149.967 136.687C150.636 136.265 151.414 136.054 152.3 136.054C153.186 136.054 153.962 136.265 154.627 136.687C155.296 137.109 155.816 137.701 156.186 138.464C156.561 139.227 156.749 140.119 156.749 141.142C156.749 142.156 156.561 143.043 156.186 143.801C155.816 144.56 155.296 145.15 154.627 145.572C153.962 145.994 153.186 146.205 152.3 146.205ZM152.3 144.849C152.973 144.849 153.527 144.677 153.962 144.332C154.397 143.987 154.718 143.533 154.927 142.97C155.136 142.408 155.24 141.798 155.24 141.142C155.24 140.486 155.136 139.874 154.927 139.308C154.718 138.741 154.397 138.283 153.962 137.933C153.527 137.584 152.973 137.409 152.3 137.409C151.627 137.409 151.073 137.584 150.638 137.933C150.203 138.283 149.882 138.741 149.673 139.308C149.464 139.874 149.36 140.486 149.36 141.142C149.36 141.798 149.464 142.408 149.673 142.97C149.882 143.533 150.203 143.987 150.638 144.332C151.073 144.677 151.627 144.849 152.3 144.849Z" fill="#FAFAFA"/>
<g clip-path="url(#clip0_21_365)">
<path d="M130.159 50.4619C129.982 37.4944 119.271 27 106.13 27C92.8809 27 82.1008 37.6714 82.1069 50.6682C82.074 51.0076 81.366 59.0776 87.1228 67.2808C89.5972 70.8086 91.1975 74.1826 92.0154 77.5957C92.5708 79.9089 92.9736 83.864 92.9736 87H95.4736C95.4736 83.6931 95.0415 79.4927 94.447 77.0122C93.5535 73.2878 91.8274 69.6355 89.1687 65.8452C83.9661 58.4307 84.5886 50.9819 84.6008 50.7891C84.6008 39.0508 94.259 29.5 106.13 29.5C118.003 29.5 127.661 39.0508 127.661 50.7891V51.1125L133.694 62H128.315V73.25H118.315V87H120.815V75.75H130.815V64.5H137.937L130.159 50.4619Z" fill="#FAFAFA" stroke="#FAFAFA" stroke-width="0.406901"/>
<path d="M114.565 44.5V42H112.065V38.25H109.565V42H107.065V38.25H104.565V42H102.065V38.25H99.5654V42H97.0654V44.5H93.3154V47H97.0654V49.5H93.3154V52H97.0654V54.5H93.3154V57H97.0654V59.5H99.5654V63.25H102.065V59.5H104.565V63.25H107.065V59.5H109.565V63.25H112.065V59.5H114.565V57H118.315V54.5H114.565V52H118.315V49.5H114.565V47H118.315V44.5H114.565ZM112.065 57H99.5654V44.5H112.065V57Z" fill="#FAFAFA" stroke="#FAFAFA" stroke-width="0.406901"/>
</g>
<defs>
<clipPath id="clip0_21_365">
<rect width="60" height="60" fill="white" transform="translate(80 27)"/>
</clipPath>
</defs>
</svg>
