<svg width="40" height="50" viewBox="0 0 40 50" fill="none" xmlns="http://www.w3.org/2000/svg">
<path d="M5.45455 0C2.46417 0 0 2.25872 0 4.99988V44.9999C0 47.7411 2.46417 50 5.45455 50H34.5455C37.5358 50 40 47.7411 40 44.9999V4.99988C40 2.25872 37.5358 0 34.5455 0H5.45455ZM5.45455 3.33319H34.5455C35.5841 3.33319 36.3636 4.04782 36.3636 4.99988V44.9999C36.3636 45.952 35.5841 46.6666 34.5455 46.6666H5.45455C4.41593 46.6666 3.63636 45.952 3.63636 44.9999V4.99988C3.63636 4.04782 4.41593 3.33319 5.45455 3.33319Z" fill="#616161"/>
<path d="M21.8175 41.6704C21.8175 42.1124 21.626 42.5364 21.285 42.849C20.944 43.1615 20.4815 43.337 19.9993 43.337C19.5171 43.337 19.0547 43.1615 18.7137 42.849C18.3727 42.5364 18.1812 42.1124 18.1812 41.6704C18.1811 41.4515 18.2282 41.2347 18.3195 41.0325C18.4109 40.8303 18.5448 40.6465 18.7137 40.4918C18.8825 40.337 19.0829 40.2143 19.3035 40.1305C19.5241 40.0468 19.7606 40.0037 19.9993 40.0037C20.2381 40.0037 20.4745 40.0468 20.6951 40.1305C20.9157 40.2143 21.1162 40.337 21.285 40.4918C21.4538 40.6465 21.5878 40.8303 21.6791 41.0325C21.7705 41.2347 21.8175 41.4515 21.8175 41.6704Z" fill="#616161"/>
<path d="M16.3694 6.66223C15.8871 6.66223 15.4245 6.83787 15.0834 7.15051C14.7424 7.46315 14.5508 7.88717 14.5508 8.32931C14.5508 8.77145 14.7424 9.19546 15.0834 9.5081C15.4245 9.82074 15.8871 9.99639 16.3694 9.99639H23.6305C24.1129 9.99639 24.5754 9.82074 24.9165 9.5081C25.2576 9.19546 25.4492 8.77145 25.4492 8.32931C25.4492 7.88717 25.2576 7.46315 24.9165 7.15051C24.5754 6.83787 24.1129 6.66223 23.6305 6.66223H16.3694Z" fill="#616161"/>
</svg>
