<svg width="220" height="175" viewBox="0 0 220 175" fill="none" xmlns="http://www.w3.org/2000/svg">
<rect width="220" height="175" rx="5" fill="#B5BF00"/>
<line x1="82" y1="99.5" x2="139" y2="99.5" stroke="#FAFAFA"/>
<path d="M53.2073 124V110.909H57.6306C58.6576 110.909 59.4971 111.094 60.1491 111.465C60.8053 111.832 61.2911 112.328 61.6064 112.955C61.9218 113.581 62.0795 114.28 62.0795 115.051C62.0795 115.822 61.9218 116.523 61.6064 117.154C61.2954 117.785 60.8138 118.288 60.1618 118.663C59.5099 119.033 58.6746 119.219 57.6562 119.219H54.4857V117.812H57.605C58.3082 117.812 58.8728 117.691 59.2989 117.448C59.7251 117.205 60.034 116.877 60.2258 116.464C60.4218 116.046 60.5198 115.575 60.5198 115.051C60.5198 114.527 60.4218 114.058 60.2258 113.645C60.034 113.232 59.7229 112.908 59.2925 112.673C58.8621 112.435 58.2911 112.315 57.5795 112.315H54.7925V124H53.2073ZM64.4285 124V114.182H65.8859V115.665H65.9882C66.1672 115.179 66.491 114.785 66.9598 114.482C67.4285 114.18 67.9569 114.028 68.545 114.028C68.6558 114.028 68.7943 114.031 68.9605 114.035C69.1267 114.039 69.2524 114.045 69.3376 114.054V115.588C69.2865 115.575 69.1693 115.556 68.9861 115.531C68.8071 115.501 68.6175 115.486 68.4172 115.486C67.9399 115.486 67.5138 115.586 67.1388 115.786C66.768 115.982 66.474 116.255 66.2567 116.604C66.0436 116.95 65.9371 117.344 65.9371 117.787V124H64.4285ZM74.8156 124.205C73.9292 124.205 73.1515 123.994 72.4825 123.572C71.8177 123.15 71.2979 122.56 70.9229 121.801C70.5521 121.043 70.3667 120.156 70.3667 119.142C70.3667 118.119 70.5521 117.227 70.9229 116.464C71.2979 115.701 71.8177 115.109 72.4825 114.687C73.1515 114.265 73.9292 114.054 74.8156 114.054C75.702 114.054 76.4775 114.265 77.1423 114.687C77.8113 115.109 78.3312 115.701 78.702 116.464C79.077 117.227 79.2645 118.119 79.2645 119.142C79.2645 120.156 79.077 121.043 78.702 121.801C78.3312 122.56 77.8113 123.15 77.1423 123.572C76.4775 123.994 75.702 124.205 74.8156 124.205ZM74.8156 122.849C75.4889 122.849 76.0429 122.677 76.4775 122.332C76.9122 121.987 77.2339 121.533 77.4427 120.97C77.6515 120.408 77.7559 119.798 77.7559 119.142C77.7559 118.486 77.6515 117.874 77.4427 117.308C77.2339 116.741 76.9122 116.283 76.4775 115.933C76.0429 115.584 75.4889 115.409 74.8156 115.409C74.1423 115.409 73.5883 115.584 73.1537 115.933C72.719 116.283 72.3973 116.741 72.1885 117.308C71.9797 117.874 71.8753 118.486 71.8753 119.142C71.8753 119.798 71.9797 120.408 72.1885 120.97C72.3973 121.533 72.719 121.987 73.1537 122.332C73.5883 122.677 74.1423 122.849 74.8156 122.849ZM85.5303 127.886C84.8016 127.886 84.1752 127.793 83.651 127.605C83.1269 127.422 82.6901 127.179 82.3406 126.876C81.9955 126.578 81.7206 126.259 81.5161 125.918L82.7178 125.074C82.8541 125.253 83.0267 125.457 83.2355 125.688C83.4443 125.922 83.7298 126.124 84.0921 126.295C84.4585 126.469 84.9379 126.557 85.5303 126.557C86.3229 126.557 86.977 126.365 87.4926 125.982C88.0083 125.598 88.2661 124.997 88.2661 124.179V122.185H88.1382C88.0274 122.364 87.8698 122.585 87.6652 122.849C87.4649 123.109 87.1752 123.342 86.7959 123.546C86.4209 123.746 85.9138 123.847 85.2746 123.847C84.482 123.847 83.7703 123.659 83.1396 123.284C82.5132 122.909 82.0168 122.364 81.6503 121.648C81.2881 120.932 81.107 120.062 81.107 119.04C81.107 118.034 81.2838 117.158 81.6375 116.413C81.9912 115.663 82.4834 115.083 83.1141 114.674C83.7448 114.261 84.4735 114.054 85.3002 114.054C85.9394 114.054 86.4465 114.161 86.8215 114.374C87.2007 114.582 87.4905 114.821 87.6908 115.089C87.8953 115.354 88.053 115.571 88.1638 115.741H88.3172V114.182H89.7746V124.281C89.7746 125.125 89.5828 125.811 89.1993 126.339C88.82 126.872 88.3087 127.262 87.6652 127.509C87.026 127.761 86.3144 127.886 85.5303 127.886ZM85.4791 122.491C86.0843 122.491 86.5956 122.353 87.0132 122.076C87.4308 121.799 87.7483 121.401 87.9656 120.881C88.183 120.361 88.2916 119.739 88.2916 119.014C88.2916 118.307 88.1851 117.683 87.972 117.141C87.759 116.6 87.4436 116.176 87.026 115.869C86.6084 115.562 86.0928 115.409 85.4791 115.409C84.8399 115.409 84.3073 115.571 83.8811 115.895C83.4593 116.219 83.1418 116.653 82.9287 117.199C82.7199 117.744 82.6155 118.349 82.6155 119.014C82.6155 119.696 82.722 120.299 82.9351 120.823C83.1524 121.343 83.472 121.752 83.8939 122.05C84.32 122.344 84.8485 122.491 85.4791 122.491ZM92.536 124V114.182H93.9933V115.665H94.0956C94.2746 115.179 94.5985 114.785 95.0672 114.482C95.536 114.18 96.0644 114.028 96.6524 114.028C96.7632 114.028 96.9017 114.031 97.0679 114.035C97.2341 114.039 97.3598 114.045 97.445 114.054V115.588C97.3939 115.575 97.2767 115.556 97.0935 115.531C96.9145 115.501 96.7249 115.486 96.5246 115.486C96.0473 115.486 95.6212 115.586 95.2462 115.786C94.8754 115.982 94.5814 116.255 94.3641 116.604C94.151 116.95 94.0445 117.344 94.0445 117.787V124H92.536ZM102.122 124.23C101.5 124.23 100.936 124.113 100.429 123.879C99.9214 123.64 99.5187 123.297 99.2204 122.849C98.9221 122.398 98.773 121.852 98.773 121.213C98.773 120.651 98.8838 120.195 99.1054 119.845C99.327 119.491 99.6231 119.214 99.9939 119.014C100.365 118.814 100.774 118.665 101.221 118.567C101.673 118.464 102.127 118.384 102.583 118.324C103.179 118.247 103.663 118.19 104.034 118.151C104.409 118.109 104.681 118.038 104.852 117.94C105.027 117.842 105.114 117.672 105.114 117.429V117.378C105.114 116.747 104.941 116.257 104.596 115.908C104.255 115.558 103.737 115.384 103.043 115.384C102.323 115.384 101.758 115.541 101.349 115.857C100.94 116.172 100.652 116.509 100.486 116.866L99.0542 116.355C99.3099 115.759 99.6508 115.294 100.077 114.962C100.507 114.625 100.976 114.391 101.483 114.259C101.995 114.122 102.497 114.054 102.992 114.054C103.307 114.054 103.669 114.092 104.078 114.169C104.492 114.241 104.89 114.393 105.274 114.623C105.661 114.853 105.983 115.2 106.239 115.665C106.495 116.129 106.622 116.751 106.622 117.531V124H105.114V122.67H105.037C104.935 122.884 104.764 123.112 104.526 123.354C104.287 123.597 103.97 123.804 103.573 123.974C103.177 124.145 102.693 124.23 102.122 124.23ZM102.353 122.875C102.949 122.875 103.452 122.758 103.861 122.523C104.274 122.289 104.585 121.987 104.794 121.616C105.007 121.245 105.114 120.855 105.114 120.446V119.065C105.05 119.142 104.909 119.212 104.692 119.276C104.479 119.336 104.232 119.389 103.951 119.436C103.674 119.479 103.403 119.517 103.139 119.551C102.879 119.581 102.668 119.607 102.506 119.628C102.114 119.679 101.747 119.762 101.407 119.877C101.07 119.988 100.797 120.156 100.588 120.382C100.384 120.604 100.282 120.906 100.282 121.29C100.282 121.814 100.475 122.21 100.863 122.479C101.255 122.743 101.752 122.875 102.353 122.875ZM109.376 124V114.182H110.833V115.716H110.961C111.166 115.192 111.496 114.785 111.952 114.495C112.408 114.201 112.955 114.054 113.595 114.054C114.242 114.054 114.781 114.201 115.212 114.495C115.646 114.785 115.985 115.192 116.228 115.716H116.33C116.582 115.209 116.959 114.806 117.462 114.508C117.965 114.205 118.568 114.054 119.271 114.054C120.149 114.054 120.867 114.329 121.425 114.879C121.983 115.424 122.262 116.274 122.262 117.429V124H120.754V117.429C120.754 116.705 120.555 116.187 120.159 115.876C119.763 115.565 119.296 115.409 118.759 115.409C118.069 115.409 117.534 115.618 117.155 116.036C116.776 116.449 116.586 116.973 116.586 117.608V124H115.052V117.276C115.052 116.717 114.871 116.268 114.509 115.927C114.146 115.582 113.68 115.409 113.109 115.409C112.717 115.409 112.35 115.513 112.009 115.722C111.673 115.931 111.4 116.221 111.191 116.592C110.987 116.958 110.884 117.382 110.884 117.864V124H109.376ZM127.91 124.23C127.287 124.23 126.723 124.113 126.216 123.879C125.709 123.64 125.306 123.297 125.008 122.849C124.709 122.398 124.56 121.852 124.56 121.213C124.56 120.651 124.671 120.195 124.892 119.845C125.114 119.491 125.41 119.214 125.781 119.014C126.152 118.814 126.561 118.665 127.008 118.567C127.46 118.464 127.914 118.384 128.37 118.324C128.966 118.247 129.45 118.19 129.821 118.151C130.196 118.109 130.468 118.038 130.639 117.94C130.814 117.842 130.901 117.672 130.901 117.429V117.378C130.901 116.747 130.728 116.257 130.383 115.908C130.042 115.558 129.525 115.384 128.83 115.384C128.11 115.384 127.545 115.541 127.136 115.857C126.727 116.172 126.439 116.509 126.273 116.866L124.841 116.355C125.097 115.759 125.438 115.294 125.864 114.962C126.294 114.625 126.763 114.391 127.27 114.259C127.782 114.122 128.285 114.054 128.779 114.054C129.094 114.054 129.456 114.092 129.866 114.169C130.279 114.241 130.677 114.393 131.061 114.623C131.449 114.853 131.77 115.2 132.026 115.665C132.282 116.129 132.41 116.751 132.41 117.531V124H130.901V122.67H130.824C130.722 122.884 130.552 123.112 130.313 123.354C130.074 123.597 129.757 123.804 129.361 123.974C128.964 124.145 128.481 124.23 127.91 124.23ZM128.14 122.875C128.736 122.875 129.239 122.758 129.648 122.523C130.062 122.289 130.373 121.987 130.581 121.616C130.794 121.245 130.901 120.855 130.901 120.446V119.065C130.837 119.142 130.696 119.212 130.479 119.276C130.266 119.336 130.019 119.389 129.738 119.436C129.461 119.479 129.19 119.517 128.926 119.551C128.666 119.581 128.455 119.607 128.293 119.628C127.901 119.679 127.535 119.762 127.194 119.877C126.857 119.988 126.584 120.156 126.375 120.382C126.171 120.604 126.069 120.906 126.069 121.29C126.069 121.814 126.263 122.21 126.65 122.479C127.042 122.743 127.539 122.875 128.14 122.875ZM139.152 124.205C138.231 124.205 137.438 123.987 136.774 123.553C136.109 123.118 135.598 122.519 135.24 121.756C134.882 120.994 134.703 120.122 134.703 119.142C134.703 118.145 134.886 117.265 135.252 116.502C135.623 115.735 136.139 115.136 136.799 114.706C137.464 114.271 138.24 114.054 139.126 114.054C139.816 114.054 140.438 114.182 140.992 114.438C141.546 114.693 142 115.051 142.354 115.511C142.708 115.972 142.927 116.509 143.012 117.122H141.504C141.389 116.675 141.133 116.278 140.737 115.933C140.345 115.584 139.816 115.409 139.152 115.409C138.563 115.409 138.048 115.562 137.605 115.869C137.166 116.172 136.823 116.6 136.576 117.154C136.333 117.704 136.211 118.349 136.211 119.091C136.211 119.849 136.331 120.51 136.569 121.072C136.812 121.635 137.153 122.072 137.592 122.383C138.035 122.694 138.555 122.849 139.152 122.849C139.544 122.849 139.899 122.781 140.219 122.645C140.539 122.509 140.809 122.312 141.031 122.057C141.252 121.801 141.41 121.494 141.504 121.136H143.012C142.927 121.716 142.716 122.238 142.38 122.702C142.047 123.163 141.606 123.529 141.056 123.802C140.511 124.07 139.876 124.205 139.152 124.205ZM145.218 124V114.182H146.726V124H145.218ZM145.985 112.545C145.691 112.545 145.437 112.445 145.224 112.245C145.015 112.045 144.911 111.804 144.911 111.523C144.911 111.241 145.015 111.001 145.224 110.8C145.437 110.6 145.691 110.5 145.985 110.5C146.279 110.5 146.53 110.6 146.739 110.8C146.952 111.001 147.059 111.241 147.059 111.523C147.059 111.804 146.952 112.045 146.739 112.245C146.53 112.445 146.279 112.545 145.985 112.545ZM153.478 124.205C152.591 124.205 151.814 123.994 151.145 123.572C150.48 123.15 149.96 122.56 149.585 121.801C149.214 121.043 149.029 120.156 149.029 119.142C149.029 118.119 149.214 117.227 149.585 116.464C149.96 115.701 150.48 115.109 151.145 114.687C151.814 114.265 152.591 114.054 153.478 114.054C154.364 114.054 155.14 114.265 155.804 114.687C156.473 115.109 156.993 115.701 157.364 116.464C157.739 117.227 157.927 118.119 157.927 119.142C157.927 120.156 157.739 121.043 157.364 121.801C156.993 122.56 156.473 123.15 155.804 123.572C155.14 123.994 154.364 124.205 153.478 124.205ZM153.478 122.849C154.151 122.849 154.705 122.677 155.14 122.332C155.574 121.987 155.896 121.533 156.105 120.97C156.314 120.408 156.418 119.798 156.418 119.142C156.418 118.486 156.314 117.874 156.105 117.308C155.896 116.741 155.574 116.283 155.14 115.933C154.705 115.584 154.151 115.409 153.478 115.409C152.804 115.409 152.25 115.584 151.816 115.933C151.381 116.283 151.059 116.741 150.851 117.308C150.642 117.874 150.537 118.486 150.537 119.142C150.537 119.798 150.642 120.408 150.851 120.97C151.059 121.533 151.381 121.987 151.816 122.332C152.25 122.677 152.804 122.849 153.478 122.849ZM152.787 112.852L154.347 109.886H156.111L154.117 112.852H152.787ZM161.738 118.094V124H160.229V114.182H161.687V115.716H161.815C162.045 115.217 162.394 114.817 162.863 114.514C163.332 114.207 163.937 114.054 164.678 114.054C165.343 114.054 165.925 114.19 166.423 114.463C166.922 114.732 167.31 115.141 167.587 115.69C167.864 116.236 168.002 116.926 168.002 117.761V124H166.494V117.864C166.494 117.092 166.293 116.491 165.893 116.061C165.492 115.626 164.942 115.409 164.244 115.409C163.762 115.409 163.332 115.513 162.952 115.722C162.577 115.931 162.281 116.236 162.064 116.636C161.847 117.037 161.738 117.523 161.738 118.094ZM67.9074 146.205C67.021 146.205 66.2433 145.994 65.5743 145.572C64.9095 145.15 64.3896 144.56 64.0146 143.801C63.6439 143.043 63.4585 142.156 63.4585 141.142C63.4585 140.119 63.6439 139.227 64.0146 138.464C64.3896 137.701 64.9095 137.109 65.5743 136.687C66.2433 136.265 67.021 136.054 67.9074 136.054C68.7938 136.054 69.5693 136.265 70.2341 136.687C70.9031 137.109 71.423 137.701 71.7938 138.464C72.1688 139.227 72.3563 140.119 72.3563 141.142C72.3563 142.156 72.1688 143.043 71.7938 143.801C71.423 144.56 70.9031 145.15 70.2341 145.572C69.5693 145.994 68.7938 146.205 67.9074 146.205ZM67.9074 144.849C68.5807 144.849 69.1347 144.677 69.5693 144.332C70.004 143.987 70.3257 143.533 70.5345 142.97C70.7433 142.408 70.8477 141.798 70.8477 141.142C70.8477 140.486 70.7433 139.874 70.5345 139.308C70.3257 138.741 70.004 138.283 69.5693 137.933C69.1347 137.584 68.5807 137.409 67.9074 137.409C67.2341 137.409 66.6801 137.584 66.2455 137.933C65.8108 138.283 65.4891 138.741 65.2803 139.308C65.0715 139.874 64.9671 140.486 64.9671 141.142C64.9671 141.798 65.0715 142.408 65.2803 142.97C65.4891 143.533 65.8108 143.987 66.2455 144.332C66.6801 144.677 67.2341 144.849 67.9074 144.849ZM74.659 146V136.182H76.1164V137.665H76.2187C76.3976 137.179 76.7215 136.785 77.1903 136.482C77.659 136.18 78.1874 136.028 78.7755 136.028C78.8863 136.028 79.0248 136.031 79.191 136.035C79.3572 136.039 79.4829 136.045 79.5681 136.054V137.588C79.517 137.575 79.3998 137.556 79.2165 137.531C79.0376 137.501 78.8479 137.486 78.6476 137.486C78.1704 137.486 77.7442 137.586 77.3692 137.786C76.9985 137.982 76.7045 138.255 76.4871 138.604C76.2741 138.95 76.1675 139.344 76.1675 139.787V146H74.659ZM81.3563 146V136.182H82.8648V146H81.3563ZM82.1233 134.545C81.8293 134.545 81.5757 134.445 81.3627 134.245C81.1539 134.045 81.0494 133.804 81.0494 133.523C81.0494 133.241 81.1539 133.001 81.3627 132.8C81.5757 132.6 81.8293 132.5 82.1233 132.5C82.4173 132.5 82.6688 132.6 82.8776 132.8C83.0906 133.001 83.1972 133.241 83.1972 133.523C83.1972 133.804 83.0906 134.045 82.8776 134.245C82.6688 134.445 82.4173 134.545 82.1233 134.545ZM89.7442 146.205C88.7982 146.205 87.9822 145.996 87.2961 145.578C86.6143 145.156 86.088 144.568 85.7172 143.814C85.3508 143.055 85.1675 142.173 85.1675 141.168C85.1675 140.162 85.3508 139.276 85.7172 138.509C86.088 137.737 86.6036 137.136 87.2641 136.706C87.9289 136.271 88.7045 136.054 89.5908 136.054C90.1022 136.054 90.6072 136.139 91.1057 136.31C91.6043 136.48 92.0582 136.757 92.4672 137.141C92.8763 137.52 93.2023 138.023 93.4452 138.649C93.6881 139.276 93.8096 140.047 93.8096 140.963V141.602H86.2414V140.298H92.2755C92.2755 139.744 92.1647 139.25 91.9431 138.815C91.7258 138.381 91.4147 138.038 91.0099 137.786C90.6093 137.535 90.1363 137.409 89.5908 137.409C88.99 137.409 88.4701 137.558 88.0312 137.857C87.5965 138.151 87.262 138.534 87.0276 139.007C86.7932 139.48 86.676 139.987 86.676 140.528V141.398C86.676 142.139 86.8039 142.768 87.0596 143.283C87.3195 143.795 87.6796 144.185 88.1398 144.453C88.6001 144.717 89.1349 144.849 89.7442 144.849C90.1405 144.849 90.4985 144.794 90.8181 144.683C91.142 144.568 91.4211 144.398 91.6555 144.172C91.8898 143.942 92.0709 143.656 92.1988 143.315L93.6562 143.724C93.5028 144.219 93.2449 144.653 92.8827 145.028C92.5205 145.399 92.0731 145.689 91.5404 145.898C91.0077 146.102 90.409 146.205 89.7442 146.205ZM97.6128 140.094V146H96.1043V136.182H97.5617V137.716H97.6895C97.9197 137.217 98.2691 136.817 98.7378 136.514C99.2066 136.207 99.8117 136.054 100.553 136.054C101.218 136.054 101.8 136.19 102.298 136.463C102.797 136.732 103.185 137.141 103.462 137.69C103.739 138.236 103.877 138.926 103.877 139.761V146H102.369V139.864C102.369 139.092 102.168 138.491 101.768 138.061C101.367 137.626 100.817 137.409 100.119 137.409C99.637 137.409 99.2066 137.513 98.8273 137.722C98.4523 137.931 98.1562 138.236 97.9388 138.636C97.7215 139.037 97.6128 139.523 97.6128 140.094ZM110.903 136.182V137.46H105.815V136.182H110.903ZM107.298 133.83H108.807V143.188C108.807 143.614 108.869 143.933 108.992 144.146C109.12 144.355 109.282 144.496 109.478 144.568C109.678 144.636 109.889 144.67 110.111 144.67C110.277 144.67 110.413 144.662 110.52 144.645C110.627 144.624 110.712 144.607 110.776 144.594L111.082 145.949C110.98 145.987 110.837 146.026 110.654 146.064C110.471 146.107 110.239 146.128 109.957 146.128C109.531 146.128 109.114 146.036 108.705 145.853C108.3 145.67 107.963 145.391 107.695 145.016C107.43 144.641 107.298 144.168 107.298 143.597V133.83ZM116.062 146.23C115.44 146.23 114.875 146.113 114.368 145.879C113.861 145.64 113.458 145.297 113.16 144.849C112.862 144.398 112.712 143.852 112.712 143.213C112.712 142.651 112.823 142.195 113.045 141.845C113.266 141.491 113.563 141.214 113.933 141.014C114.304 140.814 114.713 140.665 115.161 140.567C115.612 140.464 116.066 140.384 116.522 140.324C117.119 140.247 117.602 140.19 117.973 140.151C118.348 140.109 118.621 140.038 118.791 139.94C118.966 139.842 119.053 139.672 119.053 139.429V139.378C119.053 138.747 118.881 138.257 118.536 137.908C118.195 137.558 117.677 137.384 116.982 137.384C116.262 137.384 115.698 137.541 115.288 137.857C114.879 138.172 114.592 138.509 114.426 138.866L112.994 138.355C113.249 137.759 113.59 137.294 114.016 136.962C114.447 136.625 114.916 136.391 115.423 136.259C115.934 136.122 116.437 136.054 116.931 136.054C117.247 136.054 117.609 136.092 118.018 136.169C118.431 136.241 118.83 136.393 119.213 136.623C119.601 136.853 119.923 137.2 120.178 137.665C120.434 138.129 120.562 138.751 120.562 139.531V146H119.053V144.67H118.977C118.874 144.884 118.704 145.112 118.465 145.354C118.227 145.597 117.909 145.804 117.513 145.974C117.117 146.145 116.633 146.23 116.062 146.23ZM116.292 144.875C116.889 144.875 117.391 144.758 117.801 144.523C118.214 144.289 118.525 143.987 118.734 143.616C118.947 143.245 119.053 142.855 119.053 142.446V141.065C118.989 141.142 118.849 141.212 118.631 141.276C118.418 141.336 118.171 141.389 117.89 141.436C117.613 141.479 117.342 141.517 117.078 141.551C116.818 141.581 116.607 141.607 116.445 141.628C116.053 141.679 115.687 141.762 115.346 141.877C115.009 141.988 114.737 142.156 114.528 142.382C114.323 142.604 114.221 142.906 114.221 143.29C114.221 143.814 114.415 144.21 114.803 144.479C115.195 144.743 115.691 144.875 116.292 144.875ZM127.023 146.205C126.204 146.205 125.482 145.998 124.856 145.585C124.229 145.167 123.739 144.579 123.386 143.82C123.032 143.058 122.855 142.156 122.855 141.116C122.855 140.085 123.032 139.19 123.386 138.432C123.739 137.673 124.231 137.087 124.862 136.674C125.493 136.261 126.222 136.054 127.048 136.054C127.687 136.054 128.192 136.161 128.563 136.374C128.938 136.582 129.224 136.821 129.42 137.089C129.62 137.354 129.775 137.571 129.886 137.741H130.014V132.909H131.523V146H130.065V144.491H129.886C129.775 144.67 129.618 144.896 129.413 145.169C129.209 145.437 128.917 145.678 128.538 145.891C128.158 146.1 127.653 146.205 127.023 146.205ZM127.227 144.849C127.832 144.849 128.344 144.692 128.761 144.376C129.179 144.057 129.496 143.616 129.714 143.053C129.931 142.487 130.04 141.832 130.04 141.091C130.04 140.358 129.933 139.717 129.72 139.167C129.507 138.613 129.192 138.183 128.774 137.876C128.356 137.565 127.841 137.409 127.227 137.409C126.588 137.409 126.055 137.573 125.629 137.901C125.207 138.225 124.89 138.666 124.677 139.224C124.468 139.778 124.364 140.401 124.364 141.091C124.364 141.79 124.47 142.425 124.683 142.996C124.9 143.562 125.22 144.014 125.642 144.351C126.068 144.683 126.597 144.849 127.227 144.849ZM137.384 146.23C136.762 146.23 136.197 146.113 135.69 145.879C135.183 145.64 134.78 145.297 134.482 144.849C134.184 144.398 134.035 143.852 134.035 143.213C134.035 142.651 134.146 142.195 134.367 141.845C134.589 141.491 134.885 141.214 135.256 141.014C135.626 140.814 136.035 140.665 136.483 140.567C136.935 140.464 137.388 140.384 137.844 140.324C138.441 140.247 138.925 140.19 139.295 140.151C139.67 140.109 139.943 140.038 140.114 139.94C140.288 139.842 140.376 139.672 140.376 139.429V139.378C140.376 138.747 140.203 138.257 139.858 137.908C139.517 137.558 138.999 137.384 138.305 137.384C137.584 137.384 137.02 137.541 136.611 137.857C136.202 138.172 135.914 138.509 135.748 138.866L134.316 138.355C134.572 137.759 134.913 137.294 135.339 136.962C135.769 136.625 136.238 136.391 136.745 136.259C137.256 136.122 137.759 136.054 138.253 136.054C138.569 136.054 138.931 136.092 139.34 136.169C139.753 136.241 140.152 136.393 140.535 136.623C140.923 136.853 141.245 137.2 141.501 137.665C141.756 138.129 141.884 138.751 141.884 139.531V146H140.376V144.67H140.299C140.197 144.884 140.026 145.112 139.788 145.354C139.549 145.597 139.231 145.804 138.835 145.974C138.439 146.145 137.955 146.23 137.384 146.23ZM137.614 144.875C138.211 144.875 138.714 144.758 139.123 144.523C139.536 144.289 139.847 143.987 140.056 143.616C140.269 143.245 140.376 142.855 140.376 142.446V141.065C140.312 141.142 140.171 141.212 139.954 141.276C139.741 141.336 139.494 141.389 139.212 141.436C138.935 141.479 138.665 141.517 138.4 141.551C138.141 141.581 137.93 141.607 137.768 141.628C137.376 141.679 137.009 141.762 136.668 141.877C136.332 141.988 136.059 142.156 135.85 142.382C135.646 142.604 135.543 142.906 135.543 143.29C135.543 143.814 135.737 144.21 136.125 144.479C136.517 144.743 137.013 144.875 137.614 144.875ZM152.589 146.23C151.967 146.23 151.402 146.113 150.895 145.879C150.388 145.64 149.986 145.297 149.687 144.849C149.389 144.398 149.24 143.852 149.24 143.213C149.24 142.651 149.351 142.195 149.572 141.845C149.794 141.491 150.09 141.214 150.461 141.014C150.831 140.814 151.241 140.665 151.688 140.567C152.14 140.464 152.593 140.384 153.049 140.324C153.646 140.247 154.13 140.19 154.5 140.151C154.875 140.109 155.148 140.038 155.319 139.94C155.493 139.842 155.581 139.672 155.581 139.429V139.378C155.581 138.747 155.408 138.257 155.063 137.908C154.722 137.558 154.204 137.384 153.51 137.384C152.79 137.384 152.225 137.541 151.816 137.857C151.407 138.172 151.119 138.509 150.953 138.866L149.521 138.355C149.777 137.759 150.118 137.294 150.544 136.962C150.974 136.625 151.443 136.391 151.95 136.259C152.461 136.122 152.964 136.054 153.459 136.054C153.774 136.054 154.136 136.092 154.545 136.169C154.959 136.241 155.357 136.393 155.741 136.623C156.128 136.853 156.45 137.2 156.706 137.665C156.961 138.129 157.089 138.751 157.089 139.531V146H155.581V144.67H155.504C155.402 144.884 155.231 145.112 154.993 145.354C154.754 145.597 154.437 145.804 154.04 145.974C153.644 146.145 153.16 146.23 152.589 146.23ZM152.819 144.875C153.416 144.875 153.919 144.758 154.328 144.523C154.741 144.289 155.052 143.987 155.261 143.616C155.474 143.245 155.581 142.855 155.581 142.446V141.065C155.517 141.142 155.376 141.212 155.159 141.276C154.946 141.336 154.699 141.389 154.417 141.436C154.14 141.479 153.87 141.517 153.606 141.551C153.346 141.581 153.135 141.607 152.973 141.628C152.581 141.679 152.214 141.762 151.873 141.877C151.537 141.988 151.264 142.156 151.055 142.382C150.851 142.604 150.748 142.906 150.748 143.29C150.748 143.814 150.942 144.21 151.33 144.479C151.722 144.743 152.218 144.875 152.819 144.875ZM84.2463 168.205C83.3599 168.205 82.5822 167.994 81.9132 167.572C81.2484 167.15 80.7285 166.56 80.3535 165.801C79.9828 165.043 79.7974 164.156 79.7974 163.142C79.7974 162.119 79.9828 161.227 80.3535 160.464C80.7285 159.701 81.2484 159.109 81.9132 158.687C82.5822 158.265 83.3599 158.054 84.2463 158.054C85.1326 158.054 85.9082 158.265 86.573 158.687C87.242 159.109 87.7619 159.701 88.1326 160.464C88.5076 161.227 88.6951 162.119 88.6951 163.142C88.6951 164.156 88.5076 165.043 88.1326 165.801C87.7619 166.56 87.242 167.15 86.573 167.572C85.9082 167.994 85.1326 168.205 84.2463 168.205ZM84.2463 166.849C84.9196 166.849 85.4735 166.677 85.9082 166.332C86.3429 165.987 86.6646 165.533 86.8734 164.97C87.0822 164.408 87.1866 163.798 87.1866 163.142C87.1866 162.486 87.0822 161.874 86.8734 161.308C86.6646 160.741 86.3429 160.283 85.9082 159.933C85.4735 159.584 84.9196 159.409 84.2463 159.409C83.573 159.409 83.019 159.584 82.5843 159.933C82.1497 160.283 81.8279 160.741 81.6191 161.308C81.4103 161.874 81.3059 162.486 81.3059 163.142C81.3059 163.798 81.4103 164.408 81.6191 164.97C81.8279 165.533 82.1497 165.987 82.5843 166.332C83.019 166.677 83.573 166.849 84.2463 166.849ZM91.2024 168V154.909H92.7109V159.741H92.8388C92.9496 159.571 93.103 159.354 93.299 159.089C93.4993 158.821 93.7848 158.582 94.1555 158.374C94.5305 158.161 95.0376 158.054 95.6768 158.054C96.5036 158.054 97.2322 158.261 97.8629 158.674C98.4936 159.087 98.9858 159.673 99.3395 160.432C99.6932 161.19 99.87 162.085 99.87 163.116C99.87 164.156 99.6932 165.058 99.3395 165.82C98.9858 166.579 98.4957 167.167 97.8693 167.585C97.2429 167.998 96.5206 168.205 95.7024 168.205C95.0717 168.205 94.5668 168.1 94.1875 167.891C93.8082 167.678 93.5163 167.437 93.3118 167.169C93.1072 166.896 92.9496 166.67 92.8388 166.491H92.6598V168H91.2024ZM92.6854 163.091C92.6854 163.832 92.794 164.487 93.0114 165.053C93.2287 165.616 93.5462 166.057 93.9638 166.376C94.3814 166.692 94.8928 166.849 95.4979 166.849C96.1286 166.849 96.6548 166.683 97.0767 166.351C97.5028 166.014 97.8224 165.562 98.0355 164.996C98.2528 164.425 98.3615 163.79 98.3615 163.091C98.3615 162.401 98.255 161.778 98.0419 161.224C97.8331 160.666 97.5156 160.225 97.0895 159.901C96.6676 159.573 96.1371 159.409 95.4979 159.409C94.8842 159.409 94.3686 159.565 93.951 159.876C93.5334 160.183 93.218 160.613 93.005 161.167C92.7919 161.717 92.6854 162.358 92.6854 163.091ZM102.178 158.182H103.686V168.716C103.686 169.321 103.582 169.845 103.373 170.288C103.168 170.732 102.857 171.075 102.44 171.317C102.026 171.56 101.504 171.682 100.874 171.682C100.822 171.682 100.771 171.682 100.72 171.682C100.669 171.682 100.618 171.682 100.567 171.682V170.276C100.618 170.276 100.665 170.276 100.707 170.276C100.75 170.276 100.797 170.276 100.848 170.276C101.308 170.276 101.645 170.139 101.858 169.866C102.071 169.598 102.178 169.214 102.178 168.716V158.182ZM102.919 156.545C102.625 156.545 102.371 156.445 102.158 156.245C101.95 156.045 101.845 155.804 101.845 155.523C101.845 155.241 101.95 155.001 102.158 154.8C102.371 154.6 102.625 154.5 102.919 154.5C103.213 154.5 103.464 154.6 103.673 154.8C103.886 155.001 103.993 155.241 103.993 155.523C103.993 155.804 103.886 156.045 103.673 156.245C103.464 156.445 103.213 156.545 102.919 156.545ZM110.566 168.205C109.619 168.205 108.803 167.996 108.117 167.578C107.436 167.156 106.909 166.568 106.539 165.814C106.172 165.055 105.989 164.173 105.989 163.168C105.989 162.162 106.172 161.276 106.539 160.509C106.909 159.737 107.425 159.136 108.085 158.706C108.75 158.271 109.526 158.054 110.412 158.054C110.923 158.054 111.428 158.139 111.927 158.31C112.426 158.48 112.879 158.757 113.289 159.141C113.698 159.52 114.024 160.023 114.267 160.649C114.509 161.276 114.631 162.047 114.631 162.963V163.602H107.063V162.298H113.097C113.097 161.744 112.986 161.25 112.764 160.815C112.547 160.381 112.236 160.038 111.831 159.786C111.431 159.535 110.958 159.409 110.412 159.409C109.811 159.409 109.291 159.558 108.852 159.857C108.418 160.151 108.083 160.534 107.849 161.007C107.615 161.48 107.497 161.987 107.497 162.528V163.398C107.497 164.139 107.625 164.768 107.881 165.283C108.141 165.795 108.501 166.185 108.961 166.453C109.421 166.717 109.956 166.849 110.566 166.849C110.962 166.849 111.32 166.794 111.639 166.683C111.963 166.568 112.242 166.398 112.477 166.172C112.711 165.942 112.892 165.656 113.02 165.315L114.477 165.724C114.324 166.219 114.066 166.653 113.704 167.028C113.342 167.399 112.894 167.689 112.362 167.898C111.829 168.102 111.23 168.205 110.566 168.205ZM121.195 158.182V159.46H116.107V158.182H121.195ZM117.59 155.83H119.099V165.188C119.099 165.614 119.161 165.933 119.284 166.146C119.412 166.355 119.574 166.496 119.77 166.568C119.97 166.636 120.181 166.67 120.403 166.67C120.569 166.67 120.705 166.662 120.812 166.645C120.919 166.624 121.004 166.607 121.068 166.594L121.374 167.949C121.272 167.987 121.129 168.026 120.946 168.064C120.763 168.107 120.531 168.128 120.249 168.128C119.823 168.128 119.406 168.036 118.997 167.853C118.592 167.67 118.255 167.391 117.987 167.016C117.722 166.641 117.59 166.168 117.59 165.597V155.83ZM127.348 168.205C126.461 168.205 125.684 167.994 125.015 167.572C124.35 167.15 123.83 166.56 123.455 165.801C123.084 165.043 122.899 164.156 122.899 163.142C122.899 162.119 123.084 161.227 123.455 160.464C123.83 159.701 124.35 159.109 125.015 158.687C125.684 158.265 126.461 158.054 127.348 158.054C128.234 158.054 129.01 158.265 129.675 158.687C130.344 159.109 130.863 159.701 131.234 160.464C131.609 161.227 131.797 162.119 131.797 163.142C131.797 164.156 131.609 165.043 131.234 165.801C130.863 166.56 130.344 167.15 129.675 167.572C129.01 167.994 128.234 168.205 127.348 168.205ZM127.348 166.849C128.021 166.849 128.575 166.677 129.01 166.332C129.444 165.987 129.766 165.533 129.975 164.97C130.184 164.408 130.288 163.798 130.288 163.142C130.288 162.486 130.184 161.874 129.975 161.308C129.766 160.741 129.444 160.283 129.01 159.933C128.575 159.584 128.021 159.409 127.348 159.409C126.675 159.409 126.121 159.584 125.686 159.933C125.251 160.283 124.93 160.741 124.721 161.308C124.512 161.874 124.407 162.486 124.407 163.142C124.407 163.798 124.512 164.408 124.721 164.97C124.93 165.533 125.251 165.987 125.686 166.332C126.121 166.677 126.675 166.849 127.348 166.849ZM141.054 160.381L139.699 160.764C139.614 160.538 139.488 160.319 139.322 160.106C139.16 159.888 138.938 159.71 138.657 159.569C138.376 159.428 138.016 159.358 137.577 159.358C136.976 159.358 136.475 159.496 136.075 159.773C135.678 160.046 135.48 160.393 135.48 160.815C135.48 161.19 135.616 161.487 135.889 161.704C136.162 161.921 136.588 162.102 137.168 162.247L138.625 162.605C139.503 162.818 140.157 163.144 140.587 163.583C141.018 164.018 141.233 164.578 141.233 165.264C141.233 165.827 141.071 166.33 140.747 166.773C140.428 167.216 139.98 167.565 139.405 167.821C138.83 168.077 138.161 168.205 137.398 168.205C136.396 168.205 135.567 167.987 134.911 167.553C134.255 167.118 133.839 166.483 133.665 165.648L135.097 165.29C135.233 165.818 135.491 166.214 135.87 166.479C136.254 166.743 136.754 166.875 137.372 166.875C138.075 166.875 138.634 166.726 139.047 166.428C139.464 166.125 139.673 165.763 139.673 165.341C139.673 165 139.554 164.714 139.315 164.484C139.077 164.25 138.71 164.075 138.216 163.96L136.58 163.577C135.68 163.364 135.02 163.033 134.598 162.586C134.18 162.134 133.972 161.57 133.972 160.892C133.972 160.338 134.127 159.848 134.438 159.422C134.754 158.996 135.182 158.661 135.723 158.418C136.268 158.175 136.886 158.054 137.577 158.054C138.548 158.054 139.311 158.267 139.865 158.693C140.423 159.119 140.82 159.682 141.054 160.381Z" fill="#FAFAFA"/>
<g clip-path="url(#clip0_21_366)">
<path d="M85.638 41.0939C85.8693 41.0939 86.0971 41 86.2603 40.8356C86.4246 40.6724 86.5186 40.4458 86.5186 40.2133C86.5186 39.982 86.4246 39.7542 86.2603 39.591C86.0971 39.4266 85.8693 39.3326 85.638 39.3326C85.4066 39.3326 85.1789 39.4266 85.0156 39.591C84.8513 39.7542 84.7573 39.982 84.7573 40.2133C84.7573 40.4446 84.8513 40.6724 85.0156 40.8356C85.1789 41 85.4066 41.0939 85.638 41.0939Z" fill="#FAFAFA" stroke="#FAFAFA" stroke-width="0.391389"/>
<path d="M88.4561 41.0939C88.6886 41.0939 88.9152 41 89.0784 40.8356C89.2428 40.6724 89.3367 40.4446 89.3367 40.2133C89.3367 39.982 89.2428 39.7542 89.0784 39.591C88.9152 39.4266 88.6874 39.3326 88.4561 39.3326C88.2248 39.3326 87.997 39.4266 87.8338 39.591C87.6694 39.7542 87.5754 39.982 87.5754 40.2133C87.5754 40.4446 87.6694 40.6724 87.8338 40.8356C87.997 41 88.2236 41.0939 88.4561 41.0939Z" fill="#FAFAFA" stroke="#FAFAFA" stroke-width="0.391389"/>
<path d="M91.2739 41.0939C91.5052 41.0939 91.733 41 91.8962 40.8356C92.0606 40.6724 92.1546 40.4446 92.1546 40.2133C92.1546 39.982 92.0606 39.7542 91.8962 39.591C91.733 39.4266 91.5052 39.3326 91.2739 39.3326C91.0415 39.3326 90.8148 39.4266 90.6516 39.591C90.4872 39.7542 90.3933 39.982 90.3933 40.2133C90.3933 40.4446 90.4872 40.6724 90.6516 40.8356C90.8148 41 91.0426 41.0939 91.2739 41.0939Z" fill="#FAFAFA" stroke="#FAFAFA" stroke-width="0.391389"/>
<path d="M113.818 59.0587C113.587 59.0587 113.359 59.1526 113.196 59.317C113.031 59.4802 112.937 59.708 112.937 59.9393C112.937 60.1706 113.031 60.3984 113.196 60.5616C113.359 60.726 113.587 60.8199 113.818 60.8199C114.049 60.8199 114.277 60.726 114.44 60.5616C114.605 60.3984 114.699 60.1706 114.699 59.9393C114.699 59.708 114.605 59.4802 114.44 59.317C114.277 59.1526 114.049 59.0587 113.818 59.0587Z" fill="#FAFAFA" stroke="#FAFAFA" stroke-width="0.391389"/>
<path d="M113.818 65.634C113.587 65.634 113.359 65.728 113.196 65.8924C113.031 66.0556 112.937 66.2833 112.937 66.5147C112.937 66.746 113.031 66.9738 113.196 67.137C113.359 67.3014 113.587 67.3953 113.818 67.3953C114.049 67.3953 114.277 67.3014 114.44 67.137C114.605 66.9738 114.699 66.746 114.699 66.5147C114.699 66.2833 114.605 66.0556 114.44 65.8924C114.277 65.728 114.049 65.634 113.818 65.634Z" fill="#FAFAFA" stroke="#FAFAFA" stroke-width="0.391389"/>
<path d="M106.303 57.0626H107.243C108.077 57.0626 108.87 57.327 109.535 57.8272C109.923 58.1197 110.475 58.0416 110.768 57.6531C111.06 57.2644 110.982 56.7123 110.594 56.42C109.621 55.6882 108.462 55.3015 107.243 55.3015H106.303C102.71 55.3015 99.7866 58.2248 99.7866 61.8181V64.6361C99.7866 68.2294 102.71 71.1527 106.303 71.1527H107.243C108.461 71.1527 109.618 70.7669 110.59 70.037C110.979 69.745 111.057 69.1929 110.765 68.804C110.473 68.4151 109.921 68.3368 109.532 68.6289C108.868 69.1276 108.076 69.3914 107.243 69.3914H106.303C103.681 69.3914 101.548 67.2581 101.548 64.636V61.818C101.548 59.1958 103.681 57.0626 106.303 57.0626Z" fill="#FAFAFA" stroke="#FAFAFA" stroke-width="0.391389"/>
<path d="M116.532 54.0248C116.378 53.5635 115.879 53.314 115.418 53.4679C114.957 53.6217 114.707 54.1205 114.861 54.5818L120.497 71.4899C120.62 71.8589 120.964 72.0922 121.332 72.0922C121.425 72.0922 121.519 72.0775 121.611 72.0468C122.072 71.893 122.322 71.3942 122.168 70.9328L116.532 54.0248Z" fill="#FAFAFA" stroke="#FAFAFA" stroke-width="0.391389"/>
<path d="M95.0313 41.0939H130.726C131.212 41.0939 131.607 40.6996 131.607 40.2133C131.607 39.7269 131.212 39.3326 130.726 39.3326H95.0313C94.5449 39.3326 94.1506 39.7269 94.1506 40.2133C94.1506 40.6996 94.5449 41.0939 95.0313 41.0939Z" fill="#FAFAFA" stroke="#FAFAFA" stroke-width="0.391389"/>
<path d="M134.483 41.0939H136.362C136.848 41.0939 137.243 40.6996 137.243 40.2133C137.243 39.7269 136.848 39.3326 136.362 39.3326H134.483C133.997 39.3326 133.603 39.7269 133.603 40.2133C133.603 40.6996 133.997 41.0939 134.483 41.0939Z" fill="#FAFAFA" stroke="#FAFAFA" stroke-width="0.391389"/>
<path d="M136.362 35.5753H85.638C83.0806 35.5753 81 37.6559 81 40.2133V77.7867C81 80.344 83.0806 82.4246 85.638 82.4246H136.362C138.919 82.4246 141 80.344 141 77.7867V40.2133C141 37.6559 138.919 35.5753 136.362 35.5753ZM85.638 37.3366H136.362C137.948 37.3366 139.239 38.6271 139.239 40.2133V43.09H82.7613V40.2133C82.7613 38.6271 84.0518 37.3366 85.638 37.3366ZM136.362 80.6634H85.638C84.0518 80.6634 82.7613 79.3728 82.7613 77.7867V44.8512H139.239V77.7867C139.239 79.3728 137.948 80.6634 136.362 80.6634Z" fill="#FAFAFA" stroke="#FAFAFA" stroke-width="0.391389"/>
</g>
<defs>
<clipPath id="clip0_21_366">
<rect width="60" height="60" fill="white" transform="translate(81 29)"/>
</clipPath>
</defs>
</svg>
