<svg width="100" height="100" viewBox="0 0 100 100" fill="none" xmlns="http://www.w3.org/2000/svg">
<g clip-path="url(#clip0_28_334)">
<path d="M50 100C77.6142 100 100 77.6142 100 50C100 22.3858 77.6142 0 50 0C22.3858 0 0 22.3858 0 50C0 77.6142 22.3858 100 50 100Z" fill="#FFD05B"/>
<path d="M68.9766 94.6457C68.9766 95.1968 68.9766 95.748 68.9766 96.2992C63.1498 98.6614 56.7718 100 50.0789 100C43.386 100 36.9293 98.6614 31.1025 96.2992C31.1025 95.748 31.1025 95.2756 31.1025 94.7244C31.1025 92.4409 31.3388 90.2362 31.6537 88.1102L32.8348 87.1653L33.1498 86.9291L49.449 74.4094L49.9214 74.0945L50.5514 74.5669L66.9293 87.0866L67.1655 87.2441L68.3466 88.1102V88.189C68.7403 90.2362 68.9766 92.4409 68.9766 94.6457Z" fill="white"/>
<path d="M35.2757 38.8977C34.9607 38.3465 35.1182 37.6378 35.4332 37.1654C35.7481 36.6142 36.2206 36.2205 36.6143 35.7481C37.5591 34.7244 38.2678 33.4646 38.1103 32.126C38.0316 31.4174 37.6379 30.7874 37.4017 30.0788C37.1654 29.3701 37.008 28.5827 37.4017 27.9528C37.5591 27.7953 37.7166 27.6378 37.7954 27.4016C38.819 26.063 38.1891 24.252 38.1103 22.5985C37.9529 19.8426 39.2914 17.2441 40.5513 14.8032C41.4174 13.1496 42.3623 11.3386 43.9371 10.315C44.882 9.68507 46.0631 9.37011 47.1654 9.13389C50.1576 8.66145 53.3859 9.21263 55.8269 11.0237C57.7166 12.441 59.0552 14.4882 59.9214 16.6929C60.7875 18.8977 61.2599 21.2599 61.6536 23.5433C61.8899 24.8819 62.0473 26.4567 61.2599 27.5591C60.945 28.0315 60.4725 28.3465 60.1576 28.8189C59.7639 29.4488 59.6064 30.1575 59.4489 30.8662C59.2914 31.5748 59.2127 32.3622 59.4489 33.0709C59.8426 34.0158 60.7875 34.4882 61.4962 35.1969C62.3623 36.063 62.6773 37.3229 62.9922 38.504C63.1497 38.9764 63.2284 39.5276 63.2284 40C63.071 41.2599 61.8899 42.0473 60.7088 42.5197C56.693 44.252 52.2836 44.6457 47.9529 44.6457C46.7717 44.6457 45.5906 44.6457 44.4883 44.252C42.756 43.7796 41.3387 42.5985 39.9214 41.4174C39.2127 40.8662 35.8269 39.8426 35.2757 38.8977Z" fill="#324A5E"/>
<path d="M55.2756 33.4646L57.7166 35.4331V43.4646L58.0315 50.8661L50.5512 52.5197L41.4961 49.6063V40.9449L43.0709 34.9606L44.7244 33.4646L50 32.9134L55.2756 33.4646Z" fill="#F9B54C"/>
<path d="M42.0474 49.6063C42.0474 49.6063 47.8741 51.7323 57.7167 49.6063L53.071 70.315L42.0474 71.9685V49.6063Z" fill="white"/>
<path d="M31.4962 41.811C31.4962 41.811 25.3545 58.9764 32.9135 87.4016L36.3781 78.7402C36.3781 78.7402 34.6458 59.2126 37.5592 55.1181L35.6694 43.8583L31.4962 41.811Z" fill="#FF7058"/>
<path d="M44.7244 33.4646C44.7244 33.4646 41.1811 38.6614 31.4961 41.8111C31.4961 41.8111 44.7244 58.5827 31.4961 87.874C31.4961 87.874 36.8504 96.7717 44.7244 98.0315C44.7244 98.0315 49.7638 73.7008 51.3386 72.5985L44.4882 62.2835L42.0473 49.6851L43.1496 37.4016L44.7244 33.4646Z" fill="#F1543F"/>
<path d="M68.5039 41.811C68.5039 41.811 74.6456 58.9764 67.0866 87.4016L63.622 78.7402C63.622 78.7402 65.3543 59.2126 62.4409 55.1181L64.3307 43.8583L68.5039 41.811Z" fill="#F1543F"/>
<path d="M55.2758 33.4646C55.2758 33.4646 58.8191 38.6614 68.5041 41.8111C68.5041 41.8111 55.2758 58.5827 68.5041 87.874C68.5041 87.874 63.1498 96.7717 55.2758 98.0315C55.2758 98.0315 50.2364 73.7008 48.6616 72.5985L55.512 62.2835L57.953 49.6851L56.8506 37.4016L55.2758 33.4646Z" fill="#FF7058"/>
<path d="M50.63 34.252L55.2757 33.4646C55.2757 33.4646 53.2284 30.4724 53.1497 25.9055H50.63H49.4489H46.9292C46.8505 30.4724 44.8032 33.4646 44.8032 33.4646L49.4489 34.252V34.4882L50.0788 34.4095L50.7087 34.4882V34.252H50.63Z" fill="#F9B54C"/>
<path d="M49.7639 35.5118C54.1996 35.5118 57.7954 30.4354 57.7954 24.1732C57.7954 17.9111 54.1996 12.8347 49.7639 12.8347C45.3282 12.8347 41.7324 17.9111 41.7324 24.1732C41.7324 30.4354 45.3282 35.5118 49.7639 35.5118Z" fill="#FFD05B"/>
<path d="M48.1099 11.6536C48.1099 11.6536 52.0469 22.2048 59.9996 25.1969L57.0862 13.7796L50.5508 10.5512L48.1099 11.6536Z" fill="#324A5E"/>
<path d="M50.3148 11.7323C50.3148 11.7323 44.488 20.315 40.3936 22.2835L41.4959 15.6693L45.3542 12.0473L50.3148 11.7323Z" fill="#324A5E"/>
<path d="M57.9527 38.3464C56.3779 40.5512 53.307 42.126 49.7637 42.126C46.2204 42.126 43.1495 40.6299 41.5747 38.3464H41.2598C42.8346 40.7086 46.0629 42.3622 49.7637 42.3622C53.4645 42.3622 56.6141 40.7086 58.2676 38.3464H57.9527Z" fill="white"/>
<path d="M50.5511 42.441C50.5511 42.8347 50.3936 44.3307 49.9999 44.3307C49.6062 44.3307 49.4487 42.8347 49.4487 42.441V42.3622C49.4487 42.2835 49.4487 42.2048 49.4487 42.126C49.5275 41.7323 49.685 41.5748 49.9999 41.5748C50.2361 41.5748 50.4724 41.6536 50.5511 42.0473C50.4724 42.0473 50.3936 42.0473 50.3149 42.0473C50.2361 41.7323 50.1574 41.7323 49.9999 41.7323C49.8424 41.7323 49.7637 41.7323 49.685 42.0473C49.685 42.126 49.685 42.2048 49.685 42.2835V42.3622C49.685 43.1496 49.9212 43.937 49.9999 44.0158C50.1574 43.937 50.3149 43.1496 50.3149 42.3622V42.2835C50.3936 42.2835 50.4724 42.2835 50.5511 42.2835C50.5511 42.3622 50.5511 42.441 50.5511 42.441Z" fill="#324A5E"/>
<path d="M50.0001 46.9291C50.8698 46.9291 51.5749 46.2241 51.5749 45.3543C51.5749 44.4846 50.8698 43.7795 50.0001 43.7795C49.1304 43.7795 48.4253 44.4846 48.4253 45.3543C48.4253 46.2241 49.1304 46.9291 50.0001 46.9291Z" fill="#E6E9EE"/>
<path d="M50.0003 45.3543C50.0872 45.3543 50.1577 45.0723 50.1577 44.7244C50.1577 44.3765 50.0872 44.0945 50.0003 44.0945C49.9133 44.0945 49.8428 44.3765 49.8428 44.7244C49.8428 45.0723 49.9133 45.3543 50.0003 45.3543Z" fill="#CED5E0"/>
<path d="M50.0003 46.6142C50.0872 46.6142 50.1577 46.3321 50.1577 45.9842C50.1577 45.6363 50.0872 45.3543 50.0003 45.3543C49.9133 45.3543 49.8428 45.6363 49.8428 45.9842C49.8428 46.3321 49.9133 46.6142 50.0003 46.6142Z" fill="#CED5E0"/>
<path d="M50.7085 45.5118C51.0564 45.5118 51.3385 45.4413 51.3385 45.3543C51.3385 45.2673 51.0564 45.1968 50.7085 45.1968C50.3606 45.1968 50.0786 45.2673 50.0786 45.3543C50.0786 45.4413 50.3606 45.5118 50.7085 45.5118Z" fill="#CED5E0"/>
<path d="M49.3702 45.5118C49.7181 45.5118 50.0001 45.4413 50.0001 45.3543C50.0001 45.2673 49.7181 45.1968 49.3702 45.1968C49.0223 45.1968 48.7402 45.2673 48.7402 45.3543C48.7402 45.4413 49.0223 45.5118 49.3702 45.5118Z" fill="#CED5E0"/>
<path d="M50.5929 44.9872C50.8389 44.7412 50.9884 44.4919 50.9269 44.4304C50.8654 44.3689 50.6161 44.5185 50.3702 44.7645C50.1242 45.0106 49.9747 45.2599 50.0362 45.3214C50.0977 45.3828 50.3469 45.2332 50.5929 44.9872Z" fill="#CED5E0"/>
<path d="M49.6427 45.9165C49.8887 45.6704 50.0382 45.4211 49.9767 45.3597C49.9152 45.2982 49.6659 45.4478 49.42 45.6938C49.174 45.9398 49.0245 46.1891 49.086 46.2506C49.1475 46.3121 49.3967 46.1625 49.6427 45.9165Z" fill="#CED5E0"/>
<path d="M50.3804 45.9232C50.6264 46.1692 50.8757 46.3188 50.9372 46.2573C50.9987 46.1958 50.8491 45.9465 50.6031 45.7005C50.3571 45.4545 50.1079 45.3049 50.0464 45.3664C49.9849 45.4279 50.1344 45.6772 50.3804 45.9232Z" fill="#CED5E0"/>
<path d="M49.4799 45.0003C49.7259 45.2463 49.9752 45.3959 50.0367 45.3344C50.0982 45.2729 49.9486 45.0236 49.7027 44.7776C49.4567 44.5315 49.2075 44.3819 49.146 44.4434C49.0844 44.5049 49.234 44.7542 49.4799 45.0003Z" fill="#CED5E0"/>
<path d="M44.7244 33.4646C44.7244 33.4646 39.1339 53.3859 51.3386 72.5985C51.3386 72.5985 39.9213 65.9843 37.5591 44.4882L41.3386 43.937L38.7402 42.2048C38.8189 42.2048 38.5827 35.3544 44.7244 33.4646Z" fill="#FF7058"/>
<path d="M55.2758 33.4646C55.2758 33.4646 60.8663 53.3859 48.6616 72.5985C48.6616 72.5985 60.0789 65.9843 62.4412 44.4882L58.6616 43.937L61.26 42.2048C61.1813 42.2048 61.4175 35.3544 55.2758 33.4646Z" fill="#F1543F"/>
</g>
<defs>
<clipPath id="clip0_28_334">
<rect width="100" height="100" fill="white"/>
</clipPath>
</defs>
</svg>
