<svg width="100" height="100" viewBox="0 0 100 100" fill="none" xmlns="http://www.w3.org/2000/svg">
<path d="M50 100C77.6142 100 100 77.6142 100 50C100 22.3858 77.6142 0 50 0C22.3858 0 0 22.3858 0 50C0 77.6142 22.3858 100 50 100Z" fill="#90DFAA"/>
<path d="M60.0789 48.3465C60.0789 55.1181 55.5119 57.3229 50.0001 57.3229C44.4883 57.3229 39.9214 55.1181 39.9214 48.3465C39.9214 41.5748 44.4096 32.6772 50.0001 32.6772C55.5907 32.6772 60.0789 41.5748 60.0789 48.3465Z" fill="#F9B54C"/>
<path d="M60.5512 46.8504L60 74.8032L56.7716 83.937L51.1024 100C50.7874 100 50.5512 100 50.2362 100C50.1575 100 50 100 49.8425 100C49.7638 100 49.6063 100 49.4488 100C49.1338 100 48.8189 100 48.5827 100L42.9134 84.252L38.189 71.0236V49.6851L39.8425 45.748L39.9212 45.8268L40.4724 46.378L46.6929 52.8347L47.7953 53.937L49.7638 52.8347L49.8425 52.7559L51.5748 51.811L59.2126 47.4803L59.9212 47.0866L60.5512 46.8504Z" fill="#E6E9EE"/>
<path d="M46.5355 52.8347L44.4883 55.5906L47.0867 59.0551H52.9135L55.5119 55.5906L53.4647 52.8347H46.5355Z" fill="#616161"/>
<path d="M58.1891 92.5197L55.3545 95.748L51.6537 99.9213C51.4962 99.9213 51.3387 99.9213 51.1812 99.9213C50.8663 99.9213 50.6301 99.9213 50.3151 99.9213C50.2364 99.9213 50.0789 99.9213 49.9214 99.9213C49.8427 99.9213 49.6852 99.9213 49.5277 99.9213C49.2127 99.9213 48.8978 99.9213 48.6616 99.9213C48.5041 99.9213 48.3466 99.9213 48.2679 99.9213L44.5671 95.748L41.7324 92.5197L42.1261 90.2362L43.071 84.1732L44.4096 75.5118L47.008 59.0551H52.8348L55.512 75.5118L56.8505 83.937L57.8742 90.2362L58.1891 92.5197Z" fill="#616161"/>
<path d="M29.2124 80.9449C28.5037 81.4961 27.7951 87.0079 27.0077 94.4095C26.9289 94.4095 26.8502 94.3307 26.8502 94.3307C22.5982 92.126 18.74 89.2914 15.2754 85.9843C16.5352 69.4488 17.7163 55.6693 17.7163 55.6693C17.7163 55.6693 17.7163 55.6693 17.7163 55.7481L29.2124 80.9449Z" fill="#324A5E"/>
<path d="M49.6063 100C49.2913 100 48.9764 100 48.7402 100C48.5827 100 48.4252 100 48.3465 100C47.7953 100 47.3228 100 46.7717 99.9213C39.685 99.4488 32.9921 97.5591 27.0866 94.4882C27.0079 94.4882 26.9291 94.4094 26.9291 94.4094C23.937 74.6457 18.2677 57.0866 17.874 55.8268C17.874 55.8268 17.874 55.8268 17.874 55.748C32.5984 52.5984 40.1575 43.2283 40.9449 42.126C40.9449 42.0472 41.0236 42.0472 41.0236 42.0472C41.0236 42.126 41.0236 42.2047 40.9449 42.2835C40.7087 43.3071 40.5512 44.7244 40.5512 46.4567C40.5512 48.1102 40.6299 50 40.8661 52.126C40.8661 52.5197 40.9449 52.9134 40.9449 53.3858C41.5748 59.9213 42.9921 67.9528 44.4095 75.5118C46.8504 88.3465 49.5276 99.7638 49.5276 99.7638C49.6063 99.8425 49.6063 99.9213 49.6063 100Z" fill="#2B3B4E"/>
<path d="M49.6063 100C49.2913 100 48.9764 100 48.7402 100C48.5827 100 48.4252 100 48.3465 100C47.7953 100 47.3228 100 46.7717 99.9213C46.063 98.5827 45.3543 97.2441 44.6457 95.8268C43.7795 94.0945 42.9921 92.2047 42.2047 90.315C35.9843 75.5905 31.811 58.5039 31.811 58.5039C33.0709 58.6614 36.4567 57.0866 36.4567 57.0866L31.811 51.6535C36.7717 50.3937 40.2362 43.7795 41.0236 42.2835C41.1024 42.126 41.1811 42.0472 41.1811 41.9685C41.1811 42.0472 41.1811 42.126 41.1024 42.2047C40.8662 43.2283 40.7087 44.6457 40.7087 46.378C40.7087 48.0315 40.7874 49.9213 41.0236 52.0472C41.0236 52.4409 41.1024 52.8346 41.1024 53.3071C41.7323 59.8425 43.1496 67.874 44.5669 75.4331C47.0079 88.2677 49.685 99.685 49.685 99.685C49.6063 99.8425 49.6063 99.9213 49.6063 100Z" fill="#ACB3BA"/>
<path d="M84.7246 85.9843C81.3388 89.2914 77.4018 92.126 73.1498 94.3307C73.0711 94.3307 72.9923 94.4095 72.9923 94.4095C72.2837 86.9292 71.4963 81.4961 70.7876 80.9449L82.2049 55.7481C82.2049 55.7481 82.2049 55.7481 82.2049 55.6693C82.2049 55.6693 83.4648 69.5276 84.7246 85.9843Z" fill="#2B3B4E"/>
<path d="M82.2046 55.6693C82.2046 55.748 82.2046 55.748 82.2046 55.6693C81.8109 57.0079 76.1416 74.5669 73.1495 94.3307C73.0707 94.3307 72.992 94.4095 72.992 94.4095C67.0077 97.4803 60.3148 99.4488 53.3069 99.8425C52.7558 99.8425 52.2833 99.9213 51.7321 99.9213C51.5747 99.9213 51.4172 99.9213 51.2597 99.9213C50.9447 99.9213 50.7085 99.9213 50.3936 99.9213C50.3936 99.8425 50.3936 99.7638 50.3936 99.7638C50.3936 99.7638 53.0707 88.3465 55.5117 75.5118C56.929 67.9528 58.2676 59.8425 58.9762 53.3858C58.9762 52.9921 59.055 52.5984 59.055 52.2047C59.2125 50.5512 59.2912 48.9764 59.3699 47.6378C59.4487 45.3543 59.2912 43.5433 58.9762 42.2835C58.9762 42.2047 58.9762 42.126 58.8975 42.0472C58.8975 42.0472 58.8975 42.0472 58.9762 42.126C59.6849 42.9921 67.2439 52.5197 82.2046 55.6693Z" fill="#324A5E"/>
<path d="M68.2676 58.5039C68.2676 58.5039 64.0943 75.5118 57.8739 90.315C57.0865 92.2047 56.2203 94.0157 55.4329 95.8268C54.7243 97.2441 54.0156 98.6614 53.3069 99.9213C52.7558 99.9213 52.2833 100 51.7321 100C51.5747 100 51.4172 100 51.2597 100C50.9447 100 50.7085 100 50.3936 100C50.3936 99.9213 50.3936 99.8425 50.3936 99.8425C50.3936 99.8425 53.0707 88.4252 55.5117 75.5905C56.929 68.0315 58.2676 59.9213 58.9762 53.4646C58.9762 53.0709 59.055 52.6772 59.055 52.2835C59.2125 50.6299 59.2912 49.0551 59.3699 47.7165C59.4487 45.4331 59.2912 43.622 58.9762 42.3622C58.9762 42.2835 58.9762 42.2047 58.8975 42.126C58.8975 42.126 58.9762 42.2047 58.9762 42.3622C59.6849 43.7795 63.2282 50.4724 68.1888 51.7323L63.6219 57.0866C63.6219 57.0866 67.0077 58.6614 68.2676 58.5039Z" fill="#CED5E0"/>
<path d="M58.8976 41.9685C58.8976 41.9685 61.1024 46.9291 50 52.7559L55.0394 60.2362C55.0394 60.315 62.9921 48.9764 58.8976 41.9685Z" fill="white"/>
<path d="M41.1022 41.9685C41.1022 41.9685 38.8975 46.9291 49.9999 52.7559L44.9605 60.2362C44.9605 60.315 37.0077 48.9764 41.1022 41.9685Z" fill="white"/>
<path d="M63.1493 25.6693C63.1493 35.4331 57.2438 48.189 49.9997 48.189C42.7556 48.189 36.8501 35.4331 36.8501 25.6693C36.8501 15.9055 42.7556 12.8347 49.9997 12.8347C57.2438 12.8347 63.1493 15.9055 63.1493 25.6693Z" fill="#FFD05B"/>
<path d="M66.0632 30.3937C65.2758 32.2047 63.7797 33.3071 62.7561 32.9134C61.7325 32.5197 61.4962 30.7874 62.2836 28.9764C63.071 27.1653 64.5671 26.063 65.5907 26.4567C66.6931 26.7716 66.8506 28.5827 66.0632 30.3937Z" fill="#FFD05B"/>
<path d="M33.9369 30.3937C34.7244 32.2047 36.2204 33.3071 37.244 32.9134C38.2677 32.5197 38.5039 30.7874 37.7165 28.9764C36.9291 27.1653 35.433 26.063 34.4094 26.4567C33.307 26.7716 33.1495 28.5827 33.9369 30.3937Z" fill="#FFD05B"/>
<path d="M49.9213 16.2992C53.7795 14.1733 62.7559 11.1811 62.7559 30.4725C62.7559 30.4725 71.4173 8.34648 58.189 8.03152C58.189 8.03152 48.8977 -1.4173 36.8504 12.3622L38.7402 11.4173C38.7402 11.4173 29.0551 17.0866 37.3229 30.4725C37.3229 30.4725 35.9055 11.1024 46.6142 16.378C47.6378 16.9292 48.8977 16.8504 49.9213 16.2992Z" fill="#324A5E"/>
</svg>
