<svg width="220" height="175" viewBox="0 0 220 175" fill="none" xmlns="http://www.w3.org/2000/svg">
<rect width="220" height="175" rx="5" fill="#B5BF00"/>
<line x1="82" y1="99.5" x2="139" y2="99.5" stroke="#FAFAFA"/>
<path d="M53.2073 124V110.909H57.6306C58.6576 110.909 59.4971 111.094 60.1491 111.465C60.8053 111.832 61.2911 112.328 61.6064 112.955C61.9218 113.581 62.0795 114.28 62.0795 115.051C62.0795 115.822 61.9218 116.523 61.6064 117.154C61.2954 117.785 60.8138 118.288 60.1618 118.663C59.5099 119.033 58.6746 119.219 57.6562 119.219H54.4857V117.812H57.605C58.3082 117.812 58.8728 117.691 59.2989 117.448C59.7251 117.205 60.034 116.877 60.2258 116.464C60.4218 116.046 60.5198 115.575 60.5198 115.051C60.5198 114.527 60.4218 114.058 60.2258 113.645C60.034 113.232 59.7229 112.908 59.2925 112.673C58.8621 112.435 58.2911 112.315 57.5795 112.315H54.7925V124H53.2073ZM64.4285 124V114.182H65.8859V115.665H65.9882C66.1672 115.179 66.491 114.785 66.9598 114.482C67.4285 114.18 67.9569 114.028 68.545 114.028C68.6558 114.028 68.7943 114.031 68.9605 114.035C69.1267 114.039 69.2524 114.045 69.3376 114.054V115.588C69.2865 115.575 69.1693 115.556 68.9861 115.531C68.8071 115.501 68.6175 115.486 68.4172 115.486C67.9399 115.486 67.5138 115.586 67.1388 115.786C66.768 115.982 66.474 116.255 66.2567 116.604C66.0436 116.95 65.9371 117.344 65.9371 117.787V124H64.4285ZM74.8156 124.205C73.9292 124.205 73.1515 123.994 72.4825 123.572C71.8177 123.15 71.2979 122.56 70.9229 121.801C70.5521 121.043 70.3667 120.156 70.3667 119.142C70.3667 118.119 70.5521 117.227 70.9229 116.464C71.2979 115.701 71.8177 115.109 72.4825 114.687C73.1515 114.265 73.9292 114.054 74.8156 114.054C75.702 114.054 76.4775 114.265 77.1423 114.687C77.8113 115.109 78.3312 115.701 78.702 116.464C79.077 117.227 79.2645 118.119 79.2645 119.142C79.2645 120.156 79.077 121.043 78.702 121.801C78.3312 122.56 77.8113 123.15 77.1423 123.572C76.4775 123.994 75.702 124.205 74.8156 124.205ZM74.8156 122.849C75.4889 122.849 76.0429 122.677 76.4775 122.332C76.9122 121.987 77.2339 121.533 77.4427 120.97C77.6515 120.408 77.7559 119.798 77.7559 119.142C77.7559 118.486 77.6515 117.874 77.4427 117.308C77.2339 116.741 76.9122 116.283 76.4775 115.933C76.0429 115.584 75.4889 115.409 74.8156 115.409C74.1423 115.409 73.5883 115.584 73.1537 115.933C72.719 116.283 72.3973 116.741 72.1885 117.308C71.9797 117.874 71.8753 118.486 71.8753 119.142C71.8753 119.798 71.9797 120.408 72.1885 120.97C72.3973 121.533 72.719 121.987 73.1537 122.332C73.5883 122.677 74.1423 122.849 74.8156 122.849ZM85.5303 127.886C84.8016 127.886 84.1752 127.793 83.651 127.605C83.1269 127.422 82.6901 127.179 82.3406 126.876C81.9955 126.578 81.7206 126.259 81.5161 125.918L82.7178 125.074C82.8541 125.253 83.0267 125.457 83.2355 125.688C83.4443 125.922 83.7298 126.124 84.0921 126.295C84.4585 126.469 84.9379 126.557 85.5303 126.557C86.3229 126.557 86.977 126.365 87.4926 125.982C88.0083 125.598 88.2661 124.997 88.2661 124.179V122.185H88.1382C88.0274 122.364 87.8698 122.585 87.6652 122.849C87.4649 123.109 87.1752 123.342 86.7959 123.546C86.4209 123.746 85.9138 123.847 85.2746 123.847C84.482 123.847 83.7703 123.659 83.1396 123.284C82.5132 122.909 82.0168 122.364 81.6503 121.648C81.2881 120.932 81.107 120.062 81.107 119.04C81.107 118.034 81.2838 117.158 81.6375 116.413C81.9912 115.663 82.4834 115.083 83.1141 114.674C83.7448 114.261 84.4735 114.054 85.3002 114.054C85.9394 114.054 86.4465 114.161 86.8215 114.374C87.2007 114.582 87.4905 114.821 87.6908 115.089C87.8953 115.354 88.053 115.571 88.1638 115.741H88.3172V114.182H89.7746V124.281C89.7746 125.125 89.5828 125.811 89.1993 126.339C88.82 126.872 88.3087 127.262 87.6652 127.509C87.026 127.761 86.3144 127.886 85.5303 127.886ZM85.4791 122.491C86.0843 122.491 86.5956 122.353 87.0132 122.076C87.4308 121.799 87.7483 121.401 87.9656 120.881C88.183 120.361 88.2916 119.739 88.2916 119.014C88.2916 118.307 88.1851 117.683 87.972 117.141C87.759 116.6 87.4436 116.176 87.026 115.869C86.6084 115.562 86.0928 115.409 85.4791 115.409C84.8399 115.409 84.3073 115.571 83.8811 115.895C83.4593 116.219 83.1418 116.653 82.9287 117.199C82.7199 117.744 82.6155 118.349 82.6155 119.014C82.6155 119.696 82.722 120.299 82.9351 120.823C83.1524 121.343 83.472 121.752 83.8939 122.05C84.32 122.344 84.8485 122.491 85.4791 122.491ZM92.536 124V114.182H93.9933V115.665H94.0956C94.2746 115.179 94.5985 114.785 95.0672 114.482C95.536 114.18 96.0644 114.028 96.6524 114.028C96.7632 114.028 96.9017 114.031 97.0679 114.035C97.2341 114.039 97.3598 114.045 97.445 114.054V115.588C97.3939 115.575 97.2767 115.556 97.0935 115.531C96.9145 115.501 96.7249 115.486 96.5246 115.486C96.0473 115.486 95.6212 115.586 95.2462 115.786C94.8754 115.982 94.5814 116.255 94.3641 116.604C94.151 116.95 94.0445 117.344 94.0445 117.787V124H92.536ZM102.122 124.23C101.5 124.23 100.936 124.113 100.429 123.879C99.9214 123.64 99.5187 123.297 99.2204 122.849C98.9221 122.398 98.773 121.852 98.773 121.213C98.773 120.651 98.8838 120.195 99.1054 119.845C99.327 119.491 99.6231 119.214 99.9939 119.014C100.365 118.814 100.774 118.665 101.221 118.567C101.673 118.464 102.127 118.384 102.583 118.324C103.179 118.247 103.663 118.19 104.034 118.151C104.409 118.109 104.681 118.038 104.852 117.94C105.027 117.842 105.114 117.672 105.114 117.429V117.378C105.114 116.747 104.941 116.257 104.596 115.908C104.255 115.558 103.737 115.384 103.043 115.384C102.323 115.384 101.758 115.541 101.349 115.857C100.94 116.172 100.652 116.509 100.486 116.866L99.0542 116.355C99.3099 115.759 99.6508 115.294 100.077 114.962C100.507 114.625 100.976 114.391 101.483 114.259C101.995 114.122 102.497 114.054 102.992 114.054C103.307 114.054 103.669 114.092 104.078 114.169C104.492 114.241 104.89 114.393 105.274 114.623C105.661 114.853 105.983 115.2 106.239 115.665C106.495 116.129 106.622 116.751 106.622 117.531V124H105.114V122.67H105.037C104.935 122.884 104.764 123.112 104.526 123.354C104.287 123.597 103.97 123.804 103.573 123.974C103.177 124.145 102.693 124.23 102.122 124.23ZM102.353 122.875C102.949 122.875 103.452 122.758 103.861 122.523C104.274 122.289 104.585 121.987 104.794 121.616C105.007 121.245 105.114 120.855 105.114 120.446V119.065C105.05 119.142 104.909 119.212 104.692 119.276C104.479 119.336 104.232 119.389 103.951 119.436C103.674 119.479 103.403 119.517 103.139 119.551C102.879 119.581 102.668 119.607 102.506 119.628C102.114 119.679 101.747 119.762 101.407 119.877C101.07 119.988 100.797 120.156 100.588 120.382C100.384 120.604 100.282 120.906 100.282 121.29C100.282 121.814 100.475 122.21 100.863 122.479C101.255 122.743 101.752 122.875 102.353 122.875ZM109.376 124V114.182H110.833V115.716H110.961C111.166 115.192 111.496 114.785 111.952 114.495C112.408 114.201 112.955 114.054 113.595 114.054C114.242 114.054 114.781 114.201 115.212 114.495C115.646 114.785 115.985 115.192 116.228 115.716H116.33C116.582 115.209 116.959 114.806 117.462 114.508C117.965 114.205 118.568 114.054 119.271 114.054C120.149 114.054 120.867 114.329 121.425 114.879C121.983 115.424 122.262 116.274 122.262 117.429V124H120.754V117.429C120.754 116.705 120.555 116.187 120.159 115.876C119.763 115.565 119.296 115.409 118.759 115.409C118.069 115.409 117.534 115.618 117.155 116.036C116.776 116.449 116.586 116.973 116.586 117.608V124H115.052V117.276C115.052 116.717 114.871 116.268 114.509 115.927C114.146 115.582 113.68 115.409 113.109 115.409C112.717 115.409 112.35 115.513 112.009 115.722C111.673 115.931 111.4 116.221 111.191 116.592C110.987 116.958 110.884 117.382 110.884 117.864V124H109.376ZM127.91 124.23C127.287 124.23 126.723 124.113 126.216 123.879C125.709 123.64 125.306 123.297 125.008 122.849C124.709 122.398 124.56 121.852 124.56 121.213C124.56 120.651 124.671 120.195 124.892 119.845C125.114 119.491 125.41 119.214 125.781 119.014C126.152 118.814 126.561 118.665 127.008 118.567C127.46 118.464 127.914 118.384 128.37 118.324C128.966 118.247 129.45 118.19 129.821 118.151C130.196 118.109 130.468 118.038 130.639 117.94C130.814 117.842 130.901 117.672 130.901 117.429V117.378C130.901 116.747 130.728 116.257 130.383 115.908C130.042 115.558 129.525 115.384 128.83 115.384C128.11 115.384 127.545 115.541 127.136 115.857C126.727 116.172 126.439 116.509 126.273 116.866L124.841 116.355C125.097 115.759 125.438 115.294 125.864 114.962C126.294 114.625 126.763 114.391 127.27 114.259C127.782 114.122 128.285 114.054 128.779 114.054C129.094 114.054 129.456 114.092 129.866 114.169C130.279 114.241 130.677 114.393 131.061 114.623C131.449 114.853 131.77 115.2 132.026 115.665C132.282 116.129 132.41 116.751 132.41 117.531V124H130.901V122.67H130.824C130.722 122.884 130.552 123.112 130.313 123.354C130.074 123.597 129.757 123.804 129.361 123.974C128.964 124.145 128.481 124.23 127.91 124.23ZM128.14 122.875C128.736 122.875 129.239 122.758 129.648 122.523C130.062 122.289 130.373 121.987 130.581 121.616C130.794 121.245 130.901 120.855 130.901 120.446V119.065C130.837 119.142 130.696 119.212 130.479 119.276C130.266 119.336 130.019 119.389 129.738 119.436C129.461 119.479 129.19 119.517 128.926 119.551C128.666 119.581 128.455 119.607 128.293 119.628C127.901 119.679 127.535 119.762 127.194 119.877C126.857 119.988 126.584 120.156 126.375 120.382C126.171 120.604 126.069 120.906 126.069 121.29C126.069 121.814 126.263 122.21 126.65 122.479C127.042 122.743 127.539 122.875 128.14 122.875ZM139.152 124.205C138.231 124.205 137.438 123.987 136.774 123.553C136.109 123.118 135.598 122.519 135.24 121.756C134.882 120.994 134.703 120.122 134.703 119.142C134.703 118.145 134.886 117.265 135.252 116.502C135.623 115.735 136.139 115.136 136.799 114.706C137.464 114.271 138.24 114.054 139.126 114.054C139.816 114.054 140.438 114.182 140.992 114.438C141.546 114.693 142 115.051 142.354 115.511C142.708 115.972 142.927 116.509 143.012 117.122H141.504C141.389 116.675 141.133 116.278 140.737 115.933C140.345 115.584 139.816 115.409 139.152 115.409C138.563 115.409 138.048 115.562 137.605 115.869C137.166 116.172 136.823 116.6 136.576 117.154C136.333 117.704 136.211 118.349 136.211 119.091C136.211 119.849 136.331 120.51 136.569 121.072C136.812 121.635 137.153 122.072 137.592 122.383C138.035 122.694 138.555 122.849 139.152 122.849C139.544 122.849 139.899 122.781 140.219 122.645C140.539 122.509 140.809 122.312 141.031 122.057C141.252 121.801 141.41 121.494 141.504 121.136H143.012C142.927 121.716 142.716 122.238 142.38 122.702C142.047 123.163 141.606 123.529 141.056 123.802C140.511 124.07 139.876 124.205 139.152 124.205ZM145.218 124V114.182H146.726V124H145.218ZM145.985 112.545C145.691 112.545 145.437 112.445 145.224 112.245C145.015 112.045 144.911 111.804 144.911 111.523C144.911 111.241 145.015 111.001 145.224 110.8C145.437 110.6 145.691 110.5 145.985 110.5C146.279 110.5 146.53 110.6 146.739 110.8C146.952 111.001 147.059 111.241 147.059 111.523C147.059 111.804 146.952 112.045 146.739 112.245C146.53 112.445 146.279 112.545 145.985 112.545ZM153.478 124.205C152.591 124.205 151.814 123.994 151.145 123.572C150.48 123.15 149.96 122.56 149.585 121.801C149.214 121.043 149.029 120.156 149.029 119.142C149.029 118.119 149.214 117.227 149.585 116.464C149.96 115.701 150.48 115.109 151.145 114.687C151.814 114.265 152.591 114.054 153.478 114.054C154.364 114.054 155.14 114.265 155.804 114.687C156.473 115.109 156.993 115.701 157.364 116.464C157.739 117.227 157.927 118.119 157.927 119.142C157.927 120.156 157.739 121.043 157.364 121.801C156.993 122.56 156.473 123.15 155.804 123.572C155.14 123.994 154.364 124.205 153.478 124.205ZM153.478 122.849C154.151 122.849 154.705 122.677 155.14 122.332C155.574 121.987 155.896 121.533 156.105 120.97C156.314 120.408 156.418 119.798 156.418 119.142C156.418 118.486 156.314 117.874 156.105 117.308C155.896 116.741 155.574 116.283 155.14 115.933C154.705 115.584 154.151 115.409 153.478 115.409C152.804 115.409 152.25 115.584 151.816 115.933C151.381 116.283 151.059 116.741 150.851 117.308C150.642 117.874 150.537 118.486 150.537 119.142C150.537 119.798 150.642 120.408 150.851 120.97C151.059 121.533 151.381 121.987 151.816 122.332C152.25 122.677 152.804 122.849 153.478 122.849ZM152.787 112.852L154.347 109.886H156.111L154.117 112.852H152.787ZM161.738 118.094V124H160.229V114.182H161.687V115.716H161.815C162.045 115.217 162.394 114.817 162.863 114.514C163.332 114.207 163.937 114.054 164.678 114.054C165.343 114.054 165.925 114.19 166.423 114.463C166.922 114.732 167.31 115.141 167.587 115.69C167.864 116.236 168.002 116.926 168.002 117.761V124H166.494V117.864C166.494 117.092 166.293 116.491 165.893 116.061C165.492 115.626 164.942 115.409 164.244 115.409C163.762 115.409 163.332 115.513 162.952 115.722C162.577 115.931 162.281 116.236 162.064 116.636C161.847 117.037 161.738 117.523 161.738 118.094ZM51.7971 146.205C50.9789 146.205 50.2566 145.998 49.6301 145.585C49.0037 145.167 48.5137 144.579 48.16 143.82C47.8063 143.058 47.6294 142.156 47.6294 141.116C47.6294 140.085 47.8063 139.19 48.16 138.432C48.5137 137.673 49.0059 137.087 49.6365 136.674C50.2672 136.261 50.9959 136.054 51.8226 136.054C52.4618 136.054 52.9668 136.161 53.3375 136.374C53.7125 136.582 53.998 136.821 54.1941 137.089C54.3944 137.354 54.5499 137.571 54.6607 137.741H54.7885V132.909H56.2971V146H54.8397V144.491H54.6607C54.5499 144.67 54.3922 144.896 54.1877 145.169C53.9831 145.437 53.6912 145.678 53.312 145.891C52.9327 146.1 52.4277 146.205 51.7971 146.205ZM52.0016 144.849C52.6067 144.849 53.1181 144.692 53.5357 144.376C53.9533 144.057 54.2708 143.616 54.4881 143.053C54.7054 142.487 54.8141 141.832 54.8141 141.091C54.8141 140.358 54.7076 139.717 54.4945 139.167C54.2814 138.613 53.9661 138.183 53.5485 137.876C53.1309 137.565 52.6152 137.409 52.0016 137.409C51.3624 137.409 50.8297 137.573 50.4036 137.901C49.9817 138.225 49.6642 138.666 49.4512 139.224C49.2424 139.778 49.138 140.401 49.138 141.091C49.138 141.79 49.2445 142.425 49.4576 142.996C49.6749 143.562 49.9945 144.014 50.4164 144.351C50.8425 144.683 51.3709 144.849 52.0016 144.849ZM63.3858 146.205C62.4398 146.205 61.6238 145.996 60.9377 145.578C60.2559 145.156 59.7296 144.568 59.3588 143.814C58.9924 143.055 58.8091 142.173 58.8091 141.168C58.8091 140.162 58.9924 139.276 59.3588 138.509C59.7296 137.737 60.2452 137.136 60.9057 136.706C61.5705 136.271 62.3461 136.054 63.2324 136.054C63.7438 136.054 64.2488 136.139 64.7473 136.31C65.2459 136.48 65.6998 136.757 66.1088 137.141C66.5179 137.52 66.8439 138.023 67.0868 138.649C67.3297 139.276 67.4512 140.047 67.4512 140.963V141.602H59.883V140.298H65.9171C65.9171 139.744 65.8063 139.25 65.5847 138.815C65.3674 138.381 65.0563 138.038 64.6515 137.786C64.2509 137.535 63.7779 137.409 63.2324 137.409C62.6316 137.409 62.1117 137.558 61.6728 137.857C61.2381 138.151 60.9036 138.534 60.6692 139.007C60.4348 139.48 60.3176 139.987 60.3176 140.528V141.398C60.3176 142.139 60.4455 142.768 60.7012 143.283C60.9611 143.795 61.3212 144.185 61.7814 144.453C62.2417 144.717 62.7765 144.849 63.3858 144.849C63.7821 144.849 64.1401 144.794 64.4597 144.683C64.7836 144.568 65.0627 144.398 65.2971 144.172C65.5314 143.942 65.7125 143.656 65.8404 143.315L67.2978 143.724C67.1444 144.219 66.8865 144.653 66.5243 145.028C66.1621 145.399 65.7147 145.689 65.182 145.898C64.6493 146.102 64.0506 146.205 63.3858 146.205ZM78.5158 146.205C77.6976 146.205 76.9753 145.998 76.3489 145.585C75.7225 145.167 75.2324 144.579 74.8787 143.82C74.525 143.058 74.3482 142.156 74.3482 141.116C74.3482 140.085 74.525 139.19 74.8787 138.432C75.2324 137.673 75.7246 137.087 76.3553 136.674C76.986 136.261 77.7147 136.054 78.5414 136.054C79.1806 136.054 79.6855 136.161 80.0563 136.374C80.4313 136.582 80.7168 136.821 80.9128 137.089C81.1131 137.354 81.2686 137.571 81.3794 137.741H81.5073V132.909H83.0158V146H81.5584V144.491H81.3794C81.2686 144.67 81.111 144.896 80.9064 145.169C80.7019 145.437 80.41 145.678 80.0307 145.891C79.6515 146.1 79.1465 146.205 78.5158 146.205ZM78.7203 144.849C79.3255 144.849 79.8368 144.692 80.2544 144.376C80.6721 144.057 80.9895 143.616 81.2069 143.053C81.4242 142.487 81.5328 141.832 81.5328 141.091C81.5328 140.358 81.4263 139.717 81.2132 139.167C81.0002 138.613 80.6848 138.183 80.2672 137.876C79.8496 137.565 79.334 137.409 78.7203 137.409C78.0811 137.409 77.5485 137.573 77.1223 137.901C76.7005 138.225 76.383 138.666 76.1699 139.224C75.9611 139.778 75.8567 140.401 75.8567 141.091C75.8567 141.79 75.9632 142.425 76.1763 142.996C76.3936 143.562 76.7132 144.014 77.1351 144.351C77.5613 144.683 78.0897 144.849 78.7203 144.849ZM85.9881 146V136.182H87.4966V146H85.9881ZM86.7551 134.545C86.4611 134.545 86.2076 134.445 85.9945 134.245C85.7857 134.045 85.6813 133.804 85.6813 133.523C85.6813 133.241 85.7857 133.001 85.9945 132.8C86.2076 132.6 86.4611 132.5 86.7551 132.5C87.0492 132.5 87.3006 132.6 87.5094 132.8C87.7225 133.001 87.829 133.241 87.829 133.523C87.829 133.804 87.7225 134.045 87.5094 134.245C87.3006 134.445 87.0492 134.545 86.7551 134.545ZM97.2141 138.381L95.859 138.764C95.7738 138.538 95.6481 138.319 95.4819 138.106C95.32 137.888 95.0984 137.71 94.8171 137.569C94.5359 137.428 94.1758 137.358 93.7369 137.358C93.136 137.358 92.6353 137.496 92.2347 137.773C91.8384 138.046 91.6403 138.393 91.6403 138.815C91.6403 139.19 91.7766 139.487 92.0494 139.704C92.3221 139.921 92.7482 140.102 93.3278 140.247L94.7852 140.605C95.663 140.818 96.3171 141.144 96.7475 141.583C97.1779 142.018 97.3931 142.578 97.3931 143.264C97.3931 143.827 97.2312 144.33 96.9073 144.773C96.5877 145.216 96.1403 145.565 95.565 145.821C94.9897 146.077 94.3207 146.205 93.5579 146.205C92.5565 146.205 91.7276 145.987 91.0714 145.553C90.4151 145.118 89.9996 144.483 89.8249 143.648L91.2567 143.29C91.3931 143.818 91.6509 144.214 92.0302 144.479C92.4137 144.743 92.9144 144.875 93.5323 144.875C94.2354 144.875 94.7937 144.726 95.207 144.428C95.6246 144.125 95.8335 143.763 95.8335 143.341C95.8335 143 95.7141 142.714 95.4755 142.484C95.2369 142.25 94.8704 142.075 94.3761 141.96L92.7397 141.577C91.8406 141.364 91.18 141.033 90.7582 140.586C90.3406 140.134 90.1317 139.57 90.1317 138.892C90.1317 138.338 90.2873 137.848 90.5984 137.422C90.9137 136.996 91.342 136.661 91.8832 136.418C92.4286 136.175 93.0465 136.054 93.7369 136.054C94.7085 136.054 95.4712 136.267 96.0252 136.693C96.5835 137.119 96.9798 137.682 97.2141 138.381ZM99.6639 149.682V136.182H101.121V137.741H101.3C101.411 137.571 101.564 137.354 101.76 137.089C101.961 136.821 102.246 136.582 102.617 136.374C102.992 136.161 103.499 136.054 104.138 136.054C104.965 136.054 105.694 136.261 106.324 136.674C106.955 137.087 107.447 137.673 107.801 138.432C108.155 139.19 108.331 140.085 108.331 141.116C108.331 142.156 108.155 143.058 107.801 143.82C107.447 144.579 106.957 145.167 106.331 145.585C105.704 145.998 104.982 146.205 104.164 146.205C103.533 146.205 103.028 146.1 102.649 145.891C102.27 145.678 101.978 145.437 101.773 145.169C101.569 144.896 101.411 144.67 101.3 144.491H101.172V149.682H99.6639ZM101.147 141.091C101.147 141.832 101.256 142.487 101.473 143.053C101.69 143.616 102.008 144.057 102.425 144.376C102.843 144.692 103.354 144.849 103.959 144.849C104.59 144.849 105.116 144.683 105.538 144.351C105.964 144.014 106.284 143.562 106.497 142.996C106.714 142.425 106.823 141.79 106.823 141.091C106.823 140.401 106.716 139.778 106.503 139.224C106.295 138.666 105.977 138.225 105.551 137.901C105.129 137.573 104.599 137.409 103.959 137.409C103.346 137.409 102.83 137.565 102.412 137.876C101.995 138.183 101.68 138.613 101.466 139.167C101.253 139.717 101.147 140.358 101.147 141.091ZM114.621 146.205C113.735 146.205 112.957 145.994 112.288 145.572C111.623 145.15 111.104 144.56 110.729 143.801C110.358 143.043 110.172 142.156 110.172 141.142C110.172 140.119 110.358 139.227 110.729 138.464C111.104 137.701 111.623 137.109 112.288 136.687C112.957 136.265 113.735 136.054 114.621 136.054C115.508 136.054 116.283 136.265 116.948 136.687C117.617 137.109 118.137 137.701 118.508 138.464C118.883 139.227 119.07 140.119 119.07 141.142C119.07 142.156 118.883 143.043 118.508 143.801C118.137 144.56 117.617 145.15 116.948 145.572C116.283 145.994 115.508 146.205 114.621 146.205ZM114.621 144.849C115.295 144.849 115.849 144.677 116.283 144.332C116.718 143.987 117.04 143.533 117.248 142.97C117.457 142.408 117.562 141.798 117.562 141.142C117.562 140.486 117.457 139.874 117.248 139.308C117.04 138.741 116.718 138.283 116.283 137.933C115.849 137.584 115.295 137.409 114.621 137.409C113.948 137.409 113.394 137.584 112.959 137.933C112.525 138.283 112.203 138.741 111.994 139.308C111.785 139.874 111.681 140.486 111.681 141.142C111.681 141.798 111.785 142.408 111.994 142.97C112.203 143.533 112.525 143.987 112.959 144.332C113.394 144.677 113.948 144.849 114.621 144.849ZM128.327 138.381L126.972 138.764C126.887 138.538 126.761 138.319 126.595 138.106C126.433 137.888 126.212 137.71 125.93 137.569C125.649 137.428 125.289 137.358 124.85 137.358C124.249 137.358 123.749 137.496 123.348 137.773C122.952 138.046 122.754 138.393 122.754 138.815C122.754 139.19 122.89 139.487 123.163 139.704C123.435 139.921 123.862 140.102 124.441 140.247L125.898 140.605C126.776 140.818 127.43 141.144 127.861 141.583C128.291 142.018 128.506 142.578 128.506 143.264C128.506 143.827 128.344 144.33 128.021 144.773C127.701 145.216 127.254 145.565 126.678 145.821C126.103 146.077 125.434 146.205 124.671 146.205C123.67 146.205 122.841 145.987 122.185 145.553C121.528 145.118 121.113 144.483 120.938 143.648L122.37 143.29C122.506 143.818 122.764 144.214 123.143 144.479C123.527 144.743 124.028 144.875 124.646 144.875C125.349 144.875 125.907 144.726 126.32 144.428C126.738 144.125 126.947 143.763 126.947 143.341C126.947 143 126.827 142.714 126.589 142.484C126.35 142.25 125.984 142.075 125.489 141.96L123.853 141.577C122.954 141.364 122.293 141.033 121.871 140.586C121.454 140.134 121.245 139.57 121.245 138.892C121.245 138.338 121.401 137.848 121.712 137.422C122.027 136.996 122.455 136.661 122.996 136.418C123.542 136.175 124.16 136.054 124.85 136.054C125.822 136.054 126.585 136.267 127.138 136.693C127.697 137.119 128.093 137.682 128.327 138.381ZM130.777 146V136.182H132.286V146H130.777ZM131.544 134.545C131.25 134.545 130.997 134.445 130.784 134.245C130.575 134.045 130.47 133.804 130.47 133.523C130.47 133.241 130.575 133.001 130.784 132.8C130.997 132.6 131.25 132.5 131.544 132.5C131.838 132.5 132.09 132.6 132.298 132.8C132.512 133.001 132.618 133.241 132.618 133.523C132.618 133.804 132.512 134.045 132.298 134.245C132.09 134.445 131.838 134.545 131.544 134.545ZM139.319 136.182V137.46H134.23V136.182H139.319ZM135.713 133.83H137.222V143.188C137.222 143.614 137.284 143.933 137.407 144.146C137.535 144.355 137.697 144.496 137.893 144.568C138.093 144.636 138.304 144.67 138.526 144.67C138.692 144.67 138.828 144.662 138.935 144.645C139.042 144.624 139.127 144.607 139.191 144.594L139.498 145.949C139.395 145.987 139.252 146.026 139.069 146.064C138.886 146.107 138.654 146.128 138.373 146.128C137.946 146.128 137.529 146.036 137.12 145.853C136.715 145.67 136.378 145.391 136.11 145.016C135.846 144.641 135.713 144.168 135.713 143.597V133.83ZM141.588 146V136.182H143.096V146H141.588ZM142.355 134.545C142.061 134.545 141.807 134.445 141.594 134.245C141.385 134.045 141.281 133.804 141.281 133.523C141.281 133.241 141.385 133.001 141.594 132.8C141.807 132.6 142.061 132.5 142.355 132.5C142.649 132.5 142.9 132.6 143.109 132.8C143.322 133.001 143.429 133.241 143.429 133.523C143.429 133.804 143.322 134.045 143.109 134.245C142.9 134.445 142.649 134.545 142.355 134.545ZM153.888 136.182L150.257 146H148.723L145.092 136.182H146.729L149.439 144.006H149.541L152.251 136.182H153.888ZM159.516 146.205C158.629 146.205 157.852 145.994 157.183 145.572C156.518 145.15 155.998 144.56 155.623 143.801C155.252 143.043 155.067 142.156 155.067 141.142C155.067 140.119 155.252 139.227 155.623 138.464C155.998 137.701 156.518 137.109 157.183 136.687C157.852 136.265 158.629 136.054 159.516 136.054C160.402 136.054 161.178 136.265 161.843 136.687C162.512 137.109 163.031 137.701 163.402 138.464C163.777 139.227 163.965 140.119 163.965 141.142C163.965 142.156 163.777 143.043 163.402 143.801C163.031 144.56 162.512 145.15 161.843 145.572C161.178 145.994 160.402 146.205 159.516 146.205ZM159.516 144.849C160.189 144.849 160.743 144.677 161.178 144.332C161.612 143.987 161.934 143.533 162.143 142.97C162.352 142.408 162.456 141.798 162.456 141.142C162.456 140.486 162.352 139.874 162.143 139.308C161.934 138.741 161.612 138.283 161.178 137.933C160.743 137.584 160.189 137.409 159.516 137.409C158.843 137.409 158.289 137.584 157.854 137.933C157.419 138.283 157.097 138.741 156.889 139.308C156.68 139.874 156.575 140.486 156.575 141.142C156.575 141.798 156.68 142.408 156.889 142.97C157.097 143.533 157.419 143.987 157.854 144.332C158.289 144.677 158.843 144.849 159.516 144.849ZM173.222 138.381L171.867 138.764C171.782 138.538 171.656 138.319 171.49 138.106C171.328 137.888 171.106 137.71 170.825 137.569C170.544 137.428 170.184 137.358 169.745 137.358C169.144 137.358 168.643 137.496 168.243 137.773C167.846 138.046 167.648 138.393 167.648 138.815C167.648 139.19 167.784 139.487 168.057 139.704C168.33 139.921 168.756 140.102 169.336 140.247L170.793 140.605C171.671 140.818 172.325 141.144 172.755 141.583C173.186 142.018 173.401 142.578 173.401 143.264C173.401 143.827 173.239 144.33 172.915 144.773C172.596 145.216 172.148 145.565 171.573 145.821C170.998 146.077 170.328 146.205 169.566 146.205C168.564 146.205 167.735 145.987 167.079 145.553C166.423 145.118 166.007 144.483 165.833 143.648L167.265 143.29C167.401 143.818 167.659 144.214 168.038 144.479C168.422 144.743 168.922 144.875 169.54 144.875C170.243 144.875 170.801 144.726 171.215 144.428C171.632 144.125 171.841 143.763 171.841 143.341C171.841 143 171.722 142.714 171.483 142.484C171.245 142.25 170.878 142.075 170.384 141.96L168.748 141.577C167.848 141.364 167.188 141.033 166.766 140.586C166.348 140.134 166.14 139.57 166.14 138.892C166.14 138.338 166.295 137.848 166.606 137.422C166.922 136.996 167.35 136.661 167.891 136.418C168.436 136.175 169.054 136.054 169.745 136.054C170.716 136.054 171.479 136.267 172.033 136.693C172.591 137.119 172.988 137.682 173.222 138.381Z" fill="#FAFAFA"/>
<path d="M105 73.375H95.525C87.1 73.375 85 71.275 85 62.85V47.8501C85 39.4251 87.1 37.3251 95.525 37.3251H121.85C130.275 37.3251 132.375 39.4251 132.375 47.8501" stroke="#FAFAFA" stroke-width="2.4" stroke-linecap="round" stroke-linejoin="round"/>
<path d="M105 84.6747V73.375" stroke="#FAFAFA" stroke-width="2.4" stroke-linecap="round" stroke-linejoin="round"/>
<path d="M85 63.375H105" stroke="#FAFAFA" stroke-width="2.4" stroke-linecap="round" stroke-linejoin="round"/>
<path d="M96.8501 84.675H105" stroke="#FAFAFA" stroke-width="2.4" stroke-linecap="round" stroke-linejoin="round"/>
<path d="M135 63V77.275C135 83.2 133.525 84.675 127.6 84.675H118.725C112.8 84.675 111.325 83.2 111.325 77.275V63C111.325 57.075 112.8 55.5999 118.725 55.5999H127.6C133.525 55.5999 135 57.075 135 63Z" stroke="#FAFAFA" stroke-width="2.4" stroke-linecap="round" stroke-linejoin="round"/>
<path d="M123.111 76.625H123.134" stroke="#FAFAFA" stroke-width="2.4" stroke-linecap="round" stroke-linejoin="round"/>
</svg>
