<svg width="220" height="175" viewBox="0 0 220 175" fill="none" xmlns="http://www.w3.org/2000/svg">
<rect width="220" height="175" rx="5" fill="#B5BF00"/>
<line x1="82" y1="99.5" x2="139" y2="99.5" stroke="#FAFAFA"/>
<path d="M46.3414 125V110.455H51.2562C52.3973 110.455 53.3301 110.661 54.0545 111.072C54.7837 111.48 55.3234 112.031 55.6738 112.727C56.0242 113.423 56.1994 114.2 56.1994 115.057C56.1994 115.914 56.0242 116.693 55.6738 117.393C55.3282 118.094 54.7931 118.653 54.0687 119.07C53.3443 119.482 52.4163 119.688 51.2846 119.688H47.7619V118.125H51.2278C52.0091 118.125 52.6364 117.99 53.1099 117.72C53.5834 117.45 53.9267 117.086 54.1397 116.626C54.3575 116.162 54.4664 115.639 54.4664 115.057C54.4664 114.474 54.3575 113.954 54.1397 113.494C53.9267 113.035 53.581 112.675 53.1028 112.415C52.6246 112.15 51.9901 112.017 51.1994 112.017H48.1028V125H46.3414ZM58.8095 125V114.091H60.4288V115.739H60.5424C60.7413 115.199 61.1011 114.761 61.622 114.425C62.1428 114.089 62.7299 113.92 63.3833 113.92C63.5065 113.92 63.6603 113.923 63.845 113.928C64.0297 113.932 64.1693 113.939 64.264 113.949V115.653C64.2072 115.639 64.077 115.618 63.8734 115.589C63.6745 115.556 63.4638 115.54 63.2413 115.54C62.711 115.54 62.2375 115.651 61.8208 115.874C61.4089 116.091 61.0822 116.394 60.8407 116.783C60.604 117.166 60.4856 117.604 60.4856 118.097V125H58.8095ZM70.3507 125.227C69.3658 125.227 68.5017 124.993 67.7583 124.524C67.0197 124.055 66.4421 123.4 66.0254 122.557C65.6135 121.714 65.4075 120.729 65.4075 119.602C65.4075 118.466 65.6135 117.474 66.0254 116.626C66.4421 115.779 67.0197 115.121 67.7583 114.652C68.5017 114.183 69.3658 113.949 70.3507 113.949C71.3355 113.949 72.1973 114.183 72.9359 114.652C73.6793 115.121 74.2569 115.779 74.6689 116.626C75.0855 117.474 75.2939 118.466 75.2939 119.602C75.2939 120.729 75.0855 121.714 74.6689 122.557C74.2569 123.4 73.6793 124.055 72.9359 124.524C72.1973 124.993 71.3355 125.227 70.3507 125.227ZM70.3507 123.722C71.0988 123.722 71.7143 123.53 72.1973 123.146C72.6802 122.763 73.0377 122.259 73.2697 121.634C73.5017 121.009 73.6177 120.331 73.6177 119.602C73.6177 118.873 73.5017 118.194 73.2697 117.564C73.0377 116.934 72.6802 116.425 72.1973 116.037C71.7143 115.649 71.0988 115.455 70.3507 115.455C69.6026 115.455 68.987 115.649 68.5041 116.037C68.0211 116.425 67.6636 116.934 67.4316 117.564C67.1996 118.194 67.0836 118.873 67.0836 119.602C67.0836 120.331 67.1996 121.009 67.4316 121.634C67.6636 122.259 68.0211 122.763 68.5041 123.146C68.987 123.53 69.6026 123.722 70.3507 123.722ZM82.2559 129.318C81.4462 129.318 80.7502 129.214 80.1678 129.006C79.5854 128.802 79.1001 128.532 78.7118 128.196C78.3283 127.865 78.0229 127.509 77.7956 127.131L79.1309 126.193C79.2824 126.392 79.4741 126.619 79.7061 126.875C79.9382 127.135 80.2554 127.36 80.6578 127.55C81.065 127.744 81.5977 127.841 82.2559 127.841C83.1365 127.841 83.8633 127.628 84.4363 127.202C85.0092 126.776 85.2956 126.108 85.2956 125.199V122.983H85.1536C85.0305 123.182 84.8553 123.428 84.628 123.722C84.4055 124.01 84.0835 124.268 83.6621 124.496C83.2454 124.718 82.682 124.83 81.9718 124.83C81.0911 124.83 80.3004 124.621 79.5996 124.205C78.9036 123.788 78.352 123.182 77.9448 122.386C77.5423 121.591 77.3411 120.625 77.3411 119.489C77.3411 118.371 77.5376 117.398 77.9306 116.57C78.3236 115.736 78.8704 115.092 79.5712 114.638C80.272 114.179 81.0816 113.949 82.0002 113.949C82.7104 113.949 83.2739 114.067 83.6905 114.304C84.1119 114.536 84.4339 114.801 84.6564 115.099C84.8837 115.393 85.0589 115.634 85.182 115.824H85.3525V114.091H86.9718V125.312C86.9718 126.25 86.7587 127.012 86.3326 127.599C85.9112 128.191 85.343 128.625 84.628 128.899C83.9178 129.179 83.1271 129.318 82.2559 129.318ZM82.199 123.324C82.8714 123.324 83.4396 123.17 83.9036 122.862C84.3676 122.554 84.7203 122.112 84.9618 121.534C85.2033 120.956 85.324 120.265 85.324 119.46C85.324 118.674 85.2057 117.981 84.9689 117.379C84.7322 116.778 84.3818 116.307 83.9178 115.966C83.4538 115.625 82.8809 115.455 82.199 115.455C81.4888 115.455 80.897 115.634 80.4235 115.994C79.9547 116.354 79.602 116.837 79.3652 117.443C79.1332 118.049 79.0172 118.722 79.0172 119.46C79.0172 120.218 79.1356 120.888 79.3723 121.47C79.6138 122.048 79.9689 122.502 80.4377 122.834C80.9112 123.161 81.4983 123.324 82.199 123.324ZM90.04 125V114.091H91.6593V115.739H91.7729C91.9718 115.199 92.3316 114.761 92.8525 114.425C93.3733 114.089 93.9604 113.92 94.6138 113.92C94.7369 113.92 94.8908 113.923 95.0755 113.928C95.2601 113.932 95.3998 113.939 95.4945 113.949V115.653C95.4377 115.639 95.3075 115.618 95.1039 115.589C94.905 115.556 94.6943 115.54 94.4718 115.54C93.9415 115.54 93.468 115.651 93.0513 115.874C92.6394 116.091 92.3127 116.394 92.0712 116.783C91.8345 117.166 91.7161 117.604 91.7161 118.097V125H90.04ZM100.692 125.256C100 125.256 99.3729 125.125 98.8095 124.865C98.246 124.6 97.7986 124.219 97.4672 123.722C97.1357 123.22 96.97 122.614 96.97 121.903C96.97 121.278 97.0931 120.772 97.3393 120.384C97.5855 119.991 97.9146 119.683 98.3265 119.46C98.7385 119.238 99.193 119.072 99.6902 118.963C100.192 118.849 100.696 118.759 101.203 118.693C101.866 118.608 102.403 118.544 102.815 118.501C103.232 118.454 103.535 118.376 103.724 118.267C103.918 118.158 104.015 117.969 104.015 117.699V117.642C104.015 116.941 103.824 116.397 103.44 116.009C103.061 115.62 102.486 115.426 101.714 115.426C100.914 115.426 100.287 115.601 99.8322 115.952C99.3777 116.302 99.0581 116.676 98.8734 117.074L97.2825 116.506C97.5666 115.843 97.9454 115.327 98.4189 114.957C98.8971 114.583 99.4179 114.323 99.9814 114.176C100.55 114.025 101.108 113.949 101.657 113.949C102.008 113.949 102.41 113.991 102.865 114.077C103.324 114.157 103.767 114.325 104.193 114.581C104.624 114.837 104.981 115.223 105.265 115.739C105.55 116.255 105.692 116.946 105.692 117.812V125H104.015V123.523H103.93C103.817 123.759 103.627 124.013 103.362 124.283C103.097 124.553 102.744 124.782 102.304 124.972C101.863 125.161 101.326 125.256 100.692 125.256ZM100.947 123.75C101.61 123.75 102.169 123.62 102.623 123.359C103.083 123.099 103.428 122.763 103.66 122.351C103.897 121.939 104.015 121.506 104.015 121.051V119.517C103.944 119.602 103.788 119.68 103.547 119.751C103.31 119.818 103.035 119.877 102.723 119.929C102.415 119.976 102.114 120.019 101.821 120.057C101.532 120.09 101.298 120.118 101.118 120.142C100.682 120.199 100.275 120.291 99.8961 120.419C99.5221 120.542 99.219 120.729 98.987 120.98C98.7598 121.226 98.6461 121.562 98.6461 121.989C98.6461 122.571 98.8616 123.011 99.2924 123.31C99.728 123.603 100.28 123.75 100.947 123.75ZM108.751 125V114.091H110.37V115.795H110.512C110.74 115.213 111.106 114.761 111.613 114.439C112.12 114.112 112.728 113.949 113.438 113.949C114.158 113.949 114.757 114.112 115.235 114.439C115.718 114.761 116.095 115.213 116.365 115.795H116.478C116.758 115.232 117.177 114.785 117.735 114.453C118.294 114.117 118.964 113.949 119.745 113.949C120.721 113.949 121.518 114.254 122.139 114.865C122.759 115.471 123.069 116.416 123.069 117.699V125H121.393V117.699C121.393 116.894 121.173 116.319 120.732 115.973C120.292 115.627 119.774 115.455 119.177 115.455C118.41 115.455 117.816 115.687 117.394 116.151C116.973 116.61 116.762 117.192 116.762 117.898V125H115.058V117.528C115.058 116.908 114.856 116.409 114.454 116.03C114.052 115.646 113.533 115.455 112.899 115.455C112.463 115.455 112.056 115.571 111.677 115.803C111.303 116.035 111 116.357 110.768 116.768C110.541 117.176 110.427 117.647 110.427 118.182V125H108.751ZM129.344 125.256C128.653 125.256 128.025 125.125 127.462 124.865C126.898 124.6 126.451 124.219 126.119 123.722C125.788 123.22 125.622 122.614 125.622 121.903C125.622 121.278 125.745 120.772 125.992 120.384C126.238 119.991 126.567 119.683 126.979 119.46C127.391 119.238 127.845 119.072 128.343 118.963C128.844 118.849 129.349 118.759 129.855 118.693C130.518 118.608 131.056 118.544 131.468 118.501C131.884 118.454 132.187 118.376 132.377 118.267C132.571 118.158 132.668 117.969 132.668 117.699V117.642C132.668 116.941 132.476 116.397 132.093 116.009C131.714 115.62 131.138 115.426 130.367 115.426C129.566 115.426 128.939 115.601 128.485 115.952C128.03 116.302 127.71 116.676 127.526 117.074L125.935 116.506C126.219 115.843 126.598 115.327 127.071 114.957C127.549 114.583 128.07 114.323 128.634 114.176C129.202 114.025 129.761 113.949 130.31 113.949C130.66 113.949 131.063 113.991 131.517 114.077C131.977 114.157 132.419 114.325 132.845 114.581C133.276 114.837 133.634 115.223 133.918 115.739C134.202 116.255 134.344 116.946 134.344 117.812V125H132.668V123.523H132.583C132.469 123.759 132.28 124.013 132.014 124.283C131.749 124.553 131.396 124.782 130.956 124.972C130.516 125.161 129.978 125.256 129.344 125.256ZM129.6 123.75C130.262 123.75 130.821 123.62 131.276 123.359C131.735 123.099 132.081 122.763 132.313 122.351C132.549 121.939 132.668 121.506 132.668 121.051V119.517C132.597 119.602 132.441 119.68 132.199 119.751C131.962 119.818 131.688 119.877 131.375 119.929C131.067 119.976 130.767 120.019 130.473 120.057C130.184 120.09 129.95 120.118 129.77 120.142C129.334 120.199 128.927 120.291 128.548 120.419C128.174 120.542 127.871 120.729 127.639 120.98C127.412 121.226 127.298 121.562 127.298 121.989C127.298 122.571 127.514 123.011 127.945 123.31C128.38 123.603 128.932 123.75 129.6 123.75ZM141.835 125.227C140.812 125.227 139.932 124.986 139.193 124.503C138.454 124.02 137.886 123.355 137.488 122.507C137.091 121.66 136.892 120.691 136.892 119.602C136.892 118.494 137.095 117.517 137.503 116.669C137.915 115.817 138.488 115.152 139.221 114.673C139.96 114.19 140.822 113.949 141.807 113.949C142.574 113.949 143.265 114.091 143.881 114.375C144.496 114.659 145 115.057 145.393 115.568C145.786 116.08 146.03 116.676 146.125 117.358H144.449C144.321 116.861 144.037 116.42 143.596 116.037C143.161 115.649 142.574 115.455 141.835 115.455C141.182 115.455 140.609 115.625 140.116 115.966C139.629 116.302 139.247 116.778 138.973 117.393C138.703 118.004 138.568 118.722 138.568 119.545C138.568 120.388 138.701 121.122 138.966 121.747C139.236 122.372 139.614 122.857 140.102 123.203C140.595 123.549 141.172 123.722 141.835 123.722C142.271 123.722 142.666 123.646 143.021 123.494C143.376 123.343 143.677 123.125 143.923 122.841C144.169 122.557 144.345 122.216 144.449 121.818H146.125C146.03 122.462 145.796 123.042 145.422 123.558C145.052 124.07 144.562 124.477 143.952 124.78C143.345 125.078 142.64 125.227 141.835 125.227ZM148.575 125V114.091H150.251V125H148.575ZM149.427 112.273C149.101 112.273 148.819 112.161 148.582 111.939C148.35 111.716 148.234 111.449 148.234 111.136C148.234 110.824 148.35 110.556 148.582 110.334C148.819 110.111 149.101 110 149.427 110C149.754 110 150.033 110.111 150.265 110.334C150.502 110.556 150.621 110.824 150.621 111.136C150.621 111.449 150.502 111.716 150.265 111.939C150.033 112.161 149.754 112.273 149.427 112.273ZM157.753 125.227C156.768 125.227 155.904 124.993 155.161 124.524C154.422 124.055 153.844 123.4 153.428 122.557C153.016 121.714 152.81 120.729 152.81 119.602C152.81 118.466 153.016 117.474 153.428 116.626C153.844 115.779 154.422 115.121 155.161 114.652C155.904 114.183 156.768 113.949 157.753 113.949C158.738 113.949 159.6 114.183 160.338 114.652C161.082 115.121 161.659 115.779 162.071 116.626C162.488 117.474 162.696 118.466 162.696 119.602C162.696 120.729 162.488 121.714 162.071 122.557C161.659 123.4 161.082 124.055 160.338 124.524C159.6 124.993 158.738 125.227 157.753 125.227ZM157.753 123.722C158.501 123.722 159.117 123.53 159.6 123.146C160.083 122.763 160.44 122.259 160.672 121.634C160.904 121.009 161.02 120.331 161.02 119.602C161.02 118.873 160.904 118.194 160.672 117.564C160.44 116.934 160.083 116.425 159.6 116.037C159.117 115.649 158.501 115.455 157.753 115.455C157.005 115.455 156.389 115.649 155.906 116.037C155.423 116.425 155.066 116.934 154.834 117.564C154.602 118.194 154.486 118.873 154.486 119.602C154.486 120.331 154.602 121.009 154.834 121.634C155.066 122.259 155.423 122.763 155.906 123.146C156.389 123.53 157.005 123.722 157.753 123.722ZM156.986 112.614L158.719 109.318H160.679L158.463 112.614H156.986ZM166.931 118.438V125H165.255V114.091H166.874V115.795H167.016C167.272 115.241 167.66 114.796 168.181 114.46C168.702 114.119 169.374 113.949 170.198 113.949C170.937 113.949 171.583 114.1 172.137 114.403C172.691 114.702 173.122 115.156 173.43 115.767C173.737 116.373 173.891 117.14 173.891 118.068V125H172.215V118.182C172.215 117.325 171.992 116.657 171.547 116.179C171.102 115.696 170.492 115.455 169.715 115.455C169.18 115.455 168.702 115.571 168.28 115.803C167.864 116.035 167.535 116.373 167.293 116.818C167.052 117.263 166.931 117.803 166.931 118.438ZM94.035 149L90.7111 138.091H92.4725L94.8304 146.443H94.9441L97.2736 138.091H99.0634L101.365 146.415H101.478L103.836 138.091H105.597L102.274 149H100.626L98.2395 140.619H98.0691L95.6827 149H94.035ZM112.016 149.227C110.965 149.227 110.058 148.995 109.296 148.531C108.538 148.062 107.954 147.409 107.542 146.571C107.135 145.728 106.931 144.748 106.931 143.631C106.931 142.513 107.135 141.528 107.542 140.676C107.954 139.819 108.527 139.152 109.26 138.673C109.999 138.19 110.861 137.949 111.846 137.949C112.414 137.949 112.975 138.044 113.529 138.233C114.083 138.422 114.587 138.73 115.042 139.156C115.496 139.578 115.858 140.136 116.128 140.832C116.398 141.528 116.533 142.385 116.533 143.403V144.114H108.124V142.665H114.829C114.829 142.049 114.706 141.5 114.459 141.017C114.218 140.534 113.872 140.153 113.422 139.874C112.977 139.594 112.452 139.455 111.846 139.455C111.178 139.455 110.6 139.62 110.113 139.952C109.63 140.278 109.258 140.705 108.998 141.23C108.737 141.756 108.607 142.319 108.607 142.92V143.886C108.607 144.71 108.749 145.409 109.033 145.982C109.322 146.55 109.722 146.983 110.233 147.281C110.745 147.575 111.339 147.722 112.016 147.722C112.456 147.722 112.854 147.66 113.209 147.537C113.569 147.409 113.879 147.22 114.14 146.969C114.4 146.713 114.601 146.396 114.743 146.017L116.363 146.472C116.192 147.021 115.906 147.504 115.503 147.92C115.101 148.332 114.604 148.654 114.012 148.886C113.42 149.114 112.755 149.227 112.016 149.227ZM119.31 149V134.455H120.986V139.824H121.128C121.251 139.634 121.422 139.393 121.64 139.099C121.862 138.801 122.18 138.536 122.591 138.304C123.008 138.067 123.572 137.949 124.282 137.949C125.2 137.949 126.01 138.179 126.711 138.638C127.412 139.097 127.958 139.748 128.351 140.591C128.744 141.434 128.941 142.428 128.941 143.574C128.941 144.729 128.744 145.731 128.351 146.578C127.958 147.421 127.414 148.074 126.718 148.538C126.022 148.998 125.219 149.227 124.31 149.227C123.609 149.227 123.048 149.111 122.627 148.879C122.206 148.643 121.881 148.375 121.654 148.077C121.427 147.774 121.251 147.523 121.128 147.324H120.93V149H119.31ZM120.958 143.545C120.958 144.369 121.079 145.096 121.32 145.726C121.562 146.351 121.914 146.841 122.378 147.196C122.842 147.546 123.411 147.722 124.083 147.722C124.784 147.722 125.368 147.537 125.837 147.168C126.311 146.794 126.666 146.292 126.903 145.662C127.144 145.027 127.265 144.322 127.265 143.545C127.265 142.778 127.146 142.087 126.91 141.472C126.678 140.851 126.325 140.361 125.851 140.001C125.383 139.637 124.793 139.455 124.083 139.455C123.401 139.455 122.828 139.627 122.364 139.973C121.9 140.314 121.55 140.792 121.313 141.408C121.076 142.018 120.958 142.731 120.958 143.545Z" fill="#FAFAFA"/>
<path d="M134.375 37.5625C134.375 38.08 133.955 38.5 133.437 38.5C132.92 38.5 132.5 38.08 132.5 37.5625C132.5 37.045 132.92 36.625 133.437 36.625C133.955 36.625 134.375 37.045 134.375 37.5625ZM129.687 36.625C129.17 36.625 128.75 37.045 128.75 37.5625C128.75 38.08 129.17 38.5 129.687 38.5C130.205 38.5 130.625 38.08 130.625 37.5625C130.625 37.045 130.205 36.625 129.687 36.625ZM125.937 36.625C125.42 36.625 125 37.045 125 37.5625C125 38.08 125.42 38.5 125.937 38.5C126.455 38.5 126.875 38.08 126.875 37.5625C126.875 37.045 126.455 36.625 125.937 36.625ZM138.125 87.925H81.875C81.5018 87.925 81.2 87.6231 81.2 87.25V34.75C81.2 34.3769 81.5018 34.075 81.875 34.075H138.125C138.498 34.075 138.8 34.3769 138.8 34.75V87.25C138.8 87.6231 138.498 87.925 138.125 87.925ZM82.55 86.575H137.45V41.05H82.55V86.575ZM82.55 39.7H137.45V35.425H82.55V39.7ZM105.312 76.2663L104.071 75.7356L115.321 49.4856L116.562 50.0163L105.312 76.2663ZM120.17 70.8531L119.214 69.8969L126.237 62.875L119.214 55.8513L120.17 54.8969L127.67 62.3969C127.934 62.6613 127.934 63.0888 127.67 63.3513L120.17 70.8531ZM100.466 70.8531L92.9656 63.3531C92.7012 63.0888 92.7012 62.6613 92.9656 62.3988L100.466 54.8988L101.42 55.8531L94.3962 62.875L101.418 69.8969L100.466 70.8531Z" fill="#FAFAFA" stroke="#FAFAFA"/>
</svg>
