<svg width="220" height="175" viewBox="0 0 220 175" fill="none" xmlns="http://www.w3.org/2000/svg">
<rect width="220" height="175" rx="5" fill="#B5BF00"/>
<line x1="82" y1="99.5" x2="139" y2="99.5" stroke="#FAFAFA"/>
<path d="M85.6126 124V110.909H90.0359C91.0586 110.909 91.8981 111.084 92.5543 111.433C93.2106 111.778 93.6964 112.254 94.0117 112.859C94.3271 113.464 94.4847 114.152 94.4847 114.923C94.4847 115.695 94.3271 116.379 94.0117 116.975C93.6964 117.572 93.2127 118.04 92.5607 118.381C91.9087 118.718 91.0756 118.886 90.0614 118.886H86.4819V117.455H90.0103C90.7092 117.455 91.2717 117.352 91.6978 117.148C92.1282 116.943 92.4393 116.653 92.631 116.278C92.8271 115.899 92.9251 115.447 92.9251 114.923C92.9251 114.399 92.8271 113.941 92.631 113.549C92.435 113.157 92.1218 112.854 91.6914 112.641C91.261 112.424 90.6921 112.315 89.9847 112.315H87.1978V124H85.6126ZM91.7745 118.119L94.9961 124H93.1552L89.9847 118.119H91.7745ZM100.933 124.205C99.9867 124.205 99.1706 123.996 98.4846 123.578C97.8027 123.156 97.2765 122.568 96.9057 121.814C96.5392 121.055 96.356 120.173 96.356 119.168C96.356 118.162 96.5392 117.276 96.9057 116.509C97.2765 115.737 97.7921 115.136 98.4526 114.706C99.1174 114.271 99.8929 114.054 100.779 114.054C101.291 114.054 101.796 114.139 102.294 114.31C102.793 114.48 103.247 114.757 103.656 115.141C104.065 115.52 104.391 116.023 104.634 116.649C104.877 117.276 104.998 118.047 104.998 118.963V119.602H97.4299V118.298H103.464C103.464 117.744 103.353 117.25 103.132 116.815C102.914 116.381 102.603 116.038 102.198 115.786C101.798 115.535 101.325 115.409 100.779 115.409C100.178 115.409 99.6586 115.558 99.2196 115.857C98.785 116.151 98.4505 116.534 98.2161 117.007C97.9817 117.48 97.8645 117.987 97.8645 118.528V119.398C97.8645 120.139 97.9924 120.768 98.248 121.283C98.508 121.795 98.8681 122.185 99.3283 122.453C99.7885 122.717 100.323 122.849 100.933 122.849C101.329 122.849 101.687 122.794 102.007 122.683C102.33 122.568 102.61 122.398 102.844 122.172C103.078 121.942 103.259 121.656 103.387 121.315L104.845 121.724C104.691 122.219 104.433 122.653 104.071 123.028C103.709 123.399 103.262 123.689 102.729 123.898C102.196 124.102 101.597 124.205 100.933 124.205ZM111 124.205C110.182 124.205 109.46 123.998 108.833 123.585C108.207 123.167 107.717 122.579 107.363 121.82C107.009 121.058 106.833 120.156 106.833 119.116C106.833 118.085 107.009 117.19 107.363 116.432C107.717 115.673 108.209 115.087 108.84 114.674C109.47 114.261 110.199 114.054 111.026 114.054C111.665 114.054 112.17 114.161 112.541 114.374C112.916 114.582 113.201 114.821 113.397 115.089C113.597 115.354 113.753 115.571 113.864 115.741H113.992V110.909H115.5V124H114.043V122.491H113.864C113.753 122.67 113.595 122.896 113.391 123.169C113.186 123.437 112.894 123.678 112.515 123.891C112.136 124.1 111.631 124.205 111 124.205ZM111.205 122.849C111.81 122.849 112.321 122.692 112.739 122.376C113.156 122.057 113.474 121.616 113.691 121.053C113.909 120.487 114.017 119.832 114.017 119.091C114.017 118.358 113.911 117.717 113.698 117.167C113.485 116.613 113.169 116.183 112.752 115.876C112.334 115.565 111.818 115.409 111.205 115.409C110.566 115.409 110.033 115.573 109.607 115.901C109.185 116.225 108.867 116.666 108.654 117.224C108.445 117.778 108.341 118.401 108.341 119.091C108.341 119.79 108.448 120.425 108.661 120.996C108.878 121.562 109.198 122.014 109.619 122.351C110.046 122.683 110.574 122.849 111.205 122.849ZM122.589 124.205C121.643 124.205 120.827 123.996 120.141 123.578C119.459 123.156 118.933 122.568 118.562 121.814C118.195 121.055 118.012 120.173 118.012 119.168C118.012 118.162 118.195 117.276 118.562 116.509C118.933 115.737 119.448 115.136 120.109 114.706C120.774 114.271 121.549 114.054 122.436 114.054C122.947 114.054 123.452 114.139 123.95 114.31C124.449 114.48 124.903 114.757 125.312 115.141C125.721 115.52 126.047 116.023 126.29 116.649C126.533 117.276 126.654 118.047 126.654 118.963V119.602H119.086V118.298H125.12C125.12 117.744 125.009 117.25 124.788 116.815C124.57 116.381 124.259 116.038 123.855 115.786C123.454 115.535 122.981 115.409 122.436 115.409C121.835 115.409 121.315 115.558 120.876 115.857C120.441 116.151 120.107 116.534 119.872 117.007C119.638 117.48 119.521 117.987 119.521 118.528V119.398C119.521 120.139 119.649 120.768 119.904 121.283C120.164 121.795 120.524 122.185 120.985 122.453C121.445 122.717 121.98 122.849 122.589 122.849C122.985 122.849 123.343 122.794 123.663 122.683C123.987 122.568 124.266 122.398 124.5 122.172C124.735 121.942 124.916 121.656 125.044 121.315L126.501 121.724C126.347 122.219 126.09 122.653 125.727 123.028C125.365 123.399 124.918 123.689 124.385 123.898C123.852 124.102 123.254 124.205 122.589 124.205ZM135.904 116.381L134.548 116.764C134.463 116.538 134.338 116.319 134.171 116.106C134.009 115.888 133.788 115.71 133.507 115.569C133.225 115.428 132.865 115.358 132.426 115.358C131.825 115.358 131.325 115.496 130.924 115.773C130.528 116.046 130.33 116.393 130.33 116.815C130.33 117.19 130.466 117.487 130.739 117.704C131.012 117.921 131.438 118.102 132.017 118.247L133.475 118.605C134.352 118.818 135.007 119.144 135.437 119.583C135.867 120.018 136.083 120.578 136.083 121.264C136.083 121.827 135.921 122.33 135.597 122.773C135.277 123.216 134.83 123.565 134.254 123.821C133.679 124.077 133.01 124.205 132.247 124.205C131.246 124.205 130.417 123.987 129.761 123.553C129.105 123.118 128.689 122.483 128.514 121.648L129.946 121.29C130.083 121.818 130.34 122.214 130.72 122.479C131.103 122.743 131.604 122.875 132.222 122.875C132.925 122.875 133.483 122.726 133.896 122.428C134.314 122.125 134.523 121.763 134.523 121.341C134.523 121 134.404 120.714 134.165 120.484C133.926 120.25 133.56 120.075 133.066 119.96L131.429 119.577C130.53 119.364 129.869 119.033 129.448 118.586C129.03 118.134 128.821 117.57 128.821 116.892C128.821 116.338 128.977 115.848 129.288 115.422C129.603 114.996 130.031 114.661 130.573 114.418C131.118 114.175 131.736 114.054 132.426 114.054C133.398 114.054 134.161 114.267 134.715 114.693C135.273 115.119 135.669 115.682 135.904 116.381Z" fill="#FAFAFA"/>
<path d="M99.8095 84.9187C103.125 82.9568 108.95 79.1135 114.731 73.3853C113.758 72.0782 112.75 70.7089 111.729 69.3104C111.285 69.314 110.841 69.3177 110.397 69.3177C110.383 69.3177 110.369 69.3177 110.355 69.3177C109.283 69.3177 108.225 69.2921 107.183 69.2421C106.469 70.9369 104.794 72.1257 102.839 72.1257C102.341 72.1257 101.87 72.027 101.419 71.8855C98.6217 76.4579 96.4839 80.2963 95.2534 82.5764C96.6924 83.486 98.2156 84.2736 99.8095 84.9187Z" fill="#FAFAFA" stroke="#FAFAFA" stroke-width="1.36904"/>
<path d="M136.568 46.9617C135.352 49.0577 133.924 51.4475 132.317 54.0142C134.863 54.7214 137.079 55.4725 138.904 56.1565C138.64 52.9058 137.831 49.8125 136.568 46.9617Z" fill="#FAFAFA" stroke="#FAFAFA" stroke-width="1.36904"/>
<path d="M126.555 41.9845C126.688 42.4235 126.784 42.8795 126.784 43.3624C126.784 44.7511 126.172 45.9863 125.217 46.8483C125.657 47.5507 126.108 48.2505 126.577 48.9431C127.58 50.4343 128.629 51.9036 129.69 53.3326C129.74 53.3448 129.792 53.357 129.842 53.3692C131.977 49.9917 133.803 46.8996 135.253 44.3634C134.105 42.3528 132.714 40.497 131.124 38.8314C129.785 39.6874 128.233 40.7384 126.555 41.9845Z" fill="#FAFAFA" stroke="#FAFAFA" stroke-width="1.36904"/>
<path d="M121.117 62.7041C121.878 62.7041 122.586 62.9016 123.223 63.2211C125.069 60.652 126.802 58.0866 128.395 55.6285C128.372 55.5992 128.351 55.5687 128.328 55.5395C124.108 54.5604 119.237 53.7995 114.03 53.6752C113.287 54.5604 112.553 55.4749 111.839 56.4259C110.745 57.8866 109.681 59.3571 108.658 60.8191C110.03 62.7907 111.484 64.8294 112.956 66.8558C114.137 66.8351 115.312 66.8058 116.472 66.7632C116.792 64.4733 118.739 62.7041 121.117 62.7041Z" fill="#FAFAFA" stroke="#FAFAFA" stroke-width="1.36904"/>
<path d="M117.535 70.4406C117.219 70.0651 116.951 69.653 116.76 69.1945C116.082 69.2201 115.399 69.2396 114.711 69.2579C115.295 70.0517 115.878 70.8406 116.455 71.6173C116.818 71.232 117.178 70.8406 117.535 70.4406Z" fill="#FAFAFA" stroke="#FAFAFA" stroke-width="1.36904"/>
<path d="M102.841 62.7041C103.335 62.7041 103.801 62.8017 104.248 62.9419C104.72 62.2371 105.202 61.5275 105.694 60.813C105.316 60.2655 104.937 59.7144 104.578 59.1816C103.522 57.6123 102.52 55.8565 101.584 54.0068C93.172 54.5165 85.9561 55.4627 82.1134 56.0297C82.0439 56.8442 82 57.666 82 58.4987C82 59.3364 82.0439 60.1643 82.1146 60.9837C85.2524 62.3054 91.1207 64.4794 98.4378 65.7865C99.1012 63.9917 100.815 62.7041 102.841 62.7041Z" fill="#FAFAFA" stroke="#FAFAFA" stroke-width="1.36904"/>
<path d="M110.888 53.6667C108.638 53.6911 106.414 53.7618 104.251 53.8654C104.995 55.2676 105.779 56.6016 106.6 57.8196C106.79 58.1025 106.986 58.3915 107.184 58.6805C108.062 57.4416 108.964 56.1992 109.891 54.9665C110.219 54.5239 110.552 54.0922 110.888 53.6667Z" fill="#FAFAFA" stroke="#FAFAFA" stroke-width="1.36904"/>
<path d="M107.491 66.8095C108.306 66.8473 109.132 66.8693 109.962 66.8742C109.018 65.5634 108.089 64.2539 107.179 62.9565C106.885 63.3882 106.595 63.8186 106.307 64.2478C106.944 64.944 107.364 65.828 107.491 66.8095Z" fill="#FAFAFA" stroke="#FAFAFA" stroke-width="1.36904"/>
<path d="M99.3668 70.5699C98.7827 69.9285 98.3729 69.1299 98.2144 68.2385C91.4851 67.0692 85.9754 65.183 82.4985 63.793C83.8254 70.8491 87.7473 76.9858 93.2412 81.1729C94.5107 78.8331 96.6241 75.0508 99.3668 70.5699Z" fill="#FAFAFA" stroke="#FAFAFA" stroke-width="1.36904"/>
<path d="M100.439 51.6389C97.7073 45.7107 95.6243 39.2447 94.4268 34.9674C88.2292 39.2081 83.7987 45.8326 82.4426 53.5191C86.3073 52.9619 92.8499 52.134 100.439 51.6389Z" fill="#FAFAFA" stroke="#FAFAFA" stroke-width="1.36904"/>
<path d="M103.056 51.4829C106.111 51.322 109.298 51.2208 112.52 51.2195C112.534 51.2195 112.548 51.2195 112.561 51.2195C112.68 51.2195 112.792 51.2232 112.911 51.2232C114.613 49.2626 116.357 47.4738 118.084 45.8509C117.631 45.1279 117.358 44.2793 117.358 43.3636C117.358 42.1235 117.847 41.0054 118.63 40.1641C116.614 36.2197 115.073 32.652 114.147 30.2402C112.954 30.0878 111.737 30 110.502 30C105.448 30 100.706 31.3205 96.5911 33.6274C97.7496 37.8426 100.002 45.0791 103.056 51.4829Z" fill="#FAFAFA" stroke="#FAFAFA" stroke-width="1.36904"/>
<path d="M118.088 77.8601C117.501 77.0822 116.866 76.2384 116.213 75.3679C111.254 80.2585 106.31 83.7689 102.841 85.9502C105.28 86.6293 107.849 87 110.505 87C114.943 87 119.14 85.9868 122.883 84.181C121.754 82.7068 120.224 80.684 118.088 77.8601Z" fill="#FAFAFA" stroke="#FAFAFA" stroke-width="1.36904"/>
<path d="M125.638 68.669C125.087 70.6589 123.282 72.1245 121.117 72.1245C120.569 72.1245 120.05 72.0123 119.562 71.8404C119.026 72.4476 118.484 73.0377 117.943 73.6096C120.765 77.3797 123.326 80.7206 125.082 82.9909C130.927 79.5061 135.416 73.9888 137.579 67.4155C134.406 67.8289 130.29 68.2995 125.638 68.669Z" fill="#FAFAFA" stroke="#FAFAFA" stroke-width="1.36904"/>
<path d="M116.115 51.3159C119.672 51.5049 123.037 51.9585 126.122 52.5547C125.567 51.7804 125.037 51.0269 124.555 50.3063C124.035 49.5369 123.535 48.7566 123.045 47.9701C122.73 48.036 122.407 48.0725 122.074 48.0725C121.286 48.0725 120.553 47.8604 119.901 47.5178C118.636 48.6944 117.367 49.9625 116.115 51.3159Z" fill="#FAFAFA" stroke="#FAFAFA" stroke-width="1.36904"/>
<path d="M120.711 38.8765C121.142 38.7448 121.596 38.6522 122.072 38.6522C123.294 38.6522 124.396 39.1301 125.234 39.8934C126.705 38.8058 128.073 37.873 129.296 37.0805C125.828 34.0359 121.616 31.8216 116.964 30.7438C117.842 32.8751 119.109 35.7283 120.711 38.8765Z" fill="#FAFAFA" stroke="#FAFAFA" stroke-width="1.36904"/>
<path d="M139 58.8255C137.184 58.1208 134.862 57.3014 132.137 56.5247C134.352 59.3377 136.525 61.8945 138.459 64.0807C138.797 62.3786 138.981 60.6204 139 58.8255Z" fill="#FAFAFA" stroke="#FAFAFA" stroke-width="1.36904"/>
<path d="M136.122 65.144C134.128 62.8347 131.991 60.2461 129.973 57.6733C128.446 60.0083 126.801 62.4237 125.059 64.8465C125.334 65.2635 125.53 65.7293 125.659 66.2231C129.636 65.9024 133.213 65.5086 136.122 65.144Z" fill="#FAFAFA" stroke="#FAFAFA" stroke-width="1.36904"/>
</svg>
