<svg width="30" height="30" viewBox="0 0 30 30" fill="none" xmlns="http://www.w3.org/2000/svg">
<path d="M15 1.2C7.38553 1.2 1.19995 7.38558 1.19995 15C1.19995 22.6144 7.38553 28.8 15 28.8C22.6144 28.8 28.7999 22.6144 28.7999 15C28.7999 7.38558 22.6144 1.2 15 1.2ZM15 2.4C21.9658 2.4 27.5999 8.0341 27.5999 15C27.5999 21.9659 21.9658 27.6 15 27.6C8.03406 27.6 2.39995 21.9659 2.39995 15C2.39995 8.0341 8.03406 2.4 15 2.4ZM14.9906 4.19179C14.6597 4.19697 14.3954 4.46908 14.4 4.8V13.3043C13.6812 13.5584 13.2005 14.2377 13.2 15C13.2005 15.2682 13.261 15.5328 13.3769 15.7746L9.77574 19.3758C9.61899 19.5263 9.55585 19.7497 9.61067 19.96C9.66548 20.1703 9.82968 20.3345 10.0399 20.3893C10.2502 20.4441 10.4737 20.381 10.6242 20.2242L14.2253 16.623C14.4671 16.739 14.7318 16.7994 15 16.8C15.9941 16.8 16.8 15.9941 16.8 15C16.7989 14.2381 16.3183 13.5594 15.6 13.3055V4.8C15.6022 4.63782 15.5386 4.48164 15.4239 4.36707C15.3091 4.25248 15.1528 4.18926 14.9906 4.19179Z" fill="#FAFAFA"/>
</svg>
