<svg width="22" height="22" viewBox="0 0 22 22" fill="none" xmlns="http://www.w3.org/2000/svg">
<path d="M11 1V2" stroke="#616161" stroke-width="1.5" stroke-linecap="round"/>
<path d="M11 20V21" stroke="#616161" stroke-width="1.5" stroke-linecap="round"/>
<path d="M21 11H20" stroke="#616161" stroke-width="1.5" stroke-linecap="round"/>
<path d="M2 11H1" stroke="#616161" stroke-width="1.5" stroke-linecap="round"/>
<path d="M18.071 3.92969L17.6782 4.32252" stroke="#616161" stroke-width="1.5" stroke-linecap="round"/>
<path d="M4.32155 17.6777L3.92871 18.0706" stroke="#616161" stroke-width="1.5" stroke-linecap="round"/>
<path d="M18.071 18.0703L17.6782 17.6775" stroke="#616161" stroke-width="1.5" stroke-linecap="round"/>
<path d="M4.32155 4.32228L3.92871 3.92944" stroke="#616161" stroke-width="1.5" stroke-linecap="round"/>
<path d="M5.34141 9C5.12031 9.6256 5 10.2987 5 11C5 14.3137 7.68629 17 11 17C14.3137 17 17 14.3137 17 11C17 7.68629 14.3137 5 11 5C10.2987 5 9.6256 5.12031 9 5.34141" stroke="#616161" stroke-width="1.5" stroke-linecap="round"/>
</svg>
