<svg width="50" height="50" viewBox="0 0 50 50" fill="none" xmlns="http://www.w3.org/2000/svg">
<g clip-path="url(#clip0_48_2)">
<path d="M25 50C38.8071 50 50 38.8071 50 25C50 11.1929 38.8071 0 25 0C11.1929 0 0 11.1929 0 25C0 38.8071 11.1929 50 25 50Z" fill="#D5D80E"/>
<path d="M7.79517 43.1496C12.2834 47.4016 18.307 50 24.9999 50C31.6928 50 37.7164 47.4016 42.2046 43.1496H7.79517Z" fill="#B5BF00"/>
<path d="M25 28.1496C26.4351 28.1496 27.5985 26.1578 27.5985 23.7008C27.5985 21.2438 26.4351 19.252 25 19.252C23.565 19.252 22.4016 21.2438 22.4016 23.7008C22.4016 26.1578 23.565 28.1496 25 28.1496Z" fill="#F9B54C"/>
<path d="M34.1733 38.5827C34.6064 36.811 34.8819 35.0394 34.8819 33.3858C34.8819 26.378 30.4725 24.2126 25.0001 24.2126C19.567 24.2126 15.1182 26.3386 15.1182 33.3858C15.1182 35.0394 15.3544 36.811 15.8268 38.5827H34.1733Z" fill="#FF7058"/>
<path d="M27.5591 23.4646C27.5591 23.4646 26.063 24.3701 25 24.3701L26.378 27.3622L28.3465 24.5669L27.5591 23.4646Z" fill="white"/>
<path d="M22.441 23.4646C22.441 23.4646 23.937 24.3701 25 24.3701L23.6221 27.3622L21.6536 24.5669L22.441 23.4646Z" fill="white"/>
<path d="M32.2046 10.9449C32.2046 15.1181 28.9763 20.9449 24.9999 20.9449C21.0235 20.9449 17.7952 15.1181 17.7952 10.9449C17.7952 6.77166 21.0235 4.96063 24.9999 4.96063C28.9763 4.96063 32.2046 6.77166 32.2046 10.9449Z" fill="#324A5E"/>
<path d="M30.3544 15.1181C30.3544 19.3701 27.9528 22.7953 25.0001 22.7953C22.0473 22.7953 19.6458 19.3701 19.6458 15.1181C19.6458 12.5984 20.5119 10.3543 21.8111 8.93701C22.756 9.88189 23.8977 10.7874 25.1969 11.5748C26.9292 12.6378 28.6615 13.3858 30.2363 13.8189C30.315 14.252 30.3544 14.685 30.3544 15.1181Z" fill="#FFD05B"/>
<path d="M34.6064 43.0709H15.3938C14.7245 43.0709 14.1339 42.7559 14.0552 42.3228L11.6536 30.5118C11.5355 29.8819 12.0867 29.3701 12.9135 29.3701H37.0867C37.9135 29.3701 38.4646 29.8819 38.3465 30.5118L35.9449 42.3228C35.8662 42.7165 35.2757 43.0709 34.6064 43.0709Z" fill="#324A5E"/>
<path d="M25.0001 36.9291C26.6309 36.9291 27.9529 36.3651 27.9529 35.6693C27.9529 34.9735 26.6309 34.4095 25.0001 34.4095C23.3694 34.4095 22.0474 34.9735 22.0474 35.6693C22.0474 36.3651 23.3694 36.9291 25.0001 36.9291Z" fill="#2B3B4E"/>
</g>
<defs>
<clipPath id="clip0_48_2">
<rect width="50" height="50" fill="white"/>
</clipPath>
</defs>
</svg>
