<svg width="44" height="44" viewBox="0 0 44 44" fill="none" xmlns="http://www.w3.org/2000/svg">
<path d="M17.8566 3.06271L5.07366 10.9242C0.975447 13.4447 0.975447 19.0857 5.07366 21.6061L17.8566 29.4676C20.1499 30.8879 23.9296 30.8879 26.2229 29.4676L38.9423 21.6061C43.0192 19.0857 43.0192 13.4647 38.9423 10.9442L26.2229 3.08272C23.9296 1.64245 20.1499 1.64245 17.8566 3.06271Z" stroke="#616161" stroke-width="3" stroke-linecap="round" stroke-linejoin="round"/>
<path d="M8.47143 24.1665L8.4502 33.5483C8.4502 36.0888 10.5312 38.8093 13.0793 39.6094L19.853 41.7298C21.0209 42.0899 22.9532 42.0899 24.1423 41.7298L30.916 39.6094C33.4642 38.8093 35.5451 36.0888 35.5451 33.5483V24.2665" stroke="#616161" stroke-width="3" stroke-linecap="round" stroke-linejoin="round"/>
<path d="M41.9573 28.0074V16.0051" stroke="#616161" stroke-width="3" stroke-linecap="round" stroke-linejoin="round"/>
</svg>
