<svg width="34" height="34" viewBox="0 0 34 34" fill="none" xmlns="http://www.w3.org/2000/svg">
<path d="M13.8925 2.79704L4.30524 8.69315C1.23159 10.5835 1.23159 14.8142 4.30524 16.7046L13.8925 22.6007C15.6125 23.6659 18.4472 23.6659 20.1672 22.6007L29.7067 16.7046C32.7644 14.8142 32.7644 10.5985 29.7067 8.70815L20.1672 2.81204C18.4472 1.73183 15.6125 1.73183 13.8925 2.79704Z" stroke="#B5BF00" stroke-width="3" stroke-linecap="round" stroke-linejoin="round"/>
<path d="M6.85382 18.6249L6.83789 25.6612C6.83789 27.5666 8.39861 29.607 10.3097 30.2071L15.39 31.7974C16.2659 32.0674 17.7151 32.0674 18.607 31.7974L23.6873 30.2071C25.5984 29.607 27.1591 27.5666 27.1591 25.6612V18.6999" stroke="#B5BF00" stroke-width="3" stroke-linecap="round" stroke-linejoin="round"/>
<path d="M31.9678 21.5056V12.5039" stroke="#B5BF00" stroke-width="3" stroke-linecap="round" stroke-linejoin="round"/>
</svg>
