<svg width="27" height="27" viewBox="0 0 27 27" fill="none" xmlns="http://www.w3.org/2000/svg">
<path d="M15.497 8.6461H4.41232C4.10552 8.6461 3.85693 8.4031 3.85693 8.1032C3.85693 7.8033 4.10552 7.5603 4.41232 7.5603H15.497C15.8037 7.5603 16.0524 7.8033 16.0524 8.1032C16.0524 8.4031 15.8037 8.6461 15.497 8.6461Z" fill="#616161" stroke="#616161" stroke-width="0.579091"/>
<path d="M12.851 11.0795H4.41232C4.10552 11.0795 3.85693 10.8365 3.85693 10.5366C3.85693 10.2367 4.10552 9.99371 4.41232 9.99371H12.851C13.1577 9.99371 13.4064 10.2367 13.4064 10.5366C13.4064 10.8365 13.1576 11.0795 12.851 11.0795Z" fill="#616161" stroke="#616161" stroke-width="0.579091"/>
<path d="M7.20531 18.3797H4.41232C4.10552 18.3797 3.85693 18.1367 3.85693 17.8368C3.85693 17.5369 4.10552 17.2939 4.41232 17.2939H7.20531C7.51203 17.2939 7.7607 17.5369 7.7607 17.8368C7.7607 18.1366 7.51196 18.3797 7.20531 18.3797Z" fill="#616161" stroke="#616161" stroke-width="0.579091"/>
<path d="M5.99457 20.8131H4.41232C4.10552 20.8131 3.85693 20.5701 3.85693 20.2702C3.85693 19.9703 4.10552 19.7273 4.41232 19.7273H5.99457C6.30129 19.7273 6.54996 19.9703 6.54996 20.2702C6.54996 20.57 6.30129 20.8131 5.99457 20.8131Z" fill="#616161" stroke="#616161" stroke-width="0.579091"/>
<path d="M25.4015 3.51774L24.1346 2.59431C23.8156 2.3618 23.4233 2.26437 23.0295 2.32076C22.6359 2.37686 22.2881 2.5794 22.0503 2.89117C22.0502 2.89131 22.05 2.89153 22.05 2.89167L18.9094 7.05244V2.92034C18.9094 2.62044 18.6608 2.37744 18.354 2.37744H16.0525V1.5429C16.0525 1.243 15.8038 1 15.4971 1C15.1903 1 14.9417 1.243 14.9417 1.5429V2.37744H13.2812V1.5429C13.2812 1.243 13.0326 1 12.7258 1C12.4191 1 12.1704 1.243 12.1704 1.5429V2.37744H10.51V1.5429C10.51 1.243 10.2614 1 9.95465 1C9.64786 1 9.39927 1.243 9.39927 1.5429V2.37744H7.73896V1.5429C7.73896 1.243 7.4903 1 7.18358 1C6.87678 1 6.62819 1.243 6.62819 1.5429V2.37744H4.96782V1.5429C4.96782 1.243 4.71915 1 4.41243 1C4.10564 1 3.85705 1.243 3.85705 1.5429V2.37744H1.55538C1.24866 2.37744 1 2.62044 1 2.92034V25.4571C1 25.757 1.24866 26 1.55538 26H18.3541C18.6609 26 18.9095 25.757 18.9095 25.4571V14.6186L25.7049 5.55556C25.705 5.55542 25.7051 5.55535 25.7053 5.5552C26.196 4.91161 26.0598 3.99766 25.4015 3.51774ZM17.7986 24.9142H2.11077V3.46323H3.85705V4.29763C3.85705 4.59753 4.10564 4.84053 4.41243 4.84053C4.71915 4.84053 4.96782 4.59753 4.96782 4.29763V3.46323H6.62819V4.29763C6.62819 4.59753 6.87678 4.84053 7.18358 4.84053C7.4903 4.84053 7.73896 4.59753 7.73896 4.29763V3.46323H9.39934V4.29763C9.39934 4.59753 9.64793 4.84053 9.95473 4.84053C10.2615 4.84053 10.5101 4.59753 10.5101 4.29763V3.46323H12.1705V4.29763C12.1705 4.59753 12.4192 4.84053 12.7259 4.84053C13.0327 4.84053 13.2813 4.59753 13.2813 4.29763V3.46323H14.9418V4.29763C14.9418 4.59753 15.1904 4.84053 15.4972 4.84053C15.8039 4.84053 16.0526 4.59753 16.0526 4.29763V3.46323H17.7987V8.5423L14.9023 12.4271H4.41243C4.10564 12.4271 3.85705 12.6701 3.85705 12.97C3.85705 13.2699 4.10564 13.5129 4.41243 13.5129H14.0928C14.0928 13.5129 10.9351 17.7485 10.9345 17.7493C10.9345 17.7493 10.9346 17.7493 10.9348 17.7493C10.899 17.798 10.8704 17.853 10.8522 17.9138L9.58225 22.1606H4.41243C4.10564 22.1606 3.85705 22.4036 3.85705 22.7035C3.85705 23.0034 4.10564 23.2464 4.41243 23.2464C4.41243 23.2464 10.0044 23.246 10.0074 23.246L10.0072 23.2458C10.1089 23.2443 10.2104 23.2159 10.2998 23.1595L14.451 20.537C14.5081 20.501 14.5556 20.456 14.5941 20.4058C14.5954 20.404 17.7987 16.1084 17.7987 16.1084V24.9142H17.7986ZM11.694 18.9685L13.1768 20.0493L10.9501 21.4559L11.694 18.9685ZM14.0314 19.3179L12.1575 17.952L20.9169 6.20335L22.7908 7.56921L14.0314 19.3179ZM23.4499 6.69521L21.576 5.32935L22.174 4.54541L24.0479 5.91141L23.4499 6.69521ZM24.8147 4.90611C24.8145 4.90626 24.8144 4.90647 24.8143 4.90662L24.7118 5.0409L22.838 3.67489L22.9404 3.54069C22.9405 3.54054 22.9407 3.5404 22.9408 3.54025C23.0012 3.46099 23.0897 3.40945 23.1897 3.39519C23.2899 3.381 23.3894 3.40576 23.4704 3.46476L24.7374 4.38819C24.9048 4.51016 24.9395 4.74252 24.8147 4.90611Z" fill="#616161" stroke="#616161" stroke-width="0.579091"/>
</svg>
