<svg width="50" height="50" viewBox="0 0 50 50" fill="none" xmlns="http://www.w3.org/2000/svg">
<g clip-path="url(#clip0_48_2)">
<path d="M25 50C38.8071 50 50 38.8071 50 25C50 11.1929 38.8071 0 25 0C11.1929 0 0 11.1929 0 25C0 38.8071 11.1929 50 25 50Z" fill="#FAFAFA"/>
<g clip-path="url(#clip1_48_2)">
<path d="M25.4473 32.6389C29.9294 32.6389 33.5628 29.0055 33.5628 24.5234C33.5628 20.0414 29.9294 16.4079 25.4473 16.4079C20.9652 16.4079 17.3318 20.0414 17.3318 24.5234C17.3318 29.0055 20.9652 32.6389 25.4473 32.6389Z" fill="#FFB7B7"/>
<path d="M18.73 34.4562L20.4217 30.1329L29.1623 28.8171L30.1014 38.3872L21.2668 38.5752L18.73 34.4562Z" fill="#FFB7B7"/>
<path d="M33.6414 26.0208C33.5361 26.4428 33.3232 27.4475 32.9907 27.4524C32.719 27.4564 32.459 23.0976 32.7304 22.3767C33.0421 21.5484 32.223 20.5007 31.6059 19.9629C30.4965 18.9958 28.0338 21.0723 25.5297 20.1316C25.4633 20.1067 25.4765 20.1095 24.6858 19.7941C22.2525 18.8232 22.1246 18.7952 21.9852 18.7814C20.8057 18.6647 19.3661 19.6299 18.7783 20.8068C18.1673 22.0301 18.6778 23.0794 18.1032 26.0391C18.0362 26.3841 17.9311 26.8758 17.7656 26.883C17.4631 26.8962 17.1678 25.2807 17.0905 24.8576C16.7664 23.0849 16.454 21.3758 17.0905 19.4565C17.1599 19.2472 17.5878 18.4702 18.4407 16.9247C19.6695 14.6984 20.2876 13.581 20.4662 13.3803C21.747 11.9398 24.0785 10.6258 26.036 11.1861C27.0254 11.4692 26.848 11.9245 28.0615 12.3675C30.2239 13.1571 32.1033 12.1915 32.4498 12.8739C32.6335 13.2354 32.1197 13.5334 32.1123 14.2242C32.0995 15.4095 33.5986 15.752 34.4753 16.9247C34.9465 17.5552 35.7532 17.562 33.6414 26.0208Z" fill="#2F2E41"/>
<path d="M43.6956 41.5987C43.3685 41.9662 43.0293 42.3262 42.6778 42.6777C37.956 47.3994 31.6778 50 25.0001 50C19.2285 50 13.7558 48.0573 9.32813 44.4812C9.3253 44.4794 9.32342 44.4775 9.32062 44.4746C8.73322 44.001 8.1646 43.4972 7.61572 42.9653C7.62605 42.8826 7.63734 42.8008 7.64954 42.7199C7.72662 42.1748 7.81216 41.6551 7.908 41.1767C8.69279 37.2557 19.0189 33.1392 19.2877 33.032C19.2915 33.031 19.2934 33.0301 19.2934 33.0301C19.2934 33.0301 20.6223 37.9286 26.3168 37.8657C30.1956 37.8234 29.4437 33.0301 29.4437 33.0301C29.4437 33.0301 29.4907 33.0395 29.5791 33.0583C30.6994 33.2961 38.4776 35.0047 41.5462 37.3365C42.4813 38.047 43.1524 39.5602 43.6345 41.3647C43.6552 41.4418 43.6749 41.5207 43.6956 41.5987Z" fill="#B5BF00"/>
</g>
</g>
<defs>
<clipPath id="clip0_48_2">
<rect width="50" height="50" fill="white"/>
</clipPath>
<clipPath id="clip1_48_2">
<rect width="50" height="50" fill="white"/>
</clipPath>
</defs>
</svg>
