<svg width="50" height="50" viewBox="0 0 50 50" fill="none" xmlns="http://www.w3.org/2000/svg">
<g clip-path="url(#clip0_48_2)">
<path d="M25 50C38.8071 50 50 38.8071 50 25C50 11.1929 38.8071 0 25 0C11.1929 0 0 11.1929 0 25C0 38.8071 11.1929 50 25 50Z" fill="#FAFAFA"/>
<g clip-path="url(#clip1_48_2)">
<path d="M35.6382 35.625H23.1382V18.7077L33.9465 24.6288L35.6382 35.625Z" fill="#2F2E41"/>
<path d="M25.4473 32.6392C29.9294 32.6392 33.5628 29.0058 33.5628 24.5237C33.5628 20.0416 29.9294 16.4082 25.4473 16.4082C20.9652 16.4082 17.3318 20.0416 17.3318 24.5237C17.3318 29.0058 20.9652 32.6392 25.4473 32.6392Z" fill="#FFB7B7"/>
<path d="M20.7884 33.8393L20.4218 30.1331L27.7433 28.7641L32.0666 39.2904L24.5478 47.937L19.1907 37.4107L20.7884 33.8393Z" fill="#FFB6B6"/>
<path d="M42.955 42.3957C42.8638 42.4906 42.7708 42.5846 42.6777 42.6776C42.3826 42.9727 42.0819 43.2594 41.7745 43.5376C37.1693 47.7143 31.2604 50 25.0001 50C19.2285 50 13.7557 48.0573 9.3281 44.4812C9.32528 44.4793 9.3234 44.4774 9.32058 44.4746C9.18618 44.3665 9.05366 44.2566 8.92114 44.1447C8.94464 44.0771 8.97002 44.0103 8.99539 43.9445C10.4193 40.235 13.2313 38.4201 14.9381 37.6259C15.7839 37.2321 16.3582 37.0883 16.3582 37.0883L18.3619 33.4793L19.7726 36.1109L20.8121 38.0507L25.0772 46.0085L28.7567 36.8468L29.8967 34.0066L30.189 33.2791L31.579 34.3609L32.8948 35.3844L35.5443 35.969L37.6937 36.4436L40.6129 37.0883C41.7933 38.0498 42.5114 39.8788 42.9127 42.1513C42.9277 42.2321 42.9418 42.3139 42.955 42.3957Z" fill="#B5BF00"/>
<path d="M21.1785 15.301C22.1671 13.6405 23.9826 12.5012 25.9078 12.3333C27.833 12.1654 29.8184 12.9731 31.0795 14.4375C31.831 15.31 32.3238 16.3787 33.0563 17.2672C34.6326 19.1794 37.3206 20.2975 38.0092 22.678C38.3097 23.7168 38.16 24.8259 38.0079 25.8965C37.8776 26.8142 37.7473 27.7319 37.617 28.6496C37.5155 29.3637 37.4183 30.1166 37.6861 30.7864C38.0003 31.5722 38.7521 32.0868 39.2382 32.7796C40.0654 33.9583 40.0049 35.684 39.0973 36.802C38.7037 37.2868 38.1818 37.6524 37.7692 38.1211C37.3565 38.5898 37.0504 39.2307 37.2232 39.8308C37.5543 40.9803 39.3571 41.256 39.5548 42.4358C39.6559 43.039 39.2393 43.6414 38.6934 43.9173C38.1475 44.1931 37.5049 44.2011 36.8977 44.1273C34.5901 43.8468 32.4535 42.4049 31.3299 40.3698C30.2064 38.3347 30.1246 35.7584 31.1167 33.6561C31.9316 31.9295 33.4462 30.4037 33.4297 28.4945C33.4207 27.4544 32.9436 26.4829 32.4771 25.5533C31.5223 23.6505 30.5675 21.7477 29.6126 19.8449C29.1012 18.8256 28.5076 17.7272 27.4546 17.2894C26.6408 16.951 25.7175 17.0822 24.8471 17.2206C23.9767 17.359 23.0546 17.4938 22.2384 17.1612C21.4222 16.8287 20.8055 15.8408 21.1944 15.0499" fill="#2F2E41"/>
<path d="M22.6008 15.3878C21.0328 14.8716 19.274 15.7002 18.2125 16.9643C17.151 18.2284 16.6361 19.8502 16.1456 21.4263C15.8646 22.3291 15.5836 23.2319 15.3027 24.1347C15.0384 24.984 14.774 25.8333 14.5097 26.6825C14.1989 27.6815 13.8854 28.7427 14.1406 29.7573C14.325 30.4909 14.7996 31.1569 14.8099 31.9132C14.8205 32.7032 14.3258 33.3967 13.8922 34.0572C13.4587 34.7177 13.0517 35.5024 13.2582 36.265C13.5724 37.425 15.1851 38.0626 15.0967 39.261C15.0672 39.661 14.8359 40.031 14.8401 40.432C14.8455 40.9423 15.245 41.3832 15.713 41.5865C16.181 41.7897 16.7075 41.8008 17.2177 41.7918C18.7827 41.7643 20.3449 41.5784 21.8726 41.238C22.4604 41.107 23.0581 40.9464 23.5474 40.5953C24.0367 40.2442 24.4017 39.6626 24.338 39.0637C24.2388 38.1306 23.2354 37.6012 22.7291 36.8111C22.2318 36.035 22.2434 35.0517 22.0289 34.1553C21.7342 32.9233 21.0063 31.8477 20.4599 30.7049C18.4057 26.4083 19.1248 20.9317 22.2186 17.311C22.4921 16.9909 22.791 16.6688 22.9051 16.2635C23.0192 15.8582 22.8721 15.3418 22.4756 15.2" fill="#2F2E41"/>
</g>
</g>
<defs>
<clipPath id="clip0_48_2">
<rect width="50" height="50" fill="white"/>
</clipPath>
<clipPath id="clip1_48_2">
<rect width="50" height="50" fill="white"/>
</clipPath>
</defs>
</svg>
